# Made using Asset Forge (www.assetforge.io) version 1.3 

mtllib beam.mtl 

v 0.05 -1.192093E-07 0.5000001
v 0.03535534 -0.03535545 0.5000001
v 0.03535534 0.03535521 0.5000001
v 1.082867E-16 0.04999989 0.5000001
v 7.219114E-17 -0.05000007 0.5000001
v -0.03535534 0.03535521 0.5000001
v -0.03535534 -0.03535545 0.5000001
v -0.05 -1.192093E-07 0.5000001
v 0.03535534 0.03535534 -0.5
v 0.05 -3.609557E-17 -0.5
v -0.03535534 0.03535534 -0.5
v 1.082867E-16 0.05000001 -0.5
v 0.03535534 -0.03535534 -0.5
v -0.05 -3.609557E-17 -0.5
v -0.03535534 -0.03535534 -0.5
v 7.219114E-17 -0.05000001 -0.5
vn 0 -1.192093E-07 1
vn 0.09238795 0.03826834 3.72529E-09
vn -0.03826834 0.09238796 7.450581E-09
vn 0.09238795 -0.03826834 -3.72529E-09
vn -0.09238795 0.03826834 3.72529E-09
vn -0.09238795 -0.03826834 -3.72529E-09
vn 0.03826834 -0.09238796 -7.450581E-09
vn 0.03826834 0.09238796 7.450581E-09
vn 0 1.192093E-07 -1
vn -0.03826834 -0.09238796 -7.450581E-09
vt 0.05 -1.192093E-07
vt 0.03535534 -0.03535546
vt 0.03535534 0.03535523
vt 1.082867E-16 0.04999989
vt 7.219114E-17 -0.05000013
vt -0.03535534 0.03535523
vt -0.03535534 -0.03535546
vt -0.05 -1.192093E-07
vt -0.5000001 0.03535523
vt 0.5 0.03535534
vt -0.5000001 -1.192093E-07
vt 0.5 -3.609558E-17
vt 0.03535534 -0.5
vt -1.082867E-16 -0.5
vt 0.03535534 0.5000001
vt -1.082867E-16 0.5000001
vt -0.5000001 -0.03535546
vt 0.5 -0.03535534
vt -0.5 0.03535534
vt 0.5000001 0.03535523
vt -0.5 -3.609558E-17
vt 0.5000001 -1.192093E-07
vt -0.5 -0.03535534
vt 0.5000001 -0.03535546
vt -0.03535534 0.5
vt -7.219114E-17 0.5
vt -0.03535534 -0.5000001
vt -7.219114E-17 -0.5000001
vt -0.03535534 -0.5
vt -0.03535534 0.5000001
vt -0.05 -3.609558E-17
vt -0.03535534 0.03535534
vt -0.03535534 -0.03535534
vt -7.219114E-17 -0.05000001
vt -1.082867E-16 0.05000001
vt 0.03535534 0.03535534
vt 0.03535534 -0.03535534
vt 0.05 -3.609558E-17
vt 0.03535534 0.5
vt 0.03535534 -0.5000001

usemtl _defaultMat (Instance)
usemap _defaultMat (Instance)
f 3/3/1 2/2/1 1/1/1
f 2/2/1 3/3/1 4/4/1
f 2/2/1 4/4/1 5/5/1
f 5/5/1 4/4/1 6/6/1
f 5/5/1 6/6/1 7/7/1
f 7/7/1 6/6/1 8/8/1
f 1/11/2 9/10/2 3/9/2
f 9/10/2 1/11/2 10/12/2
f 6/15/3 12/14/3 11/13/3
f 12/14/3 6/15/3 4/16/3
f 2/17/4 10/12/4 1/11/4
f 10/12/4 2/17/4 13/18/4
f 14/21/5 6/20/5 11/19/5
f 6/20/5 14/21/5 8/22/5
f 15/23/6 8/22/6 14/21/6
f 8/22/6 15/23/6 7/24/6
f 2/27/7 16/26/7 13/25/7
f 16/26/7 2/27/7 5/28/7
f 4/16/8 9/29/8 12/14/8
f 9/29/8 4/16/8 3/30/8
f 13/33/9 9/32/9 10/31/9
f 9/32/9 13/33/9 16/34/9
f 9/32/9 16/34/9 12/35/9
f 12/35/9 16/34/9 11/36/9
f 11/36/9 16/34/9 15/37/9
f 11/36/9 15/37/9 14/38/9
f 5/28/10 15/39/10 16/26/10
f 15/39/10 5/28/10 7/40/10
