# Made using Asset Forge (www.assetforge.io) version 1.3 

mtllib bullet.mtl 

v -0.08599998 0.09999999 0.472
v -0.08599998 0.09999999 0.3235
v 0.08600003 0.09999999 0.472
v 0.08600003 0.09999999 0.3235
v -0.08599998 -0.06600001 0.3235
v -0.08599998 -0.06600001 0.472
v 0.08600003 -0.06600001 0.3235
v 0.08600003 -0.06600001 0.472
v 0.06015892 -0.04015893 0.472
v 0.06015892 0.07415891 0.472
v -0.06015888 0.07415891 0.472
v -0.06015888 -0.04015893 0.472
v -0.03609532 -0.01729533 0.433
v 0.03609535 -0.01729533 0.433
v -0.03609532 0.05129531 0.433
v 0.03609535 0.05129531 0.433
v -0.08599998 -0.06600001 0.175
v 0.08600003 -0.06600001 0.175
v -0.05073998 -0.03196999 0.02800006
v 0.05074002 -0.03196999 0.02800006
v 0.08600003 0.09999999 0.175
v -0.08599998 0.09999999 0.175
v -0.05073998 0.06596997 0.02800006
v 0.05074002 0.06596997 0.02800006
vn 0 0.4 0
vn 0 -0.4 0
vn 0 0 0.3
vn 0 0.3661686 0.1207489
vn 0.3630148 0 0.1259917
vn 0.3630148 0 0.1259918
vn -0.3630148 0 0.1259917
vn -0.3630148 0 0.1259918
vn 0.4 0 0
vn 0 -0.3661686 0.1207489
vn -0.4 0 0
vn 0 -0.3985233 -0.02575457
vn 0 -0.394104 -0.05131897
vn 0.3992978 0 -0.01776806
vn 0.3971838 0 -0.03553614
vn 0 0.3993449 -0.01716264
vn 0 0.394104 -0.051319
vn 0 0.3973731 -0.03432528
vn 0 0.394104 -0.05131899
vn 0.3936803 0 -0.05311672
vn -0.3992978 0 -0.01776806
vn -0.3971838 0 -0.03553614
vn -0.3936803 0 -0.05311672
vn 0 0 -0.3
vt 0.08599998 0.472
vt 0.08599998 0.3235
vt -0.08600002 0.472
vt -0.08600002 0.3235
vt 0.08599998 -0.3235
vt 0.08599998 -0.472
vt -0.08600002 -0.3235
vt -0.08600002 -0.472
vt -0.08599998 -0.06600001
vt 0.06015892 -0.04015892
vt 0.08600002 -0.06600001
vt 0.08600002 0.09999999
vt 0.06015892 0.0741589
vt -0.06015888 0.0741589
vt -0.08599998 0.09999999
vt -0.06015888 -0.04015892
vt 0.06015888 0.472
vt 0.03609532 0.433
vt -0.06015892 0.472
vt -0.03609535 0.433
vt -0.472 -0.04015892
vt -0.472 0.0741589
vt -0.433 -0.01729534
vt -0.433 0.05129532
vt 0.472 0.0741589
vt 0.472 -0.04015892
vt 0.433 0.05129532
vt 0.433 -0.01729534
vt -0.472 -0.06600001
vt -0.472 0.09999999
vt -0.3235 -0.06600001
vt -0.3235 0.09999999
vt 0.06015888 -0.472
vt -0.06015892 -0.472
vt 0.03609532 -0.433
vt -0.03609535 -0.433
vt 0.472 0.09999999
vt 0.472 -0.06600001
vt 0.3235 0.09999999
vt 0.3235 -0.06600001
vt 0.08599998 -0.175
vt -0.08600002 -0.175
vt 0.05073998 -0.02800006
vt -0.05074002 -0.02800006
vt -0.175 -0.06600001
vt -0.175 0.09999999
vt 0.08599998 0.175
vt 0.05073998 0.02800006
vt -0.08600002 0.175
vt -0.05074002 0.02800006
vt -0.02800006 -0.03197001
vt -0.02800006 0.06596999
vt 0.175 0.09999999
vt 0.175 -0.06600001
vt 0.02800006 0.06596999
vt 0.02800006 -0.03197001
vt 0.05073998 -0.03197001
vt -0.05074002 -0.03197001
vt 0.05073998 0.06596999
vt -0.05074002 0.06596999
vt 0.03609535 -0.01729534
vt -0.03609532 -0.01729534
vt 0.03609535 0.05129532
vt -0.03609532 0.05129532

usemtl _defaultMat (Instance)
usemap _defaultMat (Instance)
f 3/3/1 2/2/1 1/1/1
f 2/2/1 3/3/1 4/4/1
f 7/7/2 6/6/2 5/5/2
f 6/6/2 7/7/2 8/8/2
f 8/11/3 9/10/3 6/9/3
f 9/10/3 8/11/3 3/12/3
f 9/10/3 3/12/3 10/13/3
f 10/13/3 3/12/3 11/14/3
f 6/9/3 12/16/3 1/15/3
f 12/16/3 6/9/3 9/10/3
f 1/15/3 12/16/3 11/14/3
f 1/15/3 11/14/3 3/12/3
f 9/19/4 13/18/4 12/17/4
f 13/18/4 9/19/4 14/20/4
f 13/23/5 11/22/5 12/21/5
f 11/22/5 13/23/5 15/24/6
f 16/27/7 9/26/7 10/25/7
f 9/26/7 16/27/7 14/28/8
f 7/31/9 3/30/9 8/29/9
f 3/30/9 7/31/9 4/32/9
f 15/35/10 10/34/10 11/33/10
f 10/34/10 15/35/10 16/36/10
f 2/39/11 6/38/11 1/37/11
f 6/38/11 2/39/11 5/40/11

usemtl blueSteel (Instance)
usemap blueSteel (Instance)
f 19/43/13 18/42/12 17/41/12
f 18/42/12 19/43/13 20/44/13
f 18/45/14 4/32/9 7/31/9
f 4/32/9 18/45/14 21/46/15
f 21/49/18 23/48/17 22/47/16
f 23/48/17 21/49/18 24/50/19
f 20/51/20 21/46/15 18/45/14
f 21/46/15 20/51/20 24/52/20
f 18/42/12 5/5/2 17/41/12
f 5/5/2 18/42/12 7/7/2
f 4/4/1 22/47/16 2/2/1
f 22/47/16 4/4/1 21/49/18
f 23/55/23 17/54/22 22/53/21
f 17/54/22 23/55/23 19/56/23
f 22/53/21 5/40/11 2/39/11
f 5/40/11 22/53/21 17/54/22
f 23/59/24 20/58/24 19/57/24
f 20/58/24 23/59/24 24/60/24

usemtl black (Instance)
usemap black (Instance)
f 16/63/3 13/62/3 14/61/3
f 13/62/3 16/63/3 15/64/3
