# Made using Asset Forge (www.assetforge.io) version 1.3 

mtllib deadTreeTile1.mtl 

v 0.5 -0.1 0.5
v 0.5 -0.1 -0.5
v -0.5 -0.1 0.5
v -0.5 -0.1 -0.5
v -0.5 0 -0.5
v -0.5 0 0.5
v 0.5 0 -0.5
v 0.5 0 0.5
vn 0 -0.1 0
vn -1 0 0
vn 0 0 -1
vn 0 0 1
vn 1 0 0
vn 0 0.1 0
vt -0.5 -0.5
vt -0.5 0.5
vt 0.5 -0.5
vt 0.5 0.5
vt -0.5 -0.1
vt -0.5 0
vt 0.5 -0.1
vt 0.5 0

usemtl _defaultMat (Instance)
usemap _defaultMat (Instance)
f 3/3/1 2/2/1 1/1/1
f 2/2/1 3/3/1 4/4/1
f 3/7/2 5/6/2 4/5/2
f 5/6/2 3/7/2 6/8/2
f 5/8/3 2/5/3 4/7/3
f 2/5/3 5/8/3 7/6/3
f 8/8/4 3/5/4 1/7/4
f 3/5/4 8/8/4 6/6/4
f 8/6/5 2/7/5 7/8/5
f 2/7/5 8/6/5 1/5/5
f 5/3/6 8/2/6 7/1/6
f 8/2/6 5/3/6 6/4/6
v -0.1133975 0.3 -0.25
v -0.1133975 0 -0.25
v -0.1034074 0.3 -0.2258819
v -0.1034074 0 -0.2258819
v -0.1 0.3 -0.2
v -0.1 0 -0.2
v -0.1034074 0.3 -0.1741181
v -0.1034074 0 -0.1741181
v -0.1133975 0.3 -0.15
v -0.1133975 0 -0.15
v -0.1292893 0 -0.2707107
v -0.1292893 0.3 -0.2707107
v -0.1292893 0.3 -0.1292893
v -0.1292893 0 -0.1292893
v -0.15 0 -0.1133975
v -0.15 0.3 -0.1133975
v -0.1741181 0 -0.1034074
v -0.1741181 0.3 -0.1034074
v -0.2 0 -0.1
v -0.2 0.3 -0.1
v -0.2258819 0 -0.1034074
v -0.2258819 0.3 -0.1034074
v -0.15 0.3 -0.2866026
v -0.15 0 -0.2866026
v -0.1741181 0.3 -0.2965926
v -0.1741181 0 -0.2965926
v -0.2 0.3 -0.3
v -0.2 0 -0.3
v -0.2258819 0.3 -0.2965926
v -0.2258819 0 -0.2965926
v -0.25 0 -0.1133975
v -0.25 0.3 -0.1133975
v -0.2707107 0 -0.1292893
v -0.2707107 0.3 -0.1292893
v -0.2866026 0.3 -0.15
v -0.2866026 0 -0.15
v -0.2965926 0.3 -0.1741181
v -0.2965926 0 -0.1741181
v -0.3 0.3 -0.2
v -0.3 0 -0.2
v -0.2965926 0.3 -0.2258819
v -0.2965926 0 -0.2258819
v -0.2866026 0.3 -0.25
v -0.2866026 0 -0.25
v -0.2707107 0.3 -0.2707107
v -0.2707107 0 -0.2707107
v -0.25 0 -0.2866026
v -0.25 0.3 -0.2866026
vn 0.1686544 0 -0.1074975
vn 0.1774227 0 -0.09231018
vn 0.19073 0 -0.06018364
vn 0.1952689 0 -0.04324441
vn 0.1998077 0 -0.008768396
vn 0.1998077 0 0.008768396
vn 0.1952689 0 0.04324441
vn 0.19073 0 0.06018364
vn 0.1774227 0 0.09231018
vn 0.1686544 0 0.1074975
vn 0.1414214 0 -0.1414214
vn 0.1414214 0 0.1414214
vn 0.1074975 0 0.1686544
vn 0.09231018 0 0.1774227
vn 0.06018364 0 0.19073
vn 0.04324441 0 0.1952689
vn 0.008768396 0 0.1998077
vn -0.008768396 0 0.1998077
vn -0.04324441 0 0.1952689
vn -0.06018364 0 0.19073
vn 0.1074975 0 -0.1686544
vn 0.09231018 0 -0.1774227
vn 0.06018364 0 -0.19073
vn 0.04324441 0 -0.1952689
vn 0.008768396 0 -0.1998077
vn -0.008768396 0 -0.1998077
vn -0.04324441 0 -0.1952689
vn -0.06018364 0 -0.19073
vn -0.09231018 0 0.1774227
vn -0.1074975 0 0.1686544
vn -0.1414214 0 0.1414214
vn -0.1686544 0 0.1074975
vn -0.1774227 0 0.09231018
vn -0.19073 0 0.06018364
vn -0.1952689 0 0.04324441
vn -0.1998077 0 0.008768396
vn -0.1998077 0 -0.008768396
vn -0.1952689 0 -0.04324441
vn -0.19073 0 -0.06018364
vn -0.1774227 0 -0.09231018
vn -0.1686544 0 -0.1074975
vn -0.1414214 0 -0.1414214
vn -0.1074975 0 -0.1686544
vn -0.09231018 0 -0.1774227
vn 0 -0.3 0
vn 0 0.3 0
vt 0.25 0.3
vt 0.25 0
vt 0.2258819 0.3
vt 0.2258819 0
vt 0.2 0.3
vt 0.2 0
vt 0.1741181 0.3
vt 0.1741181 0
vt 0.15 0.3
vt 0.15 0
vt 0.2707107 0
vt 0.2707107 0.3
vt 0.1292893 0.3
vt 0.1292893 0
vt -0.1292893 0
vt -0.15 0
vt -0.1292893 0.3
vt -0.15 0.3
vt -0.1741181 0
vt -0.1741181 0.3
vt -0.2 0
vt -0.2 0.3
vt -0.2258819 0
vt -0.2258819 0.3
vt -0.25 0
vt -0.25 0.3
vt -0.2707107 0
vt -0.2707107 0.3
vt 0.1 0.2
vt 0.1034074 0.2258819
vt 0.1034074 0.1741181
vt 0.1133975 0.25
vt 0.1133975 0.15
vt 0.1292893 0.2707107
vt 0.1292893 0.1292893
vt 0.15 0.2866026
vt 0.15 0.1133975
vt 0.1741181 0.2965926
vt 0.1741181 0.1034074
vt 0.2 0.1
vt 0.2258819 0.1034074
vt 0.2258819 0.2965926
vt 0.25 0.2866026
vt 0.25 0.1133975
vt 0.2707107 0.2707107
vt 0.2707107 0.1292893
vt 0.2866026 0.25
vt 0.2866026 0.15
vt 0.2965926 0.2258819
vt 0.2965926 0.1741181
vt 0.3 0.2
vt 0.1 -0.2
vt 0.1034074 -0.1741181
vt 0.1034074 -0.2258819
vt 0.1133975 -0.25
vt 0.1133975 -0.15
vt 0.1292893 -0.2707107
vt 0.1292893 -0.1292893
vt 0.15 -0.2866026
vt 0.15 -0.1133975
vt 0.1741181 -0.2965926
vt 0.1741181 -0.1034074
vt 0.2 -0.3
vt 0.2 -0.1
vt 0.2258819 -0.2965926
vt 0.2258819 -0.1034074
vt 0.25 -0.2866026
vt 0.25 -0.1133975
vt 0.2707107 -0.2707107
vt 0.2707107 -0.1292893
vt 0.2866026 -0.25
vt 0.2866026 -0.15
vt 0.2965926 -0.2258819
vt 0.2965926 -0.1741181
vt 0.3 -0.2

usemtl customMaterial1 (Instance)
usemap customMaterial1 (Instance)
f 11/11/9 10/10/8 9/9/7
f 10/10/8 11/11/9 12/12/10
f 13/13/11 12/12/10 11/11/9
f 12/12/10 13/13/11 14/14/12
f 15/15/13 14/14/12 13/13/11
f 14/14/12 15/15/13 16/16/14
f 17/17/15 16/16/14 15/15/13
f 16/16/14 17/17/15 18/18/16
f 19/19/17 9/9/7 10/10/8
f 9/9/7 19/19/17 20/20/17
f 21/21/18 18/18/16 17/17/15
f 18/18/16 21/21/18 22/22/18
f 21/25/18 23/24/19 22/23/18
f 23/24/19 21/25/18 24/26/20
f 24/26/20 25/27/21 23/24/19
f 25/27/21 24/26/20 26/28/22
f 26/28/22 27/29/23 25/27/21
f 27/29/23 26/28/22 28/30/24
f 28/30/24 29/31/25 27/29/23
f 29/31/25 28/30/24 30/32/26
f 19/22/17 31/17/27 20/21/17
f 31/17/27 19/22/17 32/18/28
f 32/18/28 33/15/29 31/17/27
f 33/15/29 32/18/28 34/16/30
f 34/16/30 35/13/31 33/15/29
f 35/13/31 34/16/30 36/14/32
f 36/14/32 37/11/33 35/13/31
f 37/11/33 36/14/32 38/12/34
f 30/32/26 39/33/35 29/31/25
f 39/33/35 30/32/26 40/34/36
f 40/34/36 41/35/37 39/33/35
f 41/35/37 40/34/36 42/36/37
f 43/26/38 41/23/37 42/25/37
f 41/23/37 43/26/38 44/24/39
f 45/28/40 44/24/39 43/26/38
f 44/24/39 45/28/40 46/27/41
f 47/30/42 46/27/41 45/28/40
f 46/27/41 47/30/42 48/29/43
f 49/32/44 48/29/43 47/30/42
f 48/29/43 49/32/44 50/31/45
f 51/34/46 50/31/45 49/32/44
f 50/31/45 51/34/46 52/33/47
f 53/36/48 52/33/47 51/34/46
f 52/33/47 53/36/48 54/35/48
f 53/20/48 55/10/49 54/19/48
f 55/10/49 53/20/48 56/9/50
f 56/9/50 38/12/34 55/10/49
f 38/12/34 56/9/50 37/11/33
f 16/39/51 12/38/51 14/37/51
f 12/38/51 16/39/51 10/40/51
f 10/40/51 16/39/51 18/41/51
f 10/40/51 18/41/51 19/42/51
f 19/42/51 18/41/51 22/43/51
f 19/42/51 22/43/51 32/44/51
f 32/44/51 22/43/51 23/45/51
f 32/44/51 23/45/51 34/46/51
f 34/46/51 23/45/51 25/47/51
f 34/46/51 25/47/51 27/48/51
f 34/46/51 27/48/51 36/13/51
f 36/13/51 27/48/51 29/49/51
f 36/13/51 29/49/51 38/50/51
f 38/50/51 29/49/51 55/51/51
f 55/51/51 29/49/51 39/52/51
f 55/51/51 39/52/51 54/53/51
f 54/53/51 39/52/51 41/54/51
f 54/53/51 41/54/51 52/55/51
f 52/55/51 41/54/51 44/56/51
f 52/55/51 44/56/51 50/57/51
f 50/57/51 44/56/51 46/58/51
f 50/57/51 46/58/51 48/59/51
f 11/62/52 15/61/52 13/60/52
f 15/61/52 11/62/52 9/63/52
f 15/61/52 9/63/52 17/64/52
f 17/64/52 9/63/52 20/65/52
f 17/64/52 20/65/52 21/66/52
f 21/66/52 20/65/52 31/67/52
f 21/66/52 31/67/52 24/68/52
f 24/68/52 31/67/52 33/69/52
f 24/68/52 33/69/52 26/70/52
f 26/70/52 33/69/52 35/71/52
f 26/70/52 35/71/52 28/72/52
f 28/72/52 35/71/52 37/73/52
f 28/72/52 37/73/52 30/74/52
f 30/74/52 37/73/52 56/75/52
f 30/74/52 56/75/52 40/76/52
f 40/76/52 56/75/52 53/77/52
f 40/76/52 53/77/52 42/78/52
f 42/78/52 53/77/52 51/79/52
f 42/78/52 51/79/52 43/80/52
f 43/80/52 51/79/52 49/81/52
f 43/80/52 49/81/52 45/82/52
f 45/82/52 49/81/52 47/83/52
v 0 0.15 -0.25
v 0 0.25 -0.25
v -0.3 0.15 -0.25
v -0.3 0.25 -0.25
v -0.15 0.2 -0.15
vn 0 1.490116E-08 -0.1
vn -0.2683282 -3.72529E-09 0.04472136
vn 0 -0.08944273 0.04472136
vn 0 0.08944273 0.04472137
vn 0.2683282 -3.72529E-09 0.04472136
vt 0 0.15
vt 0 0.25
vt 0.3 0.15
vt 0.3 0.25
vt -0.3 0.25
vt -0.15 0.2
vt -0.3 0.15
vt 0.15 0.15
vt 0.3 -0.25
vt 0 -0.25
vt 0.15 -0.15

usemtl customMaterial1 (Instance)
usemap customMaterial1 (Instance)
f 59/86/53 58/85/53 57/84/53
f 58/85/53 59/86/53 60/87/53
f 59/90/54 61/89/54 60/88/54
f 61/91/55 59/87/55 57/85/55
f 61/94/56 58/93/56 60/92/56
f 57/84/57 58/85/57 61/89/57
v -0.25 -0.05 -0.15
v -0.15 -0.05 -0.15
v -0.25 0.25 -0.15
v -0.15 0.25 -0.15
v -0.2 0.1 -0.05
vn 0 0 -0.1
vn 0 0.2683282 0.04472136
vn -0.08944272 0 0.04472136
vn 0.08944272 0 0.04472136
vn 0 -0.2683282 0.04472136
vt 0.25 -0.05
vt 0.15 -0.05
vt 0.25 0.25
vt 0.15 0.25
vt -0.15 0.25
vt -0.2 0.1
vt -0.25 0.25
vt -0.15 -0.05
vt -0.05 0.1
vt 0.05 0.1
vt -0.25 -0.05

usemtl customMaterial1 (Instance)
usemap customMaterial1 (Instance)
f 64/97/58 63/96/58 62/95/58
f 63/96/58 64/97/58 65/98/58
f 64/101/59 66/100/59 65/99/59
f 66/103/60 64/99/60 62/102/60
f 66/104/61 63/96/61 65/98/61
f 62/105/62 63/102/62 66/100/62
v -0.25 0.2 -0.238
v -0.25 0.1762 -0.219
v -0.25 0.2238 -0.219
v -0.25 0.2476 -0.2
v -0.25 0.1524 -0.2
v -0.25 0.2238 -0.181
v -0.25 0.1762 -0.181
v -0.25 0.2 -0.162
v -0.4 0.2238 -0.181
v -0.4 0.2 -0.162
v -0.45 0.2 -0.2
v -0.4 0.2 -0.238
v -0.4 0.2238 -0.219
v -0.4 0.1762 -0.219
v -0.4 0.1762 -0.181
v -0.4 0.1524 -0.2
v -0.4 0.2476 -0.2
vn 0.2 0 0
vn -0.02611972 0.4431966 0.08882594
vn -0.02174528 0.4443751 0.08906212
vn -0.06445765 0.4231727 0.0848127
vn 0 0.4470252 0.08959326
vn -0.02174528 0.4443751 -0.08906212
vn -0.02611972 0.4431966 -0.08882594
vn -0.06445765 0.4231727 -0.0848127
vn 0 0.4470252 -0.08959326
vn -0.02611972 -0.4431966 -0.08882594
vn -0.03266755 -0.4410218 -0.08839002
vn -0.06445765 -0.4231727 -0.0848127
vn 0 -0.4470252 -0.08959326
vn -0.03266755 -0.4410218 0.08839005
vn -0.02611972 -0.4431966 0.08882594
vn -0.06445765 -0.4231727 0.0848127
vn 0 -0.4470252 0.08959326
vn -0.02174528 -0.4443751 -0.08906212
vn -0.02174528 -0.4443751 0.08906212
vn -0.03266755 0.4410218 0.08839002
vn -0.03266755 0.4410218 -0.08839005
vt 0.238 0.2
vt 0.219 0.1762
vt 0.219 0.2238
vt 0.2 0.2476
vt 0.2 0.1524
vt 0.181 0.2238
vt 0.181 0.1762
vt 0.162 0.2
vt -0.4 0.2238
vt -0.4 0.2
vt -0.45 0.2
vt -0.25 0.2
vt -0.25 0.2238
vt 0.4 0.2
vt 0.4 0.2238
vt 0.45 0.2
vt 0.25 0.2
vt 0.25 0.2238
vt 0.4 0.1762
vt 0.25 0.1762
vt -0.4 0.1762
vt -0.25 0.1762
vt 0.4 0.1524
vt 0.25 0.1524
vt -0.25 0.1524
vt -0.4 0.1524
vt -0.25 0.2476
vt -0.4 0.2476
vt 0.4 0.2476
vt 0.25 0.2476

usemtl customMaterial1 (Instance)
usemap customMaterial1 (Instance)
f 69/108/63 68/107/63 67/106/63
f 68/107/63 69/108/63 70/109/63
f 68/107/63 70/109/63 71/110/63
f 71/110/63 70/109/63 72/111/63
f 71/110/63 72/111/63 73/112/63
f 73/112/63 72/111/63 74/113/63
f 77/116/66 76/115/65 75/114/64
f 72/118/67 76/115/65 74/117/67
f 76/115/65 72/118/67 75/114/64
f 77/121/70 79/120/69 78/119/68
f 78/119/68 69/123/71 67/122/71
f 69/123/71 78/119/68 79/120/69
f 77/121/74 78/119/73 80/124/72
f 80/124/72 67/122/75 68/125/75
f 67/122/75 80/124/72 78/119/73
f 77/116/78 81/126/77 76/115/76
f 74/117/79 81/126/77 73/127/79
f 81/126/77 74/117/79 76/115/76

usemtl customMaterial1 (Instance)
usemap customMaterial1 (Instance)
f 77/121/74 80/124/72 82/128/80
f 82/128/80 68/125/75 71/129/75
f 68/125/75 82/128/80 80/124/72
f 73/127/79 82/131/81 71/130/79
f 82/131/81 73/127/79 81/126/77
f 77/116/78 82/131/81 81/126/77
f 70/132/67 75/114/64 72/118/67
f 75/114/64 70/132/67 83/133/82
f 77/116/66 75/114/64 83/133/82
f 77/121/70 83/134/83 79/120/69
f 79/120/69 70/135/71 69/123/71
f 70/135/71 79/120/69 83/134/83
