# Made using Asset Forge (www.assetforge.io) version 1.3 

mtllib enemyRangeRadiusUnitTop.mtl 

v 0.04999999 0.7919999 0.5
v 0.04999999 0.7919999 0.05
v 0.05000002 1.008 0.5
v 0.05000002 1.008 0.05
v 0.2725 0.83652 0.05
v 0.1175 0.7919999 0.05
v 0.2725 0.83652 0.5
v 0.1175 0.7919999 0.5
v 0.1175 1.008 0.05
v 0.2725001 0.9634799 0.05
v 0.1175 1.008 0.5
v 0.2725001 0.9634799 0.5
v 0.04999999 0.7919999 -0.4
v 0.08560291 0.9652765 -0.4
v 0.05000002 1.008 -0.4
v 0.1175 1.008 -0.4
v 0.1132985 0.9652765 -0.4
v 0.2368971 0.9297758 -0.4
v 0.2725001 0.9634799 -0.4
v 0.2368971 0.8702241 -0.4
v 0.08560289 0.8347235 -0.4
v 0.1175 0.7919999 -0.4
v 0.1132985 0.8347234 -0.4
v 0.2725 0.83652 -0.4
v 0.1132985 0.8347234 -0.283
v 0.2368971 0.8702241 -0.283
v 0.2368971 0.9297758 -0.283
v 0.1132985 0.9652765 -0.283
vn -0.5000001 5.960464E-08 0
vn 0.1163898 -0.5835177 0
vn 0.05859868 -0.5958652 0
vn 0.03903558 -0.5981688 0
vn -5.960464E-08 -0.6000001 0
vn 0.0585988 0.5958652 0
vn 0.1163899 0.5835177 0
vn 0.07807133 0.5926408 0
vn 5.960464E-08 0.6000001 0
vn 0 0 -0.9
vn 0.5000001 -5.960464E-08 0
vn 0 0 0.9
vn 0.0390357 0.5981688 0
vn 0.07807121 -0.5926408 0
vn -0.05859868 0.5958652 0
vn -0.1163898 0.5835177 0
vn -0.07807121 0.5926408 0
vn -0.1163899 -0.5835177 0
vn -0.07807133 -0.5926408 0
vn -0.0585988 -0.5958652 0
vn 0.4599856 -5.960464E-08 -0.3527878
vt 0.5 0.7919999
vt 0.05 0.7919999
vt 0.5 1.008
vt 0.05 1.008
vt -0.2725 -0.05
vt -0.1175 -0.05
vt -0.2725 -0.5
vt -0.1175 -0.5
vt -0.04999999 -0.05
vt -0.04999999 -0.5
vt -0.1175 0.05
vt -0.2725 0.05
vt -0.1175 0.5
vt -0.2725 0.5
vt -0.05000001 0.5
vt -0.05000001 0.05
vt -0.04999999 0.7919999
vt -0.08560291 0.9652765
vt -0.05000001 1.008
vt -0.1175 1.008
vt -0.1132985 0.9652765
vt -0.2368971 0.9297758
vt -0.2725 0.9634799
vt -0.2368971 0.8702241
vt -0.08560289 0.8347234
vt -0.1175 0.7919999
vt -0.1132985 0.8347234
vt -0.2725 0.83652
vt -0.05 0.83652
vt -0.5 0.83652
vt -0.05 0.9634799
vt -0.5 0.9634799
vt 0.04999999 0.7919999
vt 0.05000001 1.008
vt 0.1175 0.7919999
vt 0.1175 1.008
vt 0.2725 0.83652
vt 0.2725 0.9634799
vt -0.05000001 -0.4
vt -0.1175 -0.4
vt -0.2725 -0.4
vt 0.4 0.83652
vt 0.4 0.9634799
vt -0.2725 0.4
vt -0.1175 0.4
vt -0.04999999 0.4
vt -0.4 0.7919999
vt -0.4 1.008
vt -0.1132985 -0.4
vt -0.2368971 -0.4
vt -0.1132985 -0.283
vt -0.2368971 -0.283
vt -0.2368971 0.4
vt -0.1132985 0.4
vt -0.2368971 0.283
vt -0.1132985 0.283
vt -0.283 0.8702241
vt -0.4 0.8702241
vt -0.283 0.9297758
vt -0.4 0.9297758
vt -0.08560289 -0.4
vt -0.08560291 0.4
vt 0.4 0.8347234
vt 0.283 0.8347234
vt 0.4 0.9652765
vt 0.283 0.9652765

usemtl _defaultMat (Instance) (Instance)
usemap _defaultMat (Instance) (Instance)
f 3/3/1 2/2/1 1/1/1
f 2/2/1 3/3/1 4/4/1
f 7/7/2 6/6/3 5/5/2
f 6/6/3 7/7/2 8/8/4
f 8/8/4 2/9/5 6/6/3
f 2/9/5 8/8/4 1/10/5
f 11/13/8 10/12/7 9/11/6
f 10/12/7 11/13/8 12/14/7
f 9/11/6 3/15/9 11/13/8
f 3/15/9 9/11/6 4/16/9
f 15/19/10 14/18/10 13/17/10
f 14/18/10 15/19/10 16/20/10
f 14/18/10 16/20/10 17/21/10
f 17/21/10 16/20/10 18/22/10
f 18/22/10 16/20/10 19/23/10
f 18/22/10 19/23/10 20/24/10
f 21/25/10 13/17/10 14/18/10
f 13/17/10 21/25/10 22/26/10
f 22/26/10 21/25/10 23/27/10
f 22/26/10 23/27/10 20/24/10
f 22/26/10 20/24/10 24/28/10
f 24/28/10 20/24/10 19/23/10
f 10/31/11 7/30/11 5/29/11
f 7/30/11 10/31/11 12/32/11
f 8/35/12 3/34/12 1/33/12
f 3/34/12 8/35/12 11/36/12
f 11/36/12 8/35/12 7/37/12
f 11/36/12 7/37/12 12/38/12

usemtl blueSteel (Instance) (Instance)
usemap blueSteel (Instance) (Instance)
f 4/16/9 16/40/13 15/39/9
f 16/40/13 4/16/9 9/11/6
f 9/11/6 19/41/7 16/40/13
f 19/41/7 9/11/6 10/12/7
f 19/43/11 5/29/11 24/42/11
f 5/29/11 19/43/11 10/31/11
f 5/5/2 22/45/14 24/44/2
f 22/45/14 5/5/2 6/6/3
f 6/6/3 13/46/5 22/45/14
f 13/46/5 6/6/3 2/9/5
f 4/4/1 13/47/1 2/2/1
f 13/47/1 4/4/1 15/48/1

usemtl black (Instance) (Instance)
usemap black (Instance) (Instance)
f 25/51/17 20/50/16 23/49/15
f 20/50/16 25/51/17 26/52/16
f 27/55/18 17/54/19 18/53/18
f 17/54/19 27/55/18 28/56/20
f 27/59/1 20/58/1 26/57/1
f 20/58/1 27/59/1 18/60/1
f 25/51/17 23/49/15 21/61/9
f 28/56/20 14/62/5 17/54/19
f 14/65/21 25/64/21 21/63/21
f 25/64/21 14/65/21 28/66/21
f 28/21/10 26/24/10 25/27/10
f 26/24/10 28/21/10 27/22/10
v -0.05000002 1.008 0.5
v -0.05000002 1.008 0.05
v -0.04999999 0.7919999 0.5
v -0.04999999 0.7919999 0.05
v -0.2725001 0.9634799 0.05
v -0.1175 1.008 0.05
v -0.2725001 0.9634799 0.5
v -0.1175 1.008 0.5
v -0.1175 0.7919999 0.05
v -0.2725 0.83652 0.05
v -0.1175 0.7919999 0.5
v -0.2725 0.83652 0.5
v -0.05000002 1.008 -0.4
v -0.08560289 0.8347235 -0.4
v -0.04999999 0.7919999 -0.4
v -0.1175 0.7919999 -0.4
v -0.1132985 0.8347234 -0.4
v -0.2368971 0.8702241 -0.4
v -0.2725 0.83652 -0.4
v -0.2368971 0.9297758 -0.4
v -0.08560291 0.9652765 -0.4
v -0.1175 1.008 -0.4
v -0.1132985 0.9652765 -0.4
v -0.2725001 0.9634799 -0.4
v -0.1132985 0.9652765 -0.283
v -0.2368971 0.9297758 -0.283
v -0.2368971 0.8702241 -0.283
v -0.1132985 0.8347234 -0.283
vn 0.5000001 5.960464E-08 0
vn -0.1163899 0.5835177 0
vn -0.0585988 0.5958652 0
vn -0.0390357 0.5981688 0
vn -5.960464E-08 0.6000001 0
vn -0.05859868 -0.5958652 0
vn -0.1163898 -0.5835177 0
vn -0.07807121 -0.5926408 0
vn 5.960464E-08 -0.6000001 0
vn -0.5000001 -5.960464E-08 0
vn -0.03903558 -0.5981688 0
vn -0.07807133 0.5926408 0
vn 0.0585988 -0.5958652 0
vn 0.1163899 -0.5835177 0
vn 0.07807133 -0.5926408 0
vn 0.1163898 0.5835177 0
vn 0.07807121 0.5926408 0
vn 0.05859868 0.5958652 0
vn -0.4599856 -5.960464E-08 -0.3527878
vt -0.5 1.008
vt -0.05 1.008
vt -0.5 0.7919999
vt -0.05 0.7919999
vt 0.2725 0.05
vt 0.1175 0.05
vt 0.2725 0.5
vt 0.1175 0.5
vt 0.05000001 0.05
vt 0.05000001 0.5
vt 0.1175 -0.05
vt 0.2725 -0.05
vt 0.1175 -0.5
vt 0.2725 -0.5
vt 0.04999999 -0.5
vt 0.04999999 -0.05
vt 0.08560289 0.8347234
vt 0.1132985 0.8347234
vt 0.2368971 0.8702241
vt 0.2368971 0.9297758
vt 0.08560291 0.9652765
vt 0.1132985 0.9652765
vt 0.05 0.9634799
vt 0.5 0.9634799
vt 0.05 0.83652
vt 0.5 0.83652
vt 0.04999999 0.4
vt 0.1175 0.4
vt 0.2725 0.4
vt -0.4 0.9634799
vt -0.4 0.83652
vt 0.2725 -0.4
vt 0.1175 -0.4
vt 0.05000001 -0.4
vt 0.4 1.008
vt 0.4 0.7919999
vt 0.1132985 0.4
vt 0.2368971 0.4
vt 0.1132985 0.283
vt 0.2368971 0.283
vt 0.2368971 -0.4
vt 0.1132985 -0.4
vt 0.2368971 -0.283
vt 0.1132985 -0.283
vt 0.283 0.9297758
vt 0.4 0.9297758
vt 0.283 0.8702241
vt 0.4 0.8702241
vt 0.08560291 0.4
vt 0.08560289 -0.4
vt -0.4 0.9652765
vt -0.283 0.9652765
vt -0.4 0.8347234
vt -0.283 0.8347234

usemtl _defaultMat (Instance) (Instance)
usemap _defaultMat (Instance) (Instance)
f 31/69/22 30/68/22 29/67/22
f 30/68/22 31/69/22 32/70/22
f 35/73/23 34/72/24 33/71/23
f 34/72/24 35/73/23 36/74/25
f 36/74/25 30/75/26 34/72/24
f 30/75/26 36/74/25 29/76/26
f 39/79/29 38/78/28 37/77/27
f 38/78/28 39/79/29 40/80/28
f 37/77/27 31/81/30 39/79/29
f 31/81/30 37/77/27 32/82/30
f 43/33/10 42/83/10 41/34/10
f 42/83/10 43/33/10 44/35/10
f 42/83/10 44/35/10 45/84/10
f 45/84/10 44/35/10 46/85/10
f 46/85/10 44/35/10 47/37/10
f 46/85/10 47/37/10 48/86/10
f 49/87/10 41/34/10 42/83/10
f 41/34/10 49/87/10 50/36/10
f 50/36/10 49/87/10 51/88/10
f 50/36/10 51/88/10 48/86/10
f 50/36/10 48/86/10 52/38/10
f 52/38/10 48/86/10 47/37/10
f 38/91/31 35/90/31 33/89/31
f 35/90/31 38/91/31 40/92/31
f 36/20/12 31/17/12 29/19/12
f 31/17/12 36/20/12 39/26/12
f 39/26/12 36/20/12 35/23/12
f 39/26/12 35/23/12 40/28/12

usemtl blueSteel (Instance) (Instance)
usemap blueSteel (Instance) (Instance)
f 32/82/30 44/94/32 43/93/30
f 44/94/32 32/82/30 37/77/27
f 37/77/27 47/95/28 44/94/32
f 47/95/28 37/77/27 38/78/28
f 47/97/31 33/89/31 52/96/31
f 33/89/31 47/97/31 38/91/31
f 33/71/23 50/99/33 52/98/23
f 50/99/33 33/71/23 34/72/24
f 34/72/24 41/100/26 50/99/33
f 41/100/26 34/72/24 30/75/26
f 32/70/22 41/101/22 30/68/22
f 41/101/22 32/70/22 43/102/22

usemtl black (Instance) (Instance)
usemap black (Instance) (Instance)
f 53/105/36 48/104/35 51/103/34
f 48/104/35 53/105/36 54/106/35
f 55/109/37 45/108/38 46/107/37
f 45/108/38 55/109/37 56/110/39
f 55/113/22 48/112/22 54/111/22
f 48/112/22 55/113/22 46/114/22
f 53/105/36 51/103/34 49/115/30
f 56/110/39 42/116/26 45/108/38
f 42/119/40 53/118/40 49/117/40
f 53/118/40 42/119/40 56/120/40
f 56/84/10 54/86/10 53/88/10
f 54/86/10 56/84/10 55/85/10
