# Made using Asset Forge (www.assetforge.io) version 1.3 

mtllib friendlyRangedUnitPillar.mtl 

v 0.065 0.3420246 -0.134075
v 0.093 0.3420246 -0.10605
v 0.065 0.3113497 -0.134075
v 0.093 0.25 -0.10605
v 0.09585356 0.25 -0.1203808
v 0.06785356 0.3113497 -0.1484058
v -0.1 0.648773 -0.10605
v -0.1 0.25 -0.10605
v -0.09585354 0.648773 -0.1203808
v -0.09585354 0.25 -0.1203808
v -0.093 0.25 -0.10605
v -0.093 0.25 0.006049983
v -0.09585354 0.25 0.02038076
v -0.1 0.25 0.006049983
v -0.06500001 0.648773 -0.134075
v -0.093 0.648773 -0.10605
v -0.06785355 0.648773 -0.1484058
v -0.09585354 0.648773 0.02038077
v -0.1 0.648773 0.006049983
v -0.093 0.648773 0.006049983
v -0.06785355 0.648773 0.04840577
v -0.06500001 0.648773 0.03407498
v -0.06785355 0.3113497 -0.1484058
v 0.1 0.25 -0.10605
v 0.1 0.648773 -0.10605
v 0.09585356 0.648773 -0.1203808
v 0.1 0.25 0.006049983
v 0.09585356 0.25 0.02038076
v 0.093 0.25 0.006049983
v -0.093 0.3420246 -0.10605
v -0.06500001 0.3420246 -0.134075
v -0.06500001 0.3113497 -0.134075
v 0.06785356 0.3113497 0.04840576
v 0.065 0.3113497 0.03407498
v -0.06500001 0.3113497 0.03407498
v -0.06785355 0.3113497 0.04840576
v -0.06500001 0.3420246 0.03407498
v 0.06785356 0.648773 -0.1484058
v -0.093 0.3420246 0.006049983
v 0.093 0.3420246 0.006049983
v 0.065 0.3420246 0.03407498
v 0.09585356 0.648773 0.02038077
v 0.1 0.648773 0.006049983
v 0.065 0.648773 -0.134075
v 0.06785356 0.648773 0.04840577
v 0.065 0.648773 0.03407498
v 0.093 0.648773 -0.10605
v 0.093 0.648773 0.006049983
v -0.03700001 0.648773 0.06209998
v 0.037 0.648773 0.06209998
v -0.03700001 0.3420246 0.06209997
v 0.037 0.3420245 0.06209997
v 0.037 0.648773 -0.1621
v -0.03700001 0.648773 -0.1621
v 0.037 0.3420245 -0.1621
v -0.03700001 0.3420246 -0.1621
v 0.07719 0.75 -0.0965215
v 0.03071 0.75 -0.143043
v 0.07719 0.75 -0.00347852
v 0.03071 0.75 0.04304298
v -0.03070999 0.75 -0.143043
v -0.07718999 0.75 -0.0965215
v -0.07718999 0.75 -0.00347852
v -0.03070999 0.75 0.04304298
v 0.07587494 0.3420246 -0.01885631
v 0.033351 0.3420246 0.02370559
v -0.033351 0.3420245 0.02370559
v -0.07587493 0.3420246 -0.01885631
v -0.07587493 0.3420246 -0.08114373
v 0.07587494 0.3420246 -0.08114373
v 0.033351 0.3420246 -0.1237056
v -0.033351 0.3420245 -0.1237056
v -0.03068291 0.4003068 -0.1178092
v 0.03068292 0.4003068 -0.1178092
v 0.03068292 0.4003068 0.01780915
v -0.03068291 0.4003068 0.01780915
v -0.06980494 0.4003068 -0.07865223
v 0.06980494 0.4003068 -0.07865223
v 0.06980494 0.4003068 -0.02134781
v -0.06980494 0.4003068 -0.02134781
v 0.05487085 0.4003068 -0.0398
v 0.02715464 0.4003068 -0.01205903
v -0.02715463 0.4003068 -0.01205903
v -0.05487085 0.4003068 -0.0398
v -0.05487085 0.4003068 -0.06020004
v 0.05487085 0.4003068 -0.06020004
v 0.02715464 0.4003068 -0.08794101
v -0.02715463 0.4003068 -0.08794101
vn -0.0895066 0 0.357707
vn -0.1148759 -0.3929902 -0.09149668
vn -0.1148759 -0.3929903 -0.09149668
vn -0.1148759 -0.3929903 -0.09149671
vn -0.1731055 0 -0.2003445
vn 0 -0.5 0
vn 0 0.5 0
vn -0.0895066 0 -0.357707
vn 0.1731056 0 -0.2003443
vn 0.08950661 0 0.357707
vn 0.114876 -0.3929903 -0.09149644
vn 0.114876 -0.3929903 -0.09149644
vn -0.1148759 -0.3929902 0.09149668
vn -0.1148759 -0.3929903 0.09149668
vn -0.1148759 -0.3929903 0.09149671
vn -0.1731055 0 0.2003445
vn 0.1858079 0 -0.1479923
vn 0.1858079 0 -0.1479923
vn -0.2 0 0
vn 0.114876 -0.3929903 0.09149644
vn 0.114876 -0.3929903 0.09149644
vn 0.1858079 0 0.1479923
vn 0.08950659 0 -0.357707
vn 0.2 0 0
vn 0.08950661 0 -0.357707
vn 0.1731056 0 0.2003443
vn -0.1858078 0 -0.1479928
vn 0.08950659 0 0.357707
vn -0.1858078 0 0.1479928
vn 0 0.07681115 0.3952518
vn 0 0.03840558 0.3988183
vn 0 0 0.4
vn 0 0.07681115 -0.3952519
vn 0 0.03840558 -0.3988183
vn 0 0 -0.4
vn 0.08619241 0.1347994 -0.3444622
vn 0.0861924 0.1347994 -0.3444622
vn 0.08913834 0.04530747 -0.3562354
vn 0.1863019 0.1818582 0
vn 0.1863019 0.1818582 0
vn 0.08619241 0.1347993 0.3444621
vn 0.0861924 0.1347994 0.3444621
vn 0.08802442 0.09061494 0.3517836
vn -0.08619241 0.1347994 -0.3444621
vn -0.0861924 0.1347994 -0.3444621
vn -0.08802442 0.09061496 -0.3517836
vn -0.0861924 0.1347994 -0.3444621
vn -0.1863019 0.1818583 0
vn 0 0.1145339 -0.3893642
vn 0 0.1145339 0.3893642
vn 0.08950657 0 -0.357707
vn 0.08950657 0 0.357707
vn -0.08950656 0 0.357707
vn -0.08913834 0.04530747 0.3562354
vn -0.08619241 0.1347994 0.3444621
vn -0.0861924 0.1347994 0.3444621
vn -0.08950656 0 -0.357707
vn 0 -0.062732 0.3968393
vn 0 -0.062732 -0.3968393
vn 0.08832227 -0.08106829 0.3529739
vn 0.08832227 -0.08106827 0.3529739
vn 0.08832224 -0.08106827 0.3529739
vn -0.08832228 -0.08106825 0.3529739
vn -0.08832227 -0.08106826 0.3529739
vn -0.08832224 -0.08106827 0.3529739
vn -0.193547 -0.125985 0
vn 0.08832227 -0.08106827 -0.3529739
vn 0.08832227 -0.08106828 -0.3529739
vn 0.08832224 -0.08106829 -0.3529739
vn -0.08832227 -0.08106828 -0.3529739
vn -0.08832227 -0.08106826 -0.3529739
vn -0.08832224 -0.08106823 -0.3529739
vn 0.193547 -0.1259851 0
vn 0.193547 -0.125985 0
vt -0.134075 0.3420246
vt -0.10605 0.3420246
vt -0.134075 0.3113497
vt -0.10605 0.25
vt -0.1203808 0.25
vt -0.1484058 0.3113497
vt -0.10605 0.648773
vt -0.1203808 0.648773
vt 0.09299999 0.10605
vt 0.09585354 0.1203808
vt 0.09299999 -0.006049978
vt 0.09585354 -0.02038077
vt 0.1 -0.006049978
vt 0.1 0.10605
vt 0.06500001 -0.134075
vt 0.09299999 -0.10605
vt 0.06785355 -0.1484058
vt 0.09585354 -0.1203808
vt 0.09585354 0.02038077
vt 0.1 0.006049978
vt 0.1 -0.10605
vt 0.09299999 0.006049978
vt 0.06785355 0.04840577
vt 0.06500001 0.03407498
vt -0.1484058 0.648773
vt 0.10605 0.25
vt 0.10605 0.648773
vt 0.1203808 0.25
vt 0.1203808 0.648773
vt -0.1 -0.006049978
vt -0.1 0.10605
vt -0.09585356 -0.02038077
vt -0.09585356 0.1203808
vt -0.093 -0.006049978
vt -0.093 0.10605
vt 0.10605 0.3420246
vt 0.134075 0.3420246
vt 0.134075 0.3113497
vt 0.1484058 0.3113497
vt 0.02038077 0.25
vt 0.006049978 0.25
vt 0.04840577 0.3113497
vt 0.03407498 0.3113497
vt 0.02038077 0.648773
vt 0.006049978 0.648773
vt 0.134075 0.648773
vt 0.1484058 0.648773
vt -0.03407498 0.3113497
vt -0.006049978 0.25
vt -0.04840577 0.3113497
vt -0.02038077 0.25
vt -0.04840577 0.648773
vt -0.03407498 0.648773
vt -0.06500001 0.3420246
vt -0.06500001 0.3113497
vt -0.06500001 0.648773
vt -0.006049978 0.3420246
vt 0.006049978 0.3420246
vt 0.03407498 0.3420246
vt -0.03407498 0.3420246
vt 0.04840577 0.648773
vt -0.02038077 0.648773
vt -0.006049978 0.648773
vt -0.134075 0.648773
vt 0.03407498 0.648773
vt 0.06500001 0.3420246
vt 0.06500001 0.648773
vt 0.06500001 0.3113497
vt -0.1 -0.10605
vt -0.1 0.006049978
vt -0.09585356 -0.1203808
vt -0.09585356 0.02038077
vt -0.093 -0.10605
vt -0.06785356 -0.1484058
vt -0.06500001 -0.134075
vt -0.093 0.006049978
vt -0.06785356 0.04840577
vt -0.06500001 0.03407498
vt -0.037 0.648773
vt 0.037 0.648773
vt -0.037 0.3420246
vt 0.037 0.3420246
vt 0.09652152 0.75
vt 0.143043 0.75
vt 0.1621 0.648773
vt 0.093 0.648773
vt 0.003478519 0.75
vt -0.04304298 0.75
vt -0.06209997 0.648773
vt -0.143043 0.75
vt -0.09652152 0.75
vt -0.1621 0.648773
vt -0.09299999 0.648773
vt -0.003478519 0.75
vt -0.03071 0.75
vt 0.03070999 0.75
vt -0.03070999 0.75
vt 0.03071 0.75
vt -0.07719 -0.09652152
vt -0.07719 -0.003478519
vt -0.03071 -0.143043
vt -0.03071 0.04304298
vt 0.03070999 -0.143043
vt 0.03070999 0.04304298
vt 0.07719 -0.09652152
vt 0.07719 -0.003478519
vt 0.1621 0.3420246
vt -0.06209997 0.3420246
vt -0.07587495 0.01885631
vt -0.06500001 -0.03407498
vt -0.033351 -0.0237056
vt -0.037 -0.06209997
vt 0.037 -0.06209997
vt 0.03335099 -0.0237056
vt 0.07587494 0.01885631
vt 0.06500001 -0.03407498
vt 0.07587494 0.08114373
vt -0.06500001 0.134075
vt -0.07587495 0.08114373
vt -0.033351 0.1237056
vt -0.037 0.1621
vt 0.037 0.1621
vt 0.03335099 0.1237056
vt 0.06500001 0.134075
vt 0.06209997 0.648773
vt 0.06209997 0.3420246
vt 0.04304298 0.75
vt -0.1621 0.3420246
vt -0.03068291 0.4003068
vt 0.03068292 0.4003068
vt -0.03335099 0.3420246
vt 0.033351 0.3420246
vt -0.03068292 0.4003068
vt 0.03068291 0.4003068
vt -0.033351 0.3420246
vt 0.03335099 0.3420246
vt 0.07865223 0.4003068
vt 0.1178092 0.4003068
vt 0.08114373 0.3420246
vt 0.1237056 0.3420246
vt -0.1178092 0.4003068
vt -0.07865223 0.4003068
vt -0.1237056 0.3420246
vt -0.08114373 0.3420246
vt -0.01885631 0.3420246
vt -0.02134781 0.4003068
vt -0.01780915 0.4003068
vt 0.02134781 0.4003068
vt -0.0237056 0.3420246
vt 0.01885631 0.3420246
vt -0.06980494 0.07865223
vt -0.05487085 0.0398
vt -0.06980494 0.02134781
vt -0.03068292 -0.01780915
vt -0.02715464 0.01205904
vt 0.03068291 -0.01780915
vt 0.02715464 0.01205904
vt 0.05487084 0.0398
vt 0.06980494 0.02134781
vt 0.05487084 0.06020004
vt -0.05487085 0.06020004
vt -0.03068292 0.1178092
vt -0.02715464 0.087941
vt 0.03068291 0.1178092
vt 0.02715464 0.087941
vt 0.06980494 0.07865223
vt 0.01780915 0.4003068
vt 0.0237056 0.3420246

usemtl blueSteel (Instance) (Instance)
usemap blueSteel (Instance) (Instance)
f 3/3/1 2/2/1 1/1/1
f 2/2/1 3/3/1 4/4/1
f 4/4/3 6/6/3 5/5/2
f 6/6/3 4/4/3 3/3/4
f 9/8/5 8/4/5 7/7/5
f 8/4/5 9/8/5 10/5/5
f 12/11/6 10/10/6 11/9/6
f 10/10/6 12/11/6 13/12/6
f 10/10/6 13/12/6 14/13/6
f 10/10/6 14/13/6 8/14/6
f 17/17/7 16/16/7 15/15/7
f 16/16/7 17/17/7 9/18/7
f 16/16/7 9/18/7 18/19/7
f 18/19/7 9/18/7 19/20/7
f 19/20/7 9/18/7 7/21/7
f 18/19/7 20/22/7 16/16/7
f 21/23/7 20/22/7 18/19/7
f 20/22/7 21/23/7 22/24/7
f 23/6/8 9/8/8 17/25/8
f 9/8/8 23/6/8 10/5/8
f 5/28/9 25/27/9 24/26/9
f 25/27/9 5/28/9 26/29/9
f 28/32/6 24/31/6 27/30/6
f 24/31/6 28/32/6 5/33/6
f 5/33/6 28/32/6 29/34/6
f 5/33/6 29/34/6 4/35/6
f 11/26/10 31/37/10 30/36/10
f 31/37/10 11/26/10 32/38/10
f 11/26/12 23/39/12 32/38/11
f 23/39/12 11/26/12 10/28/12
f 33/42/14 29/41/14 28/40/13
f 29/41/14 33/42/14 34/43/15
f 19/45/16 13/40/16 18/44/16
f 13/40/16 19/45/16 14/41/16
f 23/39/18 31/37/17 32/38/17
f 31/37/17 23/39/18 15/46/18
f 15/46/18 23/39/18 17/47/18
f 7/7/19 14/41/19 19/45/19
f 14/41/19 7/7/19 8/4/19
f 36/50/21 12/49/21 35/48/20
f 12/49/21 36/50/21 13/51/21
f 35/48/22 21/52/22 36/50/22
f 21/52/22 35/48/22 22/53/22
f 22/56/19 35/55/19 37/54/19
f 5/28/23 38/47/23 26/29/23
f 38/47/23 5/28/23 6/39/23
f 11/26/24 39/57/24 12/49/24
f 39/57/24 11/26/24 30/36/24
f 29/41/8 41/59/8 40/58/8
f 41/59/8 29/41/8 34/43/8
f 35/48/25 39/57/25 37/60/25
f 39/57/25 35/48/25 12/49/25
f 2/2/19 29/41/19 40/58/19
f 29/41/19 2/2/19 4/4/19
f 13/40/1 21/61/1 18/44/1
f 21/61/1 13/40/1 36/42/1
f 27/49/26 42/62/26 28/51/26
f 42/62/26 27/49/26 43/63/26
f 24/26/24 43/63/24 27/49/24
f 43/63/24 24/26/24 25/27/24
f 38/25/27 1/1/27 44/64/27
f 1/1/27 38/25/27 3/3/27
f 3/3/27 38/25/27 6/6/27
f 33/50/28 42/62/28 45/52/28
f 42/62/28 33/50/28 28/51/28
f 46/65/29 33/42/29 45/61/29
f 33/42/29 46/65/29 34/43/29
f 34/68/19 46/67/19 41/66/19
f 26/71/7 43/70/7 25/69/7
f 43/70/7 26/71/7 42/72/7
f 42/72/7 26/71/7 47/73/7
f 47/73/7 26/71/7 38/74/7
f 47/73/7 38/74/7 44/75/7
f 48/76/7 42/72/7 47/73/7
f 42/72/7 48/76/7 45/77/7
f 45/77/7 48/76/7 46/78/7

usemtl _defaultMat (Instance) (Instance)
usemap _defaultMat (Instance) (Instance)
f 51/81/32 50/80/31 49/79/30
f 50/80/31 51/81/32 52/82/32
f 55/81/35 54/80/34 53/79/33
f 54/80/34 55/81/35 56/82/35
f 47/27/37 58/84/37 57/83/36
f 58/84/37 47/27/37 53/85/38
f 53/80/19 47/86/19 44/67/19
f 47/27/40 59/87/40 48/63/39
f 59/87/40 47/27/40 57/83/40
f 50/89/43 59/87/42 60/88/41
f 59/87/42 50/89/43 48/63/42
f 48/86/19 50/80/19 46/67/19
f 54/92/46 62/91/45 61/90/44
f 62/91/45 54/92/46 16/7/47
f 16/93/7 54/79/7 15/56/7
f 63/94/48 16/7/48 20/45/48
f 16/7/48 63/94/48 62/91/48
f 53/79/33 61/96/49 58/95/49
f 61/96/49 53/79/33 54/80/34
f 49/79/30 60/98/50 64/97/50
f 60/98/50 49/79/30 50/80/31
f 58/101/7 59/100/7 57/99/7
f 59/100/7 58/101/7 60/102/7
f 60/102/7 58/101/7 61/103/7
f 60/102/7 61/103/7 64/104/7
f 64/104/7 61/103/7 62/105/7
f 64/104/7 62/105/7 63/106/7
f 1/37/51 53/85/38 44/46/51
f 53/85/38 1/37/51 55/107/51
f 52/108/52 46/53/52 50/89/43
f 46/53/52 52/108/52 41/60/52
f 40/34/6 65/109/6 2/35/6
f 65/109/6 40/34/6 41/110/6
f 65/109/6 41/110/6 66/111/6
f 66/111/6 41/110/6 52/112/6
f 66/111/6 52/112/6 51/113/6
f 66/111/6 51/113/6 67/114/6
f 67/114/6 51/113/6 68/115/6
f 68/115/6 51/113/6 37/116/6
f 68/115/6 37/116/6 39/11/6
f 68/115/6 39/11/6 69/117/6
f 69/117/6 39/11/6 30/9/6
f 2/35/6 70/119/6 1/118/6
f 70/119/6 2/35/6 65/109/6
f 1/118/6 70/119/6 71/120/6
f 1/118/6 71/120/6 55/121/6
f 55/121/6 71/120/6 56/122/6
f 56/122/6 71/120/6 72/123/6
f 56/122/6 72/123/6 69/117/6
f 56/122/6 69/117/6 31/124/6
f 31/124/6 69/117/6 30/9/6
f 37/59/53 49/125/54 22/65/53
f 49/125/54 37/59/53 51/126/53
f 20/45/56 64/127/56 63/94/55
f 64/127/56 20/45/56 49/125/54
f 49/79/7 20/93/7 22/56/7
f 56/128/57 15/64/57 54/92/46
f 15/64/57 56/128/57 31/1/57

usemtl black (Instance)
usemap black (Instance)
f 72/131/58 74/130/58 73/129/58
f 74/130/58 72/131/58 71/132/58
f 66/135/59 76/134/59 75/133/59
f 76/134/59 66/135/59 67/136/59
f 69/139/61 73/138/61 77/137/60
f 73/138/61 69/139/61 72/140/62
f 71/143/64 78/142/64 74/141/63
f 78/142/64 71/143/64 70/144/65
f 79/146/66 70/144/66 65/145/66
f 70/144/66 79/146/66 78/142/66
f 67/149/68 80/148/68 76/147/67
f 80/148/68 67/149/68 68/150/69
f 79/153/6 81/152/6 78/151/6
f 81/152/6 79/153/6 75/154/6
f 81/152/6 75/154/6 82/155/6
f 82/155/6 75/154/6 76/156/6
f 82/155/6 76/156/6 83/157/6
f 83/157/6 76/156/6 84/158/6
f 84/158/6 76/156/6 80/159/6
f 84/158/6 80/159/6 85/160/6
f 86/161/6 78/151/6 81/152/6
f 78/151/6 86/161/6 74/162/6
f 74/162/6 86/161/6 87/163/6
f 74/162/6 87/163/6 73/164/6
f 73/164/6 87/163/6 88/165/6
f 73/164/6 88/165/6 85/160/6
f 73/164/6 85/160/6 77/166/6
f 77/166/6 85/160/6 80/159/6
f 65/145/71 75/167/71 79/146/70
f 75/167/71 65/145/71 66/168/72
f 69/139/73 80/148/73 68/150/73
f 80/148/73 69/139/73 77/137/74

usemtl engine (Instance)
usemap engine (Instance)
f 82/155/6 86/161/6 81/152/6
f 86/161/6 82/155/6 87/163/6
f 87/163/6 82/155/6 83/157/6
f 87/163/6 83/157/6 88/165/6
f 88/165/6 83/157/6 85/160/6
f 85/160/6 83/157/6 84/158/6
