# Made using Asset Forge (www.assetforge.io) version 1.3 

mtllib grass1.mtl

v 0.5 0 0.5
v 0.5 0 -0.5
v -0.5 0 0.5
v -0.5 0 -0.5
v 0.5 0.1 -0.5
v 0.5 0.1 0.5
v -0.5 0.1 0.5
v -0.5 0.1 -0.5
vn 0 -1 0
vn 1 0 0
vn 0 0 1
vn -1 0 0
vn 0 0 -1
vn 0 1 0
vt -0.5 -0.5
vt -0.5 0.5
vt 0.5 -0.5
vt 0.5 0.5
vt 0.5 0.1
vt 0.5 0
vt -0.5 0.1
vt -0.5 0

usemtl customMaterial3 (Instance)
usemap customMaterial3 (Instance)
f 3/3/1 2/2/1 1/1/1
f 2/2/1 3/3/1 4/4/1
f 6/7/2 2/6/2 5/5/2
f 2/6/2 6/7/2 1/8/2
f 6/5/3 3/8/3 1/6/3
f 3/8/3 6/5/3 7/7/3
f 3/6/4 8/7/4 4/8/4
f 8/7/4 3/6/4 7/5/4
f 8/5/5 2/8/5 4/6/5
f 2/8/5 8/5/5 5/7/5

usemtl customMaterial3 (Instance)
usemap customMaterial3 (Instance)
f 8/3/6 6/2/6 5/1/6
f 6/2/6 8/3/6 7/4/6
