# Made using Asset Forge (www.assetforge.io) version 1.3 

mtllib portal1.mtl 

v 0.5 0 0.5
v 0.5 0 -0.5
v -0.5 0 0.5
v -0.5 0 -0.5
v 0.5 0.1 -0.5
v 0.5 0.1 0.5
v -0.5 0.1 0.5
v -0.5 0.1 -0.5
vn 0 -1 0
vn 1 0 0
vn 0 0 1
vn -1 0 0
vn 0 0 -1
vn 0 1 0
vt -0.5 -0.5
vt -0.5 0.5
vt 0.5 -0.5
vt 0.5 0.5
vt 0.5 0.1
vt 0.5 0
vt -0.5 0.1
vt -0.5 0

usemtl wood (Instance)
usemap wood (Instance)
f 3/3/1 2/2/1 1/1/1
f 2/2/1 3/3/1 4/4/1
f 6/7/2 2/6/2 5/5/2
f 2/6/2 6/7/2 1/8/2
f 6/5/3 3/8/3 1/6/3
f 3/8/3 6/5/3 7/7/3
f 3/6/4 8/7/4 4/8/4
f 8/7/4 3/6/4 7/5/4
f 8/5/5 2/8/5 4/6/5
f 2/8/5 8/5/5 5/7/5

usemtl wood (Instance)
usemap wood (Instance)
f 8/3/6 6/2/6 5/1/6
f 6/2/6 8/3/6 7/4/6
v 0.4830127 1.05 0.1000001
v 0.4830127 1.05 2.980232E-08
v 0.5329629 0.9294095 0.1000001
v 0.5329629 0.9294095 1.490116E-08
v 0.55 0.8 0.1000001
v 0.55 0.8 0
v 0.5329629 0.6705905 0.1
v 0.5329629 0.6705905 -1.490116E-08
v 0.4830127 0.55 0.1
v 0.4830127 0.55 -2.980232E-08
v 0.4035534 1.153553 2.980232E-08
v 0.4035534 1.153553 0.1000001
v 0.4035534 0.4464466 0.1
v 0.4035534 0.4464466 -2.980232E-08
v 0.3 0.3669873 -5.960464E-08
v 0.3 0.3669873 0.09999999
v 0.1794095 0.3170371 -5.960464E-08
v 0.1794095 0.317037 0.09999999
v 0.05 0.3 -5.960464E-08
v 0.05 0.3 0.09999999
v -0.07940951 0.3170371 -5.960464E-08
v -0.07940951 0.317037 0.09999999
v 0.3 1.233013 0.1000001
v 0.3 1.233013 5.960464E-08
v 0.1794095 1.282963 0.1000001
v 0.1794095 1.282963 5.960464E-08
v 0.05 1.3 0.1000001
v 0.05 1.3 5.960464E-08
v -0.07940951 1.282963 0.1000001
v -0.07940951 1.282963 5.960464E-08
v -0.2 0.3669873 -5.960464E-08
v -0.2 0.3669873 0.09999999
v -0.3035533 0.4464466 -2.980232E-08
v -0.3035533 0.4464466 0.1
v -0.3830127 0.55 0.1
v -0.3830127 0.55 -2.980232E-08
v -0.4329628 0.6705905 0.1
v -0.4329628 0.6705905 -1.490116E-08
v -0.4499999 0.8 0.1000001
v -0.4499999 0.8 0
v -0.4329628 0.9294095 0.1000001
v -0.4329628 0.9294095 1.490116E-08
v -0.3830127 1.05 0.1000001
v -0.3830127 1.05 2.980232E-08
v -0.3035533 1.153553 0.1000001
v -0.3035533 1.153553 2.980232E-08
v -0.2 1.233013 5.960464E-08
v -0.2 1.233013 0.1000001
v 0.3465902 0.8 -5.414337E-17
v 0.3364842 0.7232368 -7.450581E-09
v 0.3068547 0.6517049 -1.490116E-08
v 0.259721 0.590279 -2.980232E-08
v 0.1982951 0.5431453 -2.980232E-08
v 0.1267632 0.5135158 -2.980232E-08
v 0.05 0.5034097 -2.980232E-08
v -0.0267632 0.5135158 -2.980232E-08
v -0.09829511 0.5431453 -2.980232E-08
v -0.1597209 0.590279 -2.980232E-08
v -0.2068547 0.6517049 -1.490116E-08
v -0.2364842 0.7232368 -7.450581E-09
v -0.2465902 0.8 -5.414346E-17
v -0.2364842 0.8767632 7.450581E-09
v -0.2068547 0.9482951 1.490116E-08
v -0.1597209 1.009721 2.980232E-08
v -0.09829511 1.056855 2.980232E-08
v -0.0267632 1.086484 2.980232E-08
v 0.05 1.09659 2.980232E-08
v 0.1267632 1.086484 2.980232E-08
v 0.1982951 1.056855 2.980232E-08
v 0.259721 1.009721 2.980232E-08
v 0.3068547 0.9482951 1.490116E-08
v 0.3364842 0.8767632 7.450581E-09
v 0.3465902 0.8 0.1000001
v 0.3364842 0.8767632 0.1000001
v 0.3068547 0.9482951 0.1000001
v 0.259721 1.009721 0.1000001
v 0.1982951 1.056855 0.1000001
v 0.1267632 1.086484 0.1000001
v 0.05 1.09659 0.1000001
v -0.0267632 1.086484 0.1000001
v -0.09829511 1.056855 0.1000001
v -0.1597209 1.009721 0.1000001
v -0.2068547 0.9482951 0.1000001
v -0.2364842 0.8767632 0.1000001
v -0.2465902 0.8 0.1000001
v -0.2364842 0.7232368 0.1
v -0.2068547 0.6517049 0.1
v -0.1597209 0.590279 0.1
v -0.09829511 0.5431453 0.1
v -0.0267632 0.5135158 0.1
v 0.05 0.5034097 0.1
v 0.1267632 0.5135158 0.1
v 0.1982951 0.5431453 0.1
v 0.259721 0.590279 0.1
v 0.3068547 0.6517049 0.1
v 0.3364842 0.7232368 0.1
vn 0.8432717 0.5374875 5.960464E-08
vn 0.8871136 0.4615509 5.960464E-08
vn 0.9536498 0.3009182 2.980232E-08
vn 0.9763441 0.2162221 2.980232E-08
vn 0.9990383 0.04384198 3.72529E-09
vn 0.9990383 -0.04384198 -3.72529E-09
vn 0.9763441 -0.2162221 -2.980232E-08
vn 0.9536498 -0.3009182 -2.980232E-08
vn 0.8871136 -0.4615509 -5.960464E-08
vn 0.8432717 -0.5374875 -5.960464E-08
vn 0.7071067 0.7071068 5.960464E-08
vn 0.7071067 0.7071068 5.960464E-08
vn 0.7071068 -0.7071068 -5.960464E-08
vn 0.7071067 -0.7071068 -5.960464E-08
vn 0.5374874 -0.8432718 -1.192093E-07
vn 0.4615509 -0.8871137 -1.192093E-07
vn 0.3009182 -0.9536499 -1.192093E-07
vn 0.216222 -0.9763442 -1.192093E-07
vn 0.04384198 -0.9990385 -1.192093E-07
vn -0.04384198 -0.9990385 -1.192093E-07
vn -0.216222 -0.9763442 -1.192093E-07
vn -0.3009182 -0.9536499 -1.192093E-07
vn 0.5374874 0.8432718 1.192093E-07
vn 0.4615509 0.8871137 1.192093E-07
vn 0.3009182 0.9536499 1.192093E-07
vn 0.216222 0.9763442 1.192093E-07
vn 0.04384198 0.9990385 1.192093E-07
vn -0.04384198 0.9990385 1.192093E-07
vn -0.216222 0.9763442 1.192093E-07
vn -0.3009182 0.9536499 1.192093E-07
vn -0.4615509 -0.8871137 -1.192093E-07
vn -0.5374874 -0.8432718 -1.192093E-07
vn -0.7071067 -0.7071068 -5.960464E-08
vn -0.7071067 -0.7071068 -5.960464E-08
vn -0.8432717 -0.5374875 -5.960464E-08
vn -0.8871136 -0.4615509 -5.960464E-08
vn -0.9536498 -0.3009182 -2.980232E-08
vn -0.9763441 -0.2162221 -2.980232E-08
vn -0.9990383 -0.04384198 -3.72529E-09
vn -0.9990383 0.04384198 3.72529E-09
vn -0.9763441 0.2162221 2.980232E-08
vn -0.9536498 0.3009182 2.980232E-08
vn -0.8871136 0.4615509 5.960464E-08
vn -0.8432717 0.5374875 5.960464E-08
vn -0.7071067 0.7071068 5.960464E-08
vn -0.7071067 0.7071068 5.960464E-08
vn -0.5374874 0.8432718 1.192093E-07
vn -0.4615509 0.8871137 1.192093E-07
vn 0 1.490116E-08 -0.1000001
vn 0 -1.490116E-08 0.1000001
vn -0.461551 0.8871137 1.192093E-07
vn -0.7071068 0.7071068 5.960464E-08
vn -0.5374875 0.8432717 1.192093E-07
vn -0.8432716 0.5374876 5.960464E-08
vn -0.8871136 0.461551 5.960464E-08
vn -0.9536498 0.3009182 2.980232E-08
vn -0.9763441 0.2162219 2.980232E-08
vn -0.9990383 0.04384187 3.72529E-09
vn -0.9990383 -0.04384187 -3.72529E-09
vn -0.9763441 -0.2162219 -2.980232E-08
vn -0.9536498 -0.3009182 -2.980232E-08
vn -0.8871136 -0.461551 -5.960464E-08
vn -0.8432716 -0.5374876 -5.960464E-08
vn -0.5374875 -0.8432717 -1.192093E-07
vn -0.461551 -0.8871137 -1.192093E-07
vn -0.3009182 -0.9536499 -1.192093E-07
vn -0.2162219 -0.9763442 -1.192093E-07
vn -0.04384187 -0.9990385 -1.192093E-07
vn 0.04384187 -0.9990385 -1.192093E-07
vn 0.2162219 -0.9763442 -1.192093E-07
vn 0.3009182 -0.9536499 -1.192093E-07
vn 0.461551 -0.8871137 -1.192093E-07
vn 0.5374875 -0.8432717 -1.192093E-07
vn 0.8432716 -0.5374876 -5.960464E-08
vn 0.8871136 -0.461551 -5.960464E-08
vn 0.9536498 -0.3009182 -2.980232E-08
vn 0.9763441 -0.2162219 -2.980232E-08
vn 0.9990383 -0.04384187 -3.72529E-09
vn 0.9990383 0.04384187 3.72529E-09
vn 0.9763441 0.2162219 2.980232E-08
vn 0.9536498 0.3009182 2.980232E-08
vn 0.8871136 0.461551 5.960464E-08
vn 0.8432716 0.5374876 5.960464E-08
vn 0.5374875 0.8432717 1.192093E-07
vn 0.461551 0.8871137 1.192093E-07
vn 0.3009182 0.9536499 1.192093E-07
vn 0.2162219 0.9763442 1.192093E-07
vn 0.04384187 0.9990385 1.192093E-07
vn -0.04384187 0.9990385 1.192093E-07
vn -0.2162219 0.9763442 1.192093E-07
vn -0.3009182 0.9536499 1.192093E-07
vt -0.1000001 1.05
vt -2.980232E-08 1.05
vt -0.1000001 0.9294095
vt -1.542682E-08 0.9294095
vt -0.1000001 0.8
vt 0 0.8
vt -0.1 0.6705905
vt 1.542682E-08 0.6705905
vt -0.1 0.55
vt 2.980232E-08 0.55
vt -4.214684E-08 1.153553
vt -0.1000001 1.153553
vt -0.1 0.4464466
vt 4.214684E-08 0.4464466
vt -0.4035533 4.214684E-08
vt -0.3 5.161913E-08
vt -0.4035533 -0.1
vt -0.3 -0.1
vt -0.1794095 5.757366E-08
vt -0.1794095 -0.09999999
vt -0.05 5.960464E-08
vt -0.05 -0.09999999
vt 0.0794095 5.757366E-08
vt 0.0794095 -0.09999999
vt -0.4035533 0.1000001
vt -0.3 0.1000001
vt -0.1794095 0.1000001
vt -0.05 0.1000001
vt 0.0794095 0.1000001
vt 0.2 5.161913E-08
vt 0.2 -0.1
vt 0.3035533 4.214684E-08
vt 0.3035533 -0.1
vt 0.1 0.4464466
vt -4.214684E-08 0.4464466
vt 0.1 0.55
vt -2.980232E-08 0.55
vt 0.1 0.6705905
vt -1.542682E-08 0.6705905
vt 0.1000001 0.8
vt 0.1000001 0.9294095
vt 1.542682E-08 0.9294095
vt 0.1000001 1.05
vt 2.980232E-08 1.05
vt 0.1000001 1.153553
vt 4.214684E-08 1.153553
vt 0.3035533 0.1000001
vt 0.2 0.1000001
vt -0.4035533 0.4464466
vt -0.3465902 0.8
vt -0.3 0.3669873
vt -0.3364841 0.7232368
vt -0.3068547 0.6517049
vt -0.259721 0.590279
vt -0.1794095 0.3170371
vt -0.1982951 0.5431453
vt -0.1267632 0.5135158
vt -0.05 0.3
vt -0.05 0.5034097
vt 0.0794095 0.3170371
vt 0.0267632 0.5135158
vt 0.0982951 0.5431453
vt 0.2 0.3669873
vt 0.1597209 0.590279
vt 0.2068547 0.6517049
vt 0.3035533 0.4464466
vt 0.2364841 0.7232368
vt 0.2465902 0.8
vt 0.3035533 1.153553
vt 0.2364841 0.8767632
vt 0.2068547 0.9482951
vt 0.2 1.233013
vt 0.1597209 1.009721
vt 0.0982951 1.056855
vt 0.0794095 1.282963
vt 0.0267632 1.086484
vt -0.05 1.3
vt -0.05 1.09659
vt -0.1267632 1.086484
vt -0.1794095 1.282963
vt -0.1982951 1.056855
vt -0.259721 1.009721
vt -0.3 1.233013
vt -0.3068547 0.9482951
vt -0.3364841 0.8767632
vt -0.4035533 1.153553
vt -0.4830127 0.55
vt -0.4830127 1.05
vt -0.5329629 0.6705905
vt -0.5329629 0.9294095
vt -0.55 0.8
vt 0.3830127 0.55
vt 0.3830127 1.05
vt 0.4329628 0.6705905
vt 0.4329628 0.9294095
vt 0.4499999 0.8
vt 0.55 0.8
vt 0.5329629 0.6705905
vt 0.5329629 0.9294095
vt 0.4830127 1.05
vt 0.4830127 0.55
vt 0.4035533 1.153553
vt 0.4035533 0.4464466
vt 0.3 1.233013
vt 0.3465902 0.8
vt 0.3364841 0.8767632
vt 0.3068547 0.9482951
vt 0.259721 1.009721
vt 0.1794095 1.282963
vt 0.1982951 1.056855
vt 0.1267632 1.086484
vt 0.05 1.3
vt 0.05 1.09659
vt -0.0267632 1.086484
vt -0.0794095 1.282963
vt -0.0982951 1.056855
vt -0.2 1.233013
vt -0.1597209 1.009721
vt -0.2068547 0.9482951
vt -0.3035533 1.153553
vt -0.2364841 0.8767632
vt -0.2465902 0.8
vt -0.3035533 0.4464466
vt -0.2364841 0.7232368
vt -0.2068547 0.6517049
vt -0.2 0.3669873
vt -0.1597209 0.590279
vt -0.0982951 0.5431453
vt -0.0794095 0.3170371
vt -0.0267632 0.5135158
vt 0.05 0.5034097
vt 0.05 0.3
vt 0.1267632 0.5135158
vt 0.1794095 0.3170371
vt 0.1982951 0.5431453
vt 0.259721 0.590279
vt 0.3 0.3669873
vt 0.3068547 0.6517049
vt 0.3364841 0.7232368
vt -0.3830127 1.05
vt -0.3830127 0.55
vt -0.4329628 0.9294095
vt -0.4329628 0.6705905
vt -0.4499999 0.8
vt -0.1982951 -3.061946E-08
vt -0.259721 -2.500068E-08
vt -0.1982951 0.1
vt -0.259721 0.1
vt 0.1 0.590279
vt -2.500068E-08 0.590279
vt 0.1 0.6517049
vt -1.767815E-08 0.6517049
vt 0.1 0.7232368
vt -9.150886E-09 0.7232368
vt -5.414337E-17 0.8
vt 0.1000001 0.8767632
vt 9.150886E-09 0.8767632
vt 0.1000001 0.9482951
vt 1.767815E-08 0.9482951
vt 0.1000001 1.009721
vt 2.500068E-08 1.009721
vt -0.259721 -0.1000001
vt -0.1982951 -0.1000001
vt -0.1267632 -3.415157E-08
vt -0.1267632 -0.1000001
vt -0.05 -3.535631E-08
vt -0.05 -0.1000001
vt 0.0267632 -3.415157E-08
vt 0.0267632 -0.1000001
vt 0.0982951 -3.061946E-08
vt 0.0982951 -0.1000001
vt 0.1597209 -2.500068E-08
vt 0.1597209 -0.1000001
vt -0.1000001 1.009721
vt -2.500068E-08 1.009721
vt -0.1000001 0.9482951
vt -1.767815E-08 0.9482951
vt -0.1000001 0.8767632
vt -9.150886E-09 0.8767632
vt 5.414346E-17 0.8
vt -0.1 0.7232368
vt 9.150886E-09 0.7232368
vt -0.1 0.6517049
vt 1.767815E-08 0.6517049
vt -0.1 0.590279
vt 2.500068E-08 0.590279
vt 0.1597209 0.1
vt 0.0982951 0.1
vt 0.0267632 0.1
vt -0.05 0.1
vt -0.1267632 0.1

usemtl customMaterial3 (Instance)
usemap customMaterial3 (Instance)
f 11/11/9 10/10/8 9/9/7
f 10/10/8 11/11/9 12/12/10
f 13/13/11 12/12/10 11/11/9
f 12/12/10 13/13/11 14/14/12
f 15/15/13 14/14/12 13/13/11
f 14/14/12 15/15/13 16/16/14
f 17/17/15 16/16/14 15/15/13
f 16/16/14 17/17/15 18/18/16
f 19/19/17 9/9/7 10/10/8
f 9/9/7 19/19/17 20/20/18
f 21/21/19 18/18/16 17/17/15
f 18/18/16 21/21/19 22/22/20
f 21/25/19 23/24/21 22/23/20
f 23/24/21 21/25/19 24/26/22
f 24/26/22 25/27/23 23/24/21
f 25/27/23 24/26/22 26/28/24
f 26/28/24 27/29/25 25/27/23
f 27/29/25 26/28/24 28/30/26
f 28/30/26 29/31/27 27/29/25
f 29/31/27 28/30/26 30/32/28
f 19/23/17 31/34/29 20/33/18
f 31/34/29 19/23/17 32/24/30
f 32/24/30 33/35/31 31/34/29
f 33/35/31 32/24/30 34/27/32
f 34/27/32 35/36/33 33/35/31
f 35/36/33 34/27/32 36/29/34
f 36/29/34 37/37/35 35/36/33
f 37/37/35 36/29/34 38/31/36
f 30/32/28 39/38/37 29/31/27
f 39/38/37 30/32/28 40/39/38
f 40/39/38 41/40/39 39/38/37
f 41/40/39 40/39/38 42/41/40
f 43/44/41 41/43/39 42/42/40
f 41/43/39 43/44/41 44/45/42
f 45/46/43 44/45/42 43/44/41
f 44/45/42 45/46/43 46/47/44
f 47/48/45 46/47/44 45/46/43
f 46/47/44 47/48/45 48/14/46
f 49/49/47 48/14/46 47/48/45
f 48/14/46 49/49/47 50/50/48
f 51/51/49 50/50/48 49/49/47
f 50/50/48 51/51/49 52/52/50
f 53/53/51 52/52/50 51/51/49
f 52/52/50 53/53/51 54/54/52
f 53/55/51 55/38/53 54/40/52
f 55/38/53 53/55/51 56/56/54
f 56/56/54 38/31/36 55/38/53
f 38/31/36 56/56/54 37/37/35
f 23/59/55 57/58/55 22/57/55
f 57/58/55 23/59/55 58/60/55
f 58/60/55 23/59/55 59/61/55
f 59/61/55 23/59/55 60/62/55
f 60/62/55 23/59/55 25/63/55
f 60/62/55 25/63/55 61/64/55
f 61/64/55 25/63/55 62/65/55
f 62/65/55 25/63/55 27/66/55
f 62/65/55 27/66/55 63/67/55
f 63/67/55 27/66/55 29/68/55
f 63/67/55 29/68/55 64/69/55
f 64/69/55 29/68/55 65/70/55
f 65/70/55 29/68/55 39/71/55
f 65/70/55 39/71/55 66/72/55
f 66/72/55 39/71/55 67/73/55
f 67/73/55 39/71/55 41/74/55
f 67/73/55 41/74/55 68/75/55
f 68/75/55 41/74/55 69/76/55
f 54/77/55 69/76/55 41/74/55
f 54/77/55 70/78/55 69/76/55
f 54/77/55 71/79/55 70/78/55
f 55/80/55 71/79/55 54/77/55
f 55/80/55 72/81/55 71/79/55
f 55/80/55 73/82/55 72/81/55
f 38/83/55 73/82/55 55/80/55
f 38/83/55 74/84/55 73/82/55
f 36/85/55 74/84/55 38/83/55
f 36/85/55 75/86/55 74/84/55
f 36/85/55 76/87/55 75/86/55
f 34/88/55 76/87/55 36/85/55
f 34/88/55 77/89/55 76/87/55
f 34/88/55 78/90/55 77/89/55
f 32/91/55 78/90/55 34/88/55
f 32/91/55 79/92/55 78/90/55
f 32/91/55 80/93/55 79/92/55
f 32/91/55 57/58/55 80/93/55
f 32/91/55 22/57/55 57/58/55
f 19/94/55 22/57/55 32/91/55
f 19/94/55 18/95/55 22/57/55
f 10/96/55 18/95/55 19/94/55
f 10/96/55 16/97/55 18/95/55
f 12/98/55 16/97/55 10/96/55
f 16/97/55 12/98/55 14/99/55
f 54/77/55 41/74/55 44/100/55
f 54/77/55 44/100/55 52/101/55
f 52/101/55 44/100/55 46/102/55
f 52/101/55 46/102/55 50/103/55
f 50/103/55 46/102/55 48/104/55
f 11/107/56 15/106/56 13/105/56
f 15/106/56 11/107/56 9/108/56
f 15/106/56 9/108/56 17/109/56
f 17/109/56 9/108/56 20/110/56
f 17/109/56 20/110/56 21/111/56
f 21/111/56 20/110/56 31/112/56
f 21/111/56 31/112/56 81/113/56
f 81/113/56 31/112/56 82/114/56
f 82/114/56 31/112/56 83/115/56
f 83/115/56 31/112/56 84/116/56
f 84/116/56 31/112/56 33/117/56
f 84/116/56 33/117/56 85/118/56
f 85/118/56 33/117/56 86/119/56
f 86/119/56 33/117/56 35/120/56
f 86/119/56 35/120/56 87/121/56
f 87/121/56 35/120/56 88/122/56
f 88/122/56 35/120/56 37/123/56
f 88/122/56 37/123/56 89/124/56
f 89/124/56 37/123/56 56/125/56
f 89/124/56 56/125/56 90/126/56
f 90/126/56 56/125/56 91/127/56
f 91/127/56 56/125/56 53/128/56
f 91/127/56 53/128/56 92/129/56
f 92/129/56 53/128/56 93/130/56
f 42/131/56 93/130/56 53/128/56
f 42/131/56 94/132/56 93/130/56
f 42/131/56 95/133/56 94/132/56
f 40/134/56 95/133/56 42/131/56
f 40/134/56 96/135/56 95/133/56
f 40/134/56 97/136/56 96/135/56
f 30/137/56 97/136/56 40/134/56
f 30/137/56 98/138/56 97/136/56
f 30/137/56 99/139/56 98/138/56
f 28/140/56 99/139/56 30/137/56
f 28/140/56 100/141/56 99/139/56
f 26/142/56 100/141/56 28/140/56
f 26/142/56 101/143/56 100/141/56
f 26/142/56 102/144/56 101/143/56
f 24/145/56 102/144/56 26/142/56
f 24/145/56 103/146/56 102/144/56
f 24/145/56 104/147/56 103/146/56
f 24/145/56 81/113/56 104/147/56
f 81/113/56 24/145/56 21/111/56
f 42/131/56 53/128/56 51/148/56
f 42/131/56 51/148/56 43/149/56
f 43/149/56 51/148/56 49/150/56
f 43/149/56 49/150/56 45/151/56
f 45/151/56 49/150/56 47/152/56
f 101/155/59 60/154/58 61/153/57
f 60/154/58 101/155/59 102/156/52
f 103/159/60 60/158/58 102/157/52
f 60/158/58 103/159/60 59/160/61
f 104/161/62 59/160/61 103/159/60
f 59/160/61 104/161/62 58/162/63
f 81/48/64 58/162/63 104/161/62
f 58/162/63 81/48/64 57/163/65
f 82/164/66 57/163/65 81/48/64
f 57/163/65 82/164/66 80/165/67
f 83/166/68 80/165/67 82/164/66
f 80/165/67 83/166/68 79/167/69
f 84/168/39 79/167/69 83/166/68
f 79/167/69 84/168/39 78/169/40
f 84/170/39 77/153/70 78/154/40
f 77/153/70 84/170/39 85/171/71
f 85/171/71 76/172/72 77/153/70
f 76/172/72 85/171/71 86/173/73
f 86/173/73 75/174/74 76/172/72
f 75/174/74 86/173/73 87/175/75
f 87/175/75 74/176/76 75/174/74
f 74/176/76 87/175/75 88/177/77
f 88/177/77 73/178/78 74/176/76
f 73/178/78 88/177/77 89/179/79
f 89/179/79 72/180/19 73/178/78
f 72/180/19 89/179/79 90/181/20
f 91/184/80 72/183/19 90/182/20
f 72/183/19 91/184/80 71/185/81
f 92/186/82 71/185/81 91/184/80
f 71/185/81 92/186/82 70/187/83
f 93/13/84 70/187/83 92/186/82
f 70/187/83 93/13/84 69/188/85
f 94/189/86 69/188/85 93/13/84
f 69/188/85 94/189/86 68/190/87
f 95/191/88 68/190/87 94/189/86
f 68/190/87 95/191/88 67/192/89
f 96/193/17 67/192/89 95/191/88
f 67/192/89 96/193/17 66/194/18
f 96/195/17 65/178/90 66/180/18
f 65/178/90 96/195/17 97/196/91
f 97/196/91 64/176/92 65/178/90
f 64/176/92 97/196/91 98/197/93
f 98/197/93 63/174/94 64/176/92
f 63/174/94 98/197/93 99/198/95
f 99/198/95 62/172/96 63/174/94
f 62/172/96 99/198/95 100/199/97
f 100/199/97 61/153/57 62/172/96
f 61/153/57 100/199/97 101/155/59
