# Made using Asset Forge (www.assetforge.io) version 1.3 

mtllib Road1.mtl 

v 0.5 0 0.5
v 0.5 0 -0.5
v -0.5 0 0.5
v -0.5 0 -0.5
v 0.5 0.1 -0.5
v 0.5 0.1 0.5
v -0.5 0.1 0.5
v -0.5 0.1 -0.5
vn 0 -1 0
vn 1 0 0
vn 0 0 1
vn -1 0 0
vn 0 0 -1
vn 0 1 0
vt -0.5 -0.5
vt -0.5 0.5
vt 0.5 -0.5
vt 0.5 0.5
vt 0.5 0.1
vt 0.5 0
vt -0.5 0.1
vt -0.5 0

usemtl customMaterial2 (Instance)
usemap customMaterial2 (Instance)
f 3/3/1 2/2/1 1/1/1
f 2/2/1 3/3/1 4/4/1
f 6/7/2 2/6/2 5/5/2
f 2/6/2 6/7/2 1/8/2
f 6/5/3 3/8/3 1/6/3
f 3/8/3 6/5/3 7/7/3
f 3/6/4 8/7/4 4/8/4
f 8/7/4 3/6/4 7/5/4
f 8/5/5 2/8/5 4/6/5
f 2/8/5 8/5/5 5/7/5

usemtl customMaterial2 (Instance)
usemap customMaterial2 (Instance)
f 8/3/6 6/2/6 5/1/6
f 6/2/6 8/3/6 7/4/6
v 5.960464E-08 0.09999996 -0.5000001
v 5.960464E-08 0.09999979 0.5
v 0.06250006 0.09999996 -0.5000001
v 0.06250006 0.09999979 0.5
v 0.06250006 0.1624998 0.5
v 5.960464E-08 0.1624998 0.5
v 5.960464E-08 0.1625 -0.5000001
v 0.06250006 0.1625 -0.5000001
vn 0 -1 -1.192093E-07
vn 0 -1.192093E-07 1
vn 0 1 1.192093E-07
vn 0 1.192093E-07 -1
vt -5.960464E-08 0.5000001
vt -5.960464E-08 -0.5000001
vt -0.06250006 0.5000001
vt -0.06250006 -0.5000001
vt 0.06250006 0.1624998
vt 0.06250006 0.09999985
vt 5.960464E-08 0.1624998
vt 5.960464E-08 0.09999985
vt -0.5000001 0.1624998
vt 0.5000001 0.1625
vt -0.5000001 0.09999985
vt 0.5000001 0.09999996
vt -0.5000001 0.1625
vt 0.5000001 0.1624998
vt -0.5000001 0.09999996
vt 0.5000001 0.09999985
vt -0.06250006 0.09999996
vt -0.06250006 0.1625
vt -5.960464E-08 0.09999996
vt -5.960464E-08 0.1625

usemtl customMaterial3 (Instance)
usemap customMaterial3 (Instance)
f 11/11/7 10/10/7 9/9/7
f 10/10/7 11/11/7 12/12/7
f 14/15/8 12/14/8 13/13/8
f 12/14/8 14/15/8 10/16/8
f 14/9/9 16/12/9 15/10/9
f 16/12/9 14/9/9 13/11/9
f 12/19/2 16/18/2 13/17/2
f 16/18/2 12/19/2 11/20/2
f 9/23/4 14/22/4 15/21/4
f 14/22/4 9/23/4 10/24/4
f 9/27/10 16/26/10 11/25/10
f 16/26/10 9/27/10 15/28/10
