# Made using Asset Forge (www.assetforge.io) version 1.3 

mtllib sand2.mtl 

v 0.5 -0.1 0.5
v 0.5 -0.1 -0.5
v -0.5 -0.1 0.5
v -0.5 -0.1 -0.5
v -0.5 0 -0.5
v -0.5 0 0.5
v 0.5 0 -0.5
v 0.5 0 0.5
vn 0 -0.1 0
vn -1 0 0
vn 0 0 -1
vn 0 0 1
vn 1 0 0
vn 0 0.1 0
vt -0.5 -0.5
vt -0.5 0.5
vt 0.5 -0.5
vt 0.5 0.5
vt -0.5 -0.1
vt -0.5 0
vt 0.5 -0.1
vt 0.5 0

usemtl _defaultMat (Instance)
usemap _defaultMat (Instance)
f 3/3/1 2/2/1 1/1/1
f 2/2/1 3/3/1 4/4/1
f 3/7/2 5/6/2 4/5/2
f 5/6/2 3/7/2 6/8/2
f 5/8/3 2/5/3 4/7/3
f 2/5/3 5/8/3 7/6/3
f 8/8/4 3/5/4 1/7/4
f 3/5/4 8/8/4 6/6/4
f 8/6/5 2/7/5 7/8/5
f 2/7/5 8/6/5 1/5/5
f 5/3/6 8/2/6 7/1/6
f 8/2/6 5/3/6 6/4/6
v 0.5 0 0
v 0 0 0.5
v 0 0 0
v 0.25 0.1 0.25
vn -0.4472136 0.04472136 0
vn 0 0.04472136 0.4472136
vn 0 0.04472136 -0.4472136
vn 0.4472136 0.04472136 0
vt 0 -0.5
vt 0 0
vt -0.25 0.25
vt 0 0.5

usemtl _defaultMat (Instance) (Instance)
usemap _defaultMat (Instance) (Instance)
f 10/9/1 9/6/1 8/1/1
f 9/6/1 10/9/1 11/10/1
f 10/12/7 12/11/7 11/10/7
f 12/11/8 10/12/8 8/2/8
f 12/11/9 9/6/9 11/10/9
f 8/2/10 9/6/10 12/11/10
