# Made using Asset Forge (www.assetforge.io) version 1.3 

mtllib sand3.mtl 

v 0.5 -0.1 0.5
v 0.5 -0.1 -0.5
v -0.5 -0.1 0.5
v -0.5 -0.1 -0.5
v -0.5 0 -0.5
v -0.5 0 0.5
v 0.5 0 -0.5
v 0.5 0 0.5
vn 0 -0.1 0
vn -1 0 0
vn 0 0 -1
vn 0 0 1
vn 1 0 0
vn 0 0.1 0
vt -0.5 -0.5
vt -0.5 0.5
vt 0.5 -0.5
vt 0.5 0.5
vt -0.5 -0.1
vt -0.5 0
vt 0.5 -0.1
vt 0.5 0

usemtl _defaultMat (Instance)
usemap _defaultMat (Instance)
f 3/3/1 2/2/1 1/1/1
f 2/2/1 3/3/1 4/4/1
f 3/7/2 5/6/2 4/5/2
f 5/6/2 3/7/2 6/8/2
f 5/8/3 2/5/3 4/7/3
f 2/5/3 5/8/3 7/6/3
f 8/8/4 3/5/4 1/7/4
f 3/5/4 8/8/4 6/6/4
f 8/6/5 2/7/5 7/8/5
f 2/7/5 8/6/5 1/5/5
f 5/3/6 8/2/6 7/1/6
f 8/2/6 5/3/6 6/4/6
v 0.1024313 0.006749809 -0.07768091
v 0.1024313 -0.03125024 -0.07768091
v 0.2224313 0.006749749 -0.07768091
v 0.2224313 -0.0312503 -0.07768091
v 0.1024313 -0.03125024 0.1164832
v 0.1024313 0.006749809 0.1164832
v 0.2224313 -0.0312503 0.1164832
v 0.2224313 0.006749749 0.1164832
v -0.3772721 -0.03125018 0.3569485
v -0.3772721 -0.03125018 0.1627845
v -0.3772721 0.006749868 0.3569485
v -0.3772721 0.006749868 0.1627845
v -0.2572721 0.006749868 0.1627845
v -0.2572721 0.006749868 0.3569485
v 0.2955362 -0.0312503 -0.3271918
v 0.2955362 -0.0312503 -0.1330277
v 0.2955362 0.006749749 -0.3271918
v 0.2955362 0.006749749 -0.1330277
v 0.175536 0.006749809 -0.3271918
v 0.175536 -0.03125024 -0.3271918
v -0.2572721 -0.03125024 0.1627845
v -0.2572721 -0.03125024 0.3569485
v 0.175536 -0.03125024 -0.1330277
v 0.175536 0.006749809 -0.1330277
v 0.07332259 -0.03125024 -0.2255545
v 0.07332259 -0.03125024 -0.03139044
v 0.07332259 0.006749809 -0.2255545
v 0.07332259 0.006749809 -0.03139044
v -0.04667741 0.006749809 -0.2255545
v -0.04667741 -0.03125024 -0.2255545
v -0.04667741 0.006749809 -0.03139044
v -0.04667741 -0.03125024 -0.03139044
vn -1 1.192093E-07 0
vn 2.384186E-07 1.9 0
vn 1 -1.192093E-07 0
vn -2.384186E-07 -1.9 0
vt -0.1024313 0.006749815
vt -0.1024313 -0.03125021
vt -0.2224313 0.006749801
vt -0.2224313 -0.03125023
vt 0.1024313 -0.03125021
vt 0.1024313 0.006749815
vt 0.2224313 -0.03125023
vt 0.2224313 0.006749801
vt 0.3569485 -0.03125016
vt 0.1627845 -0.03125016
vt 0.3569485 0.006749873
vt 0.1627845 0.006749873
vt 0.3772721 0.1627845
vt 0.2572721 0.1627845
vt 0.3772721 0.3569485
vt 0.2572721 0.3569485
vt 0.3271918 -0.03125023
vt 0.1330277 -0.03125023
vt 0.3271918 0.006749792
vt 0.1330277 0.006749792
vt -0.1755361 0.006749806
vt -0.1755361 -0.03125022
vt -0.2955362 0.006749792
vt -0.2955362 -0.03125023
vt 0.2572721 -0.1627845
vt 0.3772721 -0.1627845
vt 0.2572721 -0.3569485
vt 0.3772721 -0.3569485
vt -0.1024313 -0.07768091
vt -0.2224313 -0.07768091
vt -0.1024313 0.1164832
vt -0.2224313 0.1164832
vt 0.07768091 -0.03125023
vt -0.1164832 -0.03125023
vt 0.07768091 0.006749801
vt -0.1164832 0.006749801
vt 0.3772721 0.006749873
vt 0.3772721 -0.03125016
vt 0.2572721 0.006749858
vt 0.2572721 -0.03125017
vt -0.3772721 -0.03125016
vt -0.3772721 0.006749873
vt -0.2572721 -0.03125017
vt -0.2572721 0.006749858
vt -0.1627845 -0.03125017
vt -0.3569485 -0.03125017
vt -0.1627845 0.006749858
vt -0.3569485 0.006749858
vt -0.2955362 0.3271918
vt -0.1755361 0.3271918
vt -0.2955362 0.1330277
vt -0.1755361 0.1330277
vt -0.1755361 -0.3271918
vt -0.2955362 -0.3271918
vt -0.1755361 -0.1330277
vt -0.2955362 -0.1330277
vt -0.1330277 -0.03125022
vt -0.3271918 -0.03125022
vt -0.1330277 0.006749806
vt -0.3271918 0.006749806
vt 0.1164832 -0.03125021
vt -0.07768091 -0.03125021
vt 0.1164832 0.006749815
vt -0.07768091 0.006749815
vt -0.2224313 0.07768091
vt -0.1024313 0.07768091
vt -0.2224313 -0.1164832
vt -0.1024313 -0.1164832
vt 0.2255545 -0.03125021
vt 0.03139044 -0.03125021
vt 0.2255545 0.006749819
vt 0.03139044 0.006749819
vt 0.04667738 0.006749833
vt 0.04667739 -0.03125019
vt -0.07332263 0.006749819
vt -0.07332263 -0.03125021
vt 0.04667738 -0.2255545
vt -0.07332263 -0.2255545
vt 0.04667738 -0.03139044
vt -0.07332263 -0.03139044
vt -0.07332263 0.2255545
vt 0.04667739 0.2255545
vt -0.07332263 0.03139044
vt 0.04667739 0.03139044
vt -0.04667739 -0.03125019
vt -0.04667738 0.006749833
vt 0.07332263 -0.03125021
vt 0.07332263 0.006749819
vt -0.03139044 -0.03125019
vt -0.2255545 -0.03125019
vt -0.03139044 0.006749833
vt -0.2255545 0.006749833
vt 0.1755361 -0.03125022
vt 0.1755361 0.006749806
vt 0.2955362 -0.03125023
vt 0.2955362 0.006749792

usemtl lightStone (Instance) (Instance)
usemap lightStone (Instance) (Instance)
f 11/11/3 10/10/3 9/9/3
f 10/10/3 11/11/3 12/12/3
f 15/15/4 14/14/4 13/13/4
f 14/14/4 15/15/4 16/16/4
f 19/19/7 18/18/7 17/17/7
f 18/18/7 19/19/7 20/20/7
f 19/23/8 21/22/8 20/21/8
f 21/22/8 19/23/8 22/24/8
f 25/27/9 24/26/9 23/25/9
f 24/26/9 25/27/9 26/28/9
f 25/31/3 28/30/3 27/29/3
f 28/30/3 25/31/3 23/32/3
f 30/35/10 18/34/10 29/33/10
f 18/34/10 30/35/10 17/36/10
f 14/39/8 11/38/8 9/37/8
f 11/38/8 14/39/8 16/40/8
f 11/43/9 15/42/9 12/41/9
f 15/42/9 11/43/9 16/44/9
f 21/47/3 18/46/3 20/45/3
f 18/46/3 21/47/3 29/48/3
f 30/51/4 19/50/4 17/49/4
f 19/50/4 30/51/4 22/52/4
f 21/55/9 30/54/9 29/53/9
f 30/54/9 21/55/9 22/56/9
f 24/59/10 28/58/10 23/57/10
f 28/58/10 24/59/10 31/60/10
f 32/63/8 25/62/8 27/61/8
f 25/62/8 32/63/8 26/64/8
f 32/67/7 28/66/7 31/65/7
f 28/66/7 32/67/7 27/68/7
f 14/71/7 10/70/7 13/69/7
f 10/70/7 14/71/7 9/72/7
f 15/75/10 10/74/10 12/73/10
f 10/74/10 15/75/10 13/76/10
f 35/79/9 34/78/9 33/77/9
f 34/78/9 35/79/9 36/80/9
f 35/83/3 38/82/3 37/81/3
f 38/82/3 35/83/3 33/84/3
f 39/87/8 35/86/8 37/85/8
f 35/86/8 39/87/8 36/88/8
f 34/91/10 38/90/10 33/89/10
f 38/90/10 34/91/10 40/92/10
f 34/95/4 39/94/4 40/93/4
f 39/94/4 34/95/4 36/96/4
f 39/99/7 38/98/7 40/97/7
f 38/98/7 39/99/7 37/100/7
f 24/103/4 32/102/4 31/101/4
f 32/102/4 24/103/4 26/104/4
