# Blender v2.79 (sub 0) OBJ File: ''
# www.blender.org
o Cube
v 200.00 -200.00 -200.00
v 200.00 -200.00 200.00
v -200.00 -200.00 200.00
v -200.00 -200.00 -200.00
v 200.00 200.00 -200.00
v 200.00 200.00 200.00
v -200.00 200.00 200.00
v -200.00 200.00 -200.00
vn 0.0 1.0 0.0
vn 0.0 -1.0 -0.0
vn -1.0 0.0 0.0
vn 0.0 0.0 -1.0
vn 1.0 0.0 0.0
vn -0.0 -0.0 1.0
s off
f 4//1 2//1 1//1
f 6//2 8//2 5//2
f 2//3 5//3 1//3
f 3//4 6//4 2//4
f 3//5 8//5 7//5
f 8//6 1//6 5//6
f 4//1 3//1 2//1
f 6//2 7//2 8//2
f 2//3 6//3 5//3
f 3//4 7//4 6//4
f 3//5 4//5 8//5
f 8//6 4//6 1//6
