# Made using Asset Forge (www.assetforge.io) version 1.3 

mtllib supply_depot.mtl 

v -0.5 0.625 -0.5
v -0.5 0 -0.5
v 0.5 0 -0.5
v 0.5 0.625 -0.5
v -0.5 0.625 0.5
v -0.5 0 0.5
v 0.5 0.625 0.5
v 0.5 0 0.5
v 0.5 0.5 -0.06250003
v 0.5 0.5 -0.375
v 0.5 0.12 -0.375
v 0.5 0.06 -0.375
v 0.5 0.06 -0.06250003
v 0.5 0.12 -0.06250003
v 0.4 0.5 -0.06250003
v 0.4 0.12 -0.06250003
v 0.4 0.5 -0.375
v 0.4 0.12 -0.375
v 0.55 0.12 -0.06250003
v 0.55 0.06 -0.06250003
v 0.55 0.12 -0.375
v 0.55 0.06 -0.375
v 0.4 0.06 -0.06250003
v 0.4 0.06 -0.375
vn 0 0 -1
vn -1 0 0
vn 0 0 1
vn 1 0 0
vn 1.35358E-16 1 -1.35358E-16
vn 0 -1 0
vt 0.5 0.625
vt 0.5 0
vt -0.5 0
vt -0.5 0.625
vt 0.5 0.625
vt 0.5 0
vt -0.5 0.625
vt 0.06250003 0.5
vt -0.5 0
vt -0.5 -0.5
vt -0.5 0.5
vt 0.5 0.5
vt 0.5 -0.5
vt 0.375 0.5
vt 0.375 0.12
vt 0.375 0.06
vt 0.06250003 0.06
vt 0.5 0.06
vt 0.5 0.5
vt 0.5 0.12
vt -0.5 0.12
vt -0.5 0.5
vt -0.4 0.5
vt -0.4 0.12
vt -0.5 0.06250003
vt -0.5 0.375
vt -0.4 0.375
vt -0.4 0.06250003
vt 0.4 0.12
vt 0.4 0.5
vt 0.55 0.12
vt 0.55 0.06
vt 0.06250003 0.12
vt -0.5 0.06
vt -0.55 0.06
vt -0.55 0.12
vt -0.55 0.06250003
vt -0.55 0.375
vt -0.5 -0.5
vt 0.5 -0.5
vt -0.375 0.12
vt -0.06250003 0.12
vt -0.06250003 0.06
vt -0.375 0.06
vt -0.4 0.06
vt 0.4 0.06

usemtl Brick (Instance)
usemap Brick (Instance)
f 3/3/1 2/2/1 1/1/1
f 1/1/1 4/4/1 3/3/1
f 2/3/2 6/6/2 5/5/2
f 5/5/2 1/4/2 2/3/2
f 6/3/3 8/2/3 7/1/3
f 7/1/3 5/4/3 6/3/3
f 8/9/4 9/8/4 7/7/4
f 4/1/4 7/7/4 9/8/4
f 5/12/5 7/11/5 4/10/5
f 4/10/5 1/13/5 5/12/5
f 10/14/4 4/1/4 9/8/4
f 11/15/4 4/1/4 10/14/4
f 12/16/4 4/1/4 11/15/4
f 4/1/4 12/16/4 3/2/4
f 12/16/4 13/17/4 3/2/4
f 3/2/4 13/17/4 8/9/4
f 9/8/4 8/9/4 13/17/4
f 14/20/4 9/19/4 13/18/4
f 15/23/1 9/22/1 14/21/1
f 14/21/1 16/24/1 15/23/1
f 17/27/6 10/26/6 9/25/6
f 9/25/6 15/28/6 17/27/6
f 10/19/3 17/30/3 18/29/3
f 18/29/3 11/20/3 10/19/3
f 19/31/3 14/20/3 13/18/3
f 13/18/3 20/32/3 19/31/3
f 22/16/4 21/15/4 19/33/4
f 19/33/4 20/17/4 22/16/4
f 22/35/1 12/34/1 11/21/1
f 11/21/1 21/36/1 22/35/1
f 20/37/6 13/25/6 12/26/6
f 12/26/6 22/38/6 20/37/6
f 2/19/6 3/22/6 8/39/6
f 8/39/6 6/40/6 2/19/6

usemtl Glass (Instance)
usemap Glass (Instance)
f 18/15/4 17/14/4 15/8/4
f 15/8/4 16/33/4 18/15/4

usemtl FrontColor (Instance)
usemap FrontColor (Instance)
f 23/43/2 16/42/2 18/41/2
f 18/41/2 24/44/2 23/43/2
f 11/21/1 12/34/1 24/45/1
f 24/45/1 18/24/1 11/21/1
f 13/25/6 23/28/6 24/27/6
f 24/27/6 12/26/6 13/25/6
f 13/18/3 14/20/3 16/29/3
f 16/29/3 23/46/3 13/18/3
v 0.5 0.6 -0.5
v 0.5 0.70625 -0.5
v -0.5 0.70625 -0.5
v -0.5 0.6 -0.5
v 0.5 0.6 0.5
v 0.5 0.70625 0.5
v -0.5 0.6 0.5
v -0.5 0.70625 0.5
vn 0 1 3.79953E-17
vt -0.5 0.6
vt -0.5 0.70625
vt 0.5 0.70625
vt 0.5 0.6
vt -0.5 0.6
vt -0.5 0.70625
vt 0.5 0.6
vt 0.5 0.70625

usemtl Roof (Instance)
usemap Roof (Instance)
f 27/49/1 26/48/1 25/47/1
f 25/47/1 28/50/1 27/49/1
f 26/49/4 30/52/4 29/51/4
f 29/51/4 25/50/4 26/49/4
f 30/49/3 32/48/3 31/47/3
f 31/47/3 29/50/3 30/49/3
f 27/48/2 28/47/2 31/53/2
f 31/53/2 32/54/2 27/48/2
f 25/22/6 29/39/6 31/40/6
f 31/40/6 28/19/6 25/22/6
f 26/10/7 27/13/7 32/12/7
f 32/12/7 30/11/7 26/10/7
v -0.03060719 0.73 0.2
v -0.03349313 0.7199999 0.178079
v -0.0363791 0.73 0.1561579
v -0.0363791 0.71 0.1561579
v -0.03349313 0.71 0.178079
v -0.03060719 0.7199999 0.2
v -0.0363791 0.73 0.2438421
v -0.05330151 0.73 0.2846964
v -0.0363791 0.71 0.2438421
v -0.05330151 0.71 0.2846964
v -0.2846963 0.7099999 0.3466985
v -0.2846963 0.7299999 0.3466985
v -0.3197787 0.7099999 0.3197788
v -0.3197787 0.7299999 0.3197788
v -0.1561579 0.7099999 0.3636209
v -0.1561579 0.7299999 0.3636209
v -0.1780789 0.7099999 0.3665068
v -0.1780789 0.7199999 0.3665068
v -0.2 0.7299999 0.3693928
v -0.2 0.7199999 0.3693928
v -0.2438421 0.7099999 0.3636209
v -0.2438421 0.7299999 0.3636209
v -0.221921 0.7099999 0.3665068
v -0.221921 0.7199999 0.3665068
v -0.08022121 0.7299999 0.3197788
v -0.08022121 0.7099999 0.3197788
v -0.1153036 0.7099999 0.3466985
v -0.1153036 0.7299999 0.3466985
v -0.05330151 0.73 0.1153036
v -0.05330151 0.71 0.1153036
v -0.03349313 0.7199999 0.2219211
v -0.03349313 0.71 0.2219211
v -0.2 0.7299999 -0.01386137
v -0.1446486 0.7299999 -0.006574214
v -0.2553514 0.7299999 -0.006574214
v -0.3069307 0.7299999 0.01479062
v -0.09306929 0.7299999 0.01479062
v -0.3512228 0.7299999 0.04877719
v -0.2 0.7299999 0.03060725
v -0.2438421 0.7299999 0.03637917
v -0.2846963 0.7299999 0.05330159
v -0.3852094 0.7299999 0.09306932
v -0.3197787 0.7299999 0.08022125
v -0.3466984 0.7299999 0.1153036
v -0.4065742 0.7299999 0.1446486
v -0.3636208 0.7299999 0.1561579
v -0.4138613 0.7299999 0.2
v -0.3693928 0.7299999 0.2
v -0.4065742 0.7299999 0.2553514
v -0.3636208 0.7299999 0.2438421
v -0.3466984 0.7299999 0.2846964
v -0.3852094 0.7299999 0.3069307
v -0.3512228 0.7299999 0.3512228
v -0.3069307 0.7299999 0.3852094
v -0.09306929 0.7299999 0.3852094
v -0.0487771 0.73 0.3512228
v -0.01479056 0.73 0.3069307
v 0.006574273 0.73 0.2553514
v 0.01386142 0.73 0.2
v 0.006574273 0.73 0.1446486
v -0.01479056 0.73 0.09306932
v -0.08022121 0.7299999 0.08022125
v -0.1153036 0.7299999 0.05330159
v -0.0487771 0.73 0.04877719
v -0.1561579 0.7299999 0.03637917
v -0.2553514 0.7299999 0.4065742
v -0.1446486 0.7299999 0.4065742
v -0.2 0.7299999 0.4138614
v -0.3852094 0.6999999 0.3069307
v -0.3512228 0.6999999 0.3512228
v -0.3069307 0.6999999 0.3852094
v -0.2553514 0.6999999 0.4065742
v -0.2 0.6999999 0.4138614
v -0.1446486 0.6999999 0.4065742
v -0.09306929 0.6999999 0.3852094
v -0.0487771 0.6999999 0.3512228
v -0.01479056 0.6999999 0.3069307
v 0.006574273 0.6999999 0.2553514
v 0.006574273 0.6999999 0.1446486
v -0.01479056 0.6999999 0.09306932
v -0.3693928 0.7199999 0.2
v -0.3665068 0.7199999 0.178079
v -0.3636208 0.7099999 0.1561579
v -0.3665068 0.7099999 0.178079
v -0.4065742 0.6999999 0.2553514
v 0.01386142 0.6999999 0.2
v -0.3466984 0.7099999 0.1153036
v -0.3197787 0.7099999 0.08022125
v -0.2846963 0.7099999 0.05330159
v -0.2553514 0.6999999 -0.006574214
v -0.3069307 0.6999999 0.01479062
v -0.3512228 0.6999999 0.04877719
v -0.3852094 0.6999999 0.09306932
v -0.4065742 0.6999999 0.1446486
v -0.4138613 0.6999999 0.2
v -0.09306929 0.6999999 0.01479062
v -0.1446486 0.6999999 -0.006574214
v -0.0487771 0.6999999 0.04877719
v -0.2 0.6999999 -0.01386137
v -0.3466984 0.7099999 0.2846964
v -0.3636208 0.7099999 0.2438421
v -0.3665068 0.7199999 0.2219211
v -0.3665068 0.7099999 0.2219211
v -0.2 0.7199999 0.03060725
v -0.221921 0.7199999 0.03349322
v -0.221921 0.7099999 0.03349322
v -0.2438421 0.7099999 0.03637917
v -0.1561579 0.7099999 0.03637917
v -0.1780789 0.7199999 0.03349322
v -0.1780789 0.7099999 0.03349322
v -0.1153036 0.7099999 0.05330159
v -0.08022121 0.7099999 0.08022125
v -0.221921 0.7199999 0.2219211
v -0.1780789 0.7199999 0.2219211
v -0.221921 0.7199999 0.178079
v -0.1780789 0.7199999 0.178079
v -0.1780789 0.7099999 0.178079
v -0.221921 0.7099999 0.178079
v -0.221921 0.7099999 0.2219211
v -0.1780789 0.7099999 0.2219211
vn -0.9990386 -1.192093E-07 0.04384173
vn -0.991445 -1.192093E-07 0.1305261
vn -0.9659258 -1.192093E-07 0.2588192
vn -0.9763442 -1.192093E-07 0.2162224
vn -0.991445 -1.192093E-07 0.1305266
vn -0.9990386 -1.192093E-07 -0.04384191
vn -0.9808403 -1.192093E-07 -0.194814
vn -0.8871138 -1.192093E-07 -0.4615511
vn -0.9659258 -1.192093E-07 -0.2588193
vn -0.8432719 -1.192093E-07 -0.5374874
vn 0.4615512 5.960464E-08 -0.8871136
vn 0.5374876 5.960464E-08 -0.8432718
vn 0.707107 5.960464E-08 -0.7071066
vn -0.3009185 -2.980232E-08 -0.9536498
vn -0.1948141 -2.980232E-08 -0.9808401
vn -0.130526 -1.490116E-08 -0.9914449
vn 0.2162221 2.980232E-08 -0.9763442
vn 0.2588192 2.980232E-08 -0.9659258
vn 0.130526 1.490116E-08 -0.9914449
vn -0.7071069 -5.960464E-08 -0.7071068
vn -0.5374876 -5.960464E-08 -0.8432718
vn -0.4615512 -5.960464E-08 -0.8871136
vn -0.8432719 -1.192093E-07 0.5374874
vn -0.8871138 -1.192093E-07 0.4615511
vn -0.9969161 -1.192093E-07 -0.078477
vn -0.991445 -1.192093E-07 -0.1305266
vn -1.192093E-07 1 0
vn -0.887114 -1.192093E-07 0.4615508
vn -0.7071068 -5.960464E-08 0.7071068
vn -0.8432719 -1.192093E-07 0.5374873
vn -0.7071069 -5.960464E-08 0.7071068
vn -0.4615512 -5.960464E-08 0.8871137
vn -0.5374876 -5.960464E-08 0.8432718
vn -0.2162222 -2.980232E-08 0.9763442
vn -0.3009184 -2.980232E-08 0.9536499
vn 0.04384197 3.72529E-09 0.9990385
vn -0.04384197 -3.72529E-09 0.9990385
vn 0.3009183 2.980232E-08 0.9536499
vn 0.2162221 2.980232E-08 0.9763442
vn 0.5374876 5.960464E-08 0.8432717
vn 0.4615511 5.960464E-08 0.8871137
vn 0.7071068 5.960464E-08 0.7071068
vn 0.7071069 5.960464E-08 0.7071068
vn 0.8432719 1.192093E-07 0.5374875
vn 0.8871139 1.192093E-07 0.4615508
vn 0.9536501 1.192093E-07 0.3009182
vn 0.9763443 1.192093E-07 0.2162221
vn 0.9763443 1.192093E-07 -0.2162221
vn 0.8871139 1.192093E-07 -0.4615508
vn 0.9536501 1.192093E-07 -0.3009182
vn 0.8432719 1.192093E-07 -0.5374875
vn 0.9990386 1.192093E-07 -0.04384209
vn 0.9808401 1.192093E-07 0.1948144
vn 0.9990386 1.192093E-07 0.04384209
vn 0.991445 1.192093E-07 0.1305266
vn 0.9659258 1.192093E-07 0.2588193
vn -0.9763443 -1.192093E-07 0.2162221
vn -0.9536501 -1.192093E-07 0.3009182
vn 0.9990386 1.192093E-07 0.04384198
vn 0.9990386 1.192093E-07 -0.04384198
vn 0.8432721 1.192093E-07 0.5374872
vn 0.707107 5.960464E-08 0.7071066
vn 0.4615512 5.960464E-08 0.8871136
vn 0.5374876 5.960464E-08 0.8432718
vn -0.2162222 -2.980232E-08 -0.9763442
vn -0.3009184 -2.980232E-08 -0.9536499
vn -0.4615512 -5.960464E-08 -0.8871137
vn -0.8432719 -1.192093E-07 -0.5374873
vn -0.887114 -1.192093E-07 -0.4615508
vn -0.9536501 -1.192093E-07 -0.3009182
vn -0.9763443 -1.192093E-07 -0.2162221
vn -0.9990386 -1.192093E-07 -0.04384198
vn -0.9990386 -1.192093E-07 0.04384198
vn 0.5374876 5.960464E-08 -0.8432717
vn 0.4615511 5.960464E-08 -0.8871137
vn 0.3009183 2.980232E-08 -0.9536499
vn 0.7071068 5.960464E-08 -0.7071068
vn 0.7071069 5.960464E-08 -0.7071068
vn 0.04384197 3.72529E-09 -0.9990385
vn -0.04384197 -3.72529E-09 -0.9990385
vn 0.8432721 1.192093E-07 -0.5374872
vn 0.8871139 1.192093E-07 -0.4615509
vn 0.9659258 1.192093E-07 -0.2588193
vn 0.9763442 1.192093E-07 -0.2162224
vn 0.991445 1.192093E-07 -0.1305266
vn -0.04384189 -3.72529E-09 0.9990385
vn 0.04384189 3.72529E-09 0.9990385
vn 0.1819523 1.490116E-08 0.9833074
vn 0.130526 1.490116E-08 0.9914449
vn 0.3009185 2.980232E-08 0.9536498
vn -0.2162221 -2.980232E-08 0.9763442
vn -0.130526 -1.490116E-08 0.9914449
vn -0.2588191 -2.980232E-08 0.9659258
vn -0.4615512 -5.960464E-08 0.8871136
vn -1 -1.192093E-07 0
vn 1 1.192093E-07 0
vt 0.2 0.73
vt 0.178079 0.7199999
vt 0.1561579 0.73
vt 0.1561579 0.71
vt 0.178079 0.71
vt 0.2 0.7199999
vt 0.2438421 0.73
vt 0.2846964 0.73
vt 0.2438421 0.71
vt 0.2846964 0.71
vt 0.2846963 0.7099999
vt 0.2846963 0.7299999
vt 0.3197788 0.7099999
vt 0.3197788 0.7299999
vt 0.1561579 0.71
vt 0.1561579 0.73
vt 0.1780789 0.71
vt 0.1780789 0.7199999
vt 0.2 0.73
vt 0.2 0.7199999
vt 0.2438421 0.7099999
vt 0.2438421 0.7299999
vt 0.221921 0.7099999
vt 0.221921 0.7199999
vt 0.3197788 0.73
vt 0.3197788 0.71
vt 0.1153036 0.71
vt 0.1153036 0.73
vt 0.1153036 0.73
vt 0.1153036 0.71
vt 0.2219211 0.7199999
vt 0.2219211 0.71
vt 0.08022119 0.71
vt 0.0802212 0.73
vt 0.2 -0.01386137
vt 0.1446486 -0.006574214
vt 0.2553514 -0.006574214
vt 0.3069307 0.01479062
vt 0.09306928 0.01479062
vt 0.3512228 0.04877719
vt 0.2 0.03060725
vt 0.2438421 0.03637917
vt 0.2846963 0.05330159
vt 0.3852094 0.09306932
vt 0.3197788 0.08022125
vt 0.3466984 0.1153036
vt 0.4065742 0.1446486
vt 0.3636208 0.1561579
vt 0.4138614 0.2
vt 0.3693928 0.2
vt 0.4065742 0.2553514
vt 0.3636208 0.2438421
vt 0.3466984 0.2846964
vt 0.3852094 0.3069307
vt 0.3197788 0.3197788
vt 0.3512228 0.3512228
vt 0.2846963 0.3466985
vt 0.2438421 0.3636209
vt 0.3069307 0.3852094
vt 0.2 0.3693928
vt 0.09306928 0.3852094
vt 0.1561579 0.3636209
vt 0.04877712 0.3512228
vt 0.1153036 0.3466985
vt 0.0802212 0.3197788
vt 0.01479058 0.3069307
vt 0.05330153 0.2846964
vt -0.006574264 0.2553514
vt 0.03637911 0.2438421
vt -0.01386141 0.2
vt 0.03060721 0.2
vt 0.03637911 0.1561579
vt -0.006574264 0.1446486
vt 0.05330153 0.1153036
vt 0.01479058 0.09306932
vt 0.0802212 0.08022125
vt 0.1153036 0.05330159
vt 0.04877712 0.04877719
vt 0.1561579 0.03637917
vt 0.2553514 0.4065742
vt 0.1446486 0.4065742
vt 0.2 0.4138614
vt 0.3069307 0.7299999
vt 0.3512228 0.7299999
vt 0.3069307 0.6999999
vt 0.3512228 0.6999999
vt -0.3069307 0.7299999
vt -0.3069307 0.6999999
vt -0.3512228 0.7299999
vt -0.3512228 0.6999999
vt -0.2553514 0.7299999
vt -0.2553514 0.6999999
vt -0.2 0.73
vt -0.2 0.6999999
vt -0.1446486 0.73
vt -0.1446486 0.6999999
vt -0.09306928 0.73
vt -0.09306927 0.6999999
vt -0.04877712 0.73
vt -0.04877711 0.6999999
vt -0.3512228 0.73
vt -0.3069307 0.73
vt -0.3069307 0.6999999
vt -0.2553514 0.73
vt -0.1446486 0.73
vt -0.09306932 0.73
vt -0.1446486 0.6999999
vt -0.09306932 0.6999999
vt -0.2 0.7299999
vt -0.1561579 0.7299999
vt -0.2 0.7199999
vt -0.178079 0.7199999
vt -0.1561579 0.7099999
vt -0.178079 0.7099999
vt 0.2553514 0.7299999
vt 0.2553514 0.6999999
vt -0.2 0.73
vt -0.2 0.6999999
vt -0.1153036 0.7299999
vt -0.1153036 0.7099999
vt -0.08022125 0.7299999
vt -0.08022125 0.7099999
vt -0.2846963 0.7299999
vt -0.2846963 0.7099999
vt -0.3197788 0.7299999
vt -0.3197788 0.7099999
vt 0.3069307 0.6999999
vt 0.3069307 0.7299999
vt 0.04877719 0.7299999
vt 0.09306932 0.7299999
vt 0.04877719 0.6999999
vt 0.09306932 0.6999999
vt 0.1446486 0.7299999
vt 0.1446486 0.6999999
vt 0.2 0.7299999
vt 0.2 0.6999999
vt 0.09306927 0.6999999
vt 0.09306928 0.73
vt 0.1446486 0.6999999
vt 0.1446486 0.73
vt 0.04877711 0.6999999
vt 0.04877712 0.73
vt 0.2 0.6999999
vt -0.3197788 0.7299999
vt -0.2846964 0.7299999
vt -0.3197788 0.7099999
vt -0.2846964 0.7099999
vt -0.2438421 0.7299999
vt -0.2438421 0.7099999
vt -0.2219211 0.7199999
vt -0.2219211 0.7099999
vt -0.04877719 0.73
vt -0.04877719 0.6999999
vt -0.2 0.7199999
vt -0.2438421 0.7299999
vt -0.221921 0.7199999
vt -0.221921 0.7099999
vt -0.2438421 0.7099999
vt -0.1561579 0.71
vt -0.1780789 0.7199999
vt -0.1561579 0.73
vt -0.1780789 0.71
vt -0.1153036 0.73
vt -0.1153036 0.71
vt -0.0802212 0.73
vt -0.08022119 0.71
vt 0.08022125 0.73
vt 0.08022125 0.71
vt 0.221921 0.2219211
vt 0.1780789 0.2219211
vt 0.221921 0.3665068
vt 0.1780789 0.3665068
vt 0.3665068 0.178079
vt 0.221921 0.178079
vt 0.1780789 0.178079
vt 0.03349314 0.178079
vt 0.0306072 0.2
vt 0.3665068 0.2219211
vt 0.03349314 0.2219211
vt 0.1780789 0.03349322
vt 0.221921 0.03349322
vt -0.3665068 0.7199999
vt -0.03349314 0.7199999
vt 0.03349314 0.71
vt 0.03349314 0.7199999
vt -0.03349322 0.7199999
vt -0.178079 0.71
vt -0.03349322 0.71
vt 0.03349322 0.7199999
vt 0.03349322 0.7099999
vt 0.178079 0.7099999
vt 0.3665068 0.7099999
vt 0.3665068 0.7199999
vt -0.3665068 0.7099999
vt 0.3665068 0.7199999
vt 0.2219211 0.7099999
vt 0.3665068 0.7099999
vt -0.3665068 0.7199999
vt -0.3665068 0.71
vt -0.2219211 0.71
vt -0.03349314 0.71
vt 0.03637911 0.2438421
vt 0.08022119 0.3197788
vt 0.08022119 0.08022125
vt 0.03637911 0.1561579
vt 0.2438421 0.03637917
vt 0.2438421 0.3636209

usemtl element (Instance)
usemap element (Instance)
f 35/57/10 34/56/9 33/55/8
f 34/56/9 35/57/10 36/58/11
f 34/56/9 36/58/11 37/59/12
f 38/60/13 33/55/8 34/56/9
f 41/63/16 40/62/15 39/61/14
f 40/62/15 41/63/16 42/64/17
f 45/67/20 44/66/19 43/65/18
f 44/66/19 45/67/20 46/68/20
f 49/71/23 48/70/22 47/69/21
f 48/70/22 49/71/23 50/72/23
f 48/70/22 50/72/23 51/73/1
f 51/73/1 50/72/23 52/74/1
f 43/65/18 54/76/25 53/75/24
f 54/76/25 43/65/18 44/66/19
f 53/75/24 56/78/26 55/77/26
f 54/76/25 56/78/26 53/75/24
f 51/73/1 56/78/26 54/76/25
f 56/78/26 51/73/1 52/74/1
f 42/64/17 57/79/27 40/62/15
f 57/79/27 42/64/17 58/80/27
f 47/69/21 60/82/29 59/81/28
f 60/82/29 47/69/21 48/70/22
f 62/84/31 35/57/10 61/83/30
f 35/57/10 62/84/31 36/58/11
f 38/60/13 39/61/14 33/55/8
f 39/61/14 38/60/13 63/85/32
f 39/61/14 63/85/32 41/63/16
f 41/63/16 63/85/32 64/86/33
f 59/81/28 57/88/27 58/87/27
f 57/88/27 59/81/28 60/82/29
f 67/91/34 66/90/34 65/89/34
f 66/90/34 67/91/34 68/92/34
f 66/90/34 68/92/34 69/93/34
f 69/93/34 68/92/34 70/94/34
f 69/93/34 70/94/34 71/95/34
f 71/95/34 70/94/34 72/96/34
f 72/96/34 70/94/34 73/97/34
f 73/97/34 70/94/34 74/98/34
f 73/97/34 74/98/34 75/99/34
f 75/99/34 74/98/34 76/100/34
f 76/100/34 74/98/34 77/101/34
f 76/100/34 77/101/34 78/102/34
f 78/102/34 77/101/34 79/103/34
f 78/102/34 79/103/34 80/104/34
f 80/104/34 79/103/34 81/105/34
f 80/104/34 81/105/34 82/106/34
f 82/106/34 81/105/34 83/107/34
f 83/107/34 81/105/34 84/108/34
f 83/107/34 84/108/34 46/109/34
f 46/109/34 84/108/34 85/110/34
f 46/109/34 85/110/34 44/111/34
f 44/111/34 85/110/34 54/112/34
f 54/112/34 85/110/34 86/113/34
f 54/112/34 86/113/34 51/114/34
f 87/115/34 51/114/34 86/113/34
f 87/115/34 48/116/34 51/114/34
f 88/117/34 48/116/34 87/115/34
f 88/117/34 60/118/34 48/116/34
f 88/117/34 57/119/34 60/118/34
f 89/120/34 57/119/34 88/117/34
f 89/120/34 40/121/34 57/119/34
f 90/122/34 40/121/34 89/120/34
f 90/122/34 39/123/34 40/121/34
f 91/124/34 39/123/34 90/122/34
f 91/124/34 33/125/34 39/123/34
f 91/124/34 35/126/34 33/125/34
f 92/127/34 35/126/34 91/124/34
f 92/127/34 61/128/34 35/126/34
f 93/129/34 61/128/34 92/127/34
f 93/129/34 94/130/34 61/128/34
f 93/129/34 95/131/34 94/130/34
f 96/132/34 95/131/34 93/129/34
f 96/132/34 97/133/34 95/131/34
f 96/132/34 71/95/34 97/133/34
f 71/95/34 96/132/34 69/93/34
f 87/115/34 86/113/34 98/134/34
f 87/115/34 98/134/34 99/135/34
f 99/135/34 98/134/34 100/136/34
f 101/139/37 85/138/36 84/137/35
f 85/138/36 101/139/37 102/140/38
f 85/143/36 103/142/40 86/141/39
f 103/142/40 85/143/36 102/144/38
f 86/141/39 104/146/42 98/145/41
f 104/146/42 86/141/39 103/142/40
f 98/145/41 105/148/44 100/147/43
f 105/148/44 98/145/41 104/146/42
f 100/147/43 106/150/46 99/149/45
f 106/150/46 100/147/43 105/148/44
f 99/149/45 107/152/48 87/151/47
f 107/152/48 99/149/45 106/150/46
f 87/151/47 108/154/50 88/153/49
f 108/154/50 87/151/47 107/152/48
f 108/144/50 89/156/51 88/155/49
f 89/156/51 108/144/50 109/157/52
f 109/157/52 90/158/53 89/156/51
f 90/158/53 109/157/52 110/146/54
f 111/161/57 93/160/56 92/159/55
f 93/160/56 111/161/57 112/162/58
f 113/165/61 78/164/60 80/163/59
f 78/164/60 113/165/61 114/166/62
f 78/164/60 114/166/62 115/167/63
f 115/167/63 114/166/62 116/168/62
f 117/170/65 84/137/35 81/169/64
f 84/137/35 117/170/65 101/139/37
f 110/146/54 91/171/66 90/158/53
f 91/171/66 110/146/54 118/172/67
f 115/167/63 76/173/52 78/164/60
f 76/173/52 115/167/63 119/174/68
f 119/174/68 75/175/69 76/173/52
f 75/175/69 119/174/68 120/176/69
f 75/179/69 121/178/71 73/177/70
f 121/178/71 75/179/69 120/180/69
f 123/181/74 67/169/73 122/170/72
f 67/169/73 123/181/74 68/182/28
f 124/140/27 68/182/28 123/181/74
f 68/182/28 124/140/27 70/138/27
f 124/185/27 74/184/75 70/183/27
f 74/184/75 124/185/27 125/186/76
f 125/186/76 77/187/77 74/184/75
f 77/187/77 125/186/76 126/188/78
f 126/188/78 79/189/79 77/187/77
f 79/189/79 126/188/78 127/190/80
f 129/193/83 69/192/82 128/191/81
f 69/192/82 129/193/83 66/194/24
f 118/172/67 92/159/55 91/171/66
f 92/159/55 118/172/67 111/161/57
f 127/190/80 81/169/64 79/189/79
f 81/169/64 127/190/80 117/170/65
f 128/191/81 96/196/85 130/195/84
f 96/196/85 128/191/81 69/192/82
f 131/197/86 66/194/24 129/193/83
f 66/194/24 131/197/86 65/73/87
f 45/200/20 83/199/88 46/198/20
f 83/199/88 45/200/20 132/201/89
f 132/201/89 82/202/90 83/199/88
f 82/202/90 132/201/89 133/203/91
f 82/202/90 134/204/92 80/163/59
f 134/204/92 82/202/90 133/203/91
f 134/204/92 133/203/91 135/205/92
f 113/165/61 80/163/59 134/204/92
f 112/162/58 96/206/85 93/160/56
f 96/206/85 112/162/58 130/207/84
f 122/170/72 65/73/87 131/197/86
f 65/73/87 122/170/72 67/169/73
f 72/209/95 136/208/94 71/147/93
f 136/208/94 72/209/95 137/210/96
f 137/210/96 72/209/95 138/211/96
f 138/211/96 72/209/95 139/212/97
f 97/215/100 141/214/99 140/213/98
f 141/214/99 97/215/100 71/147/93
f 141/214/99 71/147/93 136/208/94
f 142/216/99 140/213/98 141/214/99
f 73/177/70 139/212/97 72/209/95
f 139/212/97 73/177/70 121/178/71
f 97/215/100 143/218/101 95/217/40
f 143/218/101 97/215/100 140/213/98
f 95/217/40 144/220/38 94/219/38
f 144/220/38 95/217/40 143/218/101
f 144/222/38 61/83/30 94/221/38
f 61/83/30 144/222/38 62/84/31
f 56/225/34 146/224/34 145/223/34
f 146/224/34 56/225/34 50/226/34
f 50/226/34 56/225/34 52/114/34
f 113/104/34 147/228/34 114/227/34
f 147/228/34 113/104/34 148/229/34
f 148/229/34 113/104/34 34/230/34
f 34/230/34 113/104/34 38/231/34
f 38/231/34 113/104/34 134/232/34
f 38/231/34 134/232/34 63/233/34
f 141/234/34 147/228/34 148/229/34
f 141/234/34 137/235/34 147/228/34
f 137/235/34 141/234/34 136/95/34
f 63/237/32 134/236/102 145/210/102
f 63/237/32 145/210/102 146/214/102
f 149/71/1 34/239/1 37/238/1
f 34/239/1 149/71/1 148/72/1
f 149/241/103 141/240/103 148/166/103
f 141/240/103 149/241/103 142/242/103
f 138/244/102 147/56/102 137/243/102
f 147/56/102 138/244/102 150/245/102
f 116/246/1 147/78/1 150/77/1
f 147/78/1 116/246/1 114/247/1
f 134/236/3 151/211/3 145/210/3
f 151/211/3 134/236/3 135/248/3
f 151/250/102 56/249/102 145/85/102
f 56/249/102 151/250/102 55/251/102
f 49/253/103 146/204/103 50/252/103
f 146/204/103 49/253/103 152/254/103
f 146/214/3 64/255/3 63/237/3
f 64/255/3 146/214/3 152/216/3

usemtl glass (Instance)
usemap glass (Instance)
f 49/226/34 64/233/34 152/224/34
f 64/233/34 49/226/34 41/256/34
f 41/256/34 49/226/34 42/121/34
f 42/121/34 49/226/34 58/257/34
f 58/257/34 49/226/34 59/118/34
f 59/118/34 49/226/34 47/116/34
f 149/229/34 140/133/34 142/234/34
f 140/133/34 149/229/34 143/131/34
f 143/131/34 149/229/34 144/258/34
f 144/258/34 149/229/34 62/128/34
f 62/128/34 149/229/34 36/259/34
f 36/259/34 149/229/34 37/230/34
f 139/260/34 150/228/34 138/235/34
f 150/228/34 139/260/34 121/97/34
f 150/228/34 121/97/34 120/99/34
f 150/228/34 120/99/34 119/100/34
f 150/228/34 119/100/34 115/102/34
f 150/228/34 115/102/34 116/227/34
f 133/106/34 151/223/34 135/232/34
f 151/223/34 133/106/34 55/225/34
f 55/225/34 133/106/34 132/107/34
f 55/225/34 132/107/34 45/109/34
f 55/225/34 45/109/34 43/111/34
f 55/225/34 43/111/34 53/261/34
