# Made using Asset Forge (www.assetforge.io) version 1.3 

mtllib supply_depot.mtl 

v -1.5 0.625 -2.5
v -1.5 0 -2.5
v -0.5 0 -2.5
v -0.5 0.625 -2.5
v -1.5 0.625 -1.5
v -1.5 0 -1.5
v -0.5 0.625 -1.5
v -0.5 0 -1.5
v -0.5 0.5 -2.0625
v -0.5 0.5 -2.375
v -0.5 0.12 -2.375
v -0.5 0.06 -2.375
v -0.5 0.06 -2.0625
v -0.5 0.12 -2.0625
v -0.6 0.5 -2.0625
v -0.6 0.12 -2.0625
v -0.6 0.5 -2.375
v -0.6 0.12 -2.375
v -0.45 0.12 -2.0625
v -0.45 0.06 -2.0625
v -0.45 0.12 -2.375
v -0.45 0.06 -2.375
v -0.6 0.06 -2.0625
v -0.6 0.06 -2.375
vn 0 0 -1
vn -1 0 0
vn 0 0 1
vn 1 0 0
vn 1.35358E-16 1 -1.35358E-16
vn 0 -1 0
vt 1.5 0.625
vt 1.5 0
vt 0.5 0
vt 0.5 0.625
vt -1.5 0.625
vt -1.5 0
vt -2.5 0
vt -2.5 0.625
vt -0.5 0.625
vt -0.5 0
vt 2.0625 0.5
vt 2.5 0.625
vt 0.5 -2.5
vt 0.5 -1.5
vt 1.5 -1.5
vt 1.5 -2.5
vt 2.375 0.5
vt 2.375 0.12
vt 2.375 0.06
vt 2.5 0
vt 2.0625 0.06
vt -0.5 0.06
vt -0.5 0.5
vt -0.5 0.12
vt 0.5 0.12
vt 0.5 0.5
vt 0.6 0.5
vt 0.6 0.12
vt 0.5 2.0625
vt 0.5 2.375
vt 0.6 2.375
vt 0.6 2.0625
vt -0.6 0.12
vt -0.6 0.5
vt -0.45 0.12
vt -0.45 0.06
vt 2.0625 0.12
vt 0.5 0.06
vt 0.45 0.06
vt 0.45 0.12
vt 0.45 2.0625
vt 0.45 2.375
vt 0.5 1.5
vt 0.5 2.5
vt 1.5 2.5
vt 1.5 1.5
vt -2.375 0.12
vt -2.0625 0.12
vt -2.0625 0.06
vt -2.375 0.06
vt 0.6 0.06
vt -0.6 0.06

usemtl Brick (Instance)
usemap Brick (Instance)
f 3/3/1 2/2/1 1/1/1
f 1/1/1 4/4/1 3/3/1
f 2/7/2 6/6/2 5/5/2
f 5/5/2 1/8/2 2/7/2
f 6/6/3 8/10/3 7/9/3
f 7/9/3 5/5/3 6/6/3
f 8/2/4 9/11/4 7/1/4
f 4/12/4 7/1/4 9/11/4
f 5/15/5 7/14/5 4/13/5
f 4/13/5 1/16/5 5/15/5
f 10/17/4 4/12/4 9/11/4
f 11/18/4 4/12/4 10/17/4
f 12/19/4 4/12/4 11/18/4
f 4/12/4 12/19/4 3/20/4
f 12/19/4 13/21/4 3/20/4
f 3/20/4 13/21/4 8/2/4
f 9/11/4 8/2/4 13/21/4
f 14/24/4 9/23/4 13/22/4
f 15/27/1 9/26/1 14/25/1
f 14/25/1 16/28/1 15/27/1
f 17/31/6 10/30/6 9/29/6
f 9/29/6 15/32/6 17/31/6
f 10/23/3 17/34/3 18/33/3
f 18/33/3 11/24/3 10/23/3
f 19/35/3 14/24/3 13/22/3
f 13/22/3 20/36/3 19/35/3
f 22/19/4 21/18/4 19/37/4
f 19/37/4 20/21/4 22/19/4
f 22/39/1 12/38/1 11/25/1
f 11/25/1 21/40/1 22/39/1
f 20/41/6 13/29/6 12/30/6
f 12/30/6 22/42/6 20/41/6
f 2/45/6 3/44/6 8/43/6
f 8/43/6 6/46/6 2/45/6

usemtl Glass (Instance)
usemap Glass (Instance)
f 18/18/4 17/17/4 15/11/4
f 15/11/4 16/37/4 18/18/4

usemtl FrontColor (Instance)
usemap FrontColor (Instance)
f 23/49/2 16/48/2 18/47/2
f 18/47/2 24/50/2 23/49/2
f 11/25/1 12/38/1 24/51/1
f 24/51/1 18/28/1 11/25/1
f 13/29/6 23/32/6 24/31/6
f 24/31/6 12/30/6 13/29/6
f 13/22/3 14/24/3 16/33/3
f 16/33/3 23/52/3 13/22/3
v -0.5 0.6 -2.5
v -0.5 0.70625 -2.5
v -1.5 0.70625 -2.5
v -1.5 0.6 -2.5
v -0.5 0.6 -1.5
v -0.5 0.70625 -1.5
v -1.5 0.6 -1.5
v -1.5 0.70625 -1.5
vn 0 1 3.79953E-17
vt 0.5 0.6
vt 0.5 0.70625
vt 1.5 0.70625
vt 1.5 0.6
vt 2.5 0.70625
vt 2.5 0.6
vt -1.5 0.6
vt -1.5 0.70625
vt -0.5 0.70625
vt -0.5 0.6
vt -2.5 0.6
vt -2.5 0.70625

usemtl Roof (Instance)
usemap Roof (Instance)
f 27/55/1 26/54/1 25/53/1
f 25/53/1 28/56/1 27/55/1
f 26/57/4 30/55/4 29/56/4
f 29/56/4 25/58/4 26/57/4
f 30/61/3 32/60/3 31/59/3
f 31/59/3 29/62/3 30/61/3
f 27/64/2 28/63/2 31/59/2
f 31/59/2 32/60/2 27/64/2
f 25/44/6 29/43/6 31/46/6
f 31/46/6 28/45/6 25/44/6
f 26/13/7 27/16/7 32/15/7
f 32/15/7 30/14/7 26/13/7
v -1.030607 0.73 -1.8
v -1.033493 0.7199999 -1.821921
v -1.036379 0.73 -1.843842
v -1.036379 0.71 -1.843842
v -1.033493 0.71 -1.821921
v -1.030607 0.7199999 -1.8
v -1.036379 0.73 -1.756158
v -1.053302 0.73 -1.715304
v -1.036379 0.71 -1.756158
v -1.053302 0.71 -1.715304
v -1.284696 0.7099999 -1.653301
v -1.284696 0.7299999 -1.653301
v -1.319779 0.7099999 -1.680221
v -1.319779 0.7299999 -1.680221
v -1.156158 0.7099999 -1.636379
v -1.156158 0.7299999 -1.636379
v -1.178079 0.7099999 -1.633493
v -1.178079 0.7199999 -1.633493
v -1.2 0.7299999 -1.630607
v -1.2 0.7199999 -1.630607
v -1.243842 0.7099999 -1.636379
v -1.243842 0.7299999 -1.636379
v -1.221921 0.7099999 -1.633493
v -1.221921 0.7199999 -1.633493
v -1.080221 0.7299999 -1.680221
v -1.080221 0.7099999 -1.680221
v -1.115304 0.7099999 -1.653301
v -1.115304 0.7299999 -1.653301
v -1.053302 0.73 -1.884696
v -1.053302 0.71 -1.884696
v -1.033493 0.7199999 -1.778079
v -1.033493 0.71 -1.778079
v -1.2 0.7299999 -2.013861
v -1.144649 0.7299999 -2.006574
v -1.255351 0.7299999 -2.006574
v -1.306931 0.7299999 -1.985209
v -1.093069 0.7299999 -1.985209
v -1.351223 0.7299999 -1.951223
v -1.2 0.7299999 -1.969393
v -1.243842 0.7299999 -1.963621
v -1.284696 0.7299999 -1.946698
v -1.385209 0.7299999 -1.906931
v -1.319779 0.7299999 -1.919779
v -1.346698 0.7299999 -1.884696
v -1.406574 0.7299999 -1.855351
v -1.363621 0.7299999 -1.843842
v -1.413861 0.7299999 -1.8
v -1.369393 0.7299999 -1.8
v -1.406574 0.7299999 -1.744649
v -1.363621 0.7299999 -1.756158
v -1.346698 0.7299999 -1.715304
v -1.385209 0.7299999 -1.693069
v -1.351223 0.7299999 -1.648777
v -1.306931 0.7299999 -1.614791
v -1.093069 0.7299999 -1.614791
v -1.048777 0.73 -1.648777
v -1.014791 0.73 -1.693069
v -0.9934257 0.73 -1.744649
v -0.9861386 0.73 -1.8
v -0.9934257 0.73 -1.855351
v -1.014791 0.73 -1.906931
v -1.080221 0.7299999 -1.919779
v -1.115304 0.7299999 -1.946698
v -1.048777 0.73 -1.951223
v -1.156158 0.7299999 -1.963621
v -1.255351 0.7299999 -1.593426
v -1.144649 0.7299999 -1.593426
v -1.2 0.7299999 -1.586139
v -1.385209 0.6999999 -1.693069
v -1.351223 0.6999999 -1.648777
v -1.306931 0.6999999 -1.614791
v -1.255351 0.6999999 -1.593426
v -1.2 0.6999999 -1.586139
v -1.144649 0.6999999 -1.593426
v -1.093069 0.6999999 -1.614791
v -1.048777 0.6999999 -1.648777
v -1.014791 0.6999999 -1.693069
v -0.9934257 0.6999999 -1.744649
v -0.9934257 0.6999999 -1.855351
v -1.014791 0.6999999 -1.906931
v -1.369393 0.7199999 -1.8
v -1.366507 0.7199999 -1.821921
v -1.363621 0.7099999 -1.843842
v -1.366507 0.7099999 -1.821921
v -1.406574 0.6999999 -1.744649
v -0.9861386 0.6999999 -1.8
v -1.346698 0.7099999 -1.884696
v -1.319779 0.7099999 -1.919779
v -1.284696 0.7099999 -1.946698
v -1.255351 0.6999999 -2.006574
v -1.306931 0.6999999 -1.985209
v -1.351223 0.6999999 -1.951223
v -1.385209 0.6999999 -1.906931
v -1.406574 0.6999999 -1.855351
v -1.413861 0.6999999 -1.8
v -1.093069 0.6999999 -1.985209
v -1.144649 0.6999999 -2.006574
v -1.048777 0.6999999 -1.951223
v -1.2 0.6999999 -2.013861
v -1.346698 0.7099999 -1.715304
v -1.363621 0.7099999 -1.756158
v -1.366507 0.7199999 -1.778079
v -1.366507 0.7099999 -1.778079
v -1.2 0.7199999 -1.969393
v -1.221921 0.7199999 -1.966507
v -1.221921 0.7099999 -1.966507
v -1.243842 0.7099999 -1.963621
v -1.156158 0.7099999 -1.963621
v -1.178079 0.7199999 -1.966507
v -1.178079 0.7099999 -1.966507
v -1.115304 0.7099999 -1.946698
v -1.080221 0.7099999 -1.919779
v -1.221921 0.7199999 -1.778079
v -1.178079 0.7199999 -1.778079
v -1.221921 0.7199999 -1.821921
v -1.178079 0.7199999 -1.821921
v -1.178079 0.7099999 -1.821921
v -1.221921 0.7099999 -1.821921
v -1.221921 0.7099999 -1.778079
v -1.178079 0.7099999 -1.778079
vn -0.9990386 -1.192093E-07 0.04384173
vn -0.991445 -1.192093E-07 0.1305261
vn -0.9659258 -1.192093E-07 0.2588192
vn -0.9763442 -1.192093E-07 0.2162224
vn -0.991445 -1.192093E-07 0.1305266
vn -0.9990386 -1.192093E-07 -0.04384191
vn -0.9808403 -1.192093E-07 -0.194814
vn -0.8871138 -1.192093E-07 -0.4615511
vn -0.9659258 -1.192093E-07 -0.2588193
vn -0.8432719 -1.192093E-07 -0.5374874
vn 0.4615512 5.960464E-08 -0.8871136
vn 0.5374876 5.960464E-08 -0.8432718
vn 0.707107 5.960464E-08 -0.7071066
vn -0.3009185 -2.980232E-08 -0.9536498
vn -0.1948141 -2.980232E-08 -0.9808401
vn -0.130526 -1.490116E-08 -0.9914449
vn 0.2162221 2.980232E-08 -0.9763442
vn 0.2588192 2.980232E-08 -0.9659258
vn 0.130526 1.490116E-08 -0.9914449
vn -0.7071069 -5.960464E-08 -0.7071068
vn -0.5374876 -5.960464E-08 -0.8432718
vn -0.4615512 -5.960464E-08 -0.8871136
vn -0.8432719 -1.192093E-07 0.5374874
vn -0.8871138 -1.192093E-07 0.4615511
vn -0.9969161 -1.192093E-07 -0.078477
vn -0.991445 -1.192093E-07 -0.1305266
vn -1.192093E-07 1 0
vn -0.887114 -1.192093E-07 0.4615508
vn -0.7071068 -5.960464E-08 0.7071068
vn -0.8432719 -1.192093E-07 0.5374873
vn -0.7071069 -5.960464E-08 0.7071068
vn -0.4615512 -5.960464E-08 0.8871137
vn -0.5374876 -5.960464E-08 0.8432718
vn -0.2162222 -2.980232E-08 0.9763442
vn -0.3009184 -2.980232E-08 0.9536499
vn 0.04384197 3.72529E-09 0.9990385
vn -0.04384197 -3.72529E-09 0.9990385
vn 0.3009183 2.980232E-08 0.9536499
vn 0.2162221 2.980232E-08 0.9763442
vn 0.5374876 5.960464E-08 0.8432717
vn 0.4615511 5.960464E-08 0.8871137
vn 0.7071068 5.960464E-08 0.7071068
vn 0.7071069 5.960464E-08 0.7071068
vn 0.8432719 1.192093E-07 0.5374875
vn 0.8871139 1.192093E-07 0.4615508
vn 0.9536501 1.192093E-07 0.3009182
vn 0.9763443 1.192093E-07 0.2162221
vn 0.9763443 1.192093E-07 -0.2162221
vn 0.8871139 1.192093E-07 -0.4615508
vn 0.9536501 1.192093E-07 -0.3009182
vn 0.8432719 1.192093E-07 -0.5374875
vn 0.9990386 1.192093E-07 -0.04384209
vn 0.9808401 1.192093E-07 0.1948144
vn 0.9990386 1.192093E-07 0.04384209
vn 0.991445 1.192093E-07 0.1305266
vn 0.9659258 1.192093E-07 0.2588193
vn -0.9763443 -1.192093E-07 0.2162221
vn -0.9536501 -1.192093E-07 0.3009182
vn 0.9990386 1.192093E-07 0.04384198
vn 0.9990386 1.192093E-07 -0.04384198
vn 0.8432721 1.192093E-07 0.5374872
vn 0.707107 5.960464E-08 0.7071066
vn 0.4615512 5.960464E-08 0.8871136
vn 0.5374876 5.960464E-08 0.8432718
vn -0.2162222 -2.980232E-08 -0.9763442
vn -0.3009184 -2.980232E-08 -0.9536499
vn -0.4615512 -5.960464E-08 -0.8871137
vn -0.8432719 -1.192093E-07 -0.5374873
vn -0.887114 -1.192093E-07 -0.4615508
vn -0.9536501 -1.192093E-07 -0.3009182
vn -0.9763443 -1.192093E-07 -0.2162221
vn -0.9990386 -1.192093E-07 -0.04384198
vn -0.9990386 -1.192093E-07 0.04384198
vn 0.5374876 5.960464E-08 -0.8432717
vn 0.4615511 5.960464E-08 -0.8871137
vn 0.3009183 2.980232E-08 -0.9536499
vn 0.7071068 5.960464E-08 -0.7071068
vn 0.7071069 5.960464E-08 -0.7071068
vn 0.04384197 3.72529E-09 -0.9990385
vn -0.04384197 -3.72529E-09 -0.9990385
vn 0.8432721 1.192093E-07 -0.5374872
vn 0.8871139 1.192093E-07 -0.4615509
vn 0.9659258 1.192093E-07 -0.2588193
vn 0.9763442 1.192093E-07 -0.2162224
vn 0.991445 1.192093E-07 -0.1305266
vn -0.04384189 -3.72529E-09 0.9990385
vn 0.04384189 3.72529E-09 0.9990385
vn 0.1819523 1.490116E-08 0.9833074
vn 0.130526 1.490116E-08 0.9914449
vn 0.3009185 2.980232E-08 0.9536498
vn -0.2162221 -2.980232E-08 0.9763442
vn -0.130526 -1.490116E-08 0.9914449
vn -0.2588191 -2.980232E-08 0.9659258
vn -0.4615512 -5.960464E-08 0.8871136
vn -1 -1.192093E-07 0
vn 1 1.192093E-07 0
vt -1.8 0.73
vt -1.821921 0.7199999
vt -1.843842 0.73
vt -1.843842 0.71
vt -1.821921 0.71
vt -1.8 0.7199999
vt -1.756158 0.73
vt -1.715304 0.73
vt -1.756158 0.71
vt -1.715304 0.71
vt 1.284696 0.7099999
vt 1.284696 0.7299999
vt 1.319779 0.7099999
vt 1.319779 0.7299999
vt 1.156158 0.71
vt 1.156158 0.73
vt 1.178079 0.71
vt 1.178079 0.7199999
vt 1.2 0.73
vt 1.2 0.7199999
vt 1.243842 0.7099999
vt 1.243842 0.7299999
vt 1.221921 0.7099999
vt 1.221921 0.7199999
vt -1.680221 0.73
vt -1.680221 0.71
vt 1.115304 0.71
vt 1.115304 0.73
vt -1.884696 0.73
vt -1.884696 0.71
vt -1.778079 0.7199999
vt -1.778079 0.71
vt 1.080221 0.71
vt 1.080221 0.73
vt 1.2 -2.013861
vt 1.144649 -2.006574
vt 1.255351 -2.006574
vt 1.306931 -1.985209
vt 1.093069 -1.985209
vt 1.351223 -1.951223
vt 1.2 -1.969393
vt 1.243842 -1.963621
vt 1.284696 -1.946698
vt 1.385209 -1.906931
vt 1.319779 -1.919779
vt 1.346698 -1.884696
vt 1.406574 -1.855351
vt 1.363621 -1.843842
vt 1.413861 -1.8
vt 1.369393 -1.8
vt 1.406574 -1.744649
vt 1.363621 -1.756158
vt 1.346698 -1.715304
vt 1.385209 -1.693069
vt 1.319779 -1.680221
vt 1.351223 -1.648777
vt 1.284696 -1.653301
vt 1.243842 -1.636379
vt 1.306931 -1.614791
vt 1.2 -1.630607
vt 1.093069 -1.614791
vt 1.156158 -1.636379
vt 1.048777 -1.648777
vt 1.115304 -1.653301
vt 1.080221 -1.680221
vt 1.014791 -1.693069
vt 1.053302 -1.715304
vt 0.9934257 -1.744649
vt 1.036379 -1.756158
vt 0.9861386 -1.8
vt 1.030607 -1.8
vt 1.036379 -1.843842
vt 0.9934257 -1.855351
vt 1.053302 -1.884696
vt 1.014791 -1.906931
vt 1.080221 -1.919779
vt 1.115304 -1.946698
vt 1.048777 -1.951223
vt 1.156158 -1.963621
vt 1.255351 -1.593426
vt 1.144649 -1.593426
vt 1.2 -1.586139
vt -1.693069 0.7299999
vt -1.648777 0.7299999
vt -1.693069 0.6999999
vt -1.648777 0.6999999
vt -1.306931 0.7299999
vt -1.306931 0.6999999
vt -1.351223 0.7299999
vt -1.351223 0.6999999
vt -1.255351 0.7299999
vt -1.255351 0.6999999
vt -1.2 0.73
vt -1.2 0.6999999
vt -1.144649 0.73
vt -1.144649 0.6999999
vt -1.093069 0.73
vt -1.093069 0.6999999
vt -1.048777 0.73
vt -1.048777 0.6999999
vt 1.648777 0.73
vt 1.693069 0.73
vt 1.648777 0.6999999
vt 1.693069 0.6999999
vt 1.744649 0.73
vt 1.744649 0.6999999
vt 1.855351 0.73
vt 1.906931 0.73
vt 1.855351 0.6999999
vt 1.906931 0.6999999
vt 1.8 0.7299999
vt 1.843842 0.7299999
vt 1.8 0.7199999
vt 1.821921 0.7199999
vt 1.843842 0.7099999
vt 1.821921 0.7099999
vt -1.744649 0.7299999
vt -1.744649 0.6999999
vt 1.8 0.73
vt 1.8 0.6999999
vt 1.884696 0.7299999
vt 1.884696 0.7099999
vt 1.919779 0.7299999
vt 1.919779 0.7099999
vt -1.284696 0.7299999
vt -1.284696 0.7099999
vt -1.319779 0.7299999
vt -1.319779 0.7099999
vt 1.255351 0.6999999
vt 1.255351 0.7299999
vt 1.306931 0.6999999
vt 1.306931 0.7299999
vt 1.351223 0.6999999
vt 1.351223 0.7299999
vt -1.951223 0.7299999
vt -1.906931 0.7299999
vt -1.951223 0.6999999
vt -1.906931 0.6999999
vt -1.855351 0.7299999
vt -1.855351 0.6999999
vt -1.8 0.7299999
vt -1.8 0.6999999
vt 1.093069 0.6999999
vt 1.093069 0.73
vt 1.144649 0.6999999
vt 1.144649 0.73
vt 1.048777 0.6999999
vt 1.048777 0.73
vt 1.2 0.6999999
vt 1.680221 0.7299999
vt 1.715304 0.7299999
vt 1.680221 0.7099999
vt 1.715304 0.7099999
vt 1.756158 0.7299999
vt 1.756158 0.7099999
vt 1.778079 0.7199999
vt 1.778079 0.7099999
vt 1.951223 0.73
vt 1.951223 0.6999999
vt -1.2 0.7199999
vt -1.243842 0.7299999
vt -1.221921 0.7199999
vt -1.221921 0.7099999
vt -1.243842 0.7099999
vt -1.156158 0.71
vt -1.178079 0.7199999
vt -1.156158 0.73
vt -1.178079 0.71
vt -1.115304 0.73
vt -1.115304 0.71
vt -1.080221 0.73
vt -1.080221 0.71
vt -1.919779 0.73
vt -1.919779 0.71
vt 1.221921 -1.778079
vt 1.178079 -1.778079
vt 1.221921 -1.633493
vt 1.178079 -1.633493
vt 1.366507 -1.821921
vt 1.221921 -1.821921
vt 1.178079 -1.821921
vt 1.033493 -1.821921
vt 1.366507 -1.778079
vt 1.033493 -1.778079
vt 1.178079 -1.966507
vt 1.221921 -1.966507
vt -1.366507 0.7199999
vt -1.033493 0.7199999
vt 1.033493 0.71
vt 1.033493 0.7199999
vt 1.966507 0.7199999
vt 1.821921 0.71
vt 1.966507 0.71
vt -1.966507 0.7199999
vt -1.966507 0.7099999
vt -1.821921 0.7099999
vt 1.366507 0.7099999
vt 1.366507 0.7199999
vt -1.366507 0.7099999
vt -1.633493 0.7199999
vt -1.778079 0.7099999
vt -1.633493 0.7099999
vt 1.633493 0.7199999
vt 1.633493 0.71
vt 1.778079 0.71
vt -1.033493 0.71

usemtl element (Instance)
usemap element (Instance)
f 35/67/10 34/66/9 33/65/8
f 34/66/9 35/67/10 36/68/11
f 34/66/9 36/68/11 37/69/12
f 38/70/13 33/65/8 34/66/9
f 41/73/16 40/72/15 39/71/14
f 40/72/15 41/73/16 42/74/17
f 45/77/20 44/76/19 43/75/18
f 44/76/19 45/77/20 46/78/20
f 49/81/23 48/80/22 47/79/21
f 48/80/22 49/81/23 50/82/23
f 48/80/22 50/82/23 51/83/1
f 51/83/1 50/82/23 52/84/1
f 43/75/18 54/86/25 53/85/24
f 54/86/25 43/75/18 44/76/19
f 53/85/24 56/88/26 55/87/26
f 54/86/25 56/88/26 53/85/24
f 51/83/1 56/88/26 54/86/25
f 56/88/26 51/83/1 52/84/1
f 42/74/17 57/89/27 40/72/15
f 57/89/27 42/74/17 58/90/27
f 47/79/21 60/92/29 59/91/28
f 60/92/29 47/79/21 48/80/22
f 62/94/31 35/67/10 61/93/30
f 35/67/10 62/94/31 36/68/11
f 38/70/13 39/71/14 33/65/8
f 39/71/14 38/70/13 63/95/32
f 39/71/14 63/95/32 41/73/16
f 41/73/16 63/95/32 64/96/33
f 59/91/28 57/98/27 58/97/27
f 57/98/27 59/91/28 60/92/29
f 67/101/34 66/100/34 65/99/34
f 66/100/34 67/101/34 68/102/34
f 66/100/34 68/102/34 69/103/34
f 69/103/34 68/102/34 70/104/34
f 69/103/34 70/104/34 71/105/34
f 71/105/34 70/104/34 72/106/34
f 72/106/34 70/104/34 73/107/34
f 73/107/34 70/104/34 74/108/34
f 73/107/34 74/108/34 75/109/34
f 75/109/34 74/108/34 76/110/34
f 76/110/34 74/108/34 77/111/34
f 76/110/34 77/111/34 78/112/34
f 78/112/34 77/111/34 79/113/34
f 78/112/34 79/113/34 80/114/34
f 80/114/34 79/113/34 81/115/34
f 80/114/34 81/115/34 82/116/34
f 82/116/34 81/115/34 83/117/34
f 83/117/34 81/115/34 84/118/34
f 83/117/34 84/118/34 46/119/34
f 46/119/34 84/118/34 85/120/34
f 46/119/34 85/120/34 44/121/34
f 44/121/34 85/120/34 54/122/34
f 54/122/34 85/120/34 86/123/34
f 54/122/34 86/123/34 51/124/34
f 87/125/34 51/124/34 86/123/34
f 87/125/34 48/126/34 51/124/34
f 88/127/34 48/126/34 87/125/34
f 88/127/34 60/128/34 48/126/34
f 88/127/34 57/129/34 60/128/34
f 89/130/34 57/129/34 88/127/34
f 89/130/34 40/131/34 57/129/34
f 90/132/34 40/131/34 89/130/34
f 90/132/34 39/133/34 40/131/34
f 91/134/34 39/133/34 90/132/34
f 91/134/34 33/135/34 39/133/34
f 91/134/34 35/136/34 33/135/34
f 92/137/34 35/136/34 91/134/34
f 92/137/34 61/138/34 35/136/34
f 93/139/34 61/138/34 92/137/34
f 93/139/34 94/140/34 61/138/34
f 93/139/34 95/141/34 94/140/34
f 96/142/34 95/141/34 93/139/34
f 96/142/34 97/143/34 95/141/34
f 96/142/34 71/105/34 97/143/34
f 71/105/34 96/142/34 69/103/34
f 87/125/34 86/123/34 98/144/34
f 87/125/34 98/144/34 99/145/34
f 99/145/34 98/144/34 100/146/34
f 101/149/37 85/148/36 84/147/35
f 85/148/36 101/149/37 102/150/38
f 85/153/36 103/152/40 86/151/39
f 103/152/40 85/153/36 102/154/38
f 86/151/39 104/156/42 98/155/41
f 104/156/42 86/151/39 103/152/40
f 98/155/41 105/158/44 100/157/43
f 105/158/44 98/155/41 104/156/42
f 100/157/43 106/160/46 99/159/45
f 106/160/46 100/157/43 105/158/44
f 99/159/45 107/162/48 87/161/47
f 107/162/48 99/159/45 106/160/46
f 87/161/47 108/164/50 88/163/49
f 108/164/50 87/161/47 107/162/48
f 108/167/50 89/166/51 88/165/49
f 89/166/51 108/167/50 109/168/52
f 109/168/52 90/169/53 89/166/51
f 90/169/53 109/168/52 110/170/54
f 111/173/57 93/172/56 92/171/55
f 93/172/56 111/173/57 112/174/58
f 113/177/61 78/176/60 80/175/59
f 78/176/60 113/177/61 114/178/62
f 78/176/60 114/178/62 115/179/63
f 115/179/63 114/178/62 116/180/62
f 117/182/65 84/147/35 81/181/64
f 84/147/35 117/182/65 101/149/37
f 110/170/54 91/183/66 90/169/53
f 91/183/66 110/170/54 118/184/67
f 115/179/63 76/185/52 78/176/60
f 76/185/52 115/179/63 119/186/68
f 119/186/68 75/187/69 76/185/52
f 75/187/69 119/186/68 120/188/69
f 75/191/69 121/190/71 73/189/70
f 121/190/71 75/191/69 120/192/69
f 123/195/74 67/194/73 122/193/72
f 67/194/73 123/195/74 68/196/28
f 124/197/27 68/196/28 123/195/74
f 68/196/28 124/197/27 70/198/27
f 124/201/27 74/200/75 70/199/27
f 74/200/75 124/201/27 125/202/76
f 125/202/76 77/203/77 74/200/75
f 77/203/77 125/202/76 126/204/78
f 126/204/78 79/205/79 77/203/77
f 79/205/79 126/204/78 127/206/80
f 129/209/83 69/208/82 128/207/81
f 69/208/82 129/209/83 66/210/24
f 118/184/67 92/171/55 91/183/66
f 92/171/55 118/184/67 111/173/57
f 127/206/80 81/181/64 79/205/79
f 81/181/64 127/206/80 117/182/65
f 128/207/81 96/212/85 130/211/84
f 96/212/85 128/207/81 69/208/82
f 131/213/86 66/210/24 129/209/83
f 66/210/24 131/213/86 65/83/87
f 45/216/20 83/215/88 46/214/20
f 83/215/88 45/216/20 132/217/89
f 132/217/89 82/218/90 83/215/88
f 82/218/90 132/217/89 133/219/91
f 82/218/90 134/220/92 80/175/59
f 134/220/92 82/218/90 133/219/91
f 134/220/92 133/219/91 135/221/92
f 113/177/61 80/175/59 134/220/92
f 112/174/58 96/222/85 93/172/56
f 96/222/85 112/174/58 130/223/84
f 122/193/72 65/83/87 131/213/86
f 65/83/87 122/193/72 67/194/73
f 72/225/95 136/224/94 71/157/93
f 136/224/94 72/225/95 137/226/96
f 137/226/96 72/225/95 138/227/96
f 138/227/96 72/225/95 139/228/97
f 97/231/100 141/230/99 140/229/98
f 141/230/99 97/231/100 71/157/93
f 141/230/99 71/157/93 136/224/94
f 142/232/99 140/229/98 141/230/99
f 73/189/70 139/228/97 72/225/95
f 139/228/97 73/189/70 121/190/71
f 97/231/100 143/234/101 95/233/40
f 143/234/101 97/231/100 140/229/98
f 95/233/40 144/236/38 94/235/38
f 144/236/38 95/233/40 143/234/101
f 144/238/38 61/93/30 94/237/38
f 61/93/30 144/238/38 62/94/31
f 56/241/34 146/240/34 145/239/34
f 146/240/34 56/241/34 50/242/34
f 50/242/34 56/241/34 52/124/34
f 113/114/34 147/244/34 114/243/34
f 147/244/34 113/114/34 148/245/34
f 148/245/34 113/114/34 34/246/34
f 34/246/34 113/114/34 38/135/34
f 38/135/34 113/114/34 134/247/34
f 38/135/34 134/247/34 63/248/34
f 141/249/34 147/244/34 148/245/34
f 141/249/34 137/250/34 147/244/34
f 137/250/34 141/249/34 136/105/34
f 63/252/32 134/251/102 145/226/102
f 63/252/32 145/226/102 146/230/102
f 149/81/1 34/254/1 37/253/1
f 34/254/1 149/81/1 148/82/1
f 149/256/103 141/255/103 148/178/103
f 141/255/103 149/256/103 142/257/103
f 138/259/102 147/66/102 137/258/102
f 147/66/102 138/259/102 150/260/102
f 116/261/1 147/88/1 150/87/1
f 147/88/1 116/261/1 114/262/1
f 134/251/3 151/227/3 145/226/3
f 151/227/3 134/251/3 135/263/3
f 151/265/102 56/264/102 145/95/102
f 56/264/102 151/265/102 55/266/102
f 49/268/103 146/220/103 50/267/103
f 146/220/103 49/268/103 152/269/103
f 146/230/3 64/270/3 63/252/3
f 64/270/3 146/230/3 152/232/3

usemtl glass (Instance)
usemap glass (Instance)
f 49/242/34 64/248/34 152/240/34
f 64/248/34 49/242/34 41/133/34
f 41/133/34 49/242/34 42/131/34
f 42/131/34 49/242/34 58/129/34
f 58/129/34 49/242/34 59/128/34
f 59/128/34 49/242/34 47/126/34
f 149/245/34 140/143/34 142/249/34
f 140/143/34 149/245/34 143/141/34
f 143/141/34 149/245/34 144/140/34
f 144/140/34 149/245/34 62/138/34
f 62/138/34 149/245/34 36/136/34
f 36/136/34 149/245/34 37/246/34
f 139/106/34 150/244/34 138/250/34
f 150/244/34 139/106/34 121/107/34
f 150/244/34 121/107/34 120/109/34
f 150/244/34 120/109/34 119/110/34
f 150/244/34 119/110/34 115/112/34
f 150/244/34 115/112/34 116/243/34
f 133/116/34 151/239/34 135/247/34
f 151/239/34 133/116/34 55/241/34
f 55/241/34 133/116/34 132/117/34
f 55/241/34 132/117/34 45/119/34
f 55/241/34 45/119/34 43/121/34
f 55/241/34 43/121/34 53/122/34
