# Made using Asset Forge (www.assetforge.io) version 1.3 

mtllib Tree1.mtl 

v 0.5 0 0.5
v 0.5 0 -0.5
v -0.5 0 0.5
v -0.5 0 -0.5
v 0.5 0.1 -0.5
v 0.5 0.1 0.5
v -0.5 0.1 0.5
v -0.5 0.1 -0.5
vn 0 -1 0
vn 1 0 0
vn 0 0 1
vn -1 0 0
vn 0 0 -1
vn 0 1 0
vt -0.5 -0.5
vt -0.5 0.5
vt 0.5 -0.5
vt 0.5 0.5
vt 0.5 0.1
vt 0.5 0
vt -0.5 0.1
vt -0.5 0

usemtl customMaterial2 (Instance)
usemap customMaterial2 (Instance)
f 3/3/1 2/2/1 1/1/1
f 2/2/1 3/3/1 4/4/1
f 6/7/2 2/6/2 5/5/2
f 2/6/2 6/7/2 1/8/2
f 6/5/3 3/8/3 1/6/3
f 3/8/3 6/5/3 7/7/3
f 3/6/4 8/7/4 4/8/4
f 8/7/4 3/6/4 7/5/4
f 8/5/5 2/8/5 4/6/5
f 2/8/5 8/5/5 5/7/5

usemtl customMaterial2 (Instance)
usemap customMaterial2 (Instance)
f 8/3/6 6/2/6 5/1/6
f 6/2/6 8/3/6 7/4/6
v 0.09999999 1.1 7.219114E-17
v 0.07071067 1.1 0.07071067
v 0.07071067 1.1 -0.07071067
v 2.165734E-16 1.1 -0.09999999
v 1.443823E-16 1.1 0.09999999
v -0.07071067 1.1 -0.07071067
v -0.07071067 1.1 0.07071067
v -0.09999999 1.1 7.219114E-17
v 0.07071067 0 -0.07071067
v 0.09999999 0 7.219114E-17
v -0.07071067 0 -0.07071067
v 2.165734E-16 0 -0.09999999
v 0.07071067 0 0.07071067
v -0.09999999 0 7.219114E-17
v -0.07071067 0 0.07071067
v 1.443823E-16 0 0.09999999
vn 0 1.1 0
vn 0.1847759 0 -0.07653668
vn -0.07653668 0 -0.1847759
vn 0.1847759 0 0.07653668
vn -0.1847759 0 -0.07653668
vn -0.1847759 0 0.07653668
vn 0.07653668 0 0.1847759
vn 0.07653668 0 -0.1847759
vn 0 -1.1 0
vn -0.07653668 0 0.1847759
vt -0.09999999 7.219114E-17
vt -0.07071067 0.07071067
vt -0.07071067 -0.07071067
vt -2.165734E-16 -0.09999999
vt -1.443823E-16 0.09999999
vt 0.07071067 -0.07071067
vt 0.07071067 0.07071067
vt 0.09999999 7.219114E-17
vt 0.07071067 1.1
vt 0.07071067 0
vt -7.219114E-17 1.1
vt -7.219114E-17 0
vt -2.165734E-16 0
vt -2.165734E-16 1.1
vt -0.07071067 1.1
vt -0.07071067 0
vt 7.219114E-17 0
vt 7.219114E-17 1.1
vt 1.443823E-16 0
vt 1.443823E-16 1.1
vt -0.09999999 -7.219114E-17
vt -1.443823E-16 -0.09999999
vt -2.165734E-16 0.09999999
vt 0.09999999 -7.219114E-17

usemtl woodDark (Instance) (Instance)
usemap woodDark (Instance) (Instance)
f 11/11/7 10/10/7 9/9/7
f 10/10/7 11/11/7 12/12/7
f 10/10/7 12/12/7 13/13/7
f 13/13/7 12/12/7 14/14/7
f 13/13/7 14/14/7 15/15/7
f 15/15/7 14/14/7 16/16/7
f 9/19/8 17/18/8 11/17/8
f 17/18/8 9/19/8 18/20/8
f 14/17/9 20/21/9 19/18/9
f 20/21/9 14/17/9 12/22/9
f 10/23/10 18/20/10 9/19/10
f 18/20/10 10/23/10 21/24/10
f 22/25/11 14/23/11 19/24/11
f 14/23/11 22/25/11 16/26/11
f 23/18/12 16/26/12 22/25/12
f 16/26/12 23/18/12 15/17/12
f 10/17/13 24/27/13 21/18/13
f 24/27/13 10/17/13 13/28/13
f 12/22/14 17/24/14 20/21/14
f 17/24/14 12/22/14 11/23/14
f 21/11/15 17/10/15 18/29/15
f 17/10/15 21/11/15 24/30/15
f 17/10/15 24/30/15 20/31/15
f 20/31/15 24/30/15 19/15/15
f 19/15/15 24/30/15 23/14/15
f 19/15/15 23/14/15 22/32/15
f 13/28/16 23/24/16 24/27/16
f 23/24/16 13/28/16 15/23/16
v 0.4253254 1.662866 2.887646E-15
v 0.5 1.4 2.887646E-15
v 0.4045085 1.554508 0.25
v 0.1545085 1.65 -0.4045085
v 0.4045085 1.554508 -0.25
v 0.25 1.804508 -0.1545085
v 1.082867E-15 1.825325 -0.2628655
v 0.2628655 1.4 0.4253254
v 0.1545085 1.65 0.4045085
v -0.25 0.9954915 0.1545085
v -0.25 0.9954915 -0.1545085
v -0.4253254 1.137134 2.887646E-15
v 0.25 1.804508 0.1545085
v 1.082867E-15 1.9 2.887646E-15
v 0.1545085 1.15 0.4045085
v 0.25 0.9954915 0.1545085
v 1.082867E-15 0.9746746 0.2628655
v 0.1545085 1.15 -0.4045085
v 0.4045085 1.245492 -0.25
v 0.2628655 1.4 -0.4253254
v 1.082867E-15 0.9746746 -0.2628655
v -0.1545085 1.15 -0.4045085
v 1.082867E-15 1.4 0.5
v -0.1545085 1.15 0.4045085
v -0.2628655 1.4 0.4253254
v -0.25 1.804508 -0.1545085
v -0.25 1.804508 0.1545085
v -0.4253254 1.662866 2.887646E-15
v -0.2628655 1.4 -0.4253254
v 1.082867E-15 1.4 -0.5
v -0.5 1.4 2.887646E-15
v -0.4045085 1.554508 0.25
v 0.25 0.9954915 -0.1545085
v 1.082867E-15 0.9 2.887646E-15
v 0.4253254 1.137134 2.887646E-15
v 0.4045085 1.245492 0.25
v -0.4045085 1.245492 -0.25
v -0.4045085 1.554508 -0.25
v -0.4045085 1.245492 0.25
v -0.1545085 1.65 -0.4045085
v 1.082867E-15 1.825325 0.2628655
v -0.1545085 1.65 0.4045085
vn 0.9435221 0.2680349 0.1947387
vn 0.9505884 0.1356935 0.2792293
vn 0.505635 0.5623999 -0.6542473
vn 0.6542475 0.505635 -0.5623998
vn 0.5623999 0.6542475 -0.5056348
vn 0.4518026 0.6713592 -0.5874958
vn 0.315094 0.7487835 -0.5831286
vn 0.5874959 0.4518025 0.6713591
vn 0.5831288 0.3150938 0.7487834
vn -0.4987859 -0.8667253 0
vn -0.6284283 -0.7778675 0
vn 0.4043472 0.909982 -0.09184758
vn 0.4043472 0.909982 0.09184758
vn 0.2557348 0.9667469 0
vn 0.4518024 -0.6713591 0.5874959
vn 0.3150938 -0.7487834 0.5831288
vn 0.5874959 -0.4518024 -0.6713591
vn 0.5831288 -0.3150938 -0.7487834
vn -0.3150938 -0.7487834 -0.5831288
vn -0.4518024 -0.6713591 -0.5874959
vn -0.1356935 -0.2792293 0.9505884
vn -0.2680349 -0.1947387 0.9435221
vn -0.4987859 0.8667253 0
vn -0.6284282 0.7778676 0
vn -0.2680349 -0.1947387 -0.9435221
vn -0.1356935 -0.2792293 -0.9505884
vn -0.9505884 0.1356935 0.2792293
vn -0.9435221 0.2680349 0.1947387
vn -0.7487834 0.5831288 0.3150939
vn -0.6713591 0.587496 0.4518024
vn 0.4043472 -0.9099821 0.09184759
vn 0.4043471 -0.9099821 -0.09184757
vn 0.2557346 -0.966747 0
vn 0.9099821 0.0918476 -0.4043472
vn 0.9099821 -0.09184759 -0.4043472
vn 0.966747 0 -0.2557346
vn 0.7487835 -0.5831288 0.3150939
vn 0.6713591 -0.5874959 0.4518024
vn -0.0918476 -0.4043472 -0.9099821
vn 0.0918476 -0.4043472 -0.9099821
vn 0 -0.2557346 -0.966747
vn -0.8667253 0 -0.498786
vn -0.7778675 0 -0.6284283
vn -0.5623999 -0.6542475 -0.505635
vn -0.505635 -0.5623999 -0.6542475
vn -0.6542475 -0.505635 -0.5623998
vn 0 -0.4987859 -0.8667253
vn 0 -0.6284283 -0.7778675
vn 0.2680349 0.1947387 0.9435221
vn 0.1356935 0.2792293 0.9505884
vn 0.2792293 -0.9505884 -0.1356934
vn 0.1947387 -0.9435222 -0.2680349
vn -0.9099821 -0.09184759 -0.4043472
vn -0.9099821 0.0918476 -0.4043472
vn -0.966747 0 -0.2557346
vn -0.6713591 -0.587496 0.4518025
vn -0.7487835 -0.5831288 0.3150939
vn 0.9505884 -0.1356935 0.2792293
vn 0.9435221 -0.2680349 0.1947387
vn 0.1356935 -0.2792293 -0.9505884
vn 0.2680349 -0.1947387 -0.9435221
vn 0.5874959 -0.4518024 0.6713591
vn 0.5831288 -0.3150938 0.7487834
vn 0.0918476 -0.4043472 0.9099821
vn -0.0918476 -0.4043472 0.9099821
vn 0 -0.2557346 0.966747
vn -0.505635 -0.5623999 0.6542475
vn -0.5623998 -0.6542475 0.505635
vn -0.6542473 -0.5056349 0.5623998
vn -0.9505884 0.1356935 -0.2792293
vn -0.9435221 0.2680349 -0.1947387
vn -0.9099821 -0.09184759 0.4043472
vn -0.966747 0 0.2557346
vn -0.9099821 0.0918476 0.4043472
vn -0.4518024 -0.6713591 0.5874959
vn -0.3150938 -0.7487834 0.5831288
vn -0.9435221 -0.2680349 -0.1947387
vn -0.9505884 -0.1356935 -0.2792293
vn 0.4987859 -0.8667253 0
vn 0.6284283 -0.7778675 0
vn 0 0.498786 -0.8667253
vn 0 0.6284283 -0.7778675
vn -0.4518026 0.6713591 -0.5874959
vn -0.315094 0.7487835 -0.5831286
vn 0.9435221 0.2680349 -0.1947387
vn 0.9505884 0.1356935 -0.2792293
vn 0.9505884 -0.1356935 -0.2792293
vn 0.9435221 -0.2680349 -0.1947387
vn -0.315094 0.7487835 0.5831287
vn -0.4518025 0.6713592 0.5874958
vn -0.2680349 0.1947387 -0.9435221
vn -0.1356935 0.2792293 -0.9505884
vn 0 -0.4987859 0.8667253
vn 0 -0.6284283 0.7778675
vn -0.1947389 0.9435221 -0.2680349
vn -0.2792295 0.9505884 -0.1356935
vn -0.5831288 0.3150938 0.7487834
vn -0.5874959 0.4518025 0.6713591
vn 0.8667253 0 0.498786
vn 0.7778675 0 0.6284283
vn -0.4043472 -0.9099821 0.09184759
vn -0.2557346 -0.966747 0
vn -0.4043472 -0.9099821 -0.09184759
vn -0.9435221 -0.2680349 0.1947387
vn -0.9505884 -0.1356935 0.2792293
vn -0.1356935 0.2792293 0.9505884
vn -0.2680349 0.1947387 0.9435221
vn -0.6713591 0.5874959 -0.4518024
vn -0.7487834 0.5831288 -0.3150939
vn 0.2792295 0.9505884 0.1356935
vn 0.1947389 0.9435221 0.2680349
vn 0.8667253 0 -0.498786
vn 0.7778675 0 -0.6284283
vn 0.1947387 -0.9435222 0.2680349
vn 0.2792293 -0.9505884 0.1356934
vn -0.5056349 0.5623999 0.6542473
vn -0.6542475 0.505635 0.5623998
vn -0.5623998 0.6542475 0.5056348
vn 0.1947389 0.9435221 -0.2680349
vn 0.2792295 0.9505884 -0.1356935
vn 0.505635 -0.5623999 -0.6542475
vn 0.5623999 -0.6542475 -0.505635
vn 0.6542474 -0.505635 -0.5623999
vn -0.6713591 -0.5874959 -0.4518024
vn -0.7487835 -0.5831288 -0.3150939
vn 0.6713591 0.587496 -0.4518024
vn 0.7487834 0.5831288 -0.3150939
vn 0.2680349 -0.1947387 0.9435221
vn 0.1356935 -0.2792293 0.9505884
vn -0.2792293 -0.9505884 -0.1356934
vn -0.1947387 -0.9435222 -0.2680349
vn 0.4518024 -0.6713591 -0.5874959
vn 0.3150938 -0.7487834 -0.5831288
vn 0.1356935 0.2792293 -0.9505884
vn 0.2680349 0.1947387 -0.9435221
vn -0.8667253 0 0.498786
vn -0.7778675 0 0.6284283
vn 0.6542473 0.5056349 0.5623998
vn 0.5056349 0.5623999 0.6542473
vn 0.5623999 0.6542475 0.5056348
vn -0.2792295 0.9505884 0.1356935
vn -0.1947389 0.9435221 0.2680349
vn 0.9099821 0.0918476 0.4043472
vn 0.966747 0 0.2557346
vn 0.9099821 -0.09184759 0.4043472
vn 0.5623999 -0.6542475 0.505635
vn 0.5056349 -0.5623998 0.6542473
vn 0.6542475 -0.505635 0.5623998
vn -0.5874959 0.4518025 -0.6713591
vn -0.5831288 0.3150938 -0.7487834
vn 0.0918476 0.4043472 0.9099821
vn 0 0.2557346 0.966747
vn -0.0918476 0.4043472 0.9099821
vn 0.4987859 0.8667253 0
vn 0.6284282 0.7778676 0
vn -0.4043472 0.9099821 -0.0918476
vn -0.2557348 0.9667469 0
vn -0.4043472 0.909982 0.09184758
vn 0.4518026 0.6713591 0.5874959
vn 0.315094 0.7487835 0.5831286
vn -0.5874959 -0.4518024 -0.6713591
vn -0.5831288 -0.3150938 -0.7487834
vn 0.6713591 -0.587496 -0.4518025
vn 0.7487835 -0.5831288 -0.3150939
vn -0.1947387 -0.9435222 0.2680349
vn -0.2792293 -0.9505884 0.1356934
vn -0.0918476 0.4043472 -0.9099821
vn 0 0.2557346 -0.966747
vn 0.0918476 0.4043472 -0.9099821
vn -0.6542475 0.505635 -0.5623998
vn -0.505635 0.5623999 -0.6542473
vn -0.5623998 0.6542475 -0.5056348
vn -0.5874959 -0.4518024 0.6713591
vn -0.5831288 -0.3150938 0.7487834
vn 0.6713591 0.5874959 0.4518024
vn 0.7487834 0.5831288 0.3150939
vn 0 0.498786 0.8667253
vn 0 0.6284283 0.7778675
vn 0.5831288 0.3150938 -0.7487834
vn 0.5874959 0.4518025 -0.6713591
vt -2.887646E-15 1.662866
vt -2.887646E-15 1.4
vt -0.25 1.554508
vt 0.4045085 1.65
vt 0.25 1.554508
vt 0.1545085 1.804508
vt -0.1545085 -0.4045085
vt -0.25 -0.1545085
vt -1.082867E-15 -0.2628655
vt 0.4045085 1.554508
vt 0.2628655 1.4
vt 0.1545085 1.65
vt 0.25 -0.1545085
vt 0.25 0.1545085
vt 0.4253254 -2.887646E-15
vt -0.25 0.1545085
vt -1.082867E-15 2.887646E-15
vt -0.1545085 1.15
vt -0.4045085 1.245492
vt -0.2628655 1.4
vt -1.082867E-15 0.2628655
vt 0.1545085 0.4045085
vt 1.082867E-15 1.4
vt 0.4253254 2.887646E-15
vt 0.1545085 1.15
vt -1.082867E-15 1.4
vt 2.887646E-15 1.4
vt 2.887646E-15 1.662866
vt -1.082867E-15 -2.887646E-15
vt 0.25 1.245492
vt -2.887646E-15 1.137134
vt -0.1545085 0.9954915
vt -0.25 1.245492
vt -0.4253254 1.4
vt 0.25 0.9954915
vt 0.4045085 1.245492
vt -1.082867E-15 0.9746746
vt 0.1545085 0.9954915
vt 2.887646E-15 1.137134
vt -0.25 0.9954915
vt 0.1545085 -0.4045085
vt -0.4253254 -2.887646E-15
vt -0.1545085 1.65
vt -1.082867E-15 1.825325
vt 1.082867E-15 0.9746746
vt -0.4045085 1.554508
vt -0.1545085 1.804508
vt 0.4253254 1.4
vt -0.1545085 0.4045085
vt -0.4045085 1.65
vt -0.4253254 2.887646E-15
vt 1.082867E-15 1.825325

usemtl customMaterial2 (Instance)
usemap customMaterial2 (Instance)
f 27/35/18 26/34/18 25/33/17
f 30/38/21 29/37/20 28/36/19
f 31/41/23 30/40/22 28/39/22
f 33/44/24 32/43/25 27/42/24
f 36/47/27 35/46/26 34/45/26
f 38/49/30 37/48/29 30/40/28
f 41/41/32 40/40/31 39/39/31
f 44/52/34 43/51/33 42/50/33
f 35/46/36 46/54/36 45/53/35
f 49/52/38 48/50/37 47/55/37
f 52/56/40 51/46/39 50/45/39
f 54/58/42 46/57/42 53/43/41
f 56/37/43 52/60/44 55/59/43
f 56/37/46 51/38/46 52/60/45
f 58/61/49 57/48/48 40/40/47
f 26/34/52 43/62/51 29/37/50
f 60/65/54 40/64/54 59/63/53
f 54/58/57 42/50/56 46/57/55
f 62/35/58 53/66/59 61/65/58
f 61/68/62 46/57/61 35/67/60
f 42/50/63 45/69/64 46/57/63
f 33/44/66 47/55/66 32/43/65
f 45/53/68 57/48/67 58/61/67
f 55/59/71 62/35/70 61/65/69
f 63/62/72 36/71/73 34/70/72
f 60/65/74 59/63/75 26/34/74
f 44/52/77 42/50/76 54/58/76
f 32/43/79 39/57/78 60/68/78
f 47/55/82 48/50/81 39/57/80
f 63/51/85 34/72/84 48/50/83
f 52/60/87 62/35/86 55/59/86
f 56/37/90 55/59/89 63/62/88
f 34/45/91 41/41/92 48/73/91
f 55/59/94 61/65/94 36/71/93
f 57/48/95 59/74/96 40/40/95
f 31/76/98 28/75/97 64/44/97
f 50/45/99 31/41/100 64/73/99
f 26/34/102 29/37/102 25/33/101
f 59/63/104 43/62/103 26/34/103
f 51/46/106 66/54/106 65/53/105
f 64/44/108 54/58/108 53/43/107
f 48/50/109 41/77/110 39/57/109
f 50/45/112 38/49/112 31/41/111
f 66/75/114 56/78/114 49/52/113
f 32/66/116 60/65/115 27/35/115
f 35/46/119 58/61/118 34/45/117
f 63/62/121 55/59/121 36/71/120
f 66/75/122 49/52/123 47/55/122
f 52/60/125 50/79/124 62/35/124
f 65/53/127 37/48/126 38/49/126
f 43/62/128 44/80/129 29/37/128
f 58/61/131 40/40/131 41/41/130
f 51/38/134 56/37/133 66/36/132
f 38/49/136 30/40/136 31/41/135
f 43/51/139 57/72/138 42/50/137
f 36/71/141 61/65/140 35/64/140
f 25/33/143 29/37/142 30/38/142
f 47/55/145 39/57/145 32/43/144
f 35/46/146 45/53/147 58/61/146
f 45/53/149 42/81/148 57/48/148
f 28/75/150 44/52/151 54/58/150
f 49/80/153 56/37/152 63/62/152
f 37/79/156 33/82/155 27/35/154
f 51/46/157 65/53/158 38/49/157
f 60/65/161 26/34/160 27/35/159
f 60/68/164 39/57/163 40/67/162
f 64/44/165 53/43/166 62/42/165
f 66/75/169 47/55/168 33/44/167
f 37/48/170 25/83/171 30/40/170
f 51/46/174 38/49/173 50/45/172
f 65/53/176 33/81/175 37/48/175
f 53/43/178 46/57/177 61/68/177
f 59/63/180 57/70/179 43/62/179
f 34/45/182 58/61/182 41/41/181
f 28/75/185 54/58/184 64/44/183
f 50/79/188 64/82/187 62/35/186
f 49/52/190 63/51/189 48/50/189
f 27/35/191 25/33/192 37/79/191
f 65/84/194 66/75/193 33/44/193
f 28/75/196 29/78/196 44/52/195
