# Made using Asset Forge (www.assetforge.io) version 1.3 

mtllib Tree1.mtl 

v 0.5 0 0.5
v 0.5 0 -0.5
v -0.5 0 0.5
v -0.5 0 -0.5
v 0.5 0.1 -0.5
v 0.5 0.1 0.5
v -0.5 0.1 0.5
v -0.5 0.1 -0.5
vn 0 -1 0
vn 1 0 0
vn 0 0 1
vn -1 0 0
vn 0 0 -1
vn 0 1 0
vt -0.5 -0.5
vt -0.5 0.5
vt 0.5 -0.5
vt 0.5 0.5
vt 0.5 0.1
vt 0.5 0
vt -0.5 0.1
vt -0.5 0

usemtl customMaterial3 (Instance)
usemap customMaterial3 (Instance)
f 3/3/1 2/2/1 1/1/1
f 2/2/1 3/3/1 4/4/1
f 6/7/2 2/6/2 5/5/2
f 2/6/2 6/7/2 1/8/2
f 6/5/3 3/8/3 1/6/3
f 3/8/3 6/5/3 7/7/3
f 3/6/4 8/7/4 4/8/4
f 8/7/4 3/6/4 7/5/4
f 8/5/5 2/8/5 4/6/5
f 2/8/5 8/5/5 5/7/5

usemtl customMaterial3 (Instance)
usemap customMaterial3 (Instance)
f 8/3/6 6/2/6 5/1/6
f 6/2/6 8/3/6 7/4/6
v 0.1 1.3 7.219114E-17
v 0.07071068 1.3 0.07071068
v 0.07071068 1.3 -0.07071068
v 2.165734E-16 1.3 -0.1
v 1.443823E-16 1.3 0.1
v -0.07071068 1.3 -0.07071068
v -0.07071068 1.3 0.07071068
v -0.1 1.3 7.219114E-17
v 0.07071068 0.1 -0.07071068
v 0.1 0.1 7.219114E-17
v -0.07071068 0.1 -0.07071068
v 2.165734E-16 0.1 -0.1
v 0.07071068 0.1 0.07071068
v -0.1 0.1 7.219114E-17
v -0.07071068 0.1 0.07071068
v 1.443823E-16 0.1 0.1
vn 0 1.2 0
vn 0.1847759 0 -0.07653668
vn -0.07653668 0 -0.1847759
vn 0.1847759 0 0.07653668
vn -0.1847759 0 -0.07653668
vn -0.1847759 0 0.07653668
vn 0.07653668 0 0.1847759
vn 0.07653668 0 -0.1847759
vn 0 -1.2 0
vn -0.07653668 0 0.1847759
vt -0.1 7.219114E-17
vt -0.07071068 0.07071068
vt -0.07071068 -0.07071068
vt -2.165734E-16 -0.1
vt -1.443823E-16 0.1
vt 0.07071068 -0.07071068
vt 0.07071068 0.07071068
vt 0.1 7.219114E-17
vt 0.07071068 1.3
vt 0.07071068 0.1
vt -7.219114E-17 1.3
vt -7.219114E-17 0.1
vt -2.165734E-16 0.1
vt -2.165734E-16 1.3
vt -0.07071068 1.3
vt -0.07071068 0.1
vt 7.219114E-17 0.1
vt 7.219114E-17 1.3
vt 1.443823E-16 0.1
vt 1.443823E-16 1.3
vt -0.1 -7.219114E-17
vt -1.443823E-16 -0.1
vt 0.1 -7.219114E-17

usemtl woodDark (Instance) (Instance)
usemap woodDark (Instance) (Instance)
f 11/11/7 10/10/7 9/9/7
f 10/10/7 11/11/7 12/12/7
f 10/10/7 12/12/7 13/13/7
f 13/13/7 12/12/7 14/14/7
f 13/13/7 14/14/7 15/15/7
f 15/15/7 14/14/7 16/16/7
f 9/19/8 17/18/8 11/17/8
f 17/18/8 9/19/8 18/20/8
f 14/17/9 20/21/9 19/18/9
f 20/21/9 14/17/9 12/22/9
f 10/23/10 18/20/10 9/19/10
f 18/20/10 10/23/10 21/24/10
f 22/25/11 14/23/11 19/24/11
f 14/23/11 22/25/11 16/26/11
f 23/18/12 16/26/12 22/25/12
f 16/26/12 23/18/12 15/17/12
f 10/17/13 24/27/13 21/18/13
f 24/27/13 10/17/13 13/28/13
f 12/22/14 17/24/14 20/21/14
f 17/24/14 12/22/14 11/23/14
f 21/11/15 17/10/15 18/29/15
f 17/10/15 21/11/15 24/30/15
f 17/10/15 24/30/15 20/21/15
f 20/21/15 24/30/15 19/15/15
f 19/15/15 24/30/15 23/14/15
f 19/15/15 23/14/15 22/31/15
f 13/28/16 23/24/16 24/27/16
f 23/24/16 13/28/16 15/23/16
v 0.4253254 1.762866 2.887646E-15
v 0.5 1.5 2.887646E-15
v 0.4045085 1.654508 0.25
v 0.1545085 1.75 -0.4045085
v 0.4045085 1.654508 -0.25
v 0.25 1.904508 -0.1545085
v 1.082867E-15 1.925325 -0.2628655
v 0.2628655 1.5 0.4253254
v 0.1545085 1.75 0.4045085
v -0.25 1.095492 0.1545085
v -0.25 1.095492 -0.1545085
v -0.4253254 1.237134 2.887646E-15
v 0.25 1.904508 0.1545085
v 1.082867E-15 2 2.887646E-15
v 0.1545085 1.25 0.4045085
v 0.25 1.095492 0.1545085
v 1.082867E-15 1.074675 0.2628655
v 0.1545085 1.25 -0.4045085
v 0.4045085 1.345492 -0.25
v 0.2628655 1.5 -0.4253254
v 1.082867E-15 1.074675 -0.2628655
v -0.1545085 1.25 -0.4045085
v 1.082867E-15 1.5 0.5
v -0.1545085 1.25 0.4045085
v -0.2628655 1.5 0.4253254
v -0.25 1.904508 -0.1545085
v -0.25 1.904508 0.1545085
v -0.4253254 1.762866 2.887646E-15
v -0.2628655 1.5 -0.4253254
v 1.082867E-15 1.5 -0.5
v -0.5 1.5 2.887646E-15
v -0.4045085 1.654508 0.25
v 0.25 1.095492 -0.1545085
v 1.082867E-15 1 2.887646E-15
v 0.4253254 1.237134 2.887646E-15
v 0.4045085 1.345492 0.25
v -0.4045085 1.345492 -0.25
v -0.4045085 1.654508 -0.25
v -0.4045085 1.345492 0.25
v -0.1545085 1.75 -0.4045085
v 1.082867E-15 1.925325 0.2628655
v -0.1545085 1.75 0.4045085
vn 0.9435221 0.2680349 0.1947387
vn 0.9505884 0.1356935 0.2792293
vn 0.505635 0.5623999 -0.6542473
vn 0.6542475 0.505635 -0.5623998
vn 0.5623999 0.6542475 -0.5056348
vn 0.4518026 0.6713592 -0.5874958
vn 0.315094 0.7487835 -0.5831286
vn 0.5874959 0.4518025 0.6713591
vn 0.5831288 0.3150938 0.7487834
vn -0.4987859 -0.8667253 0
vn -0.6284283 -0.7778675 0
vn 0.4043472 0.909982 -0.09184758
vn 0.4043472 0.909982 0.09184758
vn 0.2557348 0.9667469 0
vn 0.4518024 -0.6713591 0.5874959
vn 0.3150938 -0.7487834 0.5831288
vn 0.5874959 -0.4518024 -0.6713591
vn 0.5831288 -0.3150938 -0.7487834
vn -0.3150938 -0.7487834 -0.5831288
vn -0.4518024 -0.6713591 -0.5874959
vn -0.1356935 -0.2792293 0.9505884
vn -0.2680349 -0.1947387 0.9435221
vn -0.4987859 0.8667253 0
vn -0.6284282 0.7778676 0
vn -0.2680349 -0.1947387 -0.9435221
vn -0.1356935 -0.2792293 -0.9505884
vn -0.9505884 0.1356935 0.2792293
vn -0.9435221 0.2680349 0.1947387
vn -0.7487834 0.5831288 0.3150939
vn -0.6713591 0.587496 0.4518024
vn 0.4043472 -0.9099821 0.09184759
vn 0.4043471 -0.9099821 -0.09184757
vn 0.2557346 -0.966747 0
vn 0.9099821 0.0918476 -0.4043472
vn 0.9099821 -0.09184759 -0.4043472
vn 0.966747 0 -0.2557346
vn 0.7487835 -0.5831288 0.3150939
vn 0.6713591 -0.5874959 0.4518024
vn -0.0918476 -0.4043472 -0.9099821
vn 0.0918476 -0.4043472 -0.9099821
vn 0 -0.2557346 -0.966747
vn -0.8667253 0 -0.498786
vn -0.7778675 0 -0.6284283
vn -0.5623999 -0.6542475 -0.505635
vn -0.505635 -0.5623999 -0.6542475
vn -0.6542475 -0.505635 -0.5623998
vn 0 -0.4987859 -0.8667253
vn 0 -0.6284283 -0.7778675
vn 0.2680349 0.1947387 0.9435221
vn 0.1356935 0.2792293 0.9505884
vn 0.2792293 -0.9505884 -0.1356934
vn 0.1947387 -0.9435222 -0.2680349
vn -0.9099821 -0.09184759 -0.4043472
vn -0.9099821 0.0918476 -0.4043472
vn -0.966747 0 -0.2557346
vn -0.6713591 -0.587496 0.4518025
vn -0.7487835 -0.5831288 0.3150939
vn 0.9505884 -0.1356935 0.2792293
vn 0.9435221 -0.2680349 0.1947387
vn 0.1356935 -0.2792293 -0.9505884
vn 0.2680349 -0.1947387 -0.9435221
vn 0.5874959 -0.4518024 0.6713591
vn 0.5831288 -0.3150938 0.7487834
vn 0.0918476 -0.4043472 0.9099821
vn -0.0918476 -0.4043472 0.9099821
vn 0 -0.2557346 0.966747
vn -0.505635 -0.5623999 0.6542475
vn -0.5623998 -0.6542475 0.505635
vn -0.6542473 -0.5056349 0.5623998
vn -0.9505884 0.1356935 -0.2792293
vn -0.9435221 0.2680349 -0.1947387
vn -0.9099821 -0.09184759 0.4043472
vn -0.966747 0 0.2557346
vn -0.9099821 0.0918476 0.4043472
vn -0.4518024 -0.6713591 0.5874959
vn -0.3150938 -0.7487834 0.5831288
vn -0.9435221 -0.2680349 -0.1947387
vn -0.9505884 -0.1356935 -0.2792293
vn 0.4987859 -0.8667253 0
vn 0.6284283 -0.7778675 0
vn 0 0.498786 -0.8667253
vn 0 0.6284283 -0.7778675
vn -0.4518026 0.6713591 -0.5874959
vn -0.315094 0.7487835 -0.5831286
vn 0.9435221 0.2680349 -0.1947387
vn 0.9505884 0.1356935 -0.2792293
vn 0.9505884 -0.1356935 -0.2792293
vn 0.9435221 -0.2680349 -0.1947387
vn -0.315094 0.7487835 0.5831287
vn -0.4518025 0.6713592 0.5874958
vn -0.2680349 0.1947387 -0.9435221
vn -0.1356935 0.2792293 -0.9505884
vn 0 -0.4987859 0.8667253
vn 0 -0.6284283 0.7778675
vn -0.1947389 0.9435221 -0.2680349
vn -0.2792295 0.9505884 -0.1356935
vn -0.5831288 0.3150938 0.7487834
vn -0.5874959 0.4518025 0.6713591
vn 0.8667253 0 0.498786
vn 0.7778675 0 0.6284283
vn -0.4043472 -0.9099821 0.09184759
vn -0.2557346 -0.966747 0
vn -0.4043472 -0.9099821 -0.09184759
vn -0.9435221 -0.2680349 0.1947387
vn -0.9505884 -0.1356935 0.2792293
vn -0.1356935 0.2792293 0.9505884
vn -0.2680349 0.1947387 0.9435221
vn -0.6713591 0.5874959 -0.4518024
vn -0.7487834 0.5831288 -0.3150939
vn 0.2792295 0.9505884 0.1356935
vn 0.1947389 0.9435221 0.2680349
vn 0.8667253 0 -0.498786
vn 0.7778675 0 -0.6284283
vn 0.1947387 -0.9435222 0.2680349
vn 0.2792293 -0.9505884 0.1356934
vn -0.5056349 0.5623999 0.6542473
vn -0.6542475 0.505635 0.5623998
vn -0.5623998 0.6542475 0.5056348
vn 0.1947389 0.9435221 -0.2680349
vn 0.2792295 0.9505884 -0.1356935
vn 0.505635 -0.5623999 -0.6542475
vn 0.5623999 -0.6542475 -0.505635
vn 0.6542474 -0.505635 -0.5623999
vn -0.6713591 -0.5874959 -0.4518024
vn -0.7487835 -0.5831288 -0.3150939
vn 0.6713591 0.587496 -0.4518024
vn 0.7487834 0.5831288 -0.3150939
vn 0.2680349 -0.1947387 0.9435221
vn 0.1356935 -0.2792293 0.9505884
vn -0.2792293 -0.9505884 -0.1356934
vn -0.1947387 -0.9435222 -0.2680349
vn 0.4518024 -0.6713591 -0.5874959
vn 0.3150938 -0.7487834 -0.5831288
vn 0.1356935 0.2792293 -0.9505884
vn 0.2680349 0.1947387 -0.9435221
vn -0.8667253 0 0.498786
vn -0.7778675 0 0.6284283
vn 0.6542473 0.5056349 0.5623998
vn 0.5056349 0.5623999 0.6542473
vn 0.5623999 0.6542475 0.5056348
vn -0.2792295 0.9505884 0.1356935
vn -0.1947389 0.9435221 0.2680349
vn 0.9099821 0.0918476 0.4043472
vn 0.966747 0 0.2557346
vn 0.9099821 -0.09184759 0.4043472
vn 0.5623999 -0.6542475 0.505635
vn 0.5056349 -0.5623998 0.6542473
vn 0.6542475 -0.505635 0.5623998
vn -0.5874959 0.4518025 -0.6713591
vn -0.5831288 0.3150938 -0.7487834
vn 0.0918476 0.4043472 0.9099821
vn 0 0.2557346 0.966747
vn -0.0918476 0.4043472 0.9099821
vn 0.4987859 0.8667253 0
vn 0.6284282 0.7778676 0
vn -0.4043472 0.9099821 -0.0918476
vn -0.2557348 0.9667469 0
vn -0.4043472 0.909982 0.09184758
vn 0.4518026 0.6713591 0.5874959
vn 0.315094 0.7487835 0.5831286
vn -0.5874959 -0.4518024 -0.6713591
vn -0.5831288 -0.3150938 -0.7487834
vn 0.6713591 -0.587496 -0.4518025
vn 0.7487835 -0.5831288 -0.3150939
vn -0.1947387 -0.9435222 0.2680349
vn -0.2792293 -0.9505884 0.1356934
vn -0.0918476 0.4043472 -0.9099821
vn 0 0.2557346 -0.966747
vn 0.0918476 0.4043472 -0.9099821
vn -0.6542475 0.505635 -0.5623998
vn -0.505635 0.5623999 -0.6542473
vn -0.5623998 0.6542475 -0.5056348
vn -0.5874959 -0.4518024 0.6713591
vn -0.5831288 -0.3150938 0.7487834
vn 0.6713591 0.5874959 0.4518024
vn 0.7487834 0.5831288 0.3150939
vn 0 0.498786 0.8667253
vn 0 0.6284283 0.7778675
vn 0.5831288 0.3150938 -0.7487834
vn 0.5874959 0.4518025 -0.6713591
vt -2.887646E-15 1.762866
vt -2.887646E-15 1.5
vt -0.25 1.654508
vt -0.1545085 -0.4045085
vt -0.4045085 -0.25
vt -0.25 -0.1545085
vt -1.082867E-15 -0.2628655
vt 0.4045085 1.654508
vt 0.2628655 1.5
vt 0.1545085 1.75
vt 0.25 -0.1545085
vt 0.25 0.1545085
vt 0.4253254 -2.887646E-15
vt -0.25 0.1545085
vt -1.082867E-15 2.887646E-15
vt -0.1545085 1.25
vt -0.4045085 1.345492
vt -0.2628655 1.5
vt -1.082867E-15 0.2628655
vt 0.1545085 0.4045085
vt 1.082867E-15 1.5
vt 0.4253254 2.887646E-15
vt 0.1545085 1.25
vt -1.082867E-15 1.5
vt 2.887646E-15 1.5
vt 2.887646E-15 1.762866
vt 0.25 1.654508
vt 0.1545085 1.904508
vt -1.082867E-15 -2.887646E-15
vt 0.25 1.345492
vt -2.887646E-15 1.237134
vt -0.1545085 1.095492
vt -0.25 1.345492
vt -0.4253254 1.5
vt 0.4045085 0.25
vt -1.082867E-15 1.074675
vt 0.1545085 1.095492
vt 2.887646E-15 1.237134
vt 0.4045085 1.345492
vt 0.4045085 1.25
vt 0.1545085 -0.4045085
vt -0.4253254 -2.887646E-15
vt -0.1545085 1.75
vt -1.082867E-15 1.925325
vt 1.082867E-15 1.074675
vt -0.4045085 1.654508
vt -0.1545085 1.904508
vt 0.4253254 1.5
vt -0.1545085 0.4045085
vt -0.4045085 0.25
vt -0.4253254 2.887646E-15
vt 0.4045085 -0.25
vt 1.082867E-15 1.925325

usemtl customMaterial3 (Instance)
usemap customMaterial3 (Instance)
f 27/34/18 26/33/18 25/32/17
f 30/37/21 29/36/20 28/35/19
f 31/38/23 30/37/22 28/35/22
f 33/41/24 32/40/25 27/39/24
f 36/44/27 35/43/26 34/42/26
f 38/46/30 37/45/29 30/37/28
f 41/38/32 40/37/31 39/35/31
f 44/49/34 43/48/33 42/47/33
f 35/43/36 46/51/36 45/50/35
f 49/49/38 48/47/37 47/52/37
f 52/53/40 51/43/39 50/42/39
f 54/55/42 46/54/42 53/40/41
f 56/58/43 52/57/44 55/56/43
f 56/58/46 51/59/46 52/57/45
f 58/60/49 57/45/48 40/37/47
f 26/33/52 43/61/51 29/58/50
f 60/64/54 40/63/54 59/62/53
f 54/55/57 42/47/56 46/54/55
f 62/34/58 53/65/59 61/64/58
f 61/66/62 46/51/61 35/43/60
f 42/47/63 45/67/64 46/54/63
f 33/41/66 47/52/66 32/40/65
f 45/50/68 57/45/67 58/60/67
f 55/56/71 62/34/70 61/64/69
f 63/61/72 36/69/73 34/68/72
f 60/64/74 59/62/75 26/33/74
f 44/49/77 42/47/76 54/55/76
f 32/40/79 39/54/78 60/70/78
f 47/52/82 48/47/81 39/54/80
f 63/61/85 34/68/84 48/71/83
f 52/57/87 62/34/86 55/56/86
f 56/58/90 55/56/89 63/61/88
f 34/42/91 41/38/92 48/72/91
f 55/56/94 61/64/94 36/69/93
f 57/45/95 59/73/96 40/37/95
f 31/75/98 28/74/97 64/41/97
f 50/42/99 31/38/100 64/72/99
f 26/33/102 29/58/102 25/32/101
f 59/62/104 43/61/103 26/33/103
f 51/43/106 66/51/106 65/50/105
f 64/41/108 54/55/108 53/40/107
f 48/47/109 41/76/110 39/54/109
f 50/42/112 38/46/112 31/38/111
f 66/74/114 56/77/114 49/49/113
f 32/65/116 60/64/115 27/34/115
f 35/43/119 58/60/118 34/42/117
f 63/61/121 55/56/121 36/69/120
f 66/74/122 49/49/123 47/52/122
f 52/57/125 50/78/124 62/34/124
f 65/50/127 37/45/126 38/46/126
f 43/61/128 44/79/129 29/58/128
f 58/60/131 40/37/131 41/38/130
f 51/43/134 56/66/133 66/51/132
f 38/46/136 30/37/136 31/38/135
f 43/61/139 57/68/138 42/71/137
f 36/69/141 61/64/140 35/63/140
f 25/32/143 29/58/142 30/59/142
f 47/52/145 39/54/145 32/40/144
f 35/43/146 45/50/147 58/60/146
f 45/50/149 42/80/148 57/45/148
f 28/74/150 44/49/151 54/55/150
f 49/79/153 56/58/152 63/61/152
f 37/45/156 33/80/155 27/81/154
f 51/43/157 65/50/158 38/46/157
f 60/64/161 26/33/160 27/34/159
f 60/36/164 39/35/163 40/37/162
f 64/41/165 53/40/166 62/39/165
f 66/74/169 47/52/168 33/41/167
f 37/45/170 25/82/171 30/37/170
f 51/43/174 38/46/173 50/42/172
f 65/50/176 33/80/175 37/45/175
f 53/40/178 46/54/177 61/70/177
f 59/62/180 57/68/179 43/61/179
f 34/42/182 58/60/182 41/38/181
f 28/74/185 54/55/184 64/41/183
f 50/42/188 64/72/187 62/83/186
f 49/49/190 63/48/189 48/47/189
f 27/34/191 25/32/192 37/78/191
f 65/84/194 66/74/193 33/41/193
f 28/74/196 29/77/196 44/49/195
