# Made using Asset Forge (www.assetforge.io) version 1.3 

mtllib Tree3.mtl 

v 0.5 0 0.5
v 0.5 0 -0.5
v -0.5 0 0.5
v -0.5 0 -0.5
v 0.5 0.1 -0.5
v 0.5 0.1 0.5
v -0.5 0.1 0.5
v -0.5 0.1 -0.5
vn 0 -1 0
vn 1 0 0
vn 0 0 1
vn -1 0 0
vn 0 0 -1
vn 0 1 0
vt -0.5 -0.5
vt -0.5 0.5
vt 0.5 -0.5
vt 0.5 0.5
vt 0.5 0.1
vt 0.5 0
vt -0.5 0.1
vt -0.5 0

usemtl customMaterial3 (Instance)
usemap customMaterial3 (Instance)
f 3/3/1 2/2/1 1/1/1
f 2/2/1 3/3/1 4/4/1
f 6/7/2 2/6/2 5/5/2
f 2/6/2 6/7/2 1/8/2
f 6/5/3 3/8/3 1/6/3
f 3/8/3 6/5/3 7/7/3
f 3/6/4 8/7/4 4/8/4
f 8/7/4 3/6/4 7/5/4
f 8/5/5 2/8/5 4/6/5
f 2/8/5 8/5/5 5/7/5

usemtl customMaterial3 (Instance)
usemap customMaterial3 (Instance)
f 8/3/6 6/2/6 5/1/6
f 6/2/6 8/3/6 7/4/6
v 0.1 1.3 7.219114E-17
v 0.07071068 1.3 0.07071068
v 0.07071068 1.3 -0.07071068
v 2.165734E-16 1.3 -0.1
v 1.443823E-16 1.3 0.1
v -0.07071068 1.3 -0.07071068
v -0.07071068 1.3 0.07071068
v -0.1 1.3 7.219114E-17
v 0.07071068 0.1 -0.07071068
v 0.1 0.1 7.219114E-17
v -0.07071068 0.1 -0.07071068
v 2.165734E-16 0.1 -0.1
v 0.07071068 0.1 0.07071068
v -0.1 0.1 7.219114E-17
v -0.07071068 0.1 0.07071068
v 1.443823E-16 0.1 0.1
vn 0 1.2 0
vn 0.1847759 0 -0.07653668
vn -0.07653668 0 -0.1847759
vn 0.1847759 0 0.07653668
vn -0.1847759 0 -0.07653668
vn -0.1847759 0 0.07653668
vn 0.07653668 0 0.1847759
vn 0.07653668 0 -0.1847759
vn 0 -1.2 0
vn -0.07653668 0 0.1847759
vt -0.1 7.219114E-17
vt -0.07071068 0.07071068
vt -0.07071068 -0.07071068
vt -2.165734E-16 -0.1
vt -1.443823E-16 0.1
vt 0.07071068 -0.07071068
vt 0.07071068 0.07071068
vt 0.1 7.219114E-17
vt 0.07071068 1.3
vt 0.07071068 0.1
vt -7.219114E-17 1.3
vt -7.219114E-17 0.1
vt -2.165734E-16 0.1
vt -2.165734E-16 1.3
vt -0.07071068 1.3
vt -0.07071068 0.1
vt 7.219114E-17 0.1
vt 7.219114E-17 1.3
vt 1.443823E-16 0.1
vt 1.443823E-16 1.3
vt -0.1 -7.219114E-17
vt -1.443823E-16 -0.1
vt 0.1 -7.219114E-17

usemtl woodDark (Instance) (Instance)
usemap woodDark (Instance) (Instance)
f 11/11/7 10/10/7 9/9/7
f 10/10/7 11/11/7 12/12/7
f 10/10/7 12/12/7 13/13/7
f 13/13/7 12/12/7 14/14/7
f 13/13/7 14/14/7 15/15/7
f 15/15/7 14/14/7 16/16/7
f 9/19/8 17/18/8 11/17/8
f 17/18/8 9/19/8 18/20/8
f 14/17/9 20/21/9 19/18/9
f 20/21/9 14/17/9 12/22/9
f 10/23/10 18/20/10 9/19/10
f 18/20/10 10/23/10 21/24/10
f 22/25/11 14/23/11 19/24/11
f 14/23/11 22/25/11 16/26/11
f 23/18/12 16/26/12 22/25/12
f 16/26/12 23/18/12 15/17/12
f 10/17/13 24/27/13 21/18/13
f 24/27/13 10/17/13 13/28/13
f 12/22/14 17/24/14 20/21/14
f 17/24/14 12/22/14 11/23/14
f 21/11/15 17/10/15 18/29/15
f 17/10/15 21/11/15 24/30/15
f 17/10/15 24/30/15 20/21/15
f 20/21/15 24/30/15 19/15/15
f 19/15/15 24/30/15 23/14/15
f 19/15/15 23/14/15 22/31/15
f 13/28/16 23/24/16 24/27/16
f 23/24/16 13/28/16 15/23/16
v 0.4253254 1.762866 1.732587E-15
v 0.5 1.5 1.732587E-15
v 0.4045085 1.654508 0.15
v 0.1545085 1.75 -0.2427051
v 0.4045085 1.654508 -0.15
v 0.25 1.904508 -0.09270509
v 1.082867E-15 1.925325 -0.1577193
v 0.2628655 1.5 0.2551953
v 0.1545085 1.75 0.2427051
v -0.25 1.095492 0.09270509
v -0.25 1.095492 -0.09270509
v -0.4253254 1.237134 1.732587E-15
v 0.25 1.904508 0.09270509
v 1.082867E-15 2 1.732587E-15
v 0.1545085 1.25 0.2427051
v 0.25 1.095492 0.09270509
v 1.082867E-15 1.074675 0.1577193
v 0.1545085 1.25 -0.2427051
v 0.4045085 1.345492 -0.15
v 0.2628655 1.5 -0.2551953
v 1.082867E-15 1.074675 -0.1577193
v -0.1545085 1.25 -0.2427051
v 1.082867E-15 1.5 0.3
v -0.1545085 1.25 0.2427051
v -0.2628655 1.5 0.2551953
v -0.25 1.904508 -0.09270509
v -0.25 1.904508 0.09270509
v -0.4253254 1.762866 1.732587E-15
v -0.2628655 1.5 -0.2551953
v 1.082867E-15 1.5 -0.3
v -0.5 1.5 1.732587E-15
v -0.4045085 1.654508 0.15
v 0.25 1.095492 -0.09270509
v 1.082867E-15 1 1.732587E-15
v 0.4253254 1.237134 1.732587E-15
v 0.4045085 1.345492 0.15
v -0.4045085 1.345492 -0.15
v -0.4045085 1.654508 -0.15
v -0.4045085 1.345492 0.15
v -0.1545085 1.75 -0.2427051
v 1.082867E-15 1.925325 0.1577193
v -0.1545085 1.75 0.2427051
vn 0.9435221 0.2680349 0.1168432
vn 0.9505884 0.1356935 0.1675376
vn 0.505635 0.5623999 -0.3925484
vn 0.6542475 0.505635 -0.3374399
vn 0.5623999 0.6542475 -0.3033809
vn 0.4518026 0.6713592 -0.3524975
vn 0.315094 0.7487835 -0.3498772
vn 0.5874959 0.4518025 0.4028155
vn 0.5831288 0.3150938 0.4492701
vn -0.4987859 -0.8667253 0
vn -0.6284283 -0.7778675 0
vn 0.4043472 0.909982 -0.05510855
vn 0.4043472 0.909982 0.05510855
vn 0.2557348 0.9667469 0
vn 0.4518024 -0.6713591 0.3524976
vn 0.3150938 -0.7487834 0.3498773
vn 0.5874959 -0.4518024 -0.4028155
vn 0.5831288 -0.3150938 -0.4492701
vn -0.3150938 -0.7487834 -0.3498773
vn -0.4518024 -0.6713591 -0.3524976
vn -0.1356935 -0.2792293 0.5703531
vn -0.2680349 -0.1947387 0.5661133
vn -0.4987859 0.8667253 0
vn -0.6284282 0.7778676 0
vn -0.2680349 -0.1947387 -0.5661133
vn -0.1356935 -0.2792293 -0.5703531
vn -0.9505884 0.1356935 0.1675376
vn -0.9435221 0.2680349 0.1168432
vn -0.7487834 0.5831288 0.1890563
vn -0.6713591 0.587496 0.2710815
vn 0.4043472 -0.9099821 0.05510856
vn 0.4043471 -0.9099821 -0.05510854
vn 0.2557346 -0.966747 0
vn 0.9099821 0.0918476 -0.2426083
vn 0.9099821 -0.09184759 -0.2426083
vn 0.966747 0 -0.1534408
vn 0.7487835 -0.5831288 0.1890563
vn 0.6713591 -0.5874959 0.2710815
vn -0.0918476 -0.4043472 -0.5459893
vn 0.0918476 -0.4043472 -0.5459893
vn 0 -0.2557346 -0.5800483
vn -0.8667253 0 -0.2992716
vn -0.7778675 0 -0.377057
vn -0.5623999 -0.6542475 -0.303381
vn -0.505635 -0.5623999 -0.3925485
vn -0.6542475 -0.505635 -0.3374399
vn 0 -0.4987859 -0.5200352
vn 0 -0.6284283 -0.4667205
vn 0.2680349 0.1947387 0.5661133
vn 0.1356935 0.2792293 0.5703531
vn 0.2792293 -0.9505884 -0.08141607
vn 0.1947387 -0.9435222 -0.1608209
vn -0.9099821 -0.09184759 -0.2426084
vn -0.9099821 0.0918476 -0.2426083
vn -0.966747 0 -0.1534408
vn -0.6713591 -0.587496 0.2710815
vn -0.7487835 -0.5831288 0.1890563
vn 0.9505884 -0.1356935 0.1675376
vn 0.9435221 -0.2680349 0.1168432
vn 0.1356935 -0.2792293 -0.5703531
vn 0.2680349 -0.1947387 -0.5661133
vn 0.5874959 -0.4518024 0.4028155
vn 0.5831288 -0.3150938 0.4492701
vn 0.0918476 -0.4043472 0.5459893
vn -0.0918476 -0.4043472 0.5459893
vn 0 -0.2557346 0.5800483
vn -0.505635 -0.5623999 0.3925485
vn -0.5623998 -0.6542475 0.303381
vn -0.6542473 -0.5056349 0.3374399
vn -0.9505884 0.1356935 -0.1675376
vn -0.9435221 0.2680349 -0.1168432
vn -0.9099821 -0.09184759 0.2426083
vn -0.966747 0 0.1534408
vn -0.9099821 0.0918476 0.2426083
vn -0.4518024 -0.6713591 0.3524976
vn -0.3150938 -0.7487834 0.3498773
vn -0.9435221 -0.2680349 -0.1168432
vn -0.9505884 -0.1356935 -0.1675376
vn 0.4987859 -0.8667253 0
vn 0.6284283 -0.7778675 0
vn 0 0.498786 -0.5200352
vn 0 0.6284283 -0.4667205
vn -0.4518026 0.6713591 -0.3524976
vn -0.315094 0.7487835 -0.3498772
vn 0.9435221 0.2680349 -0.1168432
vn 0.9505884 0.1356935 -0.1675376
vn 0.9505884 -0.1356935 -0.1675376
vn 0.9435221 -0.2680349 -0.1168432
vn -0.315094 0.7487835 0.3498772
vn -0.4518025 0.6713592 0.3524975
vn -0.2680349 0.1947387 -0.5661133
vn -0.1356935 0.2792293 -0.5703531
vn 0 -0.4987859 0.5200352
vn 0 -0.6284283 0.4667205
vn -0.1947389 0.9435221 -0.1608209
vn -0.2792295 0.9505884 -0.08141609
vn -0.5831288 0.3150938 0.4492701
vn -0.5874959 0.4518025 0.4028155
vn 0.8667253 0 0.2992716
vn 0.7778675 0 0.377057
vn -0.4043472 -0.9099821 0.05510856
vn -0.2557346 -0.966747 0
vn -0.4043472 -0.9099821 -0.05510856
vn -0.9435221 -0.2680349 0.1168432
vn -0.9505884 -0.1356935 0.1675376
vn -0.1356935 0.2792293 0.5703531
vn -0.2680349 0.1947387 0.5661133
vn -0.6713591 0.5874959 -0.2710815
vn -0.7487834 0.5831288 -0.1890563
vn 0.2792295 0.9505884 0.08141609
vn 0.1947389 0.9435221 0.1608209
vn 0.8667253 0 -0.2992716
vn 0.7778675 0 -0.377057
vn 0.1947387 -0.9435222 0.1608209
vn 0.2792293 -0.9505884 0.08141607
vn -0.5056349 0.5623999 0.3925484
vn -0.6542475 0.505635 0.3374399
vn -0.5623998 0.6542475 0.3033809
vn 0.1947389 0.9435221 -0.1608209
vn 0.2792295 0.9505884 -0.08141609
vn 0.505635 -0.5623999 -0.3925485
vn 0.5623999 -0.6542475 -0.303381
vn 0.6542474 -0.505635 -0.3374399
vn -0.6713591 -0.5874959 -0.2710815
vn -0.7487835 -0.5831288 -0.1890563
vn 0.6713591 0.587496 -0.2710815
vn 0.7487834 0.5831288 -0.1890563
vn 0.2680349 -0.1947387 0.5661133
vn 0.1356935 -0.2792293 0.5703531
vn -0.2792293 -0.9505884 -0.08141607
vn -0.1947387 -0.9435222 -0.1608209
vn 0.4518024 -0.6713591 -0.3524976
vn 0.3150938 -0.7487834 -0.3498773
vn 0.1356935 0.2792293 -0.5703531
vn 0.2680349 0.1947387 -0.5661133
vn -0.8667253 0 0.2992716
vn -0.7778675 0 0.377057
vn 0.6542473 0.5056349 0.3374399
vn 0.5056349 0.5623999 0.3925484
vn 0.5623999 0.6542475 0.3033809
vn -0.2792295 0.9505884 0.08141609
vn -0.1947389 0.9435221 0.1608209
vn 0.9099821 0.0918476 0.2426083
vn 0.966747 0 0.1534408
vn 0.9099821 -0.09184759 0.2426083
vn 0.5623999 -0.6542475 0.303381
vn 0.5056349 -0.5623998 0.3925484
vn 0.6542475 -0.505635 0.3374399
vn -0.5874959 0.4518025 -0.4028155
vn -0.5831288 0.3150938 -0.4492701
vn 0.0918476 0.4043472 0.5459893
vn 0 0.2557346 0.5800483
vn -0.0918476 0.4043472 0.5459893
vn 0.4987859 0.8667253 0
vn 0.6284282 0.7778676 0
vn -0.4043472 0.9099821 -0.05510856
vn -0.2557348 0.9667469 0
vn -0.4043472 0.909982 0.05510855
vn 0.4518026 0.6713591 0.3524976
vn 0.315094 0.7487835 0.3498772
vn -0.5874959 -0.4518024 -0.4028155
vn -0.5831288 -0.3150938 -0.4492701
vn 0.6713591 -0.587496 -0.2710815
vn 0.7487835 -0.5831288 -0.1890563
vn -0.1947387 -0.9435222 0.1608209
vn -0.2792293 -0.9505884 0.08141607
vn -0.0918476 0.4043472 -0.5459893
vn 0 0.2557346 -0.5800483
vn 0.0918476 0.4043472 -0.5459893
vn -0.6542475 0.505635 -0.3374399
vn -0.505635 0.5623999 -0.3925484
vn -0.5623998 0.6542475 -0.3033809
vn -0.5874959 -0.4518024 0.4028155
vn -0.5831288 -0.3150938 0.4492701
vn 0.6713591 0.5874959 0.2710815
vn 0.7487834 0.5831288 0.1890563
vn 0 0.498786 0.5200352
vn 0 0.6284283 0.4667205
vn 0.5831288 0.3150938 -0.4492701
vn 0.5874959 0.4518025 -0.4028155
vt -1.732587E-15 1.762866
vt -1.732587E-15 1.5
vt -0.15 1.654508
vt -0.1545085 1.75
vt -0.4045085 1.654508
vt -0.25 1.904508
vt -1.082867E-15 1.925325
vt 0.4045085 1.654508
vt 0.2628655 1.5
vt 0.1545085 1.75
vt 0.25 -0.09270509
vt 0.25 0.09270509
vt 0.4253254 -1.732587E-15
vt -0.25 -0.09270509
vt -0.25 0.09270509
vt -1.082867E-15 1.732587E-15
vt 0.1545085 1.25
vt 0.25 1.095492
vt 1.082867E-15 1.074675
vt -0.1545085 1.25
vt -0.4045085 1.345492
vt -0.2628655 1.5
vt -1.082867E-15 1.074675
vt 1.082867E-15 1.5
vt 0.4253254 1.732587E-15
vt -1.082867E-15 1.5
vt 1.732587E-15 1.5
vt 1.732587E-15 1.762866
vt 0.15 1.654508
vt 0.09270509 1.904508
vt -1.082867E-15 -1.732587E-15
vt 0.15 1.345492
vt -1.732587E-15 1.237134
vt -0.09270509 1.095492
vt -0.15 1.345492
vt 0.4045085 1.345492
vt -1.082867E-15 0.1577193
vt 0.09270509 1.095492
vt 1.732587E-15 1.237134
vt -0.25 1.095492
vt -0.4253254 -1.732587E-15
vt 0.25 1.904508
vt 1.082867E-15 1.925325
vt -1.082867E-15 -0.1577193
vt -0.09270509 1.904508
vt -0.4253254 1.732587E-15

usemtl customMaterial6 (Instance)
usemap customMaterial6 (Instance)
f 27/34/18 26/33/18 25/32/17
f 30/37/21 29/36/20 28/35/19
f 31/38/23 30/37/22 28/35/22
f 33/41/24 32/40/25 27/39/24
f 36/44/27 35/43/26 34/42/26
f 38/47/30 37/46/29 30/45/28
f 41/50/32 40/49/31 39/48/31
f 44/53/34 43/52/33 42/51/33
f 35/49/36 46/48/36 45/54/35
f 49/53/38 48/51/37 47/55/37
f 52/56/40 51/43/39 50/42/39
f 54/57/42 46/48/42 53/40/41
f 56/60/43 52/59/44 55/58/43
f 56/60/46 51/61/46 52/59/45
f 58/62/49 57/46/48 40/45/47
f 26/33/52 43/63/51 29/60/50
f 60/66/54 40/65/54 59/64/53
f 54/57/57 42/51/56 46/48/55
f 62/39/58 53/40/59 61/67/58
f 61/67/62 46/48/61 35/49/60
f 42/51/63 45/54/64 46/48/63
f 33/41/66 47/55/66 32/40/65
f 45/68/68 57/46/67 58/62/67
f 55/58/71 62/34/70 61/66/69
f 63/63/72 36/70/73 34/69/72
f 60/66/74 59/64/75 26/33/74
f 44/53/77 42/51/76 54/57/76
f 32/40/79 39/48/78 60/67/78
f 47/55/82 48/51/81 39/48/80
f 63/52/85 34/71/84 48/51/83
f 52/59/87 62/34/86 55/58/86
f 56/60/90 55/58/89 63/63/88
f 34/71/91 41/50/92 48/51/91
f 55/58/94 61/66/94 36/70/93
f 57/46/95 59/72/96 40/45/95
f 31/38/98 28/35/97 64/41/97
f 50/73/99 31/38/100 64/41/99
f 26/33/102 29/60/102 25/32/101
f 59/64/104 43/63/103 26/33/103
f 51/37/106 66/35/106 65/74/105
f 64/41/108 54/57/108 53/40/107
f 48/51/109 41/50/110 39/48/109
f 50/42/112 38/47/112 31/75/111
f 66/35/114 56/36/114 49/53/113
f 32/40/116 60/67/115 27/39/115
f 35/43/119 58/62/118 34/42/117
f 63/63/121 55/58/121 36/70/120
f 66/35/122 49/53/123 47/55/122
f 52/59/125 50/76/124 62/34/124
f 65/68/127 37/46/126 38/47/126
f 43/52/128 44/53/129 29/36/128
f 58/62/131 40/45/131 41/75/130
f 51/37/134 56/36/133 66/35/132
f 38/47/136 30/45/136 31/75/135
f 43/52/139 57/71/138 42/51/137
f 36/70/141 61/66/140 35/65/140
f 25/32/143 29/60/142 30/61/142
f 47/55/145 39/48/145 32/40/144
f 35/43/146 45/68/147 58/62/146
f 45/54/149 42/51/148 57/71/148
f 28/35/150 44/53/151 54/57/150
f 49/53/153 56/36/152 63/52/152
f 37/73/156 33/41/155 27/39/154
f 51/43/157 65/68/158 38/47/157
f 60/66/161 26/33/160 27/34/159
f 60/67/164 39/48/163 40/49/162
f 64/41/165 53/40/166 62/39/165
f 66/35/169 47/55/168 33/41/167
f 37/46/170 25/77/171 30/45/170
f 51/43/174 38/47/173 50/42/172
f 65/74/176 33/41/175 37/73/175
f 53/40/178 46/48/177 61/67/177
f 59/64/180 57/69/179 43/63/179
f 34/42/182 58/62/182 41/75/181
f 28/35/185 54/57/184 64/41/183
f 50/73/188 64/41/187 62/39/186
f 49/53/190 63/52/189 48/51/189
f 27/34/191 25/32/192 37/76/191
f 65/74/194 66/35/193 33/41/193
f 28/35/196 29/36/196 44/53/195
v 0.2977278 1.762866 2.887646E-15
v 0.35 1.5 2.887646E-15
v 0.2831559 1.654508 0.25
v 0.1081559 1.75 -0.4045085
v 0.2831559 1.654508 -0.25
v 0.175 1.904508 -0.1545085
v 7.58007E-16 1.925325 -0.2628655
v 0.1840059 1.5 0.4253254
v 0.1081559 1.75 0.4045085
v -0.175 1.095492 0.1545085
v -0.175 1.095492 -0.1545085
v -0.2977278 1.237134 2.887646E-15
v 0.175 1.904508 0.1545085
v 7.58007E-16 2 2.887646E-15
v 0.1081559 1.25 0.4045085
v 0.175 1.095492 0.1545085
v 7.58007E-16 1.074675 0.2628655
v 0.1081559 1.25 -0.4045085
v 0.2831559 1.345492 -0.25
v 0.1840059 1.5 -0.4253254
v 7.58007E-16 1.074675 -0.2628655
v -0.1081559 1.25 -0.4045085
v 7.58007E-16 1.5 0.5
v -0.1081559 1.25 0.4045085
v -0.1840059 1.5 0.4253254
v -0.175 1.904508 -0.1545085
v -0.175 1.904508 0.1545085
v -0.2977278 1.762866 2.887646E-15
v -0.1840059 1.5 -0.4253254
v 7.58007E-16 1.5 -0.5
v -0.35 1.5 2.887646E-15
v -0.2831559 1.654508 0.25
v 0.175 1.095492 -0.1545085
v 7.58007E-16 1 2.887646E-15
v 0.2977278 1.237134 2.887646E-15
v 0.2831559 1.345492 0.25
v -0.2831559 1.345492 -0.25
v -0.2831559 1.654508 -0.25
v -0.2831559 1.345492 0.25
v -0.1081559 1.75 -0.4045085
v 7.58007E-16 1.925325 0.2628655
v -0.1081559 1.75 0.4045085
vn 0.6604655 0.2680349 0.1947387
vn 0.6654119 0.1356935 0.2792293
vn 0.3539445 0.5623999 -0.6542473
vn 0.4579732 0.505635 -0.5623998
vn 0.3936799 0.6542475 -0.5056348
vn 0.3162618 0.6713592 -0.5874958
vn 0.2205658 0.7487835 -0.5831286
vn 0.4112471 0.4518025 0.6713591
vn 0.4081902 0.3150938 0.7487834
vn -0.3491502 -0.8667253 0
vn -0.4398998 -0.7778675 0
vn 0.2830431 0.909982 -0.09184758
vn 0.2830431 0.909982 0.09184758
vn 0.1790143 0.9667469 0
vn 0.3162617 -0.6713591 0.5874959
vn 0.2205657 -0.7487834 0.5831288
vn 0.4112471 -0.4518024 -0.6713591
vn 0.4081902 -0.3150938 -0.7487834
vn -0.2205657 -0.7487834 -0.5831288
vn -0.3162617 -0.6713591 -0.5874959
vn -0.09498543 -0.2792293 0.9505884
vn -0.1876244 -0.1947387 0.9435221
vn -0.3491502 0.8667253 0
vn -0.4398997 0.7778676 0
vn -0.1876244 -0.1947387 -0.9435221
vn -0.09498543 -0.2792293 -0.9505884
vn -0.6654119 0.1356935 0.2792293
vn -0.6604655 0.2680349 0.1947387
vn -0.5241484 0.5831288 0.3150939
vn -0.4699513 0.587496 0.4518024
vn 0.2830431 -0.9099821 0.09184759
vn 0.283043 -0.9099821 -0.09184757
vn 0.1790142 -0.966747 0
vn 0.6369874 0.0918476 -0.4043472
vn 0.6369874 -0.09184759 -0.4043472
vn 0.6767229 0 -0.2557346
vn 0.5241484 -0.5831288 0.3150939
vn 0.4699513 -0.5874959 0.4518024
vn -0.06429332 -0.4043472 -0.9099821
vn 0.06429332 -0.4043472 -0.9099821
vn 0 -0.2557346 -0.966747
vn -0.6067077 0 -0.498786
vn -0.5445073 0 -0.6284283
vn -0.3936799 -0.6542475 -0.505635
vn -0.3539445 -0.5623999 -0.6542475
vn -0.4579732 -0.505635 -0.5623998
vn 0 -0.4987859 -0.8667253
vn 0 -0.6284283 -0.7778675
vn 0.1876244 0.1947387 0.9435221
vn 0.09498543 0.2792293 0.9505884
vn 0.1954605 -0.9505884 -0.1356934
vn 0.1363171 -0.9435222 -0.2680349
vn -0.6369874 -0.09184759 -0.4043472
vn -0.6369874 0.0918476 -0.4043472
vn -0.6767229 0 -0.2557346
vn -0.4699513 -0.587496 0.4518025
vn -0.5241484 -0.5831288 0.3150939
vn 0.6654119 -0.1356935 0.2792293
vn 0.6604655 -0.2680349 0.1947387
vn 0.09498543 -0.2792293 -0.9505884
vn 0.1876244 -0.1947387 -0.9435221
vn 0.4112471 -0.4518024 0.6713591
vn 0.4081902 -0.3150938 0.7487834
vn 0.06429332 -0.4043472 0.9099821
vn -0.06429332 -0.4043472 0.9099821
vn 0 -0.2557346 0.966747
vn -0.3539445 -0.5623999 0.6542475
vn -0.3936799 -0.6542475 0.505635
vn -0.4579731 -0.5056349 0.5623998
vn -0.6654119 0.1356935 -0.2792293
vn -0.6604655 0.2680349 -0.1947387
vn -0.6369874 -0.09184759 0.4043472
vn -0.6767229 0 0.2557346
vn -0.6369874 0.0918476 0.4043472
vn -0.3162617 -0.6713591 0.5874959
vn -0.2205657 -0.7487834 0.5831288
vn -0.6604655 -0.2680349 -0.1947387
vn -0.6654119 -0.1356935 -0.2792293
vn 0.3491502 -0.8667253 0
vn 0.4398998 -0.7778675 0
vn 0 0.498786 -0.8667253
vn 0 0.6284283 -0.7778675
vn -0.3162618 0.6713591 -0.5874959
vn -0.2205658 0.7487835 -0.5831286
vn 0.6604655 0.2680349 -0.1947387
vn 0.6654119 0.1356935 -0.2792293
vn 0.6654119 -0.1356935 -0.2792293
vn 0.6604655 -0.2680349 -0.1947387
vn -0.2205658 0.7487835 0.5831287
vn -0.3162617 0.6713592 0.5874958
vn -0.1876244 0.1947387 -0.9435221
vn -0.09498543 0.2792293 -0.9505884
vn 0 -0.4987859 0.8667253
vn 0 -0.6284283 0.7778675
vn -0.1363172 0.9435221 -0.2680349
vn -0.1954606 0.9505884 -0.1356935
vn -0.4081902 0.3150938 0.7487834
vn -0.4112471 0.4518025 0.6713591
vn 0.6067077 0 0.498786
vn 0.5445073 0 0.6284283
vn -0.2830431 -0.9099821 0.09184759
vn -0.1790142 -0.966747 0
vn -0.2830431 -0.9099821 -0.09184759
vn -0.6604655 -0.2680349 0.1947387
vn -0.6654119 -0.1356935 0.2792293
vn -0.09498543 0.2792293 0.9505884
vn -0.1876244 0.1947387 0.9435221
vn -0.4699513 0.5874959 -0.4518024
vn -0.5241484 0.5831288 -0.3150939
vn 0.1954606 0.9505884 0.1356935
vn 0.1363172 0.9435221 0.2680349
vn 0.6067077 0 -0.498786
vn 0.5445073 0 -0.6284283
vn 0.1363171 -0.9435222 0.2680349
vn 0.1954605 -0.9505884 0.1356934
vn -0.3539444 0.5623999 0.6542473
vn -0.4579732 0.505635 0.5623998
vn -0.3936799 0.6542475 0.5056348
vn 0.1363172 0.9435221 -0.2680349
vn 0.1954606 0.9505884 -0.1356935
vn 0.3539445 -0.5623999 -0.6542475
vn 0.3936799 -0.6542475 -0.505635
vn 0.4579732 -0.505635 -0.5623999
vn -0.4699513 -0.5874959 -0.4518024
vn -0.5241484 -0.5831288 -0.3150939
vn 0.4699513 0.587496 -0.4518024
vn 0.5241484 0.5831288 -0.3150939
vn 0.1876244 -0.1947387 0.9435221
vn 0.09498543 -0.2792293 0.9505884
vn -0.1954605 -0.9505884 -0.1356934
vn -0.1363171 -0.9435222 -0.2680349
vn 0.3162617 -0.6713591 -0.5874959
vn 0.2205657 -0.7487834 -0.5831288
vn 0.09498543 0.2792293 -0.9505884
vn 0.1876244 0.1947387 -0.9435221
vn -0.6067077 0 0.498786
vn -0.5445073 0 0.6284283
vn 0.4579731 0.5056349 0.5623998
vn 0.3539444 0.5623999 0.6542473
vn 0.3936799 0.6542475 0.5056348
vn -0.1954606 0.9505884 0.1356935
vn -0.1363172 0.9435221 0.2680349
vn 0.6369874 0.0918476 0.4043472
vn 0.6767229 0 0.2557346
vn 0.6369874 -0.09184759 0.4043472
vn 0.3936799 -0.6542475 0.505635
vn 0.3539444 -0.5623998 0.6542473
vn 0.4579732 -0.505635 0.5623998
vn -0.4112471 0.4518025 -0.6713591
vn -0.4081902 0.3150938 -0.7487834
vn 0.06429332 0.4043472 0.9099821
vn 0 0.2557346 0.966747
vn -0.06429332 0.4043472 0.9099821
vn 0.3491502 0.8667253 0
vn 0.4398997 0.7778676 0
vn -0.2830431 0.9099821 -0.0918476
vn -0.1790143 0.9667469 0
vn -0.2830431 0.909982 0.09184758
vn 0.3162618 0.6713591 0.5874959
vn 0.2205658 0.7487835 0.5831286
vn -0.4112471 -0.4518024 -0.6713591
vn -0.4081902 -0.3150938 -0.7487834
vn 0.4699513 -0.587496 -0.4518025
vn 0.5241484 -0.5831288 -0.3150939
vn -0.1363171 -0.9435222 0.2680349
vn -0.1954605 -0.9505884 0.1356934
vn -0.06429332 0.4043472 -0.9099821
vn 0 0.2557346 -0.966747
vn 0.06429332 0.4043472 -0.9099821
vn -0.4579732 0.505635 -0.5623998
vn -0.3539445 0.5623999 -0.6542473
vn -0.3936799 0.6542475 -0.5056348
vn -0.4112471 -0.4518024 0.6713591
vn -0.4081902 -0.3150938 0.7487834
vn 0.4699513 0.5874959 0.4518024
vn 0.5241484 0.5831288 0.3150939
vn 0 0.498786 0.8667253
vn 0 0.6284283 0.7778675
vn 0.4081902 0.3150938 -0.7487834
vn 0.4112471 0.4518025 -0.6713591
vt -2.887646E-15 1.762866
vt -2.887646E-15 1.5
vt -0.25 1.654508
vt 0.4045085 1.75
vt 0.25 1.654508
vt 0.1545085 1.904508
vt -0.1081559 -0.4045085
vt -0.175 -0.1545085
vt -7.58007E-16 -0.2628655
vt -0.4253254 1.5
vt -0.4045085 1.75
vt 0.1545085 1.095492
vt -0.1545085 1.095492
vt 2.887646E-15 1.237134
vt -0.175 0.1545085
vt -7.58007E-16 2.887646E-15
vt 0.4045085 1.25
vt 0.25 1.345492
vt 0.4253254 1.5
vt -7.58007E-16 0.2628655
vt 0.1081559 0.4045085
vt 0.175 0.1545085
vt 7.58007E-16 1.5
vt -0.1081559 1.25
vt -0.1840059 1.5
vt -0.1545085 1.904508
vt 2.887646E-15 1.762866
vt 0.1840059 1.5
vt 0.1081559 1.25
vt -7.58007E-16 1.5
vt 2.887646E-15 1.5
vt -7.58007E-16 -2.887646E-15
vt -2.887646E-15 1.237134
vt -0.25 1.345492
vt -0.4045085 1.25
vt -7.58007E-16 1.074675
vt 0.1081559 1.75
vt 0.1081559 -0.4045085
vt 0.175 -0.1545085
vt -0.1081559 1.75
vt -7.58007E-16 1.925325
vt 7.58007E-16 1.074675
vt -0.1081559 0.4045085
vt 7.58007E-16 1.925325

usemtl customMaterial6 (Instance)
usemap customMaterial6 (Instance)
f 69/80/198 68/79/198 67/78/197
f 72/83/201 71/82/200 70/81/199
f 73/86/203 72/85/202 70/84/202
f 75/88/204 74/87/205 69/80/204
f 78/91/207 77/90/206 76/89/206
f 80/93/210 79/92/209 72/85/208
f 83/86/212 82/85/211 81/84/211
f 86/96/214 85/95/213 84/94/213
f 77/99/216 88/98/216 87/97/215
f 91/102/218 90/101/217 89/100/217
f 94/104/220 93/83/219 92/103/219
f 96/107/222 88/106/222 95/105/221
f 98/82/223 94/104/224 97/108/223
f 98/82/226 93/83/226 94/104/225
f 100/109/229 99/92/228 82/85/227
f 68/79/232 85/95/231 71/82/230
f 102/111/234 82/90/234 101/110/233
f 96/107/237 84/101/236 88/106/235
f 104/80/238 95/87/239 103/111/238
f 103/111/242 88/112/241 77/90/240
f 84/101/243 87/113/244 88/106/243
f 75/114/246 89/100/246 74/105/245
f 87/97/248 99/92/247 100/109/247
f 97/108/251 104/80/250 103/111/249
f 105/95/252 78/91/253 76/89/252
f 102/111/254 101/110/255 68/79/254
f 86/102/257 84/101/256 96/107/256
f 74/87/259 81/112/258 102/111/258
f 89/100/262 90/101/261 81/106/260
f 105/95/265 76/89/264 90/94/263
f 94/104/267 104/80/266 97/108/266
f 98/82/270 97/108/269 105/95/268
f 76/116/271 83/86/272 90/115/271
f 97/108/274 103/111/274 78/91/273
f 99/89/275 101/110/276 82/90/275
f 73/118/278 70/117/277 106/114/277
f 92/116/279 73/86/280 106/115/279
f 68/79/282 71/82/282 67/78/281
f 101/110/284 85/95/283 68/79/283
f 93/99/286 108/98/286 107/97/285
f 106/114/288 96/107/288 95/105/287
f 90/101/289 83/119/290 81/106/289
f 92/116/292 80/93/292 73/86/291
f 108/81/294 98/82/294 91/96/293
f 74/87/296 102/111/295 69/80/295
f 77/99/299 100/109/298 76/116/297
f 105/95/301 97/108/301 78/91/300
f 108/117/302 91/102/303 89/100/302
f 94/104/305 92/103/304 104/80/304
f 107/97/307 79/92/306 80/93/306
f 85/95/308 86/96/309 71/82/308
f 100/109/311 82/85/311 83/86/310
f 93/83/314 98/82/313 108/81/312
f 80/93/316 72/85/316 73/86/315
f 85/95/319 99/89/318 84/94/317
f 78/91/321 103/111/320 77/90/320
f 67/78/323 71/82/322 72/83/322
f 89/100/325 81/106/325 74/105/324
f 77/99/326 87/97/327 100/109/326
f 87/97/329 84/120/328 99/92/328
f 70/117/330 86/102/331 96/107/330
f 91/96/333 98/82/332 105/95/332
f 79/103/336 75/88/335 69/80/334
f 93/99/337 107/97/338 80/93/337
f 102/111/341 68/79/340 69/80/339
f 102/111/344 81/112/343 82/90/342
f 106/88/345 95/87/346 104/80/345
f 108/117/349 89/100/348 75/114/347
f 79/103/350 67/78/351 72/83/350
f 93/99/354 80/93/353 92/116/352
f 107/97/356 75/120/355 79/92/355
f 95/87/358 88/112/357 103/111/357
f 101/110/360 99/89/359 85/95/359
f 76/116/362 100/109/362 83/86/361
f 70/117/365 96/107/364 106/114/363
f 92/103/368 106/88/367 104/80/366
f 91/96/370 105/95/369 90/94/369
f 69/80/371 67/78/372 79/103/371
f 107/121/374 108/117/373 75/114/373
f 70/81/376 71/82/376 86/96/375
