# Made using Asset Forge (www.assetforge.io) version 1.3 

mtllib TurretGunsLeft.mtl 

v 0.2611 2.158532 -0.4878
v 0.1423 2.158532 -0.4878
v 0.2611 2.158532 -0.7122
v 0.1423 2.158532 -0.7122
v 0.1423 2.0726 -0.4878
v 0.1423 2.0726 -0.7122
v 0.1623 2.0726 -0.7122
v 0.2411 2.0726 -0.7122
v 0.1623001 2.0726 -1.0488
v 0.2411001 2.0726 -1.0488
v 0.1623 2.0726 -0.4878
v 0.2411 2.0726 -0.4878
v 0.2611 2.0726 -0.4878
v 0.2611 2.0726 -0.7122
v 0.1622999 2.0726 -0.1512
v 0.2411 2.0726 -0.1512
v 0.1623 2.145332 -0.7122
v 0.2411 2.145332 -0.7122
v 0.2411 2.145332 -0.4878
v 0.1623 2.145332 -0.4878
v 0.2677 2 -0.8967551
v 0.2677 2 -0.812052
v 0.2479 2.033 -0.8967551
v 0.2479 2.033 -0.812052
v 0.2677 2 -0.3879481
v 0.2677 2 -0.3032449
v 0.2479 2.033 -0.3879481
v 0.2479 2.033 -0.3032449
v 0.1423 2 -0.812052
v 0.1423 2 -0.8967551
v 0.1621 2.033 -0.812052
v 0.1621 2.033 -0.8967551
v 0.1423 2 -0.3032449
v 0.1423 2 -0.3879481
v 0.1621 2.033 -0.3032449
v 0.1621 2.033 -0.3879481
v 0.1422999 2.033 -0.1512
v 0.1423 2.033 -0.3032449
v 0.1422999 2.0726 -0.1512
v 0.1423 2.033 -0.3879481
v 0.1423001 2.033 -1.0488
v 0.1423001 2.0726 -1.0488
v 0.2611001 2.033 -1.0488
v 0.2611001 2.0726 -1.0488
v 0.2610999 2.0726 -0.1512
v 0.2610999 2.033 -0.1512
v 0.2411001 2.145332 -1.00392
v 0.1623001 2.145332 -1.00392
v 0.2411 2.145332 -0.19608
v 0.1622999 2.145332 -0.19608
vn 0 1 0
vn -1 0 -1.192093E-07
vn 0 -1 0
vn 1 0 1.192093E-07
vn 1.192093E-07 0 -1
vn -1.192093E-07 0 1
vn 0.8574931 0.5144957 1.192093E-07
vn -0.857493 0.5144958 -1.192093E-07
vn 1.192093E-07 0.525131 -0.8510215
vn -1.192093E-07 0.525131 0.8510215
vt -0.2611 -0.4878
vt -0.1423 -0.4878
vt -0.2611 -0.7122
vt -0.1423 -0.7122
vt -0.4878 2.0726
vt -0.7122 2.0726
vt -0.4878 2.158532
vt -0.7122 2.158532
vt -0.1623 0.7122
vt -0.2411 0.7122
vt -0.1623001 1.0488
vt -0.2411001 1.0488
vt -0.1423 0.4878
vt -0.1623 0.4878
vt -0.1423 0.7122
vt -0.2411 0.4878
vt -0.2611 0.4878
vt -0.2611 0.7122
vt 0.2411 2.0726
vt 0.1623 2.0726
vt 0.2611 2.0726
vt -0.1622999 0.1512
vt -0.2411 0.1512
vt 0.7122 2.0726
vt 0.4878 2.0726
vt 0.7122 2.158532
vt 0.4878 2.158532
vt -0.1623 2.0726
vt -0.1623 2.145332
vt -0.1423 2.0726
vt -0.2611 2.0726
vt -0.2611 2.158532
vt -0.2411 2.0726
vt -0.2411 2.145332
vt -0.1423 2.158532
vt 0.2611 2.0726
vt 0.2411 2.145332
vt 0.2611 2.158532
vt 0.1423 2.158532
vt 0.1623 2.145332
vt 0.1623 2.0726
vt 0.1423 2.0726
vt 0.2411 2.0726
vt 0.8967551 2
vt 0.812052 2
vt 0.8967551 2.033
vt 0.812052 2.033
vt 0.3879481 2
vt 0.3032449 2
vt 0.3879481 2.033
vt 0.3032449 2.033
vt -0.812052 2
vt -0.8967552 2
vt -0.812052 2.033
vt -0.8967552 2.033
vt -0.3032449 2
vt -0.3879481 2
vt -0.3032449 2.033
vt -0.3879481 2.033
vt 0.2677 2
vt 0.1423 2
vt 0.2479 2.033
vt 0.1621 2.033
vt -0.1423 0.3032449
vt -0.2677 0.3032449
vt -0.1423 0.3879481
vt -0.2677 0.3879481
vt -0.1423 0.812052
vt -0.2677 0.812052
vt -0.1423 0.8967552
vt -0.2677 0.8967551
vt -0.1512 2.033
vt -0.1512 2.0726
vt -1.0488 2.033
vt -1.0488 2.0726
vt 0.1422999 2.0726
vt 0.1423001 2.0726
vt 0.1423 2.0726
vt -0.2611001 2.033
vt -0.2611001 2.0726
vt -0.1423001 2.033
vt -0.2411001 2.0726
vt -0.1623001 2.0726
vt -0.1423001 2.0726
vt 0.2611 2.0726
vt 0.2611 2.033
vt 0.2411 2.0726
vt 0.1422999 2.033
vt 0.1622999 2.0726
vt 1.0488 2.033
vt 0.1512 2.033
vt 1.0488 2.0726
vt 0.1512 2.0726
vt 0.2611001 2.0726
vt 0.2677 2
vt 0.1423 2
vt 0.2479 2.033
vt 0.1621 2.033
vt -0.1621 0.3032449
vt -0.1621 0.3879481
vt -0.1423001 1.0488
vt -0.1621 0.812052
vt -0.2479 0.3879481
vt -0.1621 0.8967552
vt -0.2479001 0.8967551
vt -0.2479 0.812052
vt -0.2611001 1.0488
vt -0.2479 0.3032449
vt -0.2611 0.1512
vt -0.1422999 0.1512
vt 0.1423 2.033
vt -0.2677 2
vt -0.2479001 2.033
vt -0.1423 2
vt -0.1621 2.033
vt -0.2677 2
vt -0.2479 2.033
vt -0.1423 2
vt -0.1621 2.033
vt -0.2411001 -1.0488
vt -0.2411 -0.7122
vt -0.2611001 -1.0488
vt -0.1423001 -1.0488
vt -0.1623 -0.7122
vt -0.1623001 -1.0488
vt -0.2411 -0.4878
vt -0.2611 -0.1512
vt -0.2411 -0.1512
vt -0.1622999 -0.1512
vt -0.1422999 -0.1512
vt -0.1623 -0.4878
vt -0.2411001 2.145332
vt -0.1623001 2.145332
vt -0.2411001 -1.00392
vt -0.1623001 -1.00392
vt 1.00392 2.145332
vt 0.7122 2.145332
vt -1.0488 2.0726
vt -0.7122 2.145332
vt -1.00392 2.145332
vt -0.2411 -0.19608
vt -0.1622999 -0.19608
vt 0.2411 2.145332
vt 0.1622999 2.145332
vt 0.4878 2.145332
vt 0.19608 2.145332
vt -0.19608 2.145332
vt -0.4878 2.145332

usemtl tire (Instance)
usemap tire (Instance)
f 3/3/1 2/2/1 1/1/1
f 2/2/1 3/3/1 4/4/1
f 2/7/2 6/6/2 5/5/2
f 6/6/2 2/7/2 4/8/2
f 9/11/3 8/10/3 7/9/3
f 8/10/3 9/11/3 10/12/3
f 6/15/3 11/14/3 5/13/3
f 11/14/3 6/15/3 12/16/3
f 12/16/3 6/15/3 13/17/3
f 13/17/3 6/15/3 7/9/3
f 13/17/3 7/9/3 14/18/3
f 14/21/1 7/20/1 8/19/1
f 11/14/3 16/23/3 15/22/3
f 16/23/3 11/14/3 12/16/3
f 3/26/4 13/25/4 14/24/4
f 13/25/4 3/26/4 1/27/4
f 6/30/5 17/29/5 7/28/5
f 8/33/5 3/32/5 14/31/5
f 3/32/5 8/33/5 18/34/5
f 3/32/5 18/34/5 4/35/5
f 4/35/5 18/34/5 17/29/5
f 4/35/5 17/29/5 6/30/5
f 1/38/6 19/37/6 13/36/6
f 19/37/6 1/38/6 2/39/6
f 19/37/6 2/39/6 20/40/6
f 20/40/6 2/39/6 11/41/6
f 11/41/6 2/39/6 5/42/6
f 12/43/6 13/36/6 19/37/6

usemtl tire (Instance)
usemap tire (Instance)
f 23/46/7 22/45/7 21/44/7
f 22/45/7 23/46/7 24/47/7
f 27/50/7 26/49/7 25/48/7
f 26/49/7 27/50/7 28/51/7
f 31/54/8 30/53/8 29/52/8
f 30/53/8 31/54/8 32/55/8
f 35/58/8 34/57/8 33/56/8
f 34/57/8 35/58/8 36/59/8
f 24/62/6 29/61/6 22/60/6
f 29/61/6 24/62/6 31/63/6
f 34/66/3 26/65/3 33/64/3
f 26/65/3 34/66/3 25/67/3
f 30/70/3 22/69/3 29/68/3
f 22/69/3 30/70/3 21/71/3
f 39/73/2 38/58/2 37/72/2
f 38/58/2 39/73/2 40/59/2
f 40/59/2 39/73/2 41/74/2
f 41/74/2 39/73/2 42/75/2
f 42/77/1 39/76/1 5/42/1
f 42/77/1 5/42/1 6/78/1
f 41/81/5 44/80/5 43/79/5
f 44/80/5 41/81/5 10/82/5
f 10/82/5 41/81/5 9/83/5
f 9/83/5 41/81/5 42/84/5
f 16/87/6 46/86/6 45/85/6
f 46/86/6 16/87/6 37/88/6
f 37/88/6 16/87/6 15/89/6
f 37/88/6 15/89/6 39/76/6
f 44/92/4 46/91/4 43/90/4
f 46/91/4 44/92/4 45/93/4
f 45/85/1 44/94/1 14/21/1
f 45/85/1 14/21/1 13/36/1
f 28/97/6 33/96/6 26/95/6
f 33/96/6 28/97/6 35/98/6
f 40/66/3 35/99/3 38/64/3
f 35/99/3 40/66/3 36/100/3
f 41/101/3 36/100/3 40/66/3
f 36/100/3 41/101/3 31/102/3
f 36/100/3 31/102/3 27/103/3
f 31/102/3 41/101/3 32/104/3
f 32/104/3 41/101/3 23/105/3
f 24/106/3 27/103/3 31/102/3
f 43/107/3 27/103/3 24/106/3
f 43/107/3 24/106/3 23/105/3
f 43/107/3 23/105/3 41/101/3
f 43/107/3 28/108/3 27/103/3
f 46/109/3 38/64/3 28/108/3
f 46/109/3 28/108/3 43/107/3
f 38/64/3 46/109/3 37/110/3
f 28/97/1 38/111/1 35/98/1
f 30/114/5 23/113/5 21/112/5
f 23/113/5 30/114/5 32/115/5
f 34/118/5 27/117/5 25/116/5
f 27/117/5 34/118/5 36/119/5
f 8/121/1 14/3/1 10/120/1
f 44/122/1 10/120/1 14/3/1
f 6/4/1 7/124/1 42/123/1
f 9/125/1 42/123/1 7/124/1
f 16/128/1 45/127/1 12/126/1
f 13/1/1 12/126/1 45/127/1
f 39/130/1 15/129/1 5/2/1
f 11/131/1 5/2/1 15/129/1

usemtl lightRed (Instance)
usemap lightRed (Instance)
f 9/83/9 47/132/9 10/82/9
f 47/132/9 9/83/9 48/133/9
f 47/134/1 17/124/1 18/121/1
f 17/124/1 47/134/1 48/135/1
f 47/136/4 8/24/4 10/92/4
f 8/24/4 47/136/4 18/137/4
f 10/12/3 14/18/3 8/10/3
f 14/18/3 10/12/3 44/107/3
f 17/139/2 9/138/2 7/6/2
f 9/138/2 17/139/2 48/140/2
f 42/101/3 7/9/3 6/15/3
f 7/9/3 42/101/3 9/11/3

usemtl lightRed (Instance)
usemap lightRed (Instance)
f 19/126/1 50/142/1 49/141/1
f 50/142/1 19/126/1 20/131/1
f 50/144/10 16/87/10 49/143/10
f 16/87/10 50/144/10 15/89/10
f 19/145/4 16/93/4 12/25/4
f 16/93/4 19/145/4 49/146/4
f 12/16/3 45/109/3 16/23/3
f 45/109/3 12/16/3 13/17/3
f 50/147/2 11/5/2 15/73/2
f 11/5/2 50/147/2 20/148/2
f 5/13/3 15/22/3 39/110/3
f 15/22/3 5/13/3 11/14/3
