# Made using Asset Forge (www.assetforge.io) version 1.3 

mtllib TurretBase.mtl 

v 0.5 -0.1 0.5
v 0.5 -0.1 -0.5
v -0.5 -0.1 0.5
v -0.5 -0.1 -0.5
v -0.5 0 -0.5
v -0.5 0 0.5
v 0.5 0 -0.5
v 0.5 0 0.5
vn 0 -0.1 0
vn -1 0 0
vn 0 0 -1
vn 0 0 1
vn 1 0 0
vn 0 0.1 0
vt -0.5 -0.5
vt -0.5 0.5
vt 0.5 -0.5
vt 0.5 0.5
vt -0.5 -0.1
vt -0.5 0
vt 0.5 -0.1
vt 0.5 0

usemtl _defaultMat (Instance)
usemap _defaultMat (Instance)
f 3/3/1 2/2/1 1/1/1
f 2/2/1 3/3/1 4/4/1
f 3/7/2 5/6/2 4/5/2
f 5/6/2 3/7/2 6/8/2
f 5/8/3 2/5/3 4/7/3
f 2/5/3 5/8/3 7/6/3
f 8/8/4 3/5/4 1/7/4
f 3/5/4 8/8/4 6/6/4
f 8/6/5 2/7/5 7/8/5
f 2/7/5 8/6/5 1/5/5
f 5/3/6 8/2/6 7/1/6
f 8/2/6 5/3/6 6/4/6
v 0.375 0.125 0.5
v -0.375 0.125 0.5
v 0.375 0.875 0.5
v -0.375 0.875 0.5
v 0.5 0.875 -0.375
v 0.5 0.125 -0.375
v 0.5 0.875 0.375
v 0.5 0.125 0.375
v 0.375 1 -0.375
v 0.375 1 0.375
v -0.375 1 -0.375
v -0.375 1 0.375
v -0.375 0.125 -0.5
v 0.375 0.125 -0.5
v -0.375 0.875 -0.5
v 0.375 0.875 -0.5
v 0.375 9.023893E-17 0.375
v 0.375 9.023893E-17 -0.375
v -0.375 9.023893E-17 0.375
v -0.375 9.023893E-17 -0.375
v -0.5 0.125 -0.375
v -0.5 0.875 -0.375
v -0.5 0.125 0.375
v -0.5 0.875 0.375
vn 0 1 0
vn 0 -1 0
vn 0.5773503 0.5773502 -0.5773503
vn 0.7071068 0 -0.7071068
vn 0 -0.7071068 -0.7071068
vn 0.5773503 -0.5773503 -0.5773503
vn 0.7071068 -0.7071068 0
vn 0.7071069 0.7071066 0
vn 0.5773503 0.5773502 0.5773503
vn 0.7071068 0 0.7071068
vn 0.5773503 -0.5773503 0.5773503
vn 0 0.7071066 0.7071069
vn -0.5773503 0.5773502 0.5773503
vn -0.7071068 -0.7071068 0
vn 0 -0.7071068 0.7071068
vn -0.7071068 0 0.7071068
vn -0.5773503 -0.5773503 0.5773503
vn -0.5773503 -0.5773503 -0.5773503
vn -0.7071068 0 -0.7071068
vn -0.7071069 0.7071066 0
vn 0 0.7071066 -0.7071069
vn -0.5773503 0.5773502 -0.5773503
vt 0.375 0.125
vt -0.375 0.125
vt 0.375 0.875
vt -0.375 0.875
vt -0.375 -0.375
vt -0.375 0.375
vt 0.375 -0.375
vt 0.375 0.375
vt -0.5 0.875
vt -0.375 1
vt -0.5 0.125
vt -0.375 9.023893E-17
vt 0.375 9.023893E-17
vt -0.5 -0.375
vt -0.5 0.375
vt 0.5 0.875
vt 0.375 1
vt 0.5 0.125
vt 0.5 0.375
vt 0.5 -0.375

usemtl _defaultMat (Instance)
usemap _defaultMat (Instance)
f 11/11/4 10/10/4 9/9/4
f 10/10/4 11/11/4 12/12/4
f 15/12/5 14/9/5 13/11/5
f 14/9/5 15/12/5 16/10/5
f 19/15/7 18/14/7 17/13/7
f 18/14/7 19/15/7 20/16/7
f 23/11/3 22/10/3 21/9/3
f 22/10/3 23/11/3 24/12/3
f 27/15/8 26/14/8 25/13/8
f 26/14/8 27/15/8 28/16/8
f 31/9/2 30/12/2 29/10/2
f 30/12/2 31/9/2 32/11/2
f 17/18/9 13/17/9 24/12/9
f 24/12/10 14/19/10 22/10/10
f 14/19/10 24/12/10 13/17/10
f 28/21/11 22/10/11 26/20/11
f 22/10/11 28/21/11 21/9/11
f 22/10/12 14/19/12 26/20/12
f 25/13/13 14/23/13 16/22/13
f 14/23/13 25/13/13 26/14/13
f 17/13/14 15/23/14 13/22/14
f 15/23/14 17/13/14 18/14/14
f 18/25/15 11/11/15 15/24/15
f 15/24/16 9/9/16 16/26/16
f 9/9/16 15/24/16 11/11/16
f 9/9/17 25/21/17 16/26/17
f 18/25/18 12/12/18 11/11/18
f 12/12/18 18/25/18 20/18/18
f 12/12/19 20/18/19 32/17/19
f 27/15/20 29/27/20 28/16/20
f 29/27/20 27/15/20 31/28/20
f 9/9/21 27/20/21 25/21/21
f 27/20/21 9/9/21 10/10/21
f 10/10/22 32/17/22 31/19/22
f 32/17/22 10/10/22 12/12/22
f 10/10/23 31/19/23 27/20/23
f 29/26/24 21/9/24 28/21/24
f 29/26/25 23/11/25 21/9/25
f 23/11/25 29/26/25 30/24/25
f 32/27/26 19/15/26 30/28/26
f 19/15/26 32/27/26 20/16/26
f 23/11/27 17/18/27 24/12/27
f 17/18/27 23/11/27 19/25/27
f 19/25/28 23/11/28 30/24/28
v 0.375 0.925 0.5
v -0.375 0.925 0.5
v 0.375 1.675 0.5
v -0.375 1.675 0.5
v 0.5 1.675 -0.375
v 0.5 0.925 -0.375
v 0.5 1.675 0.375
v 0.5 0.925 0.375
v 0.375 1.8 -0.375
v 0.375 1.8 0.375
v -0.375 1.8 -0.375
v -0.375 1.8 0.375
v -0.375 0.925 -0.5
v 0.375 0.925 -0.5
v -0.375 1.675 -0.5
v 0.375 1.675 -0.5
v 0.375 0.8 0.375
v 0.375 0.8 -0.375
v -0.375 0.8 0.375
v -0.375 0.8 -0.375
v -0.5 0.925 -0.375
v -0.5 1.675 -0.375
v -0.5 0.925 0.375
v -0.5 1.675 0.375
vt 0.375 0.925
vt -0.375 0.925
vt 0.375 1.675
vt -0.375 1.675
vt -0.5 1.675
vt -0.375 1.8
vt -0.5 0.925
vt -0.375 0.8
vt 0.375 0.8
vt 0.5 1.675
vt 0.375 1.8
vt 0.5 0.925

usemtl _defaultMat (Instance)
usemap _defaultMat (Instance)
f 35/31/4 34/30/4 33/29/4
f 34/30/4 35/31/4 36/32/4
f 39/32/5 38/29/5 37/31/5
f 38/29/5 39/32/5 40/30/5
f 43/15/7 42/14/7 41/13/7
f 42/14/7 43/15/7 44/16/7
f 47/31/3 46/30/3 45/29/3
f 46/30/3 47/31/3 48/32/3
f 51/15/8 50/14/8 49/13/8
f 50/14/8 51/15/8 52/16/8
f 55/29/2 54/32/2 53/30/2
f 54/32/2 55/29/2 56/31/2
f 41/34/9 37/33/9 48/32/9
f 48/32/10 38/35/10 46/30/10
f 38/35/10 48/32/10 37/33/10
f 52/37/11 46/30/11 50/36/11
f 46/30/11 52/37/11 45/29/11
f 46/30/12 38/35/12 50/36/12
f 49/13/13 38/23/13 40/22/13
f 38/23/13 49/13/13 50/14/13
f 41/13/14 39/23/14 37/22/14
f 39/23/14 41/13/14 42/14/14
f 42/39/15 35/31/15 39/38/15
f 39/38/16 33/29/16 40/40/16
f 33/29/16 39/38/16 35/31/16
f 33/29/17 49/37/17 40/40/17
f 42/39/18 36/32/18 35/31/18
f 36/32/18 42/39/18 44/34/18
f 36/32/19 44/34/19 56/33/19
f 51/15/20 53/27/20 52/16/20
f 53/27/20 51/15/20 55/28/20
f 33/29/21 51/36/21 49/37/21
f 51/36/21 33/29/21 34/30/21
f 34/30/22 56/33/22 55/35/22
f 56/33/22 34/30/22 36/32/22
f 34/30/23 55/35/23 51/36/23
f 53/40/24 45/29/24 52/37/24
f 53/40/25 47/31/25 45/29/25
f 47/31/25 53/40/25 54/38/25
f 56/27/26 43/15/26 54/28/26
f 43/15/26 56/27/26 44/16/26
f 47/31/27 41/34/27 48/32/27
f 41/34/27 47/31/27 43/39/27
f 43/39/28 47/31/28 54/38/28
