# Made using Asset Forge (www.assetforge.io) version 1.3 

mtllib TurretTop.mtl 

v 0.5 1.8 0.4
v 0.5 1.8 -0.3797575
v -0.5 1.8 0.4
v 0.4097575 1.8 -0.47
v -0.4097575 1.8 -0.47
v -0.5 1.8 -0.3797575
v 0.5 2.032305 -0.3797575
v 0.5 2.032305 0.4
v -0.5 2.032305 -0.3797575
v -0.5 2.032305 0.4
v 0.4097575 2.032305 -0.47
v 0.3391506 2.032305 -0.3416945
v 0.32 2.032305 -0.43
v -0.4097575 2.032305 -0.47
v 0.21 2.032305 -0.43
v -0.21 2.032305 -0.43
v -0.32 2.032305 -0.43
v -0.3391506 2.032305 -0.3416945
v 0.5 2.343811 0.4
v -0.5 2.343811 0.4
v -0.32 2.231082 -0.43
v -0.41 2.306835 -0.015
v -0.32 2.192305 -0.43
v -0.3391506 2.200173 -0.3416945
v 0.41 2.306835 -0.015
v 0.32 2.231082 -0.43
v 0.32 2.192305 -0.43
v 0.3391506 2.200173 -0.3416945
v -0.21 2.192305 -0.43
v 0.21 2.192305 -0.43
vn 0 -1 0
vn 1 0 0
vn 0.9943044 0 -0.1065774
vn -1 0 0
vn -0.9898649 0 -0.1420126
vn 0 1 0
vn 0 0 -1
vn 0.7071066 0 -0.7071069
vn -0.7071066 0 -0.7071069
vn 0 0 1
vn -0.9772825 0 -0.2119409
vn -0.9772825 0 -0.2119408
vn -0.9772825 0 -0.2119408
vn -0.9772825 0 -0.2119408
vn 0 0.9960542 -0.08874639
vn 0 0.9928784 -0.119132
vn 0 0.9887716 -0.1494346
vn 0.9772825 0 -0.2119409
vn 0.9772825 0 -0.2119408
vn 0.9772825 0 -0.2119408
vn 0.9772825 0 -0.2119408
vn 0 0.9837453 -0.1795694
vn 0.9772825 0 -0.2119408
vn -0.9772825 0 -0.2119408
vt -0.5 -0.4
vt -0.5 0.3797575
vt 0.5 -0.4
vt -0.4097575 0.47
vt 0.4097575 0.47
vt 0.5 0.3797575
vt 0.3797575 2.032305
vt 0.3797575 1.8
vt -0.4 2.032305
vt -0.4 1.8
vt -0.3797575 1.8
vt -0.3797575 2.032305
vt 0.4 1.8
vt 0.4 2.032305
vt -0.5 -0.3797575
vt -0.5 0.4
vt -0.4097575 -0.47
vt -0.3391506 -0.3416945
vt -0.32 -0.43
vt 0.4097575 -0.47
vt -0.21 -0.43
vt 0.21 -0.43
vt 0.32 -0.43
vt 0.3391506 -0.3416945
vt 0.5 0.4
vt 0.5 -0.3797575
vt -0.4097575 1.8
vt -0.4097575 2.032305
vt 0.4097575 1.8
vt 0.4097575 2.032305
vt -0.5 2.032305
vt -0.5 1.8
vt 0.5 1.8
vt 0.5 2.032305
vt 0.5 2.343811
vt -0.5 2.343811
vt -0.43 2.231082
vt -0.015 2.306835
vt -0.43 2.192305
vt -0.3416945 2.200173
vt -0.3416945 2.032305
vt 0.4 2.343811
vt -0.41 -0.015
vt 0.41 -0.015
vt 0.43 2.231082
vt 0.43 2.192305
vt 0.015 2.306835
vt 0.3416945 2.200173
vt 0.3416945 2.032305
vt -0.4 2.343811
vt 0.32 2.192305
vt 0.21 2.192305
vt 0.32 2.231082
vt -0.21 2.192305
vt -0.32 2.192305
vt -0.32 2.231082
vt -0.21 2.032305
vt 0.21 2.032305
vt 0.32 2.032305
vt 0.43 2.032305
vt -0.32 2.032305
vt -0.43 2.032305

usemtl tire (Instance) (Instance)
usemap tire (Instance) (Instance)
f 3/3/1 2/2/1 1/1/1
f 2/2/1 3/3/1 4/4/1
f 4/4/1 3/3/1 5/5/1
f 5/5/1 3/3/1 6/6/1
f 8/9/3 2/8/2 7/7/2
f 2/8/2 8/9/3 1/10/2
f 3/13/4 9/12/4 6/11/4
f 9/12/4 3/13/4 10/14/5
f 11/17/6 8/16/6 7/15/6
f 8/16/6 11/17/6 12/18/6
f 12/18/6 11/17/6 13/19/6
f 13/19/6 11/17/6 14/20/6
f 13/19/6 14/20/6 15/21/6
f 15/21/6 14/20/6 16/22/6
f 16/22/6 14/20/6 17/23/6
f 17/23/6 14/20/6 18/24/6
f 18/24/6 14/20/6 10/25/6
f 10/25/6 14/20/6 9/26/6
f 5/29/7 11/28/7 4/27/7
f 11/28/7 5/29/7 14/30/7
f 7/31/8 4/27/8 11/28/8
f 4/27/8 7/31/8 2/32/8
f 6/33/9 14/30/9 5/29/9
f 14/30/9 6/33/9 9/34/9

usemtl lightRed (Instance) (Instance)
usemap lightRed (Instance) (Instance)
f 8/34/10 3/32/10 1/33/10
f 3/32/10 8/34/10 10/31/10
f 10/31/10 8/34/10 19/35/10
f 10/31/10 19/35/10 20/36/10
f 23/39/13 22/38/12 21/37/11
f 22/38/12 23/39/13 24/40/12
f 22/38/12 24/40/12 18/41/12
f 22/38/12 18/41/12 10/14/5
f 22/38/12 10/14/5 20/42/14
f 25/43/16 20/25/15 19/16/15
f 20/25/15 25/43/16 22/44/17
f 25/47/20 27/46/19 26/45/18
f 27/46/19 25/47/20 28/48/19
f 28/48/19 25/47/20 12/49/20
f 12/49/20 25/47/20 8/9/3
f 8/9/3 25/47/20 19/50/21
f 21/53/7 29/52/7 23/51/7
f 29/52/7 21/53/7 30/54/7
f 30/54/7 21/53/7 27/55/7
f 27/55/7 21/53/7 26/56/7
f 15/57/7 29/52/7 30/54/7
f 29/52/7 15/57/7 16/58/7
f 26/19/22 22/44/17 25/43/16
f 22/44/17 26/19/22 21/23/22

usemtl lightRed (Instance) (Instance)
usemap lightRed (Instance) (Instance)
f 23/51/7 16/58/7 17/59/7
f 16/58/7 23/51/7 29/52/7
f 28/48/19 13/60/23 27/46/19
f 13/60/23 28/48/19 12/49/20
f 30/54/7 13/61/7 15/57/7
f 13/61/7 30/54/7 27/55/7
f 18/41/12 23/39/13 17/62/24
f 23/39/13 18/41/12 24/40/12
