# Made using Asset Forge (www.assetforge.io) version 1.3 

mtllib wall.mtl 

v 0.5 0 -0.5000001
v -8.940697E-08 0 -0.5
v 0.5000001 0 0.5
v 2.980232E-08 0 0.5000001
v 2.980232E-08 2.2 0.5000001
v -8.940697E-08 2.2 -0.5
vn 0 -2.2 0
vn -0.5000001 0 5.960464E-08
vn -1.192093E-07 0 -1
vn 1.192093E-07 0 1
vn 0.3535534 1.555635 -2.980232E-08
vt -0.5 0.5000001
vt 8.940697E-08 0.5
vt -0.5000001 -0.5
vt -2.980232E-08 -0.5000001
vt 0.5000001 0
vt -0.5 0
vt 0.5000001 2.2
vt -0.5 2.2
vt 8.940697E-08 2.2
vt 8.940697E-08 0
vt -0.5 0
vt 2.980232E-08 0
vt 2.980232E-08 2.2
vt 0.5 2.2
vt -0.5000001 2.2

usemtl _defaultMat (Instance)
usemap _defaultMat (Instance)
f 3/3/1 2/2/1 1/1/1
f 2/2/1 3/3/1 4/4/1
f 5/7/2 2/6/2 4/5/2
f 2/6/2 5/7/2 6/8/2
f 1/11/3 2/10/3 6/9/3
f 3/5/4 5/13/4 4/12/4
f 6/14/5 3/6/5 1/5/5
f 3/6/5 6/14/5 5/15/5
v -0.5000001 2.2 0.5
v -2.980232E-08 2.2 0.5000001
v -0.5 2.2 -0.5000001
v 8.940697E-08 2.2 -0.5
v 8.940697E-08 0 -0.5
v -2.980232E-08 0 0.5000001
vn 0 2.2 0
vn 0.5000001 0 5.960464E-08
vn -1.192093E-07 0 1
vn 1.192093E-07 0 -1
vn -0.3535534 -1.555635 -2.980232E-08
vt 0.5000001 -0.5
vt 2.980232E-08 -0.5000001
vt 0.5 0.5000001
vt -8.940697E-08 0.5
vt -0.5 2.2
vt -0.5000001 0
vt 0.5 0

usemtl _defaultMat (Instance) (Instance)
usemap _defaultMat (Instance) (Instance)
f 7/16/6 8/17/6 9/18/6
f 10/19/6 9/18/6 8/17/6
f 10/8/7 8/7/7 11/6/7
f 12/5/7 11/6/7 8/7/7
f 12/12/8 8/13/8 7/7/8
f 10/9/9 11/10/9 9/20/9
f 7/8/10 9/7/10 12/21/10
f 11/22/10 12/21/10 9/7/10
v -0.4562767 2.16 0.3329168
v -0.4562767 2.16 0.2625659
v -0.4 2.1 0.3329167
v -0.4 2.1 0.2625659
v -0.747345 2.13 0.5000001
v -0.687345 2.13 0.5000001
v -0.747345 2.1 0.5000001
v -0.687345 2.1 0.5000001
v -0.687345 2.13 -0.5024999
v -0.747345 2.13 -0.5024999
v -0.687345 2.1 -0.5024999
v -0.747345 2.1 -0.5024999
v -0.4562767 2.16 -0.2650657
v -0.482145 2.16 -0.2650657
v -0.4562767 2.16 -0.3354166
v -0.482145 2.16 -0.3354166
v -0.5353098 2.16 0.3329168
v -0.804595 2.16 0.3329168
v -0.5353098 2.16 0.2625659
v -0.804595 2.16 0.2625659
v -0.482145 2.18 -0.5024999
v -0.615057 2.13 -0.5024999
v -0.482145 2.1 -0.5024999
v -0.615057 2.1 -0.5024999
v -0.482145 2.18 0.5
v -0.482145 2.1 0.5000001
v -0.615057 2.13 0.5000001
v -0.615057 2.1 0.5000001
v -0.804595 2.16 -0.2650657
v -0.804595 2.1 -0.2650657
v -0.804595 2.16 -0.3354166
v -0.804595 2.1 -0.3354166
v -0.482145 2.16 0.3329168
v -0.482145 2.16 0.2625659
v -0.482145 2.1 -0.2650657
v -0.4 2.1 -0.2650657
v -0.747345 2.13 0.2625658
v -0.747345 2.1 0.2625659
v -0.747345 2.13 -0.2650657
v -0.747345 2.1 -0.2650657
v -0.747345 2.13 -0.3354166
v -0.747345 2.1 -0.3354166
v -0.4 2.1 -0.3354166
v -0.482145 2.1 0.2625659
v -0.615057 2.13 -0.3354166
v -0.687345 2.13 -0.3354166
v -0.615057 2.1 -0.3354166
v -0.687345 2.1 -0.3354166
v -0.5353098 2.16 -0.3354166
v -0.615057 2.13 0.2625658
v -0.687345 2.13 0.2625658
v -0.615057 2.1 0.2625659
v -0.687345 2.1 0.2625659
v -0.804595 2.1 0.2625659
v -0.804595 2.1 0.3329167
v -0.747345 2.1 0.3329167
v -0.687345 2.1 0.3329167
v -0.687345 2.1 -0.2650657
v -0.615057 2.1 -0.2650657
v -0.615057 2.1 0.3329167
v -0.482145 2.1 -0.3354166
v -0.482145 2.1 0.3329167
v -0.5353098 2.16 -0.2650657
v -0.615057 2.13 -0.2650657
v -0.687345 2.13 -0.2650657
v -0.687345 2.13 0.3329167
v -0.747345 2.13 0.3329167
v -0.615057 2.13 0.3329167
vn 0.7293755 0.6841136 0
vn 0 0 1
vn 0 0 -1
vn 0 1 0
vn -1 0 0
vn 0.7293755 0.6841135 0
vn 0 -1 0
vn 1 0 0
vn -0.3520987 0.9359628 0
vn -0.3520986 0.9359628 0
vn -0.3520986 0.9359629 0
vn -0.3520986 0.9359629 0
vn -0.3520987 0.9359628 0
vn -0.3520987 0.9359628 0
vn -0.3520988 0.9359628 0
vt -0.3329167 2.16
vt -0.2625659 2.16
vt -0.3329167 2.1
vt -0.2625659 2.1
vt -0.747345 2.13
vt -0.687345 2.13
vt -0.747345 2.1
vt -0.687345 2.1
vt 0.687345 2.13
vt 0.747345 2.13
vt 0.687345 2.1
vt 0.747345 2.1
vt 0.4562767 -0.2650657
vt 0.482145 -0.2650657
vt 0.4562767 -0.3354166
vt 0.482145 -0.3354166
vt 0.5353098 0.3329167
vt 0.804595 0.3329167
vt 0.5353098 0.2625659
vt 0.804595 0.2625659
vt 0.482145 2.18
vt 0.615057 2.13
vt 0.482145 2.1
vt 0.615057 2.1
vt -0.482145 2.18
vt -0.482145 2.1
vt -0.615057 2.13
vt -0.615057 2.1
vt -0.2650657 2.16
vt -0.2650657 2.1
vt -0.3354166 2.16
vt -0.3354166 2.1
vt 0.4562767 0.3329167
vt 0.482145 0.3329167
vt 0.4562767 0.2625659
vt 0.482145 0.2625659
vt -0.482145 2.16
vt -0.4562767 2.16
vt -0.4 2.1
vt 0.2625659 2.13
vt 0.2625659 2.1
vt -0.2650657 2.13
vt -0.3354166 2.13
vt -0.5024999 2.13
vt -0.5024999 2.1
vt 0.2650657 2.16
vt 0.3354166 2.16
vt 0.2650657 2.1
vt 0.3354166 2.1
vt 0.4562767 2.16
vt 0.482145 2.16
vt 0.4 2.1
vt 0.5353098 2.16
vt 0.804595 2.16
vt 0.804595 2.1
vt 0.3329167 2.16
vt 0.3329167 2.1
vt 0.2625659 2.16
vt 0.747345 -0.3329167
vt 0.747345 -0.2625659
vt 0.804595 -0.3329167
vt 0.804595 -0.2625659
vt 0.747345 0.2650657
vt 0.747345 0.3354166
vt 0.804595 0.2650657
vt 0.804595 0.3354166
vt 0.687345 -0.5000001
vt 0.687345 -0.3329167
vt 0.747345 -0.5000001
vt 0.687345 -0.2625659
vt 0.687345 0.2650657
vt 0.687345 0.3354166
vt 0.687345 0.5024999
vt 0.747345 0.5024999
vt 0.615057 0.3354166
vt 0.615057 0.2650657
vt 0.615057 -0.2625659
vt 0.615057 -0.3329167
vt 0.615057 -0.5000001
vt 0.482145 0.5024999
vt 0.482145 0.3354166
vt 0.482145 0.2650657
vt 0.482145 -0.2625659
vt 0.482145 -0.3329167
vt 0.482145 -0.5000001
vt 0.615057 0.5024999
vt 0.4 0.3354166
vt 0.4 0.2650657
vt 0.4 -0.2625659
vt 0.4 -0.3329167
vt -0.5000001 2.1
vt -0.5000001 2.18
vt 0.5024999 2.18
vt 0.5024999 2.1
vt -0.5353098 2.16
vt -0.804595 2.16
vt -0.804595 2.1
vt 0.5353098 -0.2650657
vt 0.804595 -0.2650657
vt 0.5353098 -0.3354166
vt 0.804595 -0.3354166
vt 0.687345 0.3329167
vt 0.747345 0.3329167
vt 0.687345 0.2625659
vt 0.747345 0.2625659
vt 0.687345 -0.2650657
vt 0.747345 -0.2650657
vt 0.747345 0.5000001
vt 0.687345 0.5000001
vt 0.3354166 2.13
vt 0.5024999 2.13
vt 0.687345 -0.3354166
vt 0.747345 -0.3354166
vt 0.687345 -0.5024999
vt 0.747345 -0.5024999
vt 0.615057 0.5000001
vt 0.482145 0.5000001
vt 0.482145 -0.5024999
vt 0.615057 0.3329167
vt 0.615057 -0.5024999
vt 0.615057 -0.3354166
vt 0.615057 0.2625659
vt 0.615057 -0.2650657
vt 0.5000001 2.13
vt 0.5000001 2.1
vt 0.3329167 2.13
vt -0.5000001 2.13
vt -0.3329167 2.13
vt -0.2625659 2.13
vt 0.2650657 2.13

usemtl tire (Instance)
usemap tire (Instance)
f 15/25/11 14/24/11 13/23/11
f 14/24/11 15/25/11 16/26/11
f 19/29/12 18/28/12 17/27/12
f 18/28/12 19/29/12 20/30/12
f 23/33/13 22/32/13 21/31/13
f 22/32/13 23/33/13 24/34/13
f 27/37/14 26/36/14 25/35/14
f 26/36/14 27/37/14 28/38/14
f 31/41/14 30/40/14 29/39/14
f 30/40/14 31/41/14 32/42/14
f 35/45/13 34/44/13 33/43/13
f 34/44/13 35/45/13 36/46/13
f 39/49/12 38/48/12 37/47/12
f 38/48/12 39/49/12 40/50/12
f 43/53/15 42/52/15 41/51/15
f 42/52/15 43/53/15 44/54/15
f 14/57/14 45/56/14 13/55/14
f 45/56/14 14/57/14 46/58/14
f 47/48/12 25/60/12 26/59/12
f 25/60/12 47/48/12 48/61/12
f 51/64/15 50/63/15 49/62/15
f 50/63/15 51/64/15 52/52/15
f 22/66/15 54/54/15 53/65/15
f 54/54/15 22/66/15 24/67/15
f 48/70/16 27/69/16 25/68/16
f 27/69/16 48/70/16 55/71/16
f 16/74/13 46/73/13 14/72/13
f 46/73/13 16/74/13 56/45/13
f 59/46/13 58/31/13 57/44/13
f 58/31/13 59/46/13 60/33/13
f 57/44/13 43/76/13 61/75/13
f 43/76/13 57/44/13 53/32/13
f 43/76/13 53/32/13 44/77/13
f 44/77/13 53/32/13 54/34/13
f 53/27/15 57/49/15 58/28/15
f 64/46/13 63/31/13 62/44/13
f 63/31/13 64/46/13 65/33/13
f 62/44/13 32/76/13 31/75/13
f 32/76/13 62/44/13 49/32/13
f 32/76/13 49/32/13 66/77/13
f 66/77/13 49/32/13 50/34/13
f 49/27/15 62/49/15 63/28/15
f 32/80/15 67/79/15 30/78/15
f 67/79/15 32/80/15 66/63/15
f 34/66/15 59/54/15 57/65/15
f 59/54/15 34/66/15 36/67/15
f 67/83/17 50/82/17 68/81/17
f 50/82/17 67/83/17 66/84/17
f 42/87/17 54/86/17 52/85/17
f 54/86/17 42/87/17 44/88/17
f 19/91/17 69/90/17 20/89/17
f 69/90/17 19/91/17 65/92/17
f 65/92/17 19/91/17 70/93/17
f 70/93/17 19/91/17 60/94/17
f 60/94/17 19/91/17 23/95/17
f 23/95/17 19/91/17 24/96/17
f 59/97/17 70/93/17 60/94/17
f 70/93/17 59/97/17 71/98/17
f 64/99/17 69/90/17 65/92/17
f 69/90/17 64/99/17 72/100/17
f 35/102/17 40/101/17 64/99/17
f 73/103/17 40/101/17 35/102/17
f 47/104/17 40/101/17 73/103/17
f 56/105/17 40/101/17 47/104/17
f 74/106/17 40/101/17 56/105/17
f 40/101/17 74/106/17 38/107/17
f 35/102/17 64/99/17 36/108/17
f 55/109/17 47/104/17 73/103/17
f 47/104/17 55/109/17 48/110/17
f 16/111/17 74/106/17 56/105/17
f 74/106/17 16/111/17 15/112/17
f 24/29/15 19/29/15 50/29/15
f 50/29/15 19/29/15 68/29/15
f 24/29/15 50/29/15 54/29/15
f 54/29/15 50/29/15 52/29/15
f 64/50/15 40/50/15 72/50/15
f 36/50/15 64/50/15 71/50/15
f 36/50/15 71/50/15 59/50/15
f 74/25/18 37/114/18 38/113/18
f 37/114/18 74/25/18 45/23/18
f 45/23/18 33/115/18 37/114/18
f 33/115/18 45/23/18 46/24/18
f 33/115/18 46/24/18 26/68/18
f 26/68/18 46/24/18 56/26/18
f 47/70/18 26/68/18 56/26/18
f 33/115/18 26/68/18 28/69/18
f 33/115/18 28/69/18 73/71/18
f 33/115/18 73/71/18 35/116/18
f 41/118/12 51/27/12 75/117/12
f 51/27/12 41/118/12 42/119/12
f 51/27/12 42/119/12 52/29/12
f 51/27/12 76/49/12 75/117/12
f 76/49/12 77/28/12 70/30/12
f 76/49/12 70/30/12 71/50/12
f 76/49/15 51/27/15 77/28/15
f 61/122/14 41/121/14 75/120/14
f 41/121/14 61/122/14 43/123/14
f 63/126/14 79/125/14 78/124/14
f 79/125/14 63/126/14 49/127/14
f 77/128/14 49/127/14 63/126/14
f 49/127/14 77/128/14 51/129/14
f 17/130/14 78/124/14 79/125/14
f 78/124/14 17/130/14 18/131/14
f 23/116/18 58/132/18 60/71/18
f 58/132/18 23/116/18 21/133/18
f 21/136/14 53/135/14 58/134/14
f 53/135/14 21/136/14 22/137/14
f 55/74/13 28/73/13 27/72/13
f 28/73/13 55/74/13 73/45/13
f 37/139/21 29/39/20 39/138/19
f 29/39/20 37/139/21 33/140/22
f 39/138/19 29/39/20 80/141/23
f 33/140/22 75/120/24 29/39/20
f 75/120/24 33/140/22 61/122/21
f 61/122/21 33/140/22 34/142/19
f 61/122/21 34/142/19 57/143/23
f 75/120/24 62/144/25 31/41/25
f 62/144/25 75/120/24 76/145/25
f 29/117/15 75/117/15 31/117/15
f 74/48/12 13/60/12 45/59/12
f 13/60/12 74/48/12 15/61/12
f 62/62/15 71/52/15 64/63/15
f 71/52/15 62/62/15 76/64/15
f 79/148/15 19/147/15 17/146/15
f 19/147/15 79/148/15 68/79/15
f 30/118/12 79/27/12 29/117/12
f 79/27/12 30/118/12 67/119/12
f 79/27/12 67/119/12 68/29/12
f 79/27/12 80/49/12 29/117/12
f 80/49/12 78/28/12 69/30/12
f 80/49/12 69/30/12 72/50/12
f 80/49/15 79/27/15 78/28/15
f 69/25/18 18/149/18 20/113/18
f 18/149/18 69/25/18 78/150/18
f 70/70/18 63/151/18 65/26/18
f 63/151/18 70/70/18 77/152/18
f 80/148/15 40/147/15 39/146/15
f 40/147/15 80/148/15 72/79/15
v 0.5000001 0 -0.4999999
v 0.5000001 0.15 -0.4999999
v 0.4 1.015188E-16 -0.4999999
v 0.4 0.15 -0.4999999
v 0.5000001 1.015188E-16 -0.4
v 0.5000001 0.15 -0.4
v 0.5 0 0.5
v 0.4 1.015188E-16 0.5
v 0.5 0.15 0.5
v 0.4 0.15 0.5
v 0.4 1.015188E-16 0.4
v 0.4 0.15 0.4
v 0.5 0.15 0.4
v 0.5 1.015188E-16 0.4
v 0.4 0.15 -0.4
v 0.4 1.015188E-16 -0.4
v 0.4 1 -0.4
v 0.4 1 -0.4999999
v 0.5000001 1 -0.4
v 0.5000001 1 -0.4999999
v 0.5 1 0.5
v 0.4 1 0.5
v 0.5 1 0.4
v 0.4 1 0.4
vn 8.742278E-08 0 -1
vn 1 0 8.742278E-08
vn -8.742278E-08 0 1
vn -1 0 -8.742278E-08
vt -0.5000001 0
vt -0.5000001 0.15
vt -0.4 1.015188E-16
vt -0.4 0.15
vt 0.4 1.015188E-16
vt 0.4 0.15
vt 0.5 0
vt 0.5 0.15
vt 0.4 1.015188E-16
vt 0.5000001 0.15
vt 0.5000001 1.015188E-16
vt 0.4 0.15
vt -0.5 0.15
vt -0.4 1.015188E-16
vt -0.5 1.015188E-16
vt -0.4 0.15
vt -0.4 -0.4
vt -0.4 -0.5000001
vt -0.5 -0.4
vt -0.5 -0.5000001
vt -0.4 0.5
vt -0.4 0.4
vt -0.5000001 0.5
vt -0.5000001 0.4
vt -0.4 -0.4
vt -0.4 -0.5
vt -0.5000001 -0.4
vt -0.5000001 -0.5
vt 0.5 1
vt 0.4 1
vt -0.5000001 1
vt -0.4 1
vt -0.4 0.5000001
vt -0.4 0.4
vt -0.5 0.5000001
vt -0.5 0.4
vt 0.5000001 1
vt 0.4 1
vt -0.4 1
vt -0.5 1
vt -0.5000001 1.015188E-16
vt 0.5 1.015188E-16

usemtl border (Instance)
usemap border (Instance)
f 83/155/26 82/154/26 81/153/26
f 82/154/26 83/155/26 84/156/26
f 81/159/27 86/158/27 85/157/27
f 86/158/27 81/159/27 82/160/27
f 89/160/28 88/157/28 87/159/28
f 88/157/28 89/160/28 90/158/28
f 88/163/29 90/162/29 91/161/29
f 92/164/29 91/161/29 90/162/29
f 94/167/26 91/166/26 93/165/26
f 92/168/26 93/165/26 91/166/26
f 96/161/28 85/163/28 95/164/28
f 86/162/28 95/164/28 85/163/28
f 96/166/29 95/168/29 83/167/29
f 84/165/29 83/167/29 95/168/29
f 94/171/17 88/170/17 91/169/17
f 88/170/17 94/171/17 87/172/17
f 81/175/17 96/174/17 83/173/17
f 96/174/17 81/175/17 85/176/17
f 94/155/27 89/154/27 87/153/27
f 89/154/27 94/155/27 93/156/27

usemtl bricks (Instance)
usemap bricks (Instance)
f 99/179/14 98/178/14 97/177/14
f 98/178/14 99/179/14 100/180/14
f 101/181/28 90/158/28 89/160/28
f 90/158/28 101/181/28 102/182/28
f 93/156/27 101/183/27 89/154/27
f 101/183/27 93/156/27 103/184/27
f 84/156/26 100/183/26 82/154/26
f 100/183/26 84/156/26 98/184/26
f 101/187/14 104/186/14 102/185/14
f 104/186/14 101/187/14 103/188/14
f 104/190/29 90/162/29 102/189/29
f 90/162/29 104/190/29 92/164/29
f 104/191/26 93/165/26 92/168/26
f 93/165/26 104/191/26 103/192/26
f 99/189/28 95/164/28 86/162/28
f 95/164/28 99/189/28 97/190/28
f 98/192/29 95/168/29 97/191/29
f 95/168/29 98/192/29 84/165/29
f 86/158/27 100/181/27 99/182/27
f 100/181/27 86/158/27 82/160/27
f 91/155/27 90/154/27 88/193/27
f 90/154/27 91/155/27 92/156/27
f 93/160/28 91/157/28 94/194/28
f 91/157/28 93/160/28 92/158/28
f 95/156/26 85/193/26 96/155/26
f 85/193/26 95/156/26 86/154/26
f 83/194/27 95/158/27 96/157/27
f 95/158/27 83/194/27 84/160/27
v 0.5000001 1.15 -0.4999999
v 0.4 1.15 -0.4999999
v 0.5000001 1.15 -0.4
v 0.5 1.15 0.5
v 0.4 1.15 0.5
v 0.4 1.15 0.4
v 0.5 1.15 0.4
v 0.4 1.15 -0.4
v 0.4 2 -0.4
v 0.4 2 -0.4999999
v 0.5000001 2 -0.4
v 0.5000001 2 -0.4999999
v 0.5 2 0.5
v 0.4 2 0.5
v 0.5 2 0.4
v 0.4 2 0.4
vt -0.5000001 1.15
vt -0.4 1.15
vt 0.4 1.15
vt 0.5 1.15
vt 0.5000001 1.15
vt 0.4 1.15
vt -0.5 1.15
vt -0.4 1.15
vt 0.5 2
vt 0.4 2
vt -0.5000001 2
vt -0.4 2
vt 0.5000001 2
vt 0.4 2
vt -0.4 2
vt -0.5 2

usemtl border (Instance) (Instance)
usemap border (Instance) (Instance)
f 98/184/26 105/195/26 100/183/26
f 105/195/26 98/184/26 106/196/26
f 100/181/27 107/197/27 99/182/27
f 107/197/27 100/181/27 105/198/27
f 108/198/28 102/182/28 101/181/28
f 102/182/28 108/198/28 109/197/28
f 102/189/29 109/199/29 104/190/29
f 110/200/29 104/190/29 109/199/29
f 103/192/26 104/191/26 111/201/26
f 110/202/26 111/201/26 104/191/26
f 97/190/28 99/189/28 112/200/28
f 107/199/28 112/200/28 99/189/28
f 97/191/29 112/202/29 98/192/29
f 106/201/29 98/192/29 112/202/29
f 103/171/17 102/170/17 104/169/17
f 102/170/17 103/171/17 101/172/17
f 100/175/17 97/174/17 98/173/17
f 97/174/17 100/175/17 99/176/17
f 103/184/27 108/195/27 101/183/27
f 108/195/27 103/184/27 111/196/27

usemtl bricks (Instance) (Instance)
usemap bricks (Instance) (Instance)
f 115/179/14 114/178/14 113/177/14
f 114/178/14 115/179/14 116/180/14
f 117/203/28 109/197/28 108/198/28
f 109/197/28 117/203/28 118/204/28
f 111/196/27 117/205/27 108/195/27
f 117/205/27 111/196/27 119/206/27
f 106/196/26 116/205/26 105/195/26
f 116/205/26 106/196/26 114/206/26
f 117/187/14 120/186/14 118/185/14
f 120/186/14 117/187/14 119/188/14
f 120/208/29 109/199/29 118/207/29
f 109/199/29 120/208/29 110/200/29
f 120/209/26 111/201/26 110/202/26
f 111/201/26 120/209/26 119/210/26
f 115/207/28 112/200/28 107/199/28
f 112/200/28 115/207/28 113/208/28
f 114/210/29 112/202/29 113/209/29
f 112/202/29 114/210/29 106/201/29
f 107/197/27 116/203/27 115/204/27
f 116/203/27 107/197/27 105/198/27
f 104/184/27 109/195/27 102/183/27
f 109/195/27 104/184/27 110/196/27
f 111/198/28 104/182/28 103/181/28
f 104/182/28 111/198/28 110/197/28
f 112/196/26 99/183/26 97/184/26
f 99/183/26 112/196/26 107/195/26
f 98/181/27 112/197/27 97/182/27
f 112/197/27 98/181/27 106/198/27
v 0.5 2 0.4999999
v 0.5 2 -0.5000001
v -2.980232E-08 2 0.4999999
v -2.980232E-08 2 -0.5000001
v 0.5 2.15 -0.5000001
v 0.5 2.15 0.4999999
v 0.4394453 2.075 0.4999999
v -2.980232E-08 2.075 0.4999999
v 0.4394453 2.15 0.4999999
v -2.980232E-08 2.075 -0.5000001
v 0.4394453 2.075 -0.5000001
v 0.4394453 2.15 -0.5000001
vn 0.5 0 0
vn -0.5 0 0
vt -0.5 -0.4999999
vt 2.980232E-08 -0.4999999
vt 2.980232E-08 0.5000001
vt 2.980232E-08 0.4999999
vt -0.5 0.4999999
vt 2.980232E-08 -0.5000001
vt 0.5000001 2.15
vt -0.4999999 2.15
vt -0.4999999 2
vt 0.4999999 2.15
vt -0.5000001 2.15
vt 0.4999999 2
vt 0.4394453 2.075
vt -2.980232E-08 2
vt -2.980232E-08 2.075
vt 0.5 2.15
vt 0.4394453 2.15
vt 2.980232E-08 2.075
vt 2.980232E-08 2
vt -0.4394453 2.075
vt -0.5 2.15
vt -0.4394453 2.15
vt -0.5000001 2.075
vt 0.4999999 2.075
vt 0.5000001 2.075
vt -0.4999999 2.075
vt -0.4394453 -0.4999999
vt -0.4394453 0.5000001
vt -0.4394453 -0.5000001
vt -0.4394453 0.4999999

usemtl border (Instance) (Instance)
usemap border (Instance) (Instance)
f 123/212/17 122/187/17 121/211/17
f 122/187/17 123/212/17 124/213/17
f 121/215/14 122/172/14 123/214/14
f 124/216/14 123/214/14 122/172/14
f 126/218/30 122/207/30 125/217/30
f 122/207/30 126/218/30 121/219/30
f 125/221/31 122/205/31 126/220/31
f 121/222/31 126/220/31 122/205/31
f 128/225/12 123/224/12 127/223/12
f 121/203/12 127/223/12 123/224/12
f 127/223/12 121/203/12 126/226/12
f 127/223/12 126/226/12 129/227/12
f 127/230/13 123/229/13 128/228/13
f 123/229/13 127/230/13 121/210/13
f 126/231/13 121/210/13 127/230/13
f 129/232/13 126/231/13 127/230/13
f 123/222/31 130/233/31 124/205/31
f 130/233/31 123/222/31 128/234/31
f 124/207/30 130/235/30 123/219/30
f 128/236/30 123/219/30 130/235/30
f 130/228/13 122/210/13 124/229/13
f 122/210/13 130/228/13 131/230/13
f 122/210/13 131/230/13 125/231/13
f 125/231/13 131/230/13 132/232/13
f 124/224/12 122/203/12 130/225/12
f 131/223/12 130/225/12 122/203/12
f 125/226/12 131/223/12 122/203/12
f 132/227/12 131/223/12 125/226/12
f 131/238/17 127/237/17 130/213/17
f 128/212/17 130/213/17 127/237/17
f 127/234/31 132/221/31 131/233/31
f 132/221/31 127/234/31 129/220/31
f 131/235/30 132/217/30 127/236/30
f 129/218/30 127/236/30 132/217/30
f 132/239/14 126/215/14 125/172/14
f 126/215/14 132/239/14 129/240/14
f 125/187/17 126/211/17 132/238/17
f 129/237/17 132/238/17 126/211/17

usemtl bricks (Instance) (Instance)
usemap bricks (Instance) (Instance)
f 130/216/14 127/240/14 131/239/14
f 127/240/14 130/216/14 128/214/14
