# Exported using Kenney Suite 1.2 

mtllib cabinWall.mtl 

g cabinWall

v -10 0 0.351 
v -10 0.6079498 0.702 
v 4.737544E-15 3.521574E-13 0.351 
v -5.639933E-15 0.6079498 0.702 
v -10 6.079498 0.351 
v -10 6.687448 0.702 
v -2.118359E-13 6.079498 0.351 
v -2.222133E-13 6.687448 0.702 
v -10 6.687448 -0.702 
v -2.614673E-13 6.687448 -0.702 
v -10 7.295398 -0.351 
v -2.730856E-13 7.295398 -0.351 
v -10 6.079498 -0.351 
v -2.314629E-13 6.079498 -0.351 
v -10 4.863598 0.351 
v -10 5.471549 0.702 
v -1.685212E-13 4.863598 0.351 
v -1.788987E-13 5.471549 0.702 
v -10 5.471549 -0.702 
v -2.181526E-13 5.471549 -0.702 
v -10 4.863598 -0.351 
v -1.881482E-13 4.863598 -0.351 
v -10 4.255649 -0.702 
v -1.748379E-13 4.255649 -0.702 
v -10 3.647699 0.351 
v -10 4.255649 0.702 
v -1.252065E-13 3.647699 0.351 
v -1.35584E-13 4.255649 0.702 
v -10 7.295398 0.351 
v -2.534586E-13 7.295398 0.351 
v -10 3.647699 -0.351 
v -1.448335E-13 3.647699 -0.351 
v -10 7.903348 -0.702 
v -3.04782E-13 7.903348 -0.702 
v -10 7.903348 0.702 
v -10 8.511297 0.351 
v -2.655281E-13 7.903348 0.702 
v -2.967733E-13 8.511297 0.351 
v -10 1.2159 0.351 
v -3.688516E-14 1.2159 0.351 
v -10 8.511297 -0.351 
v -3.164003E-13 8.511297 -0.351 
v -10 2.431799 0.351 
v -10 3.039749 0.702 
v -8.189182E-14 2.431799 0.351 
v -9.22693E-14 3.039749 0.702 
v -10 0.6079498 -0.702 
v -4.489386E-14 0.6079498 -0.702 
v -10 1.2159 -0.351 
v -5.651213E-14 1.2159 -0.351 
v 0 0 0 
v -10 0 0 
v -1.488942E-14 3.521574E-13 -0.351 
v -10 0 -0.351 
v -10 9.727197 0.351 
v -10 9.727197 -0.351 
v -10 2.431799 -0.351 
v -10 9.119247 -0.702 
v -10 3.039749 -0.702 
v -10 1.82385 -0.702 
v -10 1.82385 0.702 
v -10 9.119247 0.702 
v -8.820855E-14 1.82385 -0.702 
v -1.015188E-13 2.431799 -0.351 
v -1.315232E-13 3.039749 -0.702 
v -3.597149E-13 9.727197 -0.351 
v -3.480967E-13 9.119247 -0.702 
v -3.40088E-13 9.727197 0.351 
v -3.088427E-13 9.119247 0.702 
v -4.895461E-14 1.82385 0.702 

vn 0 -0.5000001 0.8660253
vn 0 -0.4999998 0.8660256
vn 0 0.5000001 -0.8660253
vn 0 -0.4999998 -0.8660256
vn 0 -0.5000001 -0.8660253
vn 0 -0.5000003 0.8660253
vn 0 0.5000001 0.8660253
vn 0 -0.5000003 -0.8660253
vn 0 0.5000004 0.8660253
vn 0 0.5000004 -0.8660253
vn 0 -1 0
vn -1 0 0
vn 0 1 0
vn 1 0 0
vn 0 -0.5 0.8660254
vn 0 0.4999999 0.8660254
vn 0 0.5000001 0.8660253
vn 0 -0.5 -0.8660254
vn 0 0.4999999 -0.8660254
vn 0 0.5000001 -0.8660253

vt -39.37008 0.6909449
vt -39.37008 3.454724
vt -4.811168E-14 0.6909449
vt -1.557313E-13 3.454724
vt -39.37008 21.41929
vt -39.37008 24.18307
vt -9.007713E-13 21.41929
vt -1.008399E-12 24.18307
vt 39.37008 21.41929
vt 8.964299E-13 21.41929
vt 39.37008 24.18307
vt 1.008656E-12 24.18307
vt 9.009786E-13 21.41929
vt 1.008814E-12 24.18307
vt -39.37008 17.27362
vt -39.37008 20.0374
vt -7.30241E-13 17.27362
vt -8.378689E-13 20.0374
vt 39.37008 17.27362
vt 7.258221E-13 17.27362
vt 39.37008 20.0374
vt 8.447479E-13 20.0374
vt 7.304484E-13 17.27362
vt 8.382837E-13 20.0374
vt 39.37008 13.12795
vt 5.552887E-13 13.12795
vt 39.37008 15.89173
vt 6.74216E-13 15.89173
vt -39.37008 13.12795
vt -39.37008 15.89173
vt -5.596893E-13 13.12795
vt -6.672958E-13 15.89173
vt -8.960152E-13 21.41929
vt -1.008448E-12 24.18307
vt -7.254115E-13 17.27362
vt -8.445426E-13 20.0374
vt 5.598998E-13 13.12795
vt 6.677168E-13 15.89173
vt -5.548813E-13 13.12795
vt -6.740123E-13 15.89173
vt 39.37008 25.56496
vt 1.06481E-12 25.56496
vt 39.37008 28.32874
vt 1.179269E-12 28.32874
vt -39.37008 25.56496
vt -39.37008 28.32874
vt -1.066542E-12 25.56496
vt -1.178977E-12 28.32874
vt -4.328028E-14 0.6909449
vt -1.557551E-13 3.454724
vt -1.064604E-12 25.56496
vt -1.178857E-12 28.32874
vt 1.066957E-12 25.56496
vt 1.179184E-12 28.32874
vt -39.37008 8.982284
vt -39.37008 11.74606
vt -3.891805E-13 8.982284
vt -4.968084E-13 11.74606
vt 39.37008 0.6909449
vt 4.369134E-14 0.6909449
vt 39.37008 3.454724
vt 1.559606E-13 3.454724
vt 1.865175E-14 1.38189
vt 0 0
vt -39.37008 1.38189
vt -39.37008 3.477546E-25
vt -5.861978E-14 -1.38189
vt -39.37008 -1.38189
vt 4.815783E-14 0.6909449
vt 1.558236E-13 3.454724
vt 1.38189 1.396175E-12
vt 1.38189 4.787006
vt 2.76378 2.393503
vt -1.113386E-12 1.396175E-12
vt 1.38189 38.29605
vt -1.38189 38.29605
vt -1.38189 33.50904
vt -1.38189 28.72204
vt -1.38189 23.93503
vt -1.38189 19.14803
vt -1.38189 14.36102
vt -1.38189 9.574013
vt -1.38189 4.787006
vt -1.38189 1.396175E-12
vt -2.76378 2.393503
vt -2.76378 35.90255
vt -2.76378 31.11554
vt -2.76378 26.32854
vt -2.76378 21.54153
vt -2.76378 16.75452
vt -2.76378 11.96752
vt -2.76378 7.18051
vt 1.38189 9.574013
vt 2.76378 7.18051
vt 1.38189 14.36102
vt 2.76378 11.96752
vt 1.38189 19.14803
vt 2.76378 16.75452
vt 1.38189 23.93503
vt 2.76378 21.54153
vt 1.38189 28.72204
vt 2.76378 26.32854
vt 1.38189 33.50904
vt 2.76378 31.11554
vt 2.76378 35.90255
vt 1.38189 1.386447E-12
vt -1.38189 1.386447E-12
vt -1.099084E-14 1.38189
vt 39.37008 1.38189
vt 6.628069E-14 -1.38189
vt 39.37008 -1.38189
vt 39.37008 29.71063
vt 1.235413E-12 29.71063
vt 39.37008 32.47441
vt 1.349946E-12 32.47441
vt -39.37008 4.836614
vt -39.37008 7.600394
vt -2.119952E-13 4.836614
vt -3.262908E-13 7.600394
vt 39.37008 8.982284
vt 3.893878E-13 8.982284
vt 39.37008 11.74606
vt 4.972231E-13 11.74606
vt 1.237042E-12 29.71063
vt 1.349492E-12 32.47441
vt -39.37008 29.71063
vt -39.37008 32.47441
vt -1.23684E-12 29.71063
vt -1.349391E-12 32.47441
vt -3.843511E-13 8.982284
vt -5.034821E-13 11.74606
vt -1.235206E-12 29.71063
vt -1.349531E-12 32.47441
vt -2.137989E-13 4.836614
vt -3.329408E-13 7.600394
vt 39.37008 4.836614
vt 2.122026E-13 4.836614
vt 39.37008 7.600394
vt 3.267056E-13 7.600394
vt 3.847653E-13 8.982284
vt 5.036892E-13 11.74606
vt 2.142136E-13 4.836614
vt 3.331482E-13 7.600394

usemtl wood
usemap wood

f 2/2/1 1/1/1 3/3/1
f 3/3/1 4/4/1 2/2/1
f 6/6/2 5/5/2 7/7/2
f 7/7/2 8/8/2 6/6/2
f 10/10/3 9/9/3 11/11/3
f 11/11/3 12/12/3 10/10/3
f 14/13/4 13/9/4 9/11/4
f 9/11/4 10/14/4 14/13/4
f 16/16/1 15/15/1 17/17/1
f 17/17/1 18/18/1 16/16/1
f 20/20/3 19/19/3 13/21/3
f 13/21/3 14/22/3 20/20/3
f 22/23/5 21/19/5 19/21/5
f 19/21/5 20/24/5 22/23/5
f 24/26/3 23/25/3 21/27/3
f 21/27/3 22/28/3 24/26/3
f 26/30/6 25/29/6 27/31/6
f 27/31/6 28/32/6 26/30/6
f 29/6/7 6/5/7 8/33/7
f 8/33/7 30/34/7 29/6/7
f 5/16/7 16/15/7 18/35/7
f 18/35/7 7/36/7 5/16/7
f 32/37/8 31/25/8 23/27/8
f 23/27/8 24/38/8 32/37/8
f 15/30/7 26/29/7 28/39/7
f 28/39/7 17/40/7 15/30/7
f 12/42/5 11/41/5 33/43/5
f 33/43/5 34/44/5 12/42/5
f 36/46/9 35/45/9 37/47/9
f 37/47/9 38/48/9 36/46/9
f 39/2/7 2/1/7 4/49/7
f 4/49/7 40/50/7 39/2/7
f 35/46/1 29/45/1 30/51/1
f 30/51/1 37/52/1 35/46/1
f 34/53/10 33/41/10 41/43/10
f 41/43/10 42/54/10 34/53/10
f 44/56/1 43/55/1 45/57/1
f 45/57/1 46/58/1 44/56/1
f 48/60/3 47/59/3 49/61/3
f 49/61/3 50/62/3 48/60/3
f 51/64/11 3/63/11 1/65/11
f 1/65/11 52/66/11 51/64/11
f 53/67/11 51/64/11 52/66/11
f 52/66/11 54/68/11 53/67/11
f 53/69/5 54/59/5 47/61/5
f 47/61/5 48/70/5 53/69/5
f 39/72/12 1/71/12 2/73/12
f 52/74/12 1/71/12 39/72/12
f 52/74/12 39/72/12 55/75/12
f 52/74/12 55/75/12 56/76/12
f 52/74/12 56/76/12 41/77/12
f 52/74/12 41/77/12 11/78/12
f 52/74/12 11/78/12 13/79/12
f 52/74/12 13/79/12 21/80/12
f 52/74/12 21/80/12 31/81/12
f 52/74/12 31/81/12 57/82/12
f 52/74/12 57/82/12 49/83/12
f 54/84/12 52/74/12 49/83/12
f 49/83/12 47/85/12 54/84/12
f 58/86/12 41/77/12 56/76/12
f 33/87/12 11/78/12 41/77/12
f 9/88/12 13/79/12 11/78/12
f 19/89/12 21/80/12 13/79/12
f 23/90/12 31/81/12 21/80/12
f 59/91/12 57/82/12 31/81/12
f 60/92/12 49/83/12 57/82/12
f 43/93/12 39/72/12 61/94/12
f 25/95/12 43/93/12 44/96/12
f 15/97/12 25/95/12 26/98/12
f 5/99/12 15/97/12 16/100/12
f 29/101/12 5/99/12 6/102/12
f 36/103/12 29/101/12 35/104/12
f 36/103/12 62/105/12 55/75/12
f 39/72/13 29/101/13 55/75/13
f 39/72/13 43/93/13 29/101/13
f 43/93/13 25/95/13 29/101/13
f 25/95/13 15/97/13 29/101/13
f 15/97/13 5/99/13 29/101/13
f 29/101/13 36/103/13 55/75/13
f 50/72/14 63/94/14 64/93/14
f 50/72/14 64/93/14 51/64/14
f 50/72/14 51/64/14 53/106/14
f 53/106/14 48/73/14 50/72/14
f 64/93/14 32/95/14 51/64/14
f 64/93/14 65/96/14 32/95/14
f 32/95/14 22/97/14 51/64/14
f 32/95/14 24/98/14 22/97/14
f 22/97/14 14/99/14 51/64/14
f 22/97/14 20/100/14 14/99/14
f 14/99/14 12/101/14 51/64/14
f 14/99/14 10/102/14 12/101/14
f 12/101/14 42/103/14 51/64/14
f 12/101/14 34/104/14 42/103/14
f 42/103/14 66/75/14 51/64/14
f 42/103/14 67/105/14 66/75/14
f 66/75/14 68/76/14 51/64/14
f 68/76/14 40/83/14 51/64/14
f 3/107/14 51/64/14 40/83/14
f 40/83/14 4/85/14 3/107/14
f 68/76/14 69/86/14 38/77/14
f 30/78/14 38/77/14 37/87/14
f 7/79/14 30/78/14 8/88/14
f 7/79/14 18/89/14 17/80/14
f 27/81/14 17/80/14 28/90/14
f 45/82/14 27/81/14 46/91/14
f 40/83/14 45/82/14 70/92/14
f 68/76/13 30/78/13 40/83/13
f 30/78/13 45/82/13 40/83/13
f 30/78/13 27/81/13 45/82/13
f 30/78/13 17/80/13 27/81/13
f 68/76/13 38/77/13 30/78/13
f 17/80/13 30/78/13 7/79/13
f 55/109/13 68/108/13 66/110/13
f 66/110/13 56/111/13 55/109/13
f 42/113/4 41/112/4 58/114/4
f 58/114/4 67/115/4 42/113/4
f 61/117/15 39/116/15 40/118/15
f 40/118/15 70/119/15 61/117/15
f 64/121/5 57/120/5 59/122/5
f 59/122/5 65/123/5 64/121/5
f 67/124/10 58/112/10 56/114/10
f 56/114/10 66/125/10 67/124/10
f 55/127/9 62/126/9 69/128/9
f 69/128/9 68/129/9 55/127/9
f 25/56/16 44/55/16 46/130/16
f 46/130/16 27/131/16 25/56/16
f 62/127/2 36/126/2 38/132/2
f 38/132/2 69/133/2 62/127/2
f 43/117/17 61/116/17 70/134/17
f 70/134/17 45/135/17 43/117/17
f 50/137/18 49/136/18 60/138/18
f 60/138/18 63/139/18 50/137/18
f 65/140/19 59/120/19 31/122/19
f 31/122/19 32/141/19 65/140/19
f 63/142/20 60/136/20 57/138/20
f 57/138/20 64/143/20 63/142/20
