# Exported using Kenney Suite 1.2 

mtllib cabinWindow.mtl 

g cabinWindow

v -2.7 5.471549 0.702 
v -2.7 6.079498 0.351 
v -7.58007E-14 5.471549 0.702 
v -9.384848E-14 6.079498 0.351 
v -10 1.82385 -0.702 
v -9.023893E-14 1.82385 -0.702 
v -10 2.431799 -0.351 
v -2.7 2.431799 -0.351 
v -1.010676E-13 2.431799 -0.351 
v -7.3 2.431799 -0.351 
v -2.7 4.863598 0.351 
v -8.301981E-14 4.863598 0.351 
v -5.775292E-14 1.2159 -0.351 
v 0 0 0 
v -1.804779E-14 3.521574E-13 -0.351 
v -4.692424E-14 0.6079498 -0.702 
v -9.023893E-14 3.647699 -0.351 
v -9.023893E-14 3.039749 -0.702 
v -1.010676E-13 4.863598 -0.351 
v -1.046772E-13 4.255649 -0.702 
v -1.118963E-13 6.079498 -0.351 
v -1.155058E-13 5.471549 -0.702 
v -1.227249E-13 7.295398 -0.351 
v -1.263345E-13 6.687448 -0.702 
v -3.17641E-13 8.511297 -0.351 
v -3.068124E-13 7.903348 -0.702 
v -3.573462E-13 9.727197 -0.351 
v -3.465175E-13 9.119247 -0.702 
v -3.392984E-13 9.727197 0.351 
v -1.046772E-13 7.295398 0.351 
v -3.970513E-14 1.2159 0.351 
v 3.609557E-15 3.521574E-13 0.351 
v -7.219114E-15 0.6079498 0.702 
v -2.959837E-13 8.511297 0.351 
v -3.068124E-13 9.119247 0.702 
v -2.671072E-13 7.903348 0.702 
v -8.662937E-14 6.687448 0.702 
v -7.219114E-14 3.647699 0.351 
v -6.497203E-14 4.255649 0.702 
v -8.301981E-14 2.431799 0.351 
v -5.05338E-14 3.039749 0.702 
v -5.05338E-14 1.82385 0.702 
v -10 4.863598 -0.351 
v -7.3 4.863598 -0.351 
v -10 5.471549 -0.702 
v -7.3 5.471549 -0.702 
v -10 4.863598 0.351 
v -10 5.471549 0.702 
v -7.3 4.863598 0.351 
v -7.3 5.471549 0.702 
v -2.7 5.471549 -0.702 
v -2.7 6.079498 -0.351 
v -2.7 3.647699 -0.351 
v -2.7 4.255649 -0.702 
v -10 1.2159 0.351 
v -10 1.82385 0.702 
v -7.3 4.255649 -0.702 
v -7.3 3.647699 -0.351 
v -7.3 2.431799 0.351 
v -7.3 3.039749 -0.702 
v -7.3 6.079498 -0.351 
v -7.3 7.295398 -0.351 
v -7.3 6.687448 -0.702 
v -7.3 3.647699 0.351 
v -7.3 3.039749 0.702 
v -7.3 7.295398 0.351 
v -7.3 6.687448 0.702 
v -7.3 6.079498 0.351 
v -7.3 4.255649 0.702 
v -10 6.079498 0.351 
v -2.7 2.431799 0.351 
v -2.7 3.647699 0.351 
v -2.7 3.039749 0.702 
v -2.7 4.255649 0.702 
v -2.7 3.039749 -0.702 
v -2.7 4.863598 -0.351 
v -2.7 7.295398 -0.351 
v -2.7 7.295398 0.351 
v -2.7 6.687448 0.702 
v -2.7 6.687448 -0.702 
v -10 0.6079498 0.702 
v -10 0 0.351 
v -10 0 0 
v -10 0 -0.351 
v -10 0.6079498 -0.702 
v -10 1.2159 -0.351 
v -10 9.727197 0.351 
v -10 9.727197 -0.351 
v -10 8.511297 -0.351 
v -10 7.295398 -0.351 
v -10 6.079498 -0.351 
v -10 3.647699 -0.351 
v -10 9.119247 -0.702 
v -10 7.903348 -0.702 
v -10 6.687448 -0.702 
v -10 4.255649 -0.702 
v -10 3.039749 -0.702 
v -10 2.431799 0.351 
v -10 3.647699 0.351 
v -10 3.039749 0.702 
v -10 4.255649 0.702 
v -10 7.295398 0.351 
v -10 6.687448 0.702 
v -10 8.511297 0.351 
v -10 7.903348 0.702 
v -10 9.119247 0.702 

vn 0 0.5000001 0.8660254
vn 0 0.5000001 -0.8660253
vn 0 0.5000002 -0.8660253
vn 0 1 0
vn 0 -0.5000001 0.8660254
vn 1 0 0
vn 0 -0.5000001 -0.8660254
vn 0 0.5000001 -0.8660254
vn 0 -0.5000002 -0.8660253
vn 0 -0.5 0.8660254
vn -1 0 0
vn 0 0.5000001 0.8660253
vn 0 -0.5000001 0.8660253
vn 0 -1 0
vn 0 0.5000001 -0.8660253
vn 0 -0.5000001 -0.8660253
vn 0 -0.4999998 -0.8660256
vn 0 -0.4999998 0.8660256
vn 0 0.5000002 0.8660253
vn 0 0.5000001 0.8660253
vn 0 -0.5 -0.8660254
vn 0 -0.5000002 0.8660253
vn 0 0.5000004 -0.8660253
vn 0 0.5000004 0.8660253
vn 0 0.4999999 -0.8660255
vn 0 0.4999999 0.8660255

vt -10.62992 17.27362
vt -10.62992 20.0374
vt -1.677674E-13 17.27362
vt -3.041519E-13 20.0374
vt 39.37008 4.836614
vt 2.385129E-13 4.836614
vt 39.37008 7.600394
vt 10.62992 7.600394
vt 3.395247E-13 7.600394
vt 28.74016 7.600394
vt -4.69771E-13 17.27362
vt -5.842706E-13 20.0374
vt 2.76378 7.18051
vt 1.38189 4.787006
vt 1.38189 9.574013
vt 0 0
vt 1.38189 1.386447E-12
vt 2.76378 2.393503
vt 1.38189 14.36102
vt 2.76378 11.96752
vt 1.38189 19.14803
vt 2.76378 16.75452
vt 1.38189 23.93503
vt 2.76378 21.54153
vt 1.38189 28.72204
vt 2.76378 26.32854
vt 1.38189 33.50904
vt 2.76378 31.11554
vt 1.38189 38.29605
vt 2.76378 35.90255
vt -1.38189 38.29605
vt -1.38189 28.72204
vt -1.38189 4.787006
vt -1.38189 1.386447E-12
vt -2.76378 2.393503
vt -1.38189 33.50904
vt -2.76378 35.90255
vt -2.76378 31.11554
vt -1.38189 23.93503
vt -2.76378 26.32854
vt -2.76378 21.54153
vt -1.38189 19.14803
vt -1.38189 14.36102
vt -2.76378 16.75452
vt -1.38189 9.574013
vt -2.76378 11.96752
vt -2.76378 7.18051
vt 39.37008 17.27362
vt 28.74016 17.27362
vt 39.37008 20.0374
vt 28.74016 20.0374
vt -39.37008 17.27362
vt -39.37008 20.0374
vt -28.74016 17.27362
vt -28.74016 20.0374
vt 10.62992 17.27362
vt 1.689165E-13 17.27362
vt 10.62992 20.0374
vt 2.976211E-13 20.0374
vt 10.62992 13.12795
vt 4.205378E-13 13.12795
vt 10.62992 15.89173
vt 5.426476E-13 15.89173
vt -39.37008 4.836614
vt -39.37008 7.600394
vt -2.231003E-13 4.836614
vt -3.325137E-13 7.600394
vt -39.37008 0.6909449
vt -39.37008 3.454724
vt -4.949949E-14 0.6909449
vt -1.668583E-13 3.454724
vt -5.255539E-14 0.6909449
vt -1.619542E-13 3.454724
vt 1.421085E-14 1.38189
vt -39.37008 1.38189
vt -39.37008 3.477546E-25
vt -7.105427E-14 -1.38189
vt -39.37008 -1.38189
vt 39.37008 0.6909449
vt 5.169128E-14 0.6909449
vt 39.37008 3.454724
vt 1.608488E-13 3.454724
vt 6.059233E-14 0.6909449
vt 1.638172E-13 3.454724
vt 10.62992 21.41929
vt 2.118125E-13 21.41929
vt 10.62992 24.18307
vt 3.403853E-13 24.18307
vt -10.62992 21.41929
vt -10.62992 24.18307
vt -2.106518E-13 21.41929
vt -3.469105E-13 24.18307
vt 5.058719E-13 21.41929
vt 6.280507E-13 24.18307
vt 1.38189 1.334848E-12
vt -1.12573E-12 1.334848E-12
vt -1.38189 1.334848E-12
vt -5.124036E-13 21.41929
vt -6.269032E-13 24.18307
vt -2.377621E-13 4.836614
vt -10.62992 7.600394
vt -3.462547E-13 7.600394
vt -28.74016 7.600394
vt 10.62992 1.38189
vt 28.74016 1.38189
vt 10.62992 -1.38189
vt 28.74016 -1.38189
vt 2.170889E-13 4.836614
vt 3.347018E-13 7.600394
vt 4.632393E-13 17.27362
vt 5.854181E-13 20.0374
vt -10.62992 13.12795
vt -10.62992 15.89173
vt -4.270749E-13 13.12795
vt -5.41511E-13 15.89173
vt -1.25124E-13 13.12795
vt -2.61514E-13 15.89173
vt 39.37008 29.71063
vt 1.230825E-12 29.71063
vt 39.37008 32.47441
vt 1.340166E-12 32.47441
vt -1.409946E-14 1.38189
vt 39.37008 1.38189
vt 5.695481E-14 -1.38189
vt 39.37008 -1.38189
vt 39.37008 21.41929
vt 28.74016 21.41929
vt 39.37008 24.18307
vt 28.74016 24.18307
vt 1.26284E-13 13.12795
vt 2.549885E-13 15.89173
vt -39.37008 29.71063
vt -39.37008 32.47441
vt -1.228847E-12 29.71063
vt -1.346282E-12 32.47441
vt 10.62992 8.982284
vt 6.942835E-14 8.982284
vt 10.62992 11.74606
vt 2.123499E-13 11.74606
vt -10.62992 25.56496
vt -28.74016 25.56496
vt -4.713967E-13 25.56496
vt -39.37008 25.56496
vt -39.37008 28.32874
vt -1.170167E-12 28.32874
vt -1.07276E-12 25.56496
vt -1.175868E-12 28.32874
vt -39.37008 8.982284
vt -39.37008 11.74606
vt -28.74016 8.982284
vt -28.74016 11.74606
vt 39.37008 8.982284
vt 28.74016 8.982284
vt 39.37008 11.74606
vt 28.74016 11.74606
vt -39.37008 13.12795
vt -39.37008 15.89173
vt -28.74016 13.12795
vt -28.74016 15.89173
vt 39.37008 13.12795
vt 28.74016 13.12795
vt 39.37008 15.89173
vt 28.74016 15.89173
vt 4.642238E-13 8.982284
vt 4.879111E-13 11.74606
vt -10.62992 1.38189
vt -10.62992 -1.38189
vt -28.74016 1.38189
vt -28.74016 -1.38189
vt -1.232097E-12 29.71063
vt -1.341536E-12 32.47441
vt 39.37008 25.56496
vt 1.074954E-12 25.56496
vt 39.37008 28.32874
vt 1.184071E-12 28.32874
vt 28.74016 25.56496
vt 4.635379E-13 25.56496
vt 1.16866E-12 28.32874
vt 10.62992 25.56496
vt -39.37008 21.41929
vt -39.37008 24.18307
vt -28.74016 21.41929
vt -28.74016 24.18307
vt 1.240297E-12 29.71063
vt 1.343726E-12 32.47441
vt -10.62992 8.982284
vt -10.62992 11.74606
vt -6.827924E-14 8.982284
vt -2.188807E-13 11.74606
vt -4.707664E-13 8.982284
vt -4.867855E-13 11.74606

usemtl wood
usemap wood

f 2/2/1 1/1/1 3/3/1
f 3/3/1 4/4/1 2/2/1
f 6/6/3 5/5/2 7/7/2
f 7/7/2 8/8/2 6/6/3
f 6/6/3 8/8/2 9/9/2
f 7/7/4 10/10/4 8/8/4
f 1/2/5 11/1/5 12/11/5
f 12/11/5 3/12/5 1/2/5
f 13/14/6 6/13/6 9/15/6
f 13/14/6 9/15/6 14/16/6
f 13/14/6 14/16/6 15/17/6
f 15/17/6 16/18/6 13/14/6
f 9/15/6 17/19/6 14/16/6
f 9/15/6 18/20/6 17/19/6
f 17/19/6 19/21/6 14/16/6
f 17/19/6 20/22/6 19/21/6
f 19/21/6 21/23/6 14/16/6
f 19/21/6 22/24/6 21/23/6
f 21/23/6 23/25/6 14/16/6
f 21/23/6 24/26/6 23/25/6
f 23/25/6 25/27/6 14/16/6
f 23/25/6 26/28/6 25/27/6
f 25/27/6 27/29/6 14/16/6
f 25/27/6 28/30/6 27/29/6
f 27/29/6 29/31/6 14/16/6
f 29/31/6 30/32/6 14/16/6
f 30/32/6 31/33/6 14/16/6
f 32/34/6 14/16/6 31/33/6
f 31/33/6 33/35/6 32/34/6
f 34/36/6 29/31/6 35/37/6
f 34/36/6 36/38/6 30/32/6
f 4/39/6 30/32/6 37/40/6
f 4/39/6 3/41/6 12/42/6
f 38/43/6 12/42/6 39/44/6
f 40/45/6 38/43/6 41/46/6
f 31/33/6 40/45/6 42/47/6
f 30/32/4 40/45/4 31/33/4
f 30/32/4 38/43/4 40/45/4
f 30/32/4 12/42/4 38/43/4
f 12/42/4 30/32/4 4/39/4
f 29/31/4 34/36/4 30/32/4
f 44/49/7 43/48/7 45/50/7
f 45/50/7 46/51/7 44/49/7
f 48/53/5 47/52/5 49/54/5
f 49/54/5 50/55/5 48/53/5
f 22/57/8 51/56/8 52/58/8
f 52/58/8 21/59/8 22/57/8
f 17/61/9 53/60/9 54/62/9
f 54/62/9 20/63/9 17/61/9
f 56/65/10 55/64/10 31/66/10
f 31/66/10 42/67/10 56/65/10
f 58/19/6 57/22/6 44/21/6
f 58/19/6 44/21/6 59/45/6
f 58/19/6 59/45/6 10/15/6
f 10/15/6 60/20/6 58/19/6
f 44/21/6 61/23/6 59/45/6
f 44/21/6 46/24/6 61/23/6
f 61/23/6 62/25/6 59/45/6
f 61/23/6 63/26/6 62/25/6
f 62/25/6 64/43/6 59/45/6
f 64/43/6 65/46/6 59/45/6
f 64/43/6 62/25/6 66/32/6
f 66/32/6 67/40/6 68/39/6
f 49/42/6 68/39/6 50/41/6
f 49/42/6 69/44/6 64/43/6
f 66/32/4 68/39/4 64/43/4
f 64/43/4 68/39/4 49/42/4
f 70/53/1 48/52/1 50/54/1
f 50/54/1 68/55/1 70/53/1
f 72/19/11 71/15/11 73/20/11
f 11/21/11 72/19/11 74/22/11
f 2/23/11 11/21/11 1/24/11
f 8/45/11 71/15/11 53/43/11
f 53/43/11 75/46/11 8/45/11
f 71/15/11 76/42/11 53/43/11
f 71/15/11 52/39/11 76/42/11
f 71/15/11 77/32/11 52/39/11
f 71/15/11 78/25/11 77/32/11
f 2/23/11 79/26/11 78/25/11
f 80/40/11 52/39/11 77/32/11
f 51/41/11 76/42/11 52/39/11
f 54/44/11 53/43/11 76/42/11
f 71/15/4 72/19/4 78/25/4
f 72/19/4 11/21/4 78/25/4
f 11/21/4 2/23/4 78/25/4
f 55/69/12 81/68/12 33/70/12
f 33/70/12 31/71/12 55/69/12
f 81/69/13 82/68/13 32/72/13
f 32/72/13 33/73/13 81/69/13
f 14/16/14 32/74/14 82/75/14
f 82/75/14 83/76/14 14/16/14
f 15/77/14 14/16/14 83/76/14
f 83/76/14 84/78/14 15/77/14
f 16/80/15 85/79/15 86/81/15
f 86/81/15 13/82/15 16/80/15
f 15/83/16 84/79/16 85/81/16
f 85/81/16 16/84/16 15/83/16
f 24/86/8 80/85/8 77/87/8
f 77/87/8 23/88/8 24/86/8
f 78/90/1 79/89/1 37/91/1
f 37/91/1 30/92/1 78/90/1
f 21/93/17 52/85/17 80/87/17
f 80/87/17 24/94/17 21/93/17
f 55/14/11 82/95/11 81/18/11
f 83/96/11 82/95/11 55/14/11
f 83/96/11 55/14/11 87/29/11
f 83/96/11 87/29/11 88/31/11
f 83/96/11 88/31/11 89/36/11
f 83/96/11 89/36/11 90/32/11
f 83/96/11 90/32/11 91/39/11
f 83/96/11 91/39/11 43/42/11
f 83/96/11 43/42/11 92/43/11
f 83/96/11 92/43/11 7/45/11
f 83/96/11 7/45/11 86/33/11
f 84/97/11 83/96/11 86/33/11
f 86/33/11 85/35/11 84/97/11
f 93/37/11 89/36/11 88/31/11
f 94/38/11 90/32/11 89/36/11
f 95/40/11 91/39/11 90/32/11
f 45/41/11 43/42/11 91/39/11
f 96/44/11 92/43/11 43/42/11
f 97/46/11 7/45/11 92/43/11
f 5/47/11 86/33/11 7/45/11
f 98/15/11 55/14/11 56/13/11
f 99/19/11 98/15/11 100/20/11
f 47/21/11 99/19/11 101/22/11
f 70/23/11 47/21/11 48/24/11
f 102/25/11 70/23/11 103/26/11
f 104/27/11 102/25/11 105/28/11
f 104/27/11 106/30/11 87/29/11
f 55/14/4 98/15/4 87/29/4
f 98/15/4 99/19/4 87/29/4
f 99/19/4 70/23/4 87/29/4
f 99/19/4 47/21/4 70/23/4
f 70/23/4 102/25/4 87/29/4
f 102/25/4 104/27/4 87/29/4
f 79/90/18 2/89/18 4/98/18
f 4/98/18 37/99/18 79/90/18
f 71/101/20 42/100/19 40/102/20
f 42/100/19 71/101/20 98/65/20
f 98/65/20 56/64/20 42/100/19
f 71/101/4 59/103/4 98/65/4
f 59/105/4 71/104/4 8/106/4
f 8/106/4 10/107/4 59/105/4
f 13/108/21 86/5/21 5/7/21
f 5/7/21 6/109/21 13/108/21
f 46/49/8 45/48/8 91/50/8
f 91/50/8 61/51/8 46/49/8
f 19/110/7 76/56/7 51/58/7
f 51/58/7 22/111/7 19/110/7
f 74/113/22 72/112/22 38/114/22
f 38/114/22 39/115/22 74/113/22
f 11/113/1 74/112/1 39/116/1
f 39/116/1 12/117/1 11/113/1
f 28/119/23 93/118/23 88/120/23
f 88/120/23 27/121/23 28/119/23
f 87/123/4 29/122/4 27/124/4
f 27/124/4 88/125/4 87/123/4
f 61/127/17 91/126/17 95/128/17
f 95/128/17 63/129/17 61/127/17
f 20/130/8 54/60/8 76/62/8
f 76/62/8 19/131/8 20/130/8
f 87/133/24 106/132/24 35/134/24
f 35/134/24 29/135/24 87/133/24
f 18/137/25 75/136/25 53/138/25
f 53/138/25 17/139/25 18/137/25
f 66/141/4 78/140/4 30/142/4
f 105/144/5 102/143/5 66/141/5
f 66/141/5 30/142/13 105/144/5
f 30/142/13 36/145/13 105/144/5
f 104/144/24 105/143/24 36/146/24
f 36/146/24 34/147/24 104/144/24
f 99/149/26 100/148/26 65/150/26
f 65/150/26 64/151/26 99/149/26
f 60/153/25 97/152/25 92/154/25
f 92/154/25 58/155/25 60/153/25
f 101/157/22 99/156/22 64/158/22
f 64/158/22 69/159/22 101/157/22
f 58/161/9 92/160/9 96/162/9
f 96/162/9 57/163/9 58/161/9
f 9/164/7 8/136/7 75/138/7
f 75/138/7 18/165/7 9/164/7
f 77/167/14 78/166/14 66/168/14
f 66/168/14 62/169/14 77/167/14
f 106/133/18 104/132/18 34/170/18
f 34/170/18 35/171/18 106/133/18
f 26/173/23 94/172/23 89/174/23
f 89/174/23 25/175/23 26/173/23
f 100/149/5 98/148/5 59/150/5
f 59/150/5 65/151/5 100/149/5
f 62/176/7 90/172/7 94/174/7
f 94/174/7 23/177/16 62/176/7
f 94/174/7 26/178/16 23/177/16
f 77/179/4 62/176/4 23/177/4
f 57/161/8 96/160/8 43/162/8
f 43/162/8 44/163/8 57/161/8
f 103/181/18 70/180/18 68/182/18
f 68/182/18 67/183/18 103/181/18
f 102/181/1 103/180/1 67/182/1
f 67/182/1 66/183/1 102/181/1
f 63/127/8 95/126/8 90/128/8
f 90/128/8 62/129/8 63/127/8
f 25/184/17 89/118/17 93/120/17
f 93/120/17 28/185/17 25/184/17
f 72/187/26 73/186/26 41/188/26
f 41/188/26 38/189/26 72/187/26
f 10/153/7 7/152/7 97/154/7
f 97/154/7 60/155/7 10/153/7
f 73/187/5 71/186/5 40/190/5
f 40/190/5 41/191/5 73/187/5
f 47/157/1 101/156/1 69/158/1
f 69/158/1 49/159/1 47/157/1
g frame 1

v -2.7 7.295398 -0.351 
v -2.7 7.295398 0.351 
v -7.3 7.295398 -0.351 
v -7.3 7.295398 0.351 
v -6.687187 3.044612 -0.351 
v -3.312812 3.044612 -0.351 
v -6.687187 6.682586 -0.351 
v -3.312812 6.682586 -0.351 
v -3.056829 2.788629 0.351 
v -3.056829 6.938568 0.351 
v -6.94317 6.938568 0.351 
v -6.94317 2.788629 0.351 
v -3.312812 3.044612 0.05099997 
v -4.799 3.044612 -0.2505 
v -5.201 3.044612 -0.2505 
v -5.201 3.044612 -0.04950002 
v -4.799 3.044612 -0.04950002 
v -6.687187 3.044612 0.05099997 
v -4.799 6.682586 -0.04950002 
v -3.312812 6.682586 0.05099997 
v -6.687187 6.682586 0.05099997 
v -4.799 6.682586 -0.2505 
v -5.201 6.682586 -0.04950002 
v -5.201 6.682586 -0.2505 
v -6.687187 4.662599 -0.2505 
v -6.687187 5.064598 -0.2505 
v -6.687187 5.064598 -0.04950002 
v -6.687187 4.662599 -0.04950002 
v -6.94317 2.788629 0.05099997 
v -3.056829 2.788629 0.05099997 
v -3.056829 6.938568 0.05099997 
v -6.94317 6.938568 0.05099997 
v -3.312812 4.662599 -0.2505 
v -3.312812 4.662599 -0.04950002 
v -3.312812 5.064598 -0.04950002 
v -3.312812 5.064598 -0.2505 
v -4.799 4.662599 -0.2505 
v -4.799 4.662599 -0.04950002 
v -5.201 4.662599 -0.2505 
v -4.799 5.064598 -0.2505 
v -5.201 5.064598 -0.2505 
v -4.799 5.064598 -0.04950002 
v -5.201 5.064598 -0.04950002 
v -5.201 4.662599 -0.04950002 

vn 0 0 -1
vn 0 0 1

vt 0 2.76378
vt -5.374882E-26 -3.406381E-25
vt -18.11024 2.76378
vt -18.11024 -1.674768E-25
vt 3.320439E-14 4.437628E-15
vt 3.320439E-14 2.76378
vt 18.11024 4.437628E-15
vt 18.11024 2.76378
vt 5.87754E-27 6.803447E-13
vt 4.718004E-12 19.14803
vt 2.76378 7.034373E-13
vt 2.76378 19.14803
vt 0 1.383782E-12
vt 15.69759 2.412648
vt 18.11024 1.383782E-12
vt 18.11024 19.14803
vt 2.412648 2.412648
vt 15.69759 16.73538
vt -7.105427E-13 19.14803
vt 2.412648 16.73538
vt -2.76378 -2.087711E-39
vt -4.718004E-12 19.14803
vt -2.76378 19.14803
vt -18.11024 2.087219E-12
vt -1.404841 1.404841
vt 5.285186E-26 6.803447E-13
vt 7.105427E-13 19.14803
vt -1.404841 17.74319
vt -16.70539 17.74319
vt -16.70539 1.404841
vt -18.11024 19.14803
vt 2.412648 1.582677
vt 8.26378 0.3956693
vt 2.412648 3.192759E-15
vt 15.69759 3.192759E-15
vt 9.846457 0.3956693
vt 9.846457 1.187008
vt 8.26378 1.187008
vt 15.69759 1.582677
vt -2.412648 3.192759E-15
vt -8.26378 1.187008
vt -2.412648 1.582677
vt -15.69759 1.582677
vt -8.26378 0.3956693
vt -9.846457 1.187008
vt -15.69759 3.192759E-15
vt -9.846457 0.3956693
vt -0.3956693 8.782675
vt -0.3956693 10.36535
vt -4.121148E-12 16.73538
vt -1.582677 16.73538
vt -1.187008 10.36535
vt -1.582677 2.412648
vt -5.968559E-13 2.412648
vt -1.187008 8.782675
vt -2.412648 2.412648
vt -2.412648 16.73538
vt -15.69759 16.73538
vt -15.69759 2.412648
vt 1.404841 1.582677
vt 1.404841 2.76378
vt 16.70539 1.582677
vt 16.70539 2.76378
vt 1.582677 1.404841
vt 1.582677 17.74319
vt 2.76378 1.404841
vt 2.76378 17.74319
vt -1.404841 2.76378
vt -1.404841 1.582677
vt -16.70539 2.76378
vt -16.70539 1.582677
vt -1.582677 1.404841
vt -2.76378 1.404841
vt -1.582677 17.74319
vt -2.76378 17.74319
vt 4.121148E-12 16.73538
vt 0.3956693 8.782675
vt 5.968559E-13 2.412648
vt 1.582677 2.412648
vt 1.187008 8.782675
vt 1.187008 10.36535
vt 0.3956693 10.36535
vt 1.582677 16.73538
vt -0.3956693 2.412648
vt -1.187008 2.412648
vt -2.412648 1.187008
vt -2.412648 0.3956693
vt 9.846457 2.412648
vt 8.26378 2.412648
vt 9.846457 8.782675
vt 8.26378 8.782675
vt 2.412648 10.36535
vt 2.412648 8.782675
vt 15.69759 8.782675
vt 8.26378 10.36535
vt 9.846457 10.36535
vt 15.69759 10.36535
vt 8.26378 16.73538
vt 9.846457 16.73538
vt -8.26378 10.36535
vt -9.846457 10.36535
vt -8.26378 16.73538
vt -9.846457 16.73538
vt -2.412648 10.36535
vt -15.69759 8.782675
vt -9.846457 8.782675
vt -8.26378 8.782675
vt -2.412648 8.782675
vt -15.69759 10.36535
vt -8.26378 2.412648
vt -9.846457 2.412648
vt 15.69759 0.3956693
vt 15.69759 1.187008
vt 0.3956693 16.73538
vt 1.187008 16.73538
vt 2.412648 0.3956693
vt 2.412648 1.187008
vt -0.3956693 16.73538
vt -1.187008 16.73538
vt 0.3956693 2.412648
vt 1.187008 2.412648
vt -15.69759 0.3956693
vt -15.69759 1.187008

usemtl woodDark
usemap woodDark

f 8/193/14 71/192/14 59/194/14
f 59/194/14 10/195/14 8/193/14
f 108/197/4 107/196/4 109/198/4
f 109/198/4 110/199/4 108/197/4
f 109/201/11 10/200/11 59/202/11
f 59/202/11 110/203/11 109/201/11
f 111/205/27 8/204/27 10/206/27
f 10/206/27 109/207/27 111/205/27
f 111/205/27 112/208/27 8/204/27
f 109/207/27 113/209/27 111/205/27
f 107/210/27 8/204/27 112/208/27
f 113/209/27 109/207/27 107/210/27
f 112/208/27 114/211/27 107/210/27
f 114/211/27 113/209/27 107/210/27
f 71/212/6 8/204/6 107/213/6
f 107/213/6 108/214/6 71/212/6
f 115/216/28 59/215/28 71/217/28
f 71/217/28 108/218/28 115/216/28
f 108/218/28 116/219/28 115/216/28
f 108/218/28 117/220/28 116/219/28
f 59/215/28 115/216/28 118/221/28
f 118/221/28 110/222/28 59/215/28
f 118/221/28 117/220/28 110/222/28
f 117/220/28 108/218/28 110/222/28
f 120/224/4 119/223/4 112/225/4
f 112/225/4 111/226/4 120/224/4
f 111/226/4 121/227/4 120/224/4
f 111/226/4 122/228/4 121/227/4
f 119/223/4 120/224/4 123/229/4
f 123/229/4 124/230/4 119/223/4
f 123/229/4 122/228/4 124/230/4
f 122/228/4 111/226/4 124/230/4
f 125/232/14 114/231/14 126/233/14
f 126/233/14 127/234/14 125/232/14
f 125/232/14 128/235/14 114/231/14
f 127/234/14 129/236/14 125/232/14
f 113/237/14 114/231/14 128/235/14
f 129/236/14 127/234/14 113/237/14
f 128/235/14 130/238/14 113/237/14
f 130/238/14 129/236/14 113/237/14
f 132/240/6 131/239/6 113/241/6
f 113/241/6 127/242/6 132/240/6
f 127/242/6 133/243/6 132/240/6
f 127/242/6 124/244/6 133/243/6
f 131/239/6 124/244/6 111/245/6
f 111/245/6 113/241/6 131/239/6
f 131/239/6 134/246/6 124/244/6
f 134/246/6 133/243/6 124/244/6
f 119/247/28 135/221/28 136/216/28
f 136/216/28 137/219/28 119/247/28
f 137/219/28 126/248/28 119/247/28
f 137/219/28 127/249/28 126/248/28
f 135/221/28 119/247/28 124/250/28
f 124/250/28 138/220/28 135/221/28
f 124/250/28 127/249/28 138/220/28
f 127/249/28 137/219/28 138/220/28
f 115/252/4 136/251/4 135/253/4
f 135/253/4 118/254/4 115/252/4
f 137/256/11 136/255/11 115/257/11
f 115/257/11 116/258/11 137/256/11
f 137/260/14 116/259/14 117/261/14
f 117/261/14 138/262/14 137/260/14
f 118/264/6 135/263/6 138/265/6
f 138/265/6 117/266/6 118/264/6
f 139/268/11 114/267/11 112/269/11
f 112/269/11 119/270/11 139/268/11
f 119/270/11 140/271/11 139/268/11
f 119/270/11 141/272/11 140/271/11
f 114/267/11 139/268/11 142/273/11
f 142/273/11 126/274/11 114/267/11
f 142/273/11 141/272/11 126/274/11
f 141/272/11 119/270/11 126/274/11
f 120/275/6 143/239/6 144/246/6
f 144/246/6 123/276/6 120/275/6
f 120/275/11 144/246/11 143/239/11
f 144/246/11 120/275/11 123/276/11
f 139/278/14 140/277/14 144/232/14
f 144/232/14 143/235/14 139/278/14
f 139/278/4 144/232/4 140/277/4
f 144/232/4 139/278/4 143/235/4
f 120/280/27 121/279/27 145/281/27
f 145/281/27 143/282/27 120/280/27
f 143/282/27 145/281/27 142/283/27
f 142/283/27 139/284/27 143/282/27
f 145/281/27 131/285/27 142/283/27
f 131/285/27 146/286/27 142/283/27
f 131/285/27 147/287/27 146/286/27
f 131/285/27 132/288/27 147/287/27
f 128/289/27 146/286/27 147/287/27
f 147/287/27 130/290/27 128/289/27
f 120/280/28 145/281/28 121/279/28
f 145/281/28 120/280/28 143/282/28
f 143/282/28 142/283/28 145/281/28
f 142/283/28 143/282/28 139/284/28
f 145/281/28 142/283/28 131/285/28
f 131/285/28 142/283/28 146/286/28
f 131/285/28 146/286/28 147/287/28
f 131/285/28 147/287/28 132/288/28
f 128/289/28 147/287/28 146/286/28
f 147/287/28 128/289/28 130/290/28
f 149/292/28 148/291/28 125/293/28
f 125/293/28 129/294/28 149/292/28
f 141/295/28 148/291/28 134/296/28
f 141/295/28 134/296/28 150/297/28
f 141/295/28 150/297/28 144/298/28
f 144/298/28 140/299/28 141/295/28
f 148/291/28 133/300/28 134/296/28
f 123/301/28 144/298/28 150/297/28
f 150/297/28 122/302/28 123/301/28
f 149/292/27 125/293/27 148/291/27
f 125/293/27 149/292/27 129/294/27
f 141/295/27 134/296/27 148/291/27
f 141/295/27 150/297/27 134/296/27
f 141/295/27 144/298/27 150/297/27
f 144/298/27 141/295/27 140/299/27
f 148/291/27 134/296/27 133/300/27
f 123/301/27 150/297/27 144/298/27
f 150/297/27 123/301/27 122/302/27
f 148/291/4 149/292/4 133/300/4
f 148/291/4 133/300/4 149/292/4
f 149/228/4 147/227/4 132/303/4
f 132/303/4 133/304/4 149/228/4
f 149/228/14 132/303/14 147/227/14
f 132/303/14 149/228/14 133/304/14
f 129/306/11 130/305/11 147/273/11
f 147/273/11 149/272/11 129/306/11
f 129/306/6 147/273/6 130/305/6
f 147/273/6 129/306/6 149/272/6
f 141/308/4 142/307/4 146/224/4
f 146/224/4 148/229/4 141/308/4
f 141/308/14 146/224/14 142/307/14
f 146/224/14 141/308/14 148/229/14
f 146/240/6 128/309/6 125/310/6
f 125/310/6 148/243/6 146/240/6
f 146/240/11 125/310/11 128/309/11
f 125/310/11 146/240/11 148/243/11
f 145/268/11 121/311/11 122/312/11
f 122/312/11 150/271/11 145/268/11
f 145/268/6 122/312/6 121/311/6
f 122/312/6 145/268/6 150/271/6
f 131/313/14 145/238/14 150/236/14
f 150/236/14 134/314/14 131/313/14
f 131/313/4 150/236/4 145/238/4
f 150/236/4 131/313/4 134/314/4
