# Exported using Kenney Suite 1.2 

mtllib presentRound.mtl 

g Group 46

v -0.14904 2.329101 1.80504 
v -0.2054668 2.329101 2.233644 
v -0.2054668 2.329101 1.376436 
v -0.3709019 2.329101 0.9770401 
v -0.3709019 2.329101 2.63304 
v -0.4735788 2.329101 1.80504 
v -0.5189473 2.329101 2.149648 
v -0.5189473 2.329101 1.460432 
v -0.6340712 2.329101 0.6340712 
v -0.6519608 2.329101 1.139309 
v -0.9770401 2.329101 0.3709019 
v -0.8635548 2.329101 0.8635548 
v -1.139309 2.329101 0.6519608 
v -1.376436 2.329101 0.2054668 
v -1.460432 2.329101 0.5189473 
v -1.80504 2.329101 0.14904 
v -1.80504 2.329101 0.4735788 
v -2.233644 2.329101 0.2054668 
v -2.149648 2.329101 0.5189473 
v -2.470771 2.329101 0.6519608 
v -2.63304 2.329101 0.3709019 
v -2.746525 2.329101 0.8635548 
v -2.976009 2.329101 0.6340712 
v -2.958119 2.329101 1.139309 
v -3.091133 2.329101 1.460432 
v -3.239178 2.329101 0.9770401 
v -3.136501 2.329101 1.80504 
v -3.239178 2.329101 2.63304 
v -3.091133 2.329101 2.149648 
v -2.958119 2.329101 2.470771 
v -2.976009 2.329101 2.976009 
v -2.746525 2.329101 2.746525 
v -2.470771 2.329101 2.958119 
v -2.63304 2.329101 3.239178 
v -2.149648 2.329101 3.091133 
v -2.233644 2.329101 3.404613 
v -1.80504 2.329101 3.136501 
v -1.80504 2.329101 3.46104 
v -1.460432 2.329101 3.091133 
v -1.139309 2.329101 2.958119 
v -1.376436 2.329101 3.404613 
v -0.8635548 2.329101 2.746525 
v -0.9770401 2.329101 3.239178 
v -0.6519608 2.329101 2.470771 
v -0.6340712 2.329101 2.976009 
v -3.404613 2.329101 1.376436 
v -3.404613 2.329101 2.233644 
v -3.46104 2.329101 1.80504 
v -0.14904 0 1.80504 
v -0.2054668 0 1.376436 
v -0.2054668 0 2.233644 
v -0.3709019 0 0.9770401 
v -0.3709019 0 2.63304 
v -0.6340712 0 2.976009 
v -0.6340712 0 0.6340712 
v -0.9770401 0 3.239178 
v -0.9770401 0 0.3709019 
v -1.376436 0 0.2054668 
v -1.376436 0 3.404613 
v -1.80504 0 3.46104 
v -1.80504 0 0.14904 
v -2.233644 0 3.404613 
v -2.233644 0 0.2054668 
v -2.63304 0 0.3709019 
v -2.63304 0 3.239178 
v -2.976009 0 2.976009 
v -2.976009 0 0.6340712 
v -3.239178 0 0.9770401 
v -3.239178 0 2.63304 
v -3.404613 0 2.233644 
v -3.404613 0 1.376436 
v -3.46104 0 1.80504 
v -0.4735788 0.06776 1.80504 
v -0.5189473 0.06776 2.149648 
v -0.5189473 0.06776 1.460432 
v -0.6519608 0.06776 1.139309 
v -0.6519608 0.06776 2.470771 
v -0.8635548 0.06776 0.8635548 
v -0.8635548 0.06776 2.746525 
v -1.139309 0.06776 2.958119 
v -1.139309 0.06776 0.6519608 
v -1.460432 0.06776 3.091133 
v -1.460432 0.06776 0.5189473 
v -1.80504 0.06776 0.4735788 
v -1.80504 0.06776 3.136501 
v -2.149648 0.06776 3.091133 
v -2.149648 0.06776 0.5189473 
v -2.470771 0.06776 0.6519608 
v -2.470771 0.06776 2.958119 
v -2.746525 0.06776 0.8635548 
v -2.746525 0.06776 2.746525 
v -2.958119 0.06776 1.139309 
v -2.958119 0.06776 2.470771 
v -3.091133 0.06776 1.460432 
v -3.091133 0.06776 2.149648 
v -3.136501 0.06776 1.80504 

vn 0 1 0
vn 0 -1 0
vn 0.461551 0 -0.8871137
vn 0.7071068 0 -0.7071068
vn 0.5374875 0 -0.8432718
vn 0.7071068 0 -0.7071068
vn 0.8871137 0 0.461551
vn 0.8432718 0 0.5374875
vn 0.7071069 0 0.7071066
vn 0.9536499 0 0.3009183
vn 0.8432718 0 -0.5374875
vn 0.8871137 0 -0.461551
vn 0.9536499 0 -0.3009183
vn 0.9763442 0 -0.2162221
vn 0.9763442 0 0.2162221
vn -0.2162222 0 0.9763442
vn -0.461551 0 0.8871137
vn -0.3009183 0 0.9536499
vn -0.5374876 0 0.8432716
vn -0.7071068 0 0.7071068
vn -0.7071068 0 0.7071068
vn -0.8432716 0 -0.5374876
vn -0.8871137 0 -0.461551
vn -0.9536499 0 -0.3009182
vn -0.9763442 0 -0.2162221
vn 0.2162221 0 -0.9763442
vn 0.3009183 0 -0.9536499
vn -0.7071066 0 -0.7071069
vn -0.5374875 0 -0.8432718
vn -0.461551 0 -0.8871137
vn 0.5374876 0 0.8432716
vn 0.3009182 0 0.9536499
vn 0.461551 0 0.8871137
vn 0.2162221 0 0.9763442
vn -0.8871137 0 0.461551
vn -0.8432716 0 0.5374876
vn -0.9763442 0 0.2162222
vn -0.9536499 0 0.3009183
vn -0.3009183 0 -0.9536499
vn -0.2162221 0 -0.9763442
vn -0.4615511 0 -0.8871137
vn -0.5374874 0 -0.8432718
vn -0.7071067 0 -0.7071068
vn -0.8432718 0 -0.5374875
vn -0.9763442 0 -0.2162221
vn -0.9536499 0 -0.3009183
vn -0.9990385 0 0.04384191
vn -0.9990385 0 -0.04384197
vn -0.9763442 0 0.216222
vn -0.8432717 0 0.5374876
vn -0.8871137 0 0.461551
vn -0.7071068 0 0.7071068
vn -0.5374876 0 0.8432717
vn -0.461551 0 0.8871137
vn -0.3009183 0 0.9536499
vn -0.216222 0 0.9763442
vn -0.04384191 0 0.9990385
vn 0.04384197 0 0.9990385
vn 0.2162221 0 0.9763442
vn 0.3009183 0 0.9536499
vn 0.461551 0 0.8871137
vn 0.5374875 0 0.8432718
vn 0.7071068 0 0.7071067
vn 0.8432718 0 0.5374874
vn 0.8871137 0 0.4615511
vn 0.9536499 0 0.3009183
vn 0.9763442 0 0.216222
vn 0.9990385 0 0.04384189
vn 0.9990385 0 -0.04384195
vn 0.9536499 0 -0.3009184
vn 0.8871137 0 -0.461551
vn 0.8432719 0 -0.5374873
vn 0.5374873 0 -0.8432719
vn 0.461551 0 -0.8871137
vn 0.3009184 0 -0.9536499
vn 0.04384195 0 -0.9990385
vn -0.04384189 0 -0.9990385
vn -0.216222 0 -0.9763442
vn -0.3009183 0 -0.9536499
vn 0.9990385 0 0.043842
vn -0.9990385 0 -0.043842
vn -0.9990385 0 0.04384205
vn -0.043842 0 -0.9990385
vn 0.043842 0 0.9990385
vn -0.04384205 0 0.9990385

vt 0 0
vt NaN 0
vt -8.977651 0
vt -8.977651 10.27071
vt -6.61379 0
vt 8.977651 10.27071
vt 8.977651 0
vt 6.61379 10.27071
vt 6.61379 0
vt -11.34151 0
vt -11.34151 10.27071
vt -6.61379 10.27071
vt 11.34151 10.27071
vt 11.34151 0

usemtl _defaultMat
usemap _defaultMat

f 2/1/1 1/1/1 3/2/1
f 3/1/1 4/1/1 2/2/1
f 4/1/1 5/1/1 2/2/1
f 4/1/1 6/1/1 5/2/1
f 5/1/1 6/1/1 7/2/1
f 4/1/1 8/1/1 6/2/1
f 4/1/1 9/1/1 8/2/1
f 9/1/1 10/1/1 8/2/1
f 9/1/1 11/1/1 10/2/1
f 11/1/1 12/1/1 10/2/1
f 11/1/1 13/1/1 12/2/1
f 11/1/1 14/1/1 13/2/1
f 14/1/1 15/1/1 13/2/1
f 14/1/1 16/1/1 15/2/1
f 16/1/1 17/1/1 15/2/1
f 16/1/1 18/1/1 17/2/1
f 18/1/1 19/1/1 17/2/1
f 18/1/1 20/1/1 19/2/1
f 18/1/1 21/1/1 20/2/1
f 21/1/1 22/1/1 20/2/1
f 21/1/1 23/1/1 22/2/1
f 23/1/1 24/1/1 22/2/1
f 23/1/1 25/1/1 24/2/1
f 23/1/1 26/1/1 25/2/1
f 26/1/1 27/1/1 25/2/1
f 27/1/1 26/1/1 28/2/1
f 29/1/1 27/1/1 28/2/1
f 30/1/1 29/1/1 31/2/1
f 32/1/1 30/1/1 31/2/1
f 33/1/1 32/1/1 34/2/1
f 35/1/1 33/1/1 36/2/1
f 37/1/1 35/1/1 38/2/1
f 39/1/1 37/1/1 38/2/1
f 40/1/1 39/1/1 41/2/1
f 42/1/1 40/1/1 43/2/1
f 44/1/1 42/1/1 43/2/1
f 7/1/1 44/1/1 45/2/1
f 7/1/1 45/1/1 5/2/1
f 44/1/1 43/1/1 45/2/1
f 40/1/1 41/1/1 43/2/1
f 39/1/1 38/1/1 41/2/1
f 35/1/1 36/1/1 38/2/1
f 33/1/1 34/1/1 36/2/1
f 32/1/1 31/1/1 34/2/1
f 29/1/1 28/1/1 31/2/1
f 26/1/1 46/1/1 28/2/1
f 46/1/1 47/1/1 28/2/1
f 46/1/1 48/1/1 47/2/1
f 50/1/2 49/1/2 51/2/2
f 51/1/2 52/1/2 50/2/2
f 51/1/2 53/1/2 52/2/2
f 53/1/2 54/1/2 52/2/2
f 54/1/2 55/1/2 52/2/2
f 54/1/2 56/1/2 55/2/2
f 56/1/2 57/1/2 55/2/2
f 56/1/2 58/1/2 57/2/2
f 56/1/2 59/1/2 58/2/2
f 59/1/2 60/1/2 58/2/2
f 60/1/2 61/1/2 58/2/2
f 60/1/2 62/1/2 61/2/2
f 62/1/2 63/1/2 61/2/2
f 62/1/2 64/1/2 63/2/2
f 62/1/2 65/1/2 64/2/2
f 65/1/2 66/1/2 64/2/2
f 66/1/2 67/1/2 64/2/2
f 66/1/2 68/1/2 67/2/2
f 66/1/2 69/1/2 68/2/2
f 69/1/2 70/1/2 68/2/2
f 70/1/2 71/1/2 68/2/2
f 70/1/2 72/1/2 71/2/2
f 55/1/4 57/1/3 11/2/5
f 11/1/5 9/1/6 55/2/4
f 53/1/8 5/1/7 45/2/9
f 5/1/7 53/1/8 51/2/10
f 45/1/9 54/1/9 53/2/8
f 52/1/12 4/1/11 3/2/13
f 3/1/13 50/1/14 52/2/12
f 51/1/10 2/1/15 5/2/7
f 65/4/17 62/3/16 36/5/18
f 36/4/18 34/3/19 65/5/17
f 55/4/4 9/3/6 4/5/11
f 4/4/11 52/3/12 55/5/4
f 66/4/20 65/3/17 34/5/19
f 34/4/19 31/3/21 66/5/20
f 26/4/23 68/3/22 71/5/24
f 71/4/24 46/3/25 26/5/23
f 57/4/3 58/3/26 14/5/27
f 14/4/27 11/3/5 57/5/3
f 64/7/29 67/6/28 23/8/28
f 23/7/28 21/6/30 64/8/29
f 23/6/28 67/8/28 68/9/22
f 68/6/22 26/8/23 23/9/28
f 59/11/32 56/10/31 43/3/33
f 43/11/33 41/10/34 59/3/32
f 56/11/31 54/10/9 45/3/9
f 45/11/9 43/10/33 56/3/31
f 28/12/36 69/4/35 66/3/20
f 66/12/20 31/4/21 28/3/36
f 47/12/38 70/4/37 69/3/35
f 69/12/35 28/4/36 47/3/38
f 63/14/39 64/13/29 21/6/30
f 21/14/30 18/13/40 63/6/39
f 74/13/1 73/6/1 75/7/1
f 75/13/1 76/6/1 74/7/1
f 76/13/1 77/6/1 74/7/1
f 76/13/1 78/6/1 77/7/1
f 78/13/1 79/6/1 77/7/1
f 78/13/1 80/6/1 79/7/1
f 78/13/1 81/6/1 80/7/1
f 81/13/1 82/6/1 80/7/1
f 81/13/1 83/6/1 82/7/1
f 83/13/1 84/6/1 82/7/1
f 84/13/1 85/6/1 82/7/1
f 84/13/1 86/6/1 85/7/1
f 84/13/1 87/6/1 86/7/1
f 87/13/1 88/6/1 86/7/1
f 88/13/1 89/6/1 86/7/1
f 88/13/1 90/6/1 89/7/1
f 90/13/1 91/6/1 89/7/1
f 90/13/1 92/6/1 91/7/1
f 92/13/1 93/6/1 91/7/1
f 92/13/1 94/6/1 93/7/1
f 94/13/1 95/6/1 93/7/1
f 94/13/1 96/6/1 95/7/1
f 79/13/28 80/6/41 40/7/42
f 40/13/42 42/6/43 79/7/28
f 44/13/44 77/6/23 79/7/28
f 79/13/28 42/6/43 44/7/44
f 7/13/46 74/6/45 77/7/23
f 77/13/23 44/6/44 7/7/46
f 6/13/48 73/6/47 74/7/45
f 74/13/45 7/6/46 6/7/48
f 8/13/49 75/6/38 73/7/47
f 73/13/47 6/6/48 8/7/49
f 10/13/51 76/6/50 75/7/38
f 75/13/38 8/6/49 10/7/51
f 12/13/52 78/6/21 76/7/50
f 76/13/50 10/6/51 12/7/52
f 81/13/53 78/6/21 12/7/52
f 12/13/52 13/6/54 81/7/53
f 83/13/55 81/6/53 13/7/54
f 13/13/54 15/6/56 83/7/55
f 84/13/57 83/6/55 15/7/56
f 15/13/56 17/6/58 84/7/57
f 87/13/59 84/6/57 17/7/58
f 17/13/58 19/6/60 87/7/59
f 88/13/61 87/6/59 19/7/60
f 19/13/60 20/6/62 88/7/61
f 90/13/9 88/6/61 20/7/62
f 20/13/62 22/6/63 90/7/9
f 90/13/9 22/6/63 24/7/64
f 24/13/64 92/6/65 90/7/9
f 92/13/65 24/6/64 25/7/66
f 25/13/66 94/6/67 92/7/65
f 94/13/67 25/6/66 27/7/68
f 27/13/68 96/6/69 94/7/67
f 96/13/69 27/6/68 29/7/14
f 29/13/14 95/6/70 96/7/69
f 95/13/70 29/6/14 30/7/71
f 30/13/71 93/6/72 95/7/70
f 93/13/72 30/6/71 32/7/6
f 32/13/6 91/6/6 93/7/72
f 89/13/73 91/6/6 32/7/6
f 32/13/6 33/6/74 89/7/73
f 86/13/75 89/6/73 33/7/74
f 33/13/74 35/6/26 86/7/75
f 85/13/76 86/6/75 35/7/26
f 35/13/26 37/6/77 85/7/76
f 82/13/78 85/6/76 37/7/77
f 37/13/77 39/6/79 82/7/78
f 80/13/41 82/6/78 39/7/79
f 39/13/79 40/6/42 80/7/41

usemtl ribbon
usemap ribbon

f 50/5/14 3/12/13 1/4/69
f 1/4/69 49/3/80 50/5/14
f 49/3/80 1/4/69 2/11/15
f 2/11/15 51/10/10 49/3/80
f 48/8/82 72/9/81 70/7/37
f 70/7/37 47/6/38 48/8/82
f 58/9/26 61/7/83 16/6/76
f 16/6/76 14/8/27 58/9/26
f 18/13/40 16/6/76 61/7/83
f 61/7/83 63/14/39 18/13/40
f 60/10/84 59/3/32 41/4/34
f 41/4/34 38/11/85 60/10/84
f 62/3/16 60/5/84 38/12/85
f 38/12/85 36/4/18 62/3/16
f 46/6/25 71/7/24 72/14/81
f 72/14/81 48/13/82 46/6/25
g lid 2

v 0 2.329101 1.80504 
v -0.06150525 2.329101 1.337861 
v -0.06150525 2.329101 2.272219 
v -0.2418295 2.329101 0.9025199 
v -0.2418295 2.329101 2.70756 
v -0.528684 2.329101 3.081396 
v -0.528684 2.329101 0.528684 
v -0.9025199 2.329101 3.368251 
v -0.9025199 2.329101 0.2418295 
v -1.337861 2.329101 0.06150525 
v -1.337861 2.329101 3.548575 
v -1.80504 2.329101 3.61008 
v -1.80504 2.329101 0 
v -2.272219 2.329101 3.548575 
v -2.272219 2.329101 0.06150525 
v -2.70756 2.329101 0.2418295 
v -2.70756 2.329101 3.368251 
v -3.081396 2.329101 3.081396 
v -3.081396 2.329101 0.528684 
v -3.368251 2.329101 0.9025199 
v -3.368251 2.329101 2.70756 
v -3.548575 2.329101 2.272219 
v -3.548575 2.329101 1.337861 
v -3.61008 2.329101 1.80504 
v -0.9025199 2.815883 0.2418295 
v -0.528684 2.815883 0.528684 
v -0.2418295 2.815883 2.70756 
v -0.528684 2.815883 3.081396 
v -0.2418295 2.815883 0.9025199 
v -0.06150525 2.815883 1.337861 
v -0.06150525 2.815883 2.272219 
v -2.272219 2.815883 3.548575 
v -2.70756 2.815883 3.368251 
v -3.081396 2.815883 3.081396 
v -3.368251 2.815883 0.9025199 
v -3.548575 2.815883 1.337861 
v -1.337861 2.815883 0.06150525 
v -3.081396 2.815883 0.528684 
v -2.70756 2.815883 0.2418295 
v -0.9025199 2.815883 3.368251 
v -1.337861 2.815883 3.548575 
v -3.368251 2.815883 2.70756 
v -3.548575 2.815883 2.272219 
v -2.272219 2.815883 0.06150525 
v -1.337861 2.815883 2.272219 
v -2.272219 2.815883 2.272219 
v -2.272219 2.815883 1.337861 
v -1.337861 2.815883 1.337861 
v 0 2.815883 1.80504 
v -3.61008 2.815883 1.80504 
v -1.80504 2.815883 0 
v -1.80504 2.815883 3.61008 


vt 6.711481 11.39876
vt 6.711481 6.711481
vt 0.3085457 11.39876
vt 6.711481 0.3085457
vt 9.055119 0
vt 9.055119 18.11024
vt 6.711481 17.80169
vt 11.39876 0.3085457
vt 11.39876 17.80169
vt 11.39876 6.711481
vt 11.39876 11.39876
vt 17.80169 6.711481
vt 17.80169 11.39876
vt 18.11024 9.055119
vt 0.3085457 6.711481
vt 0 9.055119

usemtl _defaultMat
usemap _defaultMat

f 98/1/2 97/1/2 99/2/2
f 99/1/2 100/1/2 98/2/2
f 99/1/2 101/1/2 100/2/2
f 101/1/2 102/1/2 100/2/2
f 102/1/2 103/1/2 100/2/2
f 102/1/2 104/1/2 103/2/2
f 104/1/2 105/1/2 103/2/2
f 104/1/2 106/1/2 105/2/2
f 104/1/2 107/1/2 106/2/2
f 107/1/2 108/1/2 106/2/2
f 108/1/2 109/1/2 106/2/2
f 108/1/2 110/1/2 109/2/2
f 110/1/2 111/1/2 109/2/2
f 110/1/2 112/1/2 111/2/2
f 110/1/2 113/1/2 112/2/2
f 113/1/2 114/1/2 112/2/2
f 114/1/2 115/1/2 112/2/2
f 114/1/2 116/1/2 115/2/2
f 114/1/2 117/1/2 116/2/2
f 117/1/2 118/1/2 116/2/2
f 118/1/2 119/1/2 116/2/2
f 118/1/2 120/1/2 119/2/2
f 103/1/4 105/1/3 121/2/5
f 121/1/5 122/1/6 103/2/4
f 101/1/8 123/1/7 124/2/9
f 123/1/7 101/1/8 99/2/10
f 124/1/9 102/1/9 101/2/8
f 100/1/12 125/1/11 126/2/13
f 126/1/13 98/1/14 100/2/12
f 99/1/10 127/1/15 123/2/7
f 113/4/17 110/3/16 128/5/18
f 128/4/18 129/3/19 113/5/17
f 103/4/4 122/3/6 125/5/11
f 125/4/11 100/3/12 103/5/4
f 114/4/20 113/3/17 129/5/19
f 129/4/19 130/3/21 114/5/20
f 131/4/23 116/3/22 119/5/24
f 119/4/24 132/3/25 131/5/23
f 105/4/3 106/3/26 133/5/27
f 133/4/27 121/3/5 105/5/3
f 112/7/29 115/6/28 134/8/28
f 134/7/28 135/6/30 112/8/29
f 134/6/28 115/8/28 116/9/22
f 116/6/22 131/8/23 134/9/28
f 107/11/32 104/10/31 136/3/33
f 136/11/33 137/10/34 107/3/32
f 104/11/31 102/10/9 124/3/9
f 124/11/9 136/10/33 104/3/31
f 138/12/36 117/4/35 114/3/20
f 114/12/20 130/4/21 138/3/36
f 139/12/38 118/4/37 117/3/35
f 117/12/35 138/4/36 139/3/38
f 111/14/39 112/13/29 135/6/30
f 135/14/30 140/13/40 111/6/39
f 123/16/1 127/15/1 141/17/1
f 141/16/1 124/15/1 123/17/1
f 141/16/1 136/15/1 124/17/1
f 141/16/1 137/15/1 136/17/1
f 128/16/1 142/15/1 139/17/1
f 139/16/1 129/15/1 128/17/1
f 139/16/1 130/15/1 129/17/1
f 139/16/1 138/15/1 130/17/1
f 143/16/1 140/15/1 135/17/1
f 135/16/1 132/15/1 143/17/1
f 135/16/1 134/15/1 132/17/1
f 134/16/1 131/15/1 132/17/1
f 144/16/1 126/15/1 125/17/1
f 125/16/1 122/15/1 144/17/1
f 122/16/1 121/15/1 144/17/1
f 121/16/1 133/15/1 144/17/1

usemtl ribbon
usemap ribbon

f 98/5/14 126/12/13 145/4/69
f 145/4/69 97/3/80 98/5/14
f 97/3/80 145/4/69 127/11/15
f 127/11/15 99/10/10 97/3/80
f 146/8/82 120/9/81 118/7/37
f 118/7/37 139/6/38 146/8/82
f 106/9/26 109/7/83 147/6/76
f 147/6/76 133/8/27 106/9/26
f 140/13/40 147/6/76 109/7/83
f 109/7/83 111/14/39 140/13/40
f 108/10/84 107/3/32 137/4/34
f 137/4/34 148/11/85 108/10/84
f 110/3/16 108/5/84 148/12/85
f 148/12/85 128/4/18 110/3/16
f 132/6/25 119/7/24 120/14/81
f 120/14/81 146/13/82 132/6/25
f 144/16/1 133/18/1 147/19/1
f 147/19/1 141/15/1 144/16/1
f 141/15/1 147/19/1 148/20/1
f 148/20/1 137/21/1 141/15/1
f 147/19/1 140/22/1 148/20/1
f 140/22/1 128/23/1 148/20/1
f 140/22/1 143/24/1 128/23/1
f 143/24/1 142/25/1 128/23/1
f 142/25/1 143/24/1 132/26/1
f 132/26/1 139/27/1 142/25/1
f 132/26/1 146/28/1 139/27/1
f 144/16/1 141/15/1 127/17/1
f 126/29/1 144/16/1 127/17/1
f 127/17/1 145/30/1 126/29/1
