# Exported using Kenney Suite 1.2 

mtllib present.mtl 

g present

v -3.5574 0 0.1694 
v -3.5574 2.91368 0.1694 
v -3.5574 0 1.378028 
v -3.5574 2.91368 1.378028 
v -2.348772 0 3.5574 
v -3.5574 0 3.5574 
v -2.348772 2.91368 3.5574 
v -3.5574 2.91368 3.5574 
v -0.1694 0 3.5574 
v -1.378028 0 3.5574 
v -0.1694 2.91368 3.5574 
v -1.378028 2.91368 3.5574 
v -0.1694 0 2.348772 
v -0.1694 0 1.378028 
v -0.1694 0 0.1694 
v -1.378028 0 0.1694 
v -2.348772 0 0.1694 
v -3.5574 0 2.348772 
v -0.4561831 0.06776 0.4561831 
v -0.4561831 2.91368 0.4561831 
v -0.4561831 0.06776 3.270617 
v -0.4561831 2.91368 3.270617 
v -2.348772 2.91368 0.1694 
v -3.270617 0.06776 0.4561831 
v -3.270617 0.06776 3.270617 
v -3.270617 2.91368 0.4561831 
v -3.270617 2.91368 3.270617 
v -3.5574 2.91368 2.348772 
v -0.1694 2.91368 0.1694 
v -0.1694 2.91368 1.378028 
v -0.1694 2.91368 2.348772 
v -1.378028 2.91368 0.1694 

vn -1 0 0
vn 0 0 1
vn 0 -1 0
vn 0 1 0
vn 0 0 -1
vn 1 0 0

vt 0.6669291 0
vt 0.6669291 11.47118
vt 5.425306 0
vt 5.425306 11.47118
vt -9.247135 0
vt -14.00551 0
vt -9.247135 11.47118
vt -14.00551 11.47118
vt -0.6669291 0
vt -5.425306 0
vt -0.6669291 11.47118
vt -5.425306 11.47118
vt -0.6669291 14.00551
vt -0.6669291 9.247135
vt -5.425306 14.00551
vt -0.6669291 5.425306
vt -0.6669291 0.6669291
vt -5.425306 0.6669291
vt -9.247135 14.00551
vt -9.247135 0.6669291
vt -14.00551 14.00551
vt -14.00551 0.6669291
vt -14.00551 9.247135
vt -14.00551 5.425306
vt 1.795997 0.2667716
vt 1.795997 11.47118
vt 12.87644 0.2667716
vt 12.87644 11.47118
vt 14.00551 0
vt 9.247135 0
vt 14.00551 11.47118
vt 9.247135 11.47118
vt 1.795997 1.795997
vt 1.795997 12.87644
vt 12.87644 1.795997
vt 12.87644 12.87644
vt -1.795997 0.2667716
vt -12.87644 0.2667716
vt -1.795997 11.47118
vt -12.87644 11.47118
vt 0.6669291 5.425306
vt 0.6669291 0.6669291
vt 5.425306 0.6669291
vt 0.6669291 9.247135
vt 0.6669291 14.00551
vt 9.247135 0.6669291
vt 14.00551 0.6669291
vt 5.425306 14.00551
vt 9.247135 14.00551
vt 14.00551 14.00551
vt 14.00551 5.425306
vt 14.00551 9.247135

usemtl packageWhite
usemap packageWhite

f 2/2/1 1/1/1 3/3/1
f 3/3/1 4/4/1 2/2/1
f 6/6/2 5/5/2 7/7/2
f 7/7/2 8/8/2 6/6/2
f 10/10/2 9/9/2 11/11/2
f 11/11/2 12/12/2 10/10/2
f 13/14/3 9/13/3 10/15/3
f 10/15/3 14/16/3 13/14/3
f 10/15/3 15/17/3 14/16/3
f 10/15/3 16/18/3 15/17/3
f 10/15/3 5/19/3 16/18/3
f 5/19/3 17/20/3 16/18/3
f 5/19/3 6/21/3 17/20/3
f 6/21/3 1/22/3 17/20/3
f 6/21/4 18/23/4 1/22/4
f 18/23/4 3/24/4 1/22/4
f 20/26/1 19/25/1 21/27/1
f 21/27/1 22/28/1 20/26/1
f 17/30/5 1/29/5 2/31/5
f 2/31/5 23/32/5 17/30/5
f 21/34/4 19/33/4 24/35/4
f 24/35/4 25/36/4 21/34/4
f 24/38/2 19/37/2 20/39/2
f 20/39/2 26/40/2 24/38/2
f 24/37/6 26/39/6 27/40/6
f 27/40/6 25/38/6 24/37/6
f 21/25/5 25/27/5 27/28/5
f 27/28/5 22/26/5 21/25/5
f 28/32/1 18/30/1 6/29/1
f 6/29/1 8/31/1 28/32/1
f 15/9/6 29/11/6 30/12/6
f 30/12/6 14/10/6 15/9/6
f 13/5/6 31/7/6 11/8/6
f 11/8/6 9/6/6 13/5/6
f 15/1/5 16/3/5 32/4/5
f 32/4/5 29/2/5 15/1/5
f 20/33/4 30/41/4 29/42/4
f 29/42/4 32/43/4 20/33/4
f 20/33/4 31/44/4 30/41/4
f 20/33/4 11/45/4 31/44/4
f 32/43/4 26/35/4 20/33/4
f 32/43/4 23/46/4 26/35/4
f 23/46/4 2/47/4 26/35/4
f 2/47/4 27/36/4 26/35/4
f 11/45/4 20/33/4 22/34/4
f 22/34/4 12/48/4 11/45/4
f 22/34/4 27/36/4 12/48/4
f 27/36/4 7/49/4 12/48/4
f 27/36/4 8/50/4 7/49/4
f 27/36/4 2/47/4 8/50/4
f 2/47/4 4/51/4 8/50/4
f 4/51/4 28/52/4 8/50/4

usemtl ribbon
usemap ribbon

f 16/3/5 17/30/5 23/32/5
f 23/32/5 32/4/5 16/3/5
f 14/10/6 30/12/6 31/7/6
f 31/7/6 13/5/6 14/10/6
f 5/5/2 10/10/2 12/12/2
f 12/12/2 7/7/2 5/5/2
f 4/4/1 3/3/1 18/30/1
f 18/30/1 28/32/1 4/4/1
g lid

v -3.5574 2.60876 3.5574 
v -0.1694 2.60876 3.5574 
v -3.5574 2.91368 3.5574 
v -0.1694 2.91368 3.5574 
v -0.1694 2.60876 0.1694 
v -0.1694 2.91368 0.1694 
v -3.7268 2.60876 0 
v -2.348772 2.60876 0 
v -3.7268 3.35412 0 
v -2.348772 3.35412 -1.222918E-15 
v 0 2.60876 0 
v 0 3.35412 0 
v -1.378028 2.60876 0 
v -1.378028 3.35412 -1.222918E-15 
v 0 2.60876 3.7268 
v -1.378028 2.60876 3.7268 
v 0 3.35412 3.7268 
v -1.378028 3.35412 3.7268 
v -3.7268 3.35412 2.348772 
v -3.7268 3.35412 3.7268 
v -3.7268 2.60876 2.348772 
v -3.7268 2.60876 3.7268 
v 0 3.35412 2.348772 
v 0 2.60876 2.348772 
v -6.11459E-16 3.35412 1.378028 
v -6.11459E-16 2.60876 1.378028 
v -2.348772 2.60876 3.7268 
v -3.5574 2.60876 0.1694 
v -3.7268 2.60876 1.378028 
v -3.7268 3.35412 1.378028 
v -3.5574 2.91368 0.1694 
v -1.378028 3.35412 1.378028 
v -0.9343325 3.35412 2.348772 
v -1.378028 3.35412 2.792468 
v -2.348772 3.35412 2.348772 
v -2.348772 3.35412 3.7268 
v -2.348772 3.35412 0.9343325 
v -2.792468 3.35412 1.378028 
v -1.378028 3.35412 2.348772 
v -2.348772 3.35412 1.378028 
v -2.91383 3.35412 1.49939 
v -2.582791 3.35412 1.830429 
v -2.520613 3.35412 1.892607 
v -2.035005 3.35412 2.035005 
v -1.892607 3.35412 2.520613 
v -1.830429 3.35412 2.582791 
v -1.49939 3.35412 2.91383 
v -1.691795 3.35412 1.691795 
v -1.206187 3.35412 1.834192 
v -1.144009 3.35412 1.896371 
v -0.81297 3.35412 2.22741 
v -1.834192 3.35412 1.206187 
v -1.896371 3.35412 1.144009 
v -2.22741 3.35412 0.81297 
v -1.896371 4.164997 1.144009 
v -1.852578 3.593885 1.187802 
v -2.170577 3.759558 0.8698027 
v -2.117821 3.925232 0.9225586 
v -2.22741 4.164997 0.81297 
v -1.98791 3.925232 1.05247 
v -2.356515 3.759558 0.6838648 
v -2.117821 3.593885 0.9225586 
v -2.538998 3.593885 1.874222 
v -2.67433 3.925232 1.73889 
v -3.042935 3.759558 1.370285 
v -2.582791 4.164997 1.830429 
v -2.91383 4.164997 1.49939 
v -1.830429 4.164997 2.582791 
v -1.144009 4.164997 1.896371 
v -2.582791 3.593885 1.830429 
v -2.804242 3.593885 1.608979 
v -1.187802 3.593885 1.852578 
v -1.05247 3.925232 1.98791 
v -0.81297 4.164997 2.22741 
v -0.9225586 3.925232 2.117821 
v -0.8698027 3.759558 2.170577 
v -0.6838648 3.759558 2.356515 
v -0.9225586 3.593885 2.117821 
v -1.144009 3.593885 1.896371 
v -1.874222 3.593885 2.538998 
v -1.608979 3.593885 2.804242 
v -1.556223 3.759558 2.856997 
v -1.49939 4.164997 2.91383 
v -1.608979 3.925232 2.804242 
v -1.73889 3.925232 2.67433 
v -1.370285 3.759558 3.042935 
v -2.856997 3.759558 1.556223 
v -2.804242 3.925232 1.608979 

vn 0.9582992 0.05193481 -0.2810077
vn 0.9582993 0.05193504 -0.2810076
vn 0.9582993 0.05193526 -0.2810076
vn 0.7071068 0 -0.7071068
vn 0.7071066 0 -0.7071069
vn 0.7071068 0 -0.7071067
vn 0.7071069 0 -0.7071066
vn 0.7071068 0 -0.7071068
vn 0.7071068 0 -0.7071067
vn -0.6123036 -0.5001688 -0.6123036
vn -0.6123035 -0.5001687 -0.6123036
vn -0.6123035 -0.5001686 -0.6123036
vn -0.6447455 -0.4106174 -0.6447453
vn -0.6447455 -0.4106172 -0.6447456
vn -0.6447455 -0.4106175 -0.6447453
vn -0.6447455 -0.4106176 -0.6447453
vn -0.6447455 -0.4106173 -0.6447454
vn -0.7029854 -0.1078101 -0.7029854
vn -0.7029854 -0.1078102 -0.7029854
vn -0.7029855 -0.1078102 -0.7029854
vn -0.5912213 0.548557 -0.5912213
vn -0.5912213 0.5485569 -0.5912213
vn -0.5912212 0.5485569 -0.5912213
vn 0.5912213 0.548557 0.5912213
vn 0.5912213 0.5485569 0.5912213
vn 0.5912213 0.5485569 0.5912212
vn 0.7071065 0 -0.707107
vn 0.7071067 0 -0.7071068
vn 0.7071067 0 -0.7071068
vn 0.7071068 0 -0.7071068
vn 0.7071065 0 -0.707107
vn -0.9582993 0.05193502 0.2810075
vn -0.7071058 0 0.7071077
vn -0.7071068 0 0.7071068
vn -0.7071066 0 0.7071069
vn -0.7071069 0 0.7071066
vn -0.7071069 0 0.7071066
vn -0.7071069 0 0.7071066
vn -0.7071063 0 0.7071072
vn -0.707107 0 0.7071065
vn -0.7071071 0 0.7071064
vn -0.7071063 0 0.7071072
vn -0.6447458 0.4106165 -0.6447457
vn -0.6447456 0.410617 -0.6447456
vn -0.6447453 0.4106173 -0.6447455
vn 0.2810076 0.05193526 -0.9582993
vn 0.2810076 0.05193504 -0.9582993
vn 0.2810077 0.05193481 -0.9582992
vn 0.6447452 -0.4106173 0.6447456
vn 0.6447453 -0.4106174 0.6447456
vn 0.6447453 -0.4106174 0.6447456
vn 0.6447456 -0.4106174 0.6447452
vn 0.6447458 -0.4106174 0.6447451
vn 0.6447464 -0.4106171 0.6447447
vn 0.6447455 0.4106171 0.6447455
vn 0.6447455 0.4106172 0.6447455
vn 0.6447455 0.4106173 0.6447454
vn -0.6447455 -0.4106168 -0.6447457
vn -0.6447455 -0.4106171 -0.6447456
vn -0.6447454 -0.4106175 -0.6447453
vn 0.6123036 -0.5001688 0.6123036
vn 0.6123036 -0.5001687 0.6123035
vn 0.6123036 -0.5001686 0.6123035
vn 0.7029854 -0.1078101 0.7029854
vn 0.7029854 -0.1078102 0.7029854
vn 0.7029854 -0.1078102 0.7029855
vn 0.6447457 0.4106165 0.6447458
vn 0.6447456 0.410617 0.6447456
vn 0.6447455 0.4106173 0.6447453
vn 0.6447457 -0.4106168 0.6447455
vn 0.6447456 -0.4106171 0.6447455
vn 0.6447453 -0.4106175 0.6447454
vn -0.2810075 0.05193536 0.9582993
vn -0.2810076 0.05193511 0.9582993
vn -0.2810077 0.05193485 0.9582992
vn -0.7071072 0 0.7071063
vn -0.7071067 0 0.7071068
vn -0.7071072 0 0.7071063
vn -0.7071065 0 0.7071071
vn -0.6447455 0.4106171 -0.6447455
vn -0.6447455 0.4106172 -0.6447455
vn -0.6447454 0.4106173 -0.6447455

vt 0 0
vt NaN 0
vt 27.29379 7.105427E-15
vt 16.0133 -1.065814E-14
vt 27.29379 8.661417
vt 33.86001 17.42359
vt 32.44972 16.0133
vt 30.01319 21.27041
vt 16.0133 8.661417
vt 27.29379 1.065814E-14
vt 16.0133 1.065814E-14
vt -16.0133 -1.314504E-13
vt -27.29379 -1.314504E-13
vt -16.0133 8.661417
vt -27.29379 8.661417
vt -16.0133 -1.065814E-14
vt -27.29379 7.105427E-15
vt 43.30709 16.0133
vt 43.30709 27.29379
vt 29.29065 21.99295
vt 27.29379 27.29379
vt 23.64767 23.64767
vt 27.29379 43.30709
vt 21.99295 29.29065
vt 21.27041 30.01319
vt 17.42359 33.86001
vt 16.0133 43.30709
vt 16.0133 32.44972
vt 19.65942 19.65942
vt 16.0133 27.29379
vt 14.01644 21.31414
vt 13.2939 22.03668
vt 10.85736 27.29379
vt 9.447076 25.8835
vt 16.0133 16.0133
vt 21.31414 14.01644
vt 27.29379 -2.20238E-14
vt 16.0133 -2.20238E-14
vt 22.03668 13.2939
vt 25.8835 9.447076
vt 27.29379 10.85736
vt 6.010462E-13 16.0133
vt 5.939408E-13 27.29379
vt 27.29379 16.0133
vt -6.555906 19.35227
vt -7.187435 12.70673
vt -13.33315 9.916783
vt -7.452564 9.916783
vt 10.68833 13.37279
vt 9.821352 15.29799
vt 11.62231 18.08417
vt 6.182078 18.08417
vt 7.686421 15.29799
vt 5.462393 11.4476
vt 11.62231 8.661417
vt 13.744 13.37279
vt 9.821352 11.4476
vt 6.182078 8.661417
vt 5.160254 8.661417
vt 36.26298 12.64491
vt 24.98249 12.64491
vt 36.26298 17.09147
vt 24.98249 17.09147
vt 34.26853 12.66987
vt 26.97694 12.66987
vt 36.26298 12.66987
vt 36.26298 17.83694
vt 24.98249 12.66987
vt 24.98249 17.83694
vt 36.26298 11.96978
vt 24.98249 11.96978
vt 36.26298 18.64526
vt 24.98249 18.64526
vt 33.44286 7.241925
vt 27.80261 7.241925
vt 36.26298 18.51163
vt 24.98249 18.51163
vt -33.44286 7.241925
vt -36.26298 18.51163
vt -27.80261 7.241925
vt -24.98249 18.51163
vt 21.52778 13.80279
vt 29.50429 21.7793
vt 24.61003 10.72054
vt 32.58654 18.69705
vt -5.462393 11.4476
vt -7.686421 15.29799
vt -6.182078 18.08417
vt -11.62231 18.08417
vt -9.821352 15.29799
vt -10.68833 13.37279
vt -11.62231 8.661417
vt -13.744 13.37279
vt -9.821352 11.4476
vt -6.182078 11.4476
vt -6.182078 8.661417
vt -5.160254 8.661417
vt 16.03801 7.12563
vt 22.81526 16.56112
vt 21.9186 7.12563
vt 22.18373 9.915573
vt 10.72054 24.61003
vt 18.69705 32.58654
vt 13.80279 21.52778
vt 21.7793 29.50429
vt 36.26298 14.47082
vt 24.98249 14.47082
vt 36.26298 16.58223
vt 24.98249 16.58223
vt 7.452564 9.916783
vt 7.187435 12.70673
vt 13.33315 9.916783
vt 6.555906 19.35227
vt -24.98249 12.66987
vt -26.97694 12.66987
vt -24.98249 17.83694
vt -36.26298 17.83694
vt -34.26853 12.66987
vt -36.26298 12.66987
vt -36.26298 6.549894
vt -36.26298 11.71697
vt -24.98249 6.549894
vt -24.98249 11.71697
vt 36.26298 7.804603
vt 24.98249 7.804603
vt 36.26298 9.916011
vt 24.98249 9.916011
vt -36.26298 12.64491
vt -36.26298 17.09147
vt -24.98249 12.64491
vt -24.98249 17.09147
vt -10.72054 24.61003
vt -12.23017 23.10041
vt -18.69705 32.58654
vt -20.20668 31.07692
vt -36.26298 11.96978
vt -36.26298 18.64526
vt -24.98249 11.96978
vt -24.98249 18.64526
vt -36.26298 14.47082
vt -36.26298 16.58223
vt -24.98249 14.47082
vt -24.98249 16.58223
vt -36.26298 7.804603
vt -36.26298 9.916011
vt -24.98249 7.804603
vt -24.98249 9.916011
vt -21.9186 7.12563
vt -22.18373 9.915573
vt -16.03801 7.12563
vt -22.81526 16.56112
vt 36.26298 6.549894
vt 24.98249 6.549894
vt 36.26298 11.71697
vt 24.98249 11.71697
vt -23.10041 12.23017
vt -24.61003 10.72054
vt -31.07692 20.20668
vt -32.58654 18.69705

usemtl _defaultMat
usemap _defaultMat

f 34/53/5 33/53/5 35/54/5
f 35/53/5 36/53/5 34/54/5
f 38/53/1 37/53/1 34/54/1
f 34/53/1 36/53/1 38/54/1
f 40/53/5 39/53/5 41/54/5
f 41/53/5 42/53/5 40/54/5
f 44/53/5 43/53/5 45/54/5
f 45/53/5 46/53/5 44/54/5
f 48/53/2 47/53/2 49/54/2
f 49/53/2 50/53/2 48/54/2
f 52/53/1 51/53/1 53/54/1
f 53/53/1 54/53/1 52/54/1
f 56/53/6 55/53/6 49/54/6
f 49/53/6 47/53/6 56/54/6
f 43/53/6 44/53/6 57/54/6
f 57/53/6 58/53/6 43/54/6
f 34/53/3 56/53/3 47/54/3
f 34/53/3 58/53/3 56/54/3
f 58/53/3 34/53/3 37/54/3
f 43/53/3 58/53/3 37/54/3
f 47/53/3 48/53/3 34/54/3
f 48/53/3 33/53/3 34/54/3
f 48/53/3 59/53/3 33/54/3
f 59/53/3 54/53/3 33/54/3
f 54/53/3 60/53/3 33/54/3
f 60/53/3 54/53/3 39/54/3
f 37/53/3 60/53/3 45/54/3
f 37/53/3 45/53/3 43/54/3
f 60/53/3 40/53/3 45/54/3
f 60/53/3 39/53/3 40/54/3
f 54/53/4 53/53/4 39/54/4
f 53/53/4 61/53/4 39/54/4
f 41/53/1 39/53/1 61/54/1
f 61/53/1 62/53/1 41/54/1
f 60/53/6 63/53/6 35/54/6
f 35/53/6 33/53/6 60/54/6
f 38/53/3 36/53/3 35/54/3
f 35/53/3 63/53/3 38/54/3
f 60/53/2 37/53/2 38/54/2
f 38/53/2 63/53/2 60/54/2
f 57/56/4 44/55/4 46/57/4
f 46/56/4 64/55/4 57/57/4
f 49/56/4 55/55/4 65/57/4
f 65/56/4 50/55/4 49/57/4
f 65/56/4 66/55/4 50/57/4
f 68/56/4 67/55/4 51/57/4
f 51/56/4 52/55/4 68/57/4
f 69/56/4 42/55/4 41/57/4
f 41/56/4 70/55/4 69/57/4
f 41/56/4 62/55/4 70/57/4
f 52/56/2 54/55/2 59/57/2
f 59/56/2 68/55/2 52/57/2
f 65/59/4 71/58/4 66/60/4
f 72/59/4 69/58/4 70/60/4

usemtl ribbon
usemap ribbon

f 51/57/1 62/61/1 61/56/1
f 61/56/1 53/55/1 51/57/1
f 45/63/5 40/62/5 42/57/5
f 42/57/5 46/61/5 45/63/5
f 59/65/2 48/64/2 50/66/2
f 50/66/2 68/67/2 59/65/2
f 58/68/6 57/66/6 55/67/6
f 55/67/6 56/69/6 58/68/6
f 73/58/4 70/59/4 62/70/4
f 73/58/4 62/70/4 51/71/4
f 74/60/4 73/58/4 51/71/4
f 70/59/4 73/58/4 74/60/4
f 75/72/4 74/60/4 51/71/4
f 70/59/4 74/60/4 75/72/4
f 75/72/4 51/71/4 67/73/4
f 67/73/4 76/74/4 75/72/4
f 76/74/4 67/73/4 68/75/4
f 77/76/4 76/74/4 68/75/4
f 78/77/4 77/76/4 68/75/4
f 76/74/4 77/76/4 78/77/4
f 79/78/4 78/77/4 68/75/4
f 79/78/4 68/75/4 50/79/4
f 50/79/4 66/80/4 79/78/4
f 80/81/4 79/78/4 66/80/4
f 80/81/4 78/77/4 79/78/4
f 80/81/4 76/74/4 78/77/4
f 80/81/4 66/80/4 71/82/4
f 81/83/4 80/81/4 71/82/4
f 82/84/4 81/83/4 71/82/4
f 82/84/4 71/82/4 65/85/4
f 65/85/4 83/86/4 82/84/4
f 64/87/4 82/84/4 83/86/4
f 64/87/4 81/83/4 82/84/4
f 64/87/4 80/81/4 81/83/4
f 84/88/4 80/81/4 64/87/4
f 76/74/4 80/81/4 84/88/4
f 42/89/4 84/88/4 64/87/4
f 64/87/4 46/90/4 42/89/4
f 42/89/4 85/91/4 84/88/4
f 42/89/4 86/92/4 85/91/4
f 42/89/4 69/93/4 86/92/4
f 83/86/4 57/94/4 64/87/4
f 83/86/4 65/85/4 55/95/4
f 55/95/4 57/94/4 83/86/4
f 84/88/4 85/91/4 76/74/4
f 85/91/4 86/92/4 76/74/4
f 86/92/4 72/96/4 76/74/4
f 86/92/4 69/93/4 72/96/4
f 72/96/4 75/72/4 76/74/4
f 72/96/4 70/59/4 75/72/4
f 88/98/8 87/97/7 80/99/8
f 80/99/8 84/100/9 88/98/8
f 90/102/11 89/101/10 91/103/12
f 91/103/12 87/104/10 90/102/11
f 87/104/10 92/105/12 90/102/11
f 87/104/10 88/106/13 92/105/12
f 91/103/12 89/101/10 86/107/14
f 86/107/14 93/108/11 91/103/12
f 89/101/10 94/109/10 86/107/14
f 94/109/10 85/110/15 86/107/14
f 94/109/10 88/106/13 85/110/15
f 88/106/13 84/111/10 85/110/15
f 88/113/17 95/112/16 96/114/17
f 96/114/17 92/115/18 88/113/17
f 69/117/3 70/116/3 73/118/3
f 73/118/20 97/119/19 69/117/21
f 97/119/19 86/120/22 69/117/21
f 97/119/19 93/121/23 86/120/22
f 88/123/25 95/122/24 98/124/25
f 98/124/25 87/125/26 88/123/25
f 98/60/4 87/91/4 91/92/4
f 91/92/4 99/58/4 98/60/4
f 80/127/28 76/126/27 100/128/28
f 100/128/28 101/129/29 80/127/28
f 98/131/31 76/130/30 80/132/31
f 80/132/31 87/133/32 98/131/31
f 95/135/4 88/134/4 94/136/4
f 94/136/4 102/60/4 95/135/4
f 94/136/4 103/137/4 102/60/4
f 105/139/34 104/138/33 101/140/35
f 101/140/35 106/141/36 105/139/34
f 106/141/36 107/142/13 105/139/34
f 106/141/36 108/143/10 107/142/13
f 106/141/36 83/144/36 108/143/10
f 106/141/36 109/145/13 83/144/36
f 110/146/13 108/143/10 83/144/36
f 111/147/37 110/146/13 83/144/36
f 104/138/33 111/147/37 82/148/37
f 111/147/37 83/144/36 82/148/37
f 82/148/37 81/149/10 104/138/33
f 100/151/38 76/150/38 77/152/38
f 77/152/4 112/153/4 100/151/4
f 112/106/40 77/111/39 78/110/41
f 78/110/41 113/109/41 112/106/40
f 78/110/41 79/107/42 113/109/41
f 79/107/42 114/101/43 113/109/41
f 114/101/43 79/107/42 115/103/44
f 116/102/45 114/101/43 115/103/44
f 117/105/46 116/102/45 115/103/44
f 100/104/47 112/106/40 117/105/46
f 117/105/46 115/103/44 100/104/47
f 79/107/42 118/108/48 115/103/44
f 113/155/4 110/154/4 111/84/4
f 111/84/4 104/156/4 113/155/4
f 104/156/4 112/157/4 113/155/4
f 115/78/4 106/86/4 101/84/4
f 101/84/4 100/77/4 115/78/4
f 110/159/50 113/158/49 114/160/50
f 114/160/50 108/161/51 110/159/50
f 104/163/53 81/162/52 80/164/53
f 80/164/53 101/165/54 104/163/53
f 65/167/56 83/166/55 109/168/57
f 109/168/57 118/169/58 65/167/56
f 66/170/59 65/167/56 118/169/58
f 118/169/58 79/171/60 66/170/59
f 115/173/62 118/172/61 109/174/62
f 109/174/62 106/175/63 115/173/62
f 108/177/65 114/176/64 116/178/65
f 116/178/65 107/179/66 108/177/65
f 117/181/68 112/180/67 104/182/68
f 104/182/68 105/183/69 117/181/68
f 105/185/3 107/184/3 116/186/3
f 116/186/3 117/187/3 105/185/3
f 100/189/71 112/188/70 104/190/71
f 104/190/71 101/191/72 100/189/71
f 119/193/74 103/192/73 94/194/74
f 94/194/74 89/195/75 119/193/74
f 120/197/77 119/196/76 89/198/77
f 89/198/77 90/199/78 120/197/77
f 95/201/80 75/200/79 76/202/80
f 76/202/80 98/203/81 95/201/80
f 99/141/41 97/145/82 73/144/41
f 73/144/41 119/143/83 99/141/41
f 73/144/41 103/146/42 119/143/83
f 73/144/41 74/148/42 103/146/42
f 74/148/42 102/147/46 103/146/42
f 74/148/42 75/149/84 102/147/46
f 75/149/84 95/138/85 102/147/46
f 99/141/41 119/143/83 120/142/46
f 120/142/46 98/140/41 99/141/41
f 120/142/46 96/139/85 98/140/41
f 96/139/85 95/138/85 98/140/41
f 93/205/87 97/204/86 99/206/87
f 99/206/87 91/207/88 93/205/87
f 90/209/3 92/208/3 96/210/3
f 96/210/3 120/211/3 90/209/3
