# Exported using Kenney Suite 1.2 

mtllib rockFormationSmall.mtl 

g rockFormationSmall

v 0 0 4.67544 
v -2.699367 0 6.23392 
v -3.104219E-13 0 1.55848 
v -2.699367 0 0 
v -5.398733 0 4.67544 
v -5.398733 0 1.55848 
v -2.699367 3.11696 5.261428 
v -4.51334 3.11696 4.21413 
v -2.699367 6.67436 4.836329 
v -3.969148 6.67436 4.10322 
v -0.5398733 1.89728 1.870176 
v -0.5398733 1.89728 4.363744 
v -0.8853922 3.11696 2.119533 
v -0.8853922 3.11696 3.196862 
v -0.8853922 3.11696 4.21413 
v -4.85886 1.89728 1.870176 
v -4.85886 1.89728 3.652489 
v -4.85886 1.89728 4.363744 
v -2.699367 1.89728 0.623392 
v -3.165054 1.89728 2.019574 
v -1.61962 1.89728 1.246784 
v -2.865745 1.89728 3.652489 
v -4.51334 3.11696 3.616676 
v -1.429585 6.67436 3.391132 
v -1.429585 6.67436 4.10322 
v -2.122332 6.67436 2.852529 
v -2.797197 6.67436 3.685001 
v -2.885194 6.67436 3.204925 
v -3.969148 6.67436 3.685001 
v -2.839124 3.11696 3.616676 
v -2.964834 3.11696 2.930851 
v -1.875031 3.11696 2.427429 
v -3.090544 3.11696 2.245027 
v -1.792379 3.11696 1.595883 
v -2.699367 1.89728 5.610528 

vn 0 1 0
vn 0 -1 0
vn -0.4903884 0.195133 0.8493776
vn -0.4944075 0.1491475 0.8563389
vn -0.4973438 0.102938 0.8614249
vn -0.4973438 0.102938 0.8614249
vn 0.4973438 -0.102938 -0.8614249
vn 0.4944075 -0.1491475 -0.8563389
vn 0.4903884 -0.195133 -0.8493776
vn 0.4973438 -0.102938 -0.8614249
vn 0.961819 0.2736868 0
vn 0.9619256 0.2733116 0
vn 0.9620588 0.2728424 0
vn 0.9621385 0.2725609 0
vn 0.9725937 0.2325112 0
vn 0.9813963 0.1919933 0
vn -0.9619256 -0.2733115 0
vn -0.961819 -0.2736868 0
vn -0.9620588 -0.2728424 0
vn -0.9621385 -0.2725609 0
vn -0.9725937 -0.2325112 0
vn -0.9813963 -0.1919933 0
vn -0.961819 0.2736866 0
vn -0.9619789 0.2731239 0
vn 0.961819 -0.2736866 0
vn 0.9619789 -0.2731239 0
vn -0.977205 0.212298 0
vn 0.977205 -0.212298 0
vn 0 -0.02935015 -0.9995692
vn 0 -0.02935016 -0.9995692
vn 0 -0.01316918 -0.9999133
vn 0 0.003019485 -0.9999955
vn 0 0.01316918 0.9999133
vn 0 0.02935016 0.9995692
vn 0 0.02935015 0.9995692
vn 0 -0.003019485 0.9999955
vn -0.4180444 0.07908118 -0.9049779
vn -0.4180443 0.07908121 -0.904978
vn -0.4180443 0.07908124 -0.904978
vn 0.4180443 -0.07908121 0.904978
vn 0.4180444 -0.07908118 0.9049779
vn 0.4180443 -0.07908124 0.904978
vn 0 0.01920312 -0.9998156
vn 0 -0.01920312 0.9998156
vn -0.9885008 0.1512157 0
vn 0.9885008 -0.1512157 0
vn -0.9834052 0.02054561 0.1802552
vn -0.9835804 0.008129761 0.1802873
vn -0.9835118 0.01433788 0.1802748
vn -0.9835804 0.008129743 0.1802871
vn 0.9835118 -0.01433788 -0.1802748
vn 0.9835804 -0.008129761 -0.1802873
vn 0.9834052 -0.02054561 -0.1802552
vn 0.9835804 -0.008129744 -0.1802871
vn -0.9832608 0.02675261 0.1802288
vn -0.9832609 0.02675242 0.1802286
vn -0.9832609 0.02675243 0.1802287
vn 0.9832609 -0.02675243 -0.1802287
vn 0.9832609 -0.02675242 -0.1802286
vn 0.9832608 -0.02675262 -0.1802288
vn -0.4391718 0.189172 -0.8782609
vn -0.4391718 0.1891721 -0.8782609
vn -0.4391717 0.1891721 -0.8782609
vn 0.4391718 -0.1891721 0.8782609
vn 0.4391718 -0.189172 0.8782609
vn 0.4391717 -0.1891721 0.8782609
vn 0.4824402 0.2626902 0.8356107
vn 0.4839082 0.2516581 0.8381534
vn 0.4903884 0.195133 0.8493776
vn 0.4944074 0.1491476 0.8563389
vn -0.4903884 -0.195133 -0.8493776
vn -0.4839082 -0.2516581 -0.8381534
vn -0.4824402 -0.2626902 -0.8356107
vn -0.4944074 -0.1491476 -0.8563389
vn 0.4809094 0.2736867 -0.8329596
vn 0.4809095 0.2736867 -0.8329596
vn 0.4779497 0.293694 -0.8278332
vn -0.4809095 -0.2736867 0.8329596
vn -0.4809094 -0.2736867 0.8329596
vn -0.4779497 -0.293694 0.8278332
vn 0.4809094 0.2736868 0.8329596
vn 0.4809096 0.2736866 0.8329595
vn -0.4809095 -0.2736867 -0.8329595
vn -0.4809094 -0.2736868 -0.8329596
vn 0.4973438 0.102938 0.8614249
vn 0.4973438 0.102938 0.8614249
vn -0.4973438 -0.102938 -0.8614249
vn -0.4973438 -0.102938 -0.8614249
vn -0.4809094 0.2736867 -0.8329596
vn -0.4809094 0.2736867 -0.8329596
vn 0.4809093 -0.2736867 0.8329596
vn 0.4809094 -0.2736867 0.8329596
vn 0.4809093 -0.2736867 0.8329596
vn 0.6081175 0.1357402 -0.7821559
vn 0.6081173 0.1357402 -0.782156
vn 0.6081173 0.1357402 -0.782156
vn -0.6081173 -0.1357402 0.7821559
vn -0.6081175 -0.1357402 0.7821559
vn -0.6081173 -0.1357402 0.782156
vn 0.4763919 0.3036497 -0.8251349
vn 0.4763919 0.3036496 -0.8251349
vn 0.4763918 0.3036495 -0.825135
vn -0.4763919 -0.3036496 0.825135
vn -0.4763919 -0.3036497 0.8251349
vn -0.4763918 -0.3036495 0.825135
vn -0.4809094 0.2736866 0.8329596
vn -0.4809095 0.2736866 0.8329596
vn -0.4824401 0.2626902 0.8356107
vn -0.4839082 0.2516582 0.8381534
vn 0.4824401 -0.2626902 -0.8356107
vn 0.4809095 -0.2736866 -0.8329596
vn 0.4809094 -0.2736866 -0.8329596
vn 0.4839082 -0.2516582 -0.8381534
vn 0.9885008 0.1512156 0
vn -0.9885008 -0.1512156 0

vt 0 18.40724
vt 10.62743 24.54299
vt 1.222134E-12 6.135748
vt 10.62743 0
vt 21.25485 18.40724
vt 21.25485 6.135748
vt 1.153521 9.812709
vt -7.092925 9.812709
vt 0.3167098 23.89302
vt -5.455802 23.89302
vt -6.135748 5.034602E-13
vt -18.40724 5.069356E-13
vt -7.362898 7.766126
vt -17.18009 7.766126
vt -8.344617 12.75697
vt -12.58607 12.75697
vt -16.59106 12.75697
vt 6.135748 -5.817172
vt 7.362898 1.948954
vt 18.40724 -5.817172
vt 14.37988 1.948954
vt 17.18009 1.948954
vt 10.62743 2.454299
vt 12.46084 7.951077
vt 6.376456 4.908598
vt 19.12937 7.362898
vt 19.12937 14.37988
vt 11.28246 14.37988
vt 14.23888 6.963729
vt 16.59106 6.963729
vt 14.37988 1.972878
vt 17.18009 1.972878
vt 5.628285 13.35091
vt 10.62743 19.04066
vt 5.628285 16.15441
vt 8.355637 11.23043
vt 11.01259 14.50788
vt 11.35903 12.61781
vt 15.62657 16.15441
vt 15.62657 14.50788
vt 19.12937 7.044336
vt 11.28246 7.044336
vt 17.76906 11.8483
vt 11.17766 11.8483
vt 15.43549 12.67435
vt 10.70927 12.67435
vt 15.60334 26.72386
vt 12.29499 26.72386
vt 17.76906 12.54266
vt 11.17766 12.54266
vt 15.62657 26.55076
vt 11.01259 26.55076
vt 14.23888 9.443424
vt 14.50788 23.61186
vt 16.59106 9.443424
vt 16.15441 23.61186
vt 9.245211 12.16084
vt 10.36309 26.16681
vt 11.99029 12.16084
vt 12.28464 26.16681
vt 5.574176 7.100686
vt 6.50013 11.90429
vt 12.11008 7.100686
vt 9.245211 11.90429
vt 11.99029 11.90429
vt 14.7012 7.625766
vt 7.898526 7.625766
vt 14.83581 12.51595
vt 9.121564 12.51595
vt -10.43077 3.926221
vt -20.24797 3.926221
vt -11.31432 8.873431
vt -19.56076 8.873431
vt 9.203622 1.454293
vt -3.067874 1.454293
vt 7.976472 9.220419
vt -1.840724 9.220419
vt 3.067874 9.220419
vt -9.203622 -4.362879
vt -21.47512 -4.362879
vt -10.43077 3.403247
vt -20.24797 3.403247
vt 3.485796 8.344617
vt 7.382012 9.556808
vt 3.485796 12.58607
vt 7.056612 6.283006
vt 12.16749 8.838688
vt 11.67258 11.53878
vt -11.31432 10.90668
vt -19.56076 10.90668
vt -12.95144 24.98698
vt -18.72395 24.98698
vt 21.47512 -1.454293
vt 9.203622 -1.454293
vt 20.24797 6.311833
vt 10.43077 6.311833
vt -0.03812936 13.79709
vt -4.973405 13.79709
vt -0.2967555 27.93344
vt -3.751448 27.93344
vt 3.067874 9.37583
vt -1.840724 9.37583
vt 2.969702 14.41568
vt -1.153521 14.41568
vt 3.067874 -7.271464
vt -9.203622 -7.271464
vt 1.840724 0.4946612
vt -7.976472 0.4946612
vt -12.58607 12.65749
vt -16.59106 12.65749
vt -13.35091 26.82593
vt -16.15441 26.82593
vt 1.840724 1.36932
vt -7.976472 1.36932
vt 1.153521 6.31653
vt -7.092925 6.31653

usemtl stone
usemap stone

f 2/2/1 1/1/1 3/3/1
f 3/3/1 4/4/1 2/2/1
f 4/4/1 5/5/1 2/2/1
f 4/4/1 6/6/1 5/5/1
f 2/2/2 3/3/2 1/1/2
f 3/3/2 2/2/2 4/4/2
f 4/4/2 2/2/2 5/5/2
f 4/4/2 5/5/2 6/6/2
f 8/8/4 7/7/3 9/9/5
f 9/9/5 10/10/6 8/8/4
f 8/8/8 9/9/7 7/7/9
f 9/9/7 8/8/8 10/10/10
f 1/12/11 3/11/11 11/13/12
f 11/13/12 12/14/13 1/12/11
f 12/14/13 11/13/12 13/15/14
f 13/15/14 14/16/15 12/14/13
f 14/16/15 15/17/16 12/14/13
f 1/12/18 11/13/17 3/11/18
f 11/13/17 1/12/18 12/14/19
f 12/14/19 13/15/20 11/13/17
f 13/15/20 12/14/19 14/16/21
f 14/16/21 12/14/19 15/17/22
f 16/19/23 6/18/23 5/20/23
f 5/20/23 17/21/24 16/19/23
f 5/20/23 18/22/24 17/21/24
f 16/19/25 5/20/25 6/18/25
f 5/20/25 16/19/25 17/21/26
f 5/20/25 17/21/26 18/22/26
f 20/24/2 19/23/2 21/25/2
f 19/23/2 20/24/2 16/26/2
f 16/26/2 20/24/2 17/27/2
f 22/28/2 17/27/2 20/24/2
f 8/30/27 23/29/27 17/31/24
f 17/31/24 18/32/24 8/30/27
f 8/30/28 17/31/26 23/29/28
f 17/31/26 8/30/28 18/32/26
f 9/34/2 24/33/2 25/35/2
f 24/33/2 9/34/2 26/36/2
f 26/36/2 9/34/2 27/37/2
f 26/36/2 27/37/2 28/38/2
f 10/39/2 27/37/2 9/34/2
f 27/37/2 10/39/2 29/40/2
f 22/42/30 17/41/29 23/43/31
f 23/43/31 30/44/32 22/42/30
f 22/42/34 23/43/33 17/41/35
f 23/43/33 22/42/34 30/44/36
f 32/46/38 31/45/37 28/47/38
f 28/47/38 26/48/39 32/46/38
f 32/46/40 28/47/40 31/45/41
f 28/47/40 32/46/40 26/48/42
f 30/50/32 23/49/31 29/51/43
f 29/51/43 27/52/43 30/50/32
f 30/50/36 29/51/44 23/49/33
f 29/51/44 30/50/36 27/52/44
f 29/54/45 23/53/27 8/55/27
f 8/55/27 10/56/45 29/54/45
f 29/54/46 8/55/28 23/53/28
f 8/55/28 29/54/46 10/56/46
f 28/58/48 31/57/47 30/59/49
f 30/59/49 27/60/50 28/58/48
f 28/58/52 30/59/51 31/57/53
f 30/59/51 28/58/52 27/60/54
f 33/62/56 20/61/55 22/63/57
f 22/63/57 31/64/47 33/62/56
f 22/63/57 30/65/49 31/64/47
f 33/62/59 22/63/58 20/61/60
f 22/63/58 33/62/59 31/64/53
f 22/63/58 31/64/53 30/65/51
f 21/67/62 20/66/61 33/68/62
f 33/68/62 34/69/63 21/67/62
f 21/67/64 33/68/64 20/66/65
f 33/68/64 21/67/64 34/69/66
f 35/71/68 12/70/67 15/72/69
f 15/72/69 7/73/70 35/71/68
f 35/71/72 15/72/71 12/70/73
f 15/72/71 35/71/72 7/73/74
f 3/75/76 4/74/75 19/76/76
f 19/76/76 11/77/77 3/75/76
f 3/75/78 19/76/78 4/74/79
f 19/76/78 3/75/78 11/77/80
f 19/76/1 21/78/1 11/77/1
f 19/76/1 11/77/1 21/78/1
f 2/80/82 1/79/81 12/81/67
f 12/81/67 35/82/68 2/80/82
f 2/80/83 12/81/73 1/79/84
f 12/81/73 2/80/83 35/82/72
f 32/84/2 13/83/2 14/85/2
f 13/83/2 32/84/2 34/86/2
f 34/86/2 32/84/2 33/87/2
f 33/87/2 32/84/2 31/88/2
f 7/90/70 15/89/69 25/91/85
f 25/91/85 9/92/86 7/90/70
f 7/90/74 25/91/87 15/89/71
f 25/91/87 7/90/74 9/92/88
f 4/94/89 6/93/89 16/95/89
f 16/95/89 19/96/90 4/94/89
f 4/94/91 16/95/91 6/93/92
f 16/95/91 4/94/91 19/96/93
f 14/98/95 32/97/94 26/99/95
f 26/99/95 24/100/96 14/98/95
f 14/98/97 26/99/97 32/97/98
f 26/99/97 14/98/97 24/100/99
f 11/102/77 21/101/100 34/103/101
f 34/103/101 13/104/102 11/102/77
f 11/102/80 34/103/103 21/101/104
f 34/103/103 11/102/80 13/104/105
f 5/106/107 2/105/106 35/107/108
f 35/107/108 18/108/109 5/106/107
f 5/106/111 35/107/110 2/105/112
f 35/107/110 5/106/111 18/108/113
f 15/110/16 14/109/15 24/111/114
f 24/111/114 25/112/114 15/110/16
f 15/110/22 24/111/115 14/109/21
f 24/111/115 15/110/22 25/112/115
f 18/114/109 35/113/108 7/115/3
f 7/115/3 8/116/4 18/114/109
f 18/114/113 7/115/9 35/113/110
f 7/115/9 18/114/113 8/116/8

usemtl snow
usemap snow

f 20/24/1 21/25/1 19/23/1
f 19/23/1 16/26/1 20/24/1
f 16/26/1 17/27/1 20/24/1
f 22/28/1 20/24/1 17/27/1
f 9/34/1 25/35/1 24/33/1
f 24/33/1 26/36/1 9/34/1
f 26/36/1 27/37/1 9/34/1
f 26/36/1 28/38/1 27/37/1
f 10/39/1 9/34/1 27/37/1
f 27/37/1 29/40/1 10/39/1
f 32/84/1 14/85/1 13/83/1
f 13/83/1 34/86/1 32/84/1
f 34/86/1 33/87/1 32/84/1
f 33/87/1 31/88/1 32/84/1
