# Exported using Kenney Suite 1.2 

mtllib rockFormationLarge.mtl 

g rockFormationLarge

v -6.531891 0 0 
v -4.495942 0 1.175455 
v -6.531891 0.8619343 0.623392 
v -5.452144 0.8619343 1.246784 
v -4.973626 0.8619343 1.523056 
v -4.154727 6.378314 5.824408 
v -4.93785 6.378314 5.372271 
v -4.073286 9.351987 5.604569 
v -4.723279 9.351987 5.229296 
v -2.413474 6.378314 3.813782 
v -2.413474 6.378314 4.819094 
v -2.628046 9.351987 3.93575 
v -2.628046 9.351987 4.77016 
v -1.80041 0 5.056251 
v -4.154727 0 6.415517 
v -2.130014 4.568252 4.865954 
v -4.154727 4.568252 6.034922 
v -6.531891 0.8619343 5.610528 
v -8.691384 0.8619343 4.363744 
v -6.531891 1.416035 5.261428 
v -8.345864 1.416035 4.21413 
v -6.531891 3.032162 4.836329 
v -7.801672 3.032162 4.10322 
v -9.231257 0 1.55848 
v -8.691384 0.8619343 1.870176 
v -9.231257 0 4.67544 
v -8.691384 0.8619343 3.652489 
v -6.797359 1.416035 2.930851 
v -6.717718 3.032162 3.204925 
v -6.671649 1.416035 3.616676 
v -6.629721 3.032162 3.685001 
v -6.531891 0 6.23392 
v 0 7.356616E-17 2.044364 
v -0.6205246 7.356616E-17 4.216838 
v -1.085943 2.170749 2.422506 
v -1.329872 2.170749 3.27651 
v -6.997578 0.8619343 2.019574 
v -6.923068 1.416035 2.245027 
v -6.698269 0.8619343 3.652489 
v -5.624904 1.416035 1.595883 
v -4.322686 6.378314 3.238079 
v -4.212692 9.351987 3.457917 
v -6.406875 1.416035 2.396707 
v -6.17944 4.568252 2.528017 
v -6.406875 1.416035 2.750472 
v -6.29027 3.032162 3.00747 
v -6.17944 4.568252 3.696985 
v -6.29027 3.032162 4.696829 
v -6.17944 4.568252 4.865954 
v -6.354213 2.145922 4.966859 
v -4.350029 4.568252 3.027564 
v -2.130014 4.568252 3.696985 
v -8.345864 1.416035 3.616676 
v -5.322356 1.416035 1.770559 
v -4.154727 4.568252 1.359049 
v -4.154727 0 0.9784544 
v -5.895979 6.378314 3.813782 
v -5.895979 6.378314 4.819094 
v -7.801672 3.032162 3.685001 
v -1.694 7.356616E-17 0.828838 
v -1.593586 2.170749 2.058248 
v -2.689542 3.678308E-17 1.82438 
v -1.961122 2.170749 2.425784 
v -5.97826 0.8619343 5.290889 
v -6.24061 1.416035 5.093257 
v -5.500576 0 5.63849 
v -1.80041 3.678308E-17 4.216838 
v -1.957032 2.170749 3.27651 
v -1.957032 2.170749 2.428146 
v -2.130014 4.568252 2.528017 

vn 0.4237416 0.5308219 -0.7339422
vn 0.4237417 0.530822 -0.7339421
vn 0.4237416 0.530822 -0.7339421
vn 0.4190628 0.5454774 -0.725838
vn 0.4142557 0.5599722 -0.717512
vn -0.4978499 0.09264261 0.8623009
vn -0.4984969 0.07748362 0.8634218
vn -0.4984964 0.0774835 0.863422
vn 0.991873 0.1272325 0
vn 0.9950246 0.09962905 0
vn 0.9974068 0.07197008 0
vn 0.4987037 0.07196401 0.8637799
vn 0.4987037 0.07196402 0.8637799
vn 0.4983413 0.08138796 0.8631523
vn 0.4979343 0.09080544 0.8624476
vn -0.4289723 0.5137424 0.7430017
vn -0.4340327 0.4964499 0.7517666
vn -0.4589776 0.3966839 0.7949726
vn -0.4753132 0.3103376 0.8232666
vn -0.4875112 0.2221062 0.8443942
vn -0.4875112 0.2221062 0.8443943
vn -0.8474835 0.5308218 0
vn -0.8474835 0.5308218 0
vn -0.8480142 0.5299736 0
vn -0.8480141 0.5299737 0
vn -0.9826086 0.04517718 0.1801094
vn -0.9834554 0.01789276 0.1802645
vn -0.9831235 0.03153678 0.1802038
vn -0.9834555 0.01789268 0.1802642
vn -0.4237417 0.5308218 0.7339422
vn -0.4237417 0.5308219 0.7339422
vn 0.8823202 0.3974899 0.2520175
vn 0.8823202 0.3974899 0.2520174
vn 0.4982503 0.08358801 0.8629946
vn 0.4988787 0.06693416 0.8640832
vn 0.4993679 0.0502663 0.8649307
vn 0.4993678 0.05026637 0.8649307
vn -0.9819106 0.05880674 0.1799812
vn -0.9819108 0.0588065 0.1799811
vn -0.9819106 0.05880674 0.1799813
vn -0.4117548 0.3904076 -0.8234318
vn -0.4117546 0.3904077 -0.8234317
vn -0.4117545 0.3904079 -0.8234317
vn -0.4237417 0.5308219 -0.7339422
vn -0.9593756 0.0559302 -0.2765327
vn -0.9593756 0.05593021 -0.2765327
vn -0.9593756 0.05593022 -0.2765327
vn -0.9974073 0.07196397 0
vn -0.9974073 0.07196397 0
vn -0.9974073 0.07196398 0
vn -0.9974073 0.07196395 0
vn -0.9956929 0.09271244 0
vn -0.9935451 0.1134387 0
vn -0.9974073 0.07196401 0
vn 0.2870614 0.1063824 -0.9519866
vn 0.2870614 0.1063824 -0.9519866
vn 0.2875033 0.09094118 -0.9534524
vn 0.2878762 0.07547436 -0.9546889
vn -0.9042463 0.4270113 0
vn -0.9042463 0.4270113 0
vn 0.2881796 0.05999308 -0.9556952
vn 0.2881796 0.05999306 -0.9556952
vn -0.4987035 0.07196403 -0.86378
vn -0.4987036 0.07196403 -0.86378
vn -0.4987036 0.07196402 -0.86378
vn -0.4987036 0.07196404 -0.86378
vn -0.4987037 0.07196387 -0.8637799
vn -0.4987039 0.07196379 -0.8637799
vn -0.498704 0.07196355 -0.8637798
vn -0.9879589 0.1547167 0
vn -0.4131069 0.1720167 -0.8942891
vn -0.4131067 0.1720167 -0.8942892
vn -0.4131066 0.1720167 -0.8942893
vn -0.9477142 0.3191201 0
vn -0.6488459 0.3974899 -0.6488458
vn -0.6488459 0.3974899 -0.6488458
vn -0.6488459 0.3974899 -0.6488457
vn -0.498528 0.07667661 0.8634758
vn -0.4979344 0.09080546 0.8624476
vn -0.4974831 0.1002141 0.8616657
vn 0 1 0
vn 0 -0.02895576 -0.9995807
vn 0 0.006668781 -0.9999778
vn 0 0.04223974 -0.9991074
vn 0.4315244 0.5051214 0.7474216
vn 0.4676439 0.3538879 0.809983
vn 0.4315242 0.5051215 0.7474216
vn 0.4676439 0.3538878 0.8099831
vn -0.3414108 0.1136695 -0.9330155
vn -0.3414108 0.1136696 -0.9330155
vn 0.4237417 0.5308219 0.7339422
vn 0.4237419 0.5308218 0.7339422
vn -0.4987038 0.07196405 0.8637799
vn -0.4987035 0.07196396 0.86378
vn -0.4987037 0.0719641 0.8637799
vn -0.4987037 0.07196405 0.8637799
vn -0.4987035 0.07196391 0.8637801
vn 0 -1 0
vn 0.4875107 0.2221063 0.8443944
vn 0.4875107 0.2221064 0.8443946
vn 0.4875103 0.2221063 0.8443948
vn 0.9956929 0.09271249 0
vn 0.9935451 0.1134387 0
vn 0 0.39749 0.9176065
vn 0 0.39749 0.9176065
vn 0.4987035 0.07196405 -0.86378
vn 0.4987036 0.07196406 -0.86378
vn 0.4986985 0.07195781 -0.8637835
vn 0.4986933 0.07195157 -0.8637869
vn 0.4986933 0.07195158 -0.863787
vn 0.4987036 0.07196409 -0.86378
vn 0.9974073 0.07196408 0
vn 0.9974073 0.07196406 0
vn 0 -0.06449848 -0.9979178
vn 0.4093248 0.5742933 -0.7089715
vn 0.4093247 0.5742932 -0.7089716
vn 0.5349571 0.3974899 -0.7455351
vn 0.5349572 0.3974899 -0.7455351
vn 0.5349572 0.39749 -0.745535

vt 22.2708 6.825336
vt 13.01525 6.825336
vt 21.04365 10.82948
vt 16.13505 10.82948
vt 13.95968 10.82948
vt -2.700376 22.86355
vt -6.260507 22.86355
vt -2.85545 34.60623
vt -5.810359 34.60623
vt -15.01489 25.7302
vt -18.97281 25.7302
vt -15.49508 37.46802
vt -18.78016 37.46802
vt -16.09184 -0.9855777
vt -26.79471 -0.9855777
vt -16.84104 17.04642
vt -26.04551 17.04642
vt -11.22645 -12.34197
vt -21.04365 -12.34197
vt -11.91366 -9.85688
vt -20.1601 -9.85688
vt -11.91366 -1.404548
vt -20.1601 -1.404548
vt -12.75047 5.121152
vt -18.52298 5.121152
vt 6.135748 -19.29194
vt 7.362898 -15.2878
vt 18.40724 -19.29194
vt 14.37988 -15.2878
vt 17.18009 -15.2878
vt 6.524823 5.065838
vt 7.642699 11.42956
vt 9.269903 5.065838
vt 9.564256 11.42956
vt -9.999304 -18.10788
vt -22.2708 -18.10788
vt -11.22645 -14.10374
vt -21.04365 -14.10374
vt -7.739168 -0.8786682
vt -16.63427 -0.8786682
vt -10.34488 8.434972
vt -13.84157 8.434972
vt -16.84104 16.65227
vt -26.04551 16.65227
vt -17.71526 23.81456
vt -25.63111 23.81456
vt -17.71526 24.49262
vt -25.63111 24.49262
vt -18.35053 36.21481
vt -24.92068 36.21481
vt 2.853789 1.709725
vt 3.779743 3.895005
vt 9.389694 1.709725
vt 6.524823 3.895005
vt 9.269903 3.895005
vt 28.19667 1.090152
vt 21.394 1.090152
vt 28.33128 3.459693
vt 22.61703 3.459693
vt 34.5423 -6.825336
vt 22.2708 -6.825336
vt 33.31515 -2.821196
vt 23.49795 -2.821196
vt 16.96316 24.35504
vt 17.67486 36.08077
vt 25.70757 24.35504
vt 24.93273 36.08077
vt 9.435854 3.745271
vt 9.952824 16.18783
vt 10.82863 3.745271
vt 11.84043 10.12452
vt 14.55506 16.18783
vt 18.49145 10.12452
vt 19.1573 16.18783
vt 19.55457 6.626314
vt 12.95569 19.62321
vt 3.826768 19.62321
vt 12.61336 26.7901
vt 4.762481 26.7901
vt 14.23888 -12.65524
vt 16.59106 -12.65524
vt 14.37988 -15.22611
vt 17.18009 -15.22611
vt 12.61336 26.09325
vt 4.762481 26.09325
vt 11.94888 37.82175
vt 5.432651 37.82175
vt 26.56248 5.240946
vt 21.63218 5.240946
vt 26.04551 17.68351
vt 16.84104 17.68351
vt 19.95596 3.053777
vt 16.09184 -0.3484864
vt 17.64302 -0.3484864
vt 14.55506 14.00466
vt 15.01489 21.21774
vt 19.1573 14.00466
vt 18.97281 21.21774
vt 27.43988 5.363278
vt 27.44742 11.82226
vt 29.13331 5.363278
vt 29.30116 11.82226
vt 14.23888 -5.202118
vt 14.50788 1.511619
vt 16.59106 -5.202118
vt 16.15441 1.511619
vt 7.023291 -0.9573591
vt 10.16628 8.35628
vt 12.56624 -0.9573591
vt 12.21264 8.35628
vt -2.285976 15.01305
vt -11.49045 15.01305
vt -2.700376 22.17534
vt -10.61622 22.17534
vt -6.260507 22.17534
vt 32.85773 6.171413
vt 26.26633 6.171413
vt 30.71525 12.5398
vt 26.10126 12.5398
vt -33.31515 -0.02486147
vt -32.62794 2.460231
vt -30.79831 -0.02486147
vt -31.30376 2.460231
vt 27.84862 18.47209
vt 20.17916 18.47209
vt 26.95861 25.64481
vt 20.36288 25.64481
vt -29.85387 -4.457207
vt -34.5423 -4.457207
vt -30.79831 -0.4530669
vt -33.31515 -0.4530669
vt -1.536774 -2.162707
vt -7.655093 -2.162707
vt -2.285976 15.86929
vt -9.968033 1.239556
vt -11.25157 3.426726
vt -11.88772 6.307768
vt -11.49045 15.86929
vt -7.088228 19.9065
vt -7.088228 16.60172
vt -16.35719 25.25794
vt -10.58875 7.182597
vt -16.35719 3.852183
vt -21.65581 22.19878
vt -17.70056 4.627777
vt -25.7161 -5.328279E-34
vt -25.7161 24.54299
vt -36.34353 18.40724
vt -36.34353 6.135748
vt -6.669291 3.263142
vt -2.443011 16.60172
vt 2.2475E-33 8.048677
vt -31.30376 4.30716
vt -32.62794 4.30716
vt -31.44228 7.254346
vt -31.79113 10.83286
vt -30.69271 10.83286
vt -14.55506 19.06612
vt -19.1573 19.06612
vt -15.01489 26.2792
vt -18.97281 26.2792
vt -7.088228 -6.599019
vt -7.70485 2.714621
vt -2.443011 -6.599019
vt -5.235718 2.714621
vt 12.23965 0.8286431
vt 5.578825 0.8286431
vt 11.49045 18.86064
vt 1.911375 9.397116
vt 1.892781 9.397116
vt 2.285976 18.86064
vt -9.559628 9.07857
vt -12.89965 9.07857
vt -9.952824 18.54209
vt -14.55506 18.54209
vt -16.60172 0.5100974
vt -19.1573 18.54209
vt -19.9065 0.5100974
vt 34.21805 2.458894
vt 26.37114 2.458894
vt 32.85773 4.644945
vt 26.26633 4.644945
vt 16.13505 11.38299
vt 13.95968 11.38299
vt 16.03688 14.04774
vt 14.66148 14.04774
vt 3.516267 2.599335
vt -4.692314 2.599335
vt 0.373273 11.91298
vt -2.086601 11.91298
vt 10.34664 18.78016
vt 16.03656 22.06523
vt 10.34664 15.49508
vt 16.5854 13.61385
vt 18.59558 20.58778
vt 8.385883 14.55506
vt 17.1261 11.91954
vt 8.385883 9.952824
vt 16.35719 5.350586
vt 24.3285 9.952824
vt 24.3285 14.55506
vt 21.46513 4.908598
vt 27.54952 7.951077
vt 25.7161 2.454299
vt 34.21805 7.362898
vt 34.21805 14.37988
vt 26.37114 14.37988
vt 20.95416 6.970706
vt 25.22392 9.435854
vt 22.14529 6.283006
vt 27.25617 8.838688
vt 26.76125 11.53878
vt 25.22392 10.82863
vt 17.01845 12.74834
vt 19.44036 21.15067
vt 23.21252 15.01489
vt 23.21252 18.97281
vt 24.76484 18.49145
vt 25.7161 19.04066
vt 24.76484 11.84043
vt 26.10126 14.50788
vt 26.44771 12.61781
vt 30.71525 16.15441
vt 30.71525 14.50788
vt 4.275366 9.537425
vt 5.235718 12.89965
vt 6.273959 8.103338
vt 7.70485 12.89965
vt 7.70485 9.559628
vt 7.720953 9.550332

usemtl stone
usemap stone

f 2/2/2 1/1/1 3/3/3
f 3/3/3 4/4/4 2/2/2
f 4/4/4 5/5/5 2/2/2
f 7/7/7 6/6/6 8/8/7
f 8/8/7 9/9/8 7/7/7
f 11/11/10 10/10/9 12/12/11
f 12/12/11 13/13/11 11/11/10
f 15/15/13 14/14/12 16/16/14
f 16/16/14 17/17/15 15/15/13
f 19/19/17 18/18/16 20/20/18
f 20/20/18 21/21/19 19/19/17
f 21/23/19 20/22/18 22/24/20
f 22/24/20 23/25/21 21/23/19
f 25/27/22 24/26/22 26/28/23
f 26/28/23 27/29/24 25/27/22
f 26/28/23 19/30/25 27/29/24
f 29/32/27 28/31/26 30/33/28
f 30/33/28 31/34/29 29/32/27
f 26/36/31 32/35/30 18/37/16
f 18/37/16 19/38/17 26/36/31
f 34/40/33 33/39/32 35/41/33
f 35/41/33 36/42/33 34/40/33
f 17/44/15 16/43/14 11/45/34
f 11/45/34 6/46/35 17/44/15
f 6/48/35 11/47/34 13/49/36
f 13/49/36 8/50/37 6/48/35
f 38/52/39 37/51/38 39/53/40
f 39/53/40 28/54/26 38/52/39
f 39/53/40 30/55/28 28/54/26
f 4/57/42 37/56/41 38/58/42
f 38/58/42 40/59/43 4/57/42
f 1/61/44 24/60/44 25/62/44
f 25/62/44 3/63/44 1/61/44
f 42/65/46 41/64/45 7/66/46
f 7/66/46 9/67/47 42/65/46
f 44/69/49 43/68/48 45/70/50
f 45/70/50 46/71/51 44/69/49
f 46/71/51 47/72/52 44/69/49
f 46/71/51 48/73/49 47/72/52
f 48/73/49 49/74/53 47/72/52
f 48/73/49 50/75/54 49/74/53
f 52/77/56 51/76/55 41/78/57
f 41/78/57 10/79/58 52/77/56
f 21/81/60 53/80/59 27/82/24
f 27/82/24 19/83/25 21/81/60
f 10/85/58 41/84/57 42/86/61
f 42/86/61 12/87/62 10/85/58
f 54/89/64 43/88/63 44/90/65
f 54/89/64 44/90/65 55/91/66
f 5/92/67 54/89/64 55/91/66
f 5/92/67 55/91/66 56/93/68
f 56/93/68 2/94/69 5/92/67
f 57/96/70 47/95/52 49/97/53
f 49/97/53 58/98/70 57/96/70
f 46/100/72 45/99/71 28/101/72
f 28/101/72 29/102/73 46/100/72
f 59/104/74 53/103/59 21/105/60
f 21/105/60 23/106/74 59/104/74
f 61/108/76 60/107/75 62/109/76
f 62/109/76 63/110/77 61/108/76
f 49/112/79 17/111/78 6/113/6
f 6/113/6 58/114/80 49/112/79
f 6/113/81 7/115/81 58/114/81
f 30/117/83 53/116/82 59/118/84
f 59/118/84 31/119/84 30/117/83
f 20/121/86 18/120/85 64/122/87
f 64/122/87 65/123/88 20/121/86
f 51/125/89 47/124/89 57/126/89
f 57/126/89 41/127/90 51/125/89
f 32/129/92 66/128/91 64/130/87
f 64/130/87 18/131/85 32/129/92
f 66/133/94 15/132/93 17/134/78
f 17/134/78 64/135/95 66/133/94
f 17/134/78 65/136/96 64/135/95
f 17/134/78 50/137/97 65/136/96
f 17/134/78 49/138/79 50/137/97
f 67/140/98 14/139/98 15/141/98
f 15/141/98 62/142/98 67/140/98
f 15/141/98 56/143/98 62/142/98
f 15/141/98 66/144/98 56/143/98
f 66/144/98 2/145/98 56/143/98
f 66/144/98 1/146/98 2/145/98
f 66/144/98 32/147/98 1/146/98
f 32/147/98 26/148/98 1/146/98
f 26/148/98 24/149/98 1/146/98
f 67/140/98 62/142/98 60/150/98
f 34/151/98 67/140/98 60/150/98
f 60/150/98 33/152/98 34/151/98
f 20/154/86 65/153/88 50/155/99
f 50/155/99 22/156/100 20/154/86
f 50/155/99 48/157/101 22/156/100
f 16/159/103 52/158/102 10/160/9
f 10/160/9 11/161/10 16/159/103
f 68/163/104 67/162/104 34/164/104
f 34/164/104 36/165/105 68/163/104
f 62/167/107 56/166/106 55/168/108
f 55/168/108 63/169/109 62/167/107
f 55/168/108 69/170/110 63/169/109
f 55/168/108 70/171/111 69/170/110
f 68/173/113 69/172/112 70/174/112
f 70/174/112 52/175/102 68/173/113
f 52/175/102 67/176/113 68/173/113
f 52/175/102 16/177/103 67/176/113
f 16/177/103 14/178/113 67/176/113
f 39/180/114 27/179/114 53/181/82
f 53/181/82 30/182/83 39/180/114
f 5/184/5 4/183/4 40/185/115
f 40/185/115 54/186/116 5/184/5
f 33/188/118 60/187/117 61/189/118
f 61/189/118 35/190/119 33/188/118

usemtl snow
usemap snow

f 8/192/81 13/191/81 12/193/81
f 12/193/81 42/194/81 8/192/81
f 42/194/81 9/195/81 8/192/81
f 51/197/81 52/196/81 70/198/81
f 70/198/81 55/199/81 51/197/81
f 55/199/81 44/200/81 51/197/81
f 44/200/81 47/201/81 51/197/81
f 37/203/81 4/202/81 3/204/81
f 3/204/81 25/205/81 37/203/81
f 25/205/81 27/206/81 37/203/81
f 39/207/81 37/203/81 27/206/81
f 43/209/81 54/208/81 40/210/81
f 40/210/81 38/211/81 43/209/81
f 38/211/81 28/212/81 43/209/81
f 45/213/81 43/209/81 28/212/81
f 7/215/81 41/214/81 57/216/81
f 57/216/81 58/217/81 7/215/81
f 22/219/81 48/218/81 46/220/81
f 46/220/81 31/221/81 22/219/81
f 46/220/81 29/222/81 31/221/81
f 23/223/81 22/219/81 31/221/81
f 31/221/81 59/224/81 23/223/81
f 36/226/81 35/225/81 61/227/81
f 61/227/81 68/228/81 36/226/81
f 61/227/81 69/229/81 68/228/81
f 61/227/81 63/230/81 69/229/81
