# Exported using Kenney Suite 1.2 

mtllib snowman.mtl 

g snowman

v -4.13324 3.328 4.120549 
v -4.570711 2.960468 4.162822 
v -5.025728 3.328 3.290164 
v -4.5517 5.55776 1.62559 
v -4.229051 4.973242 0.9322839 
v -3.685116 5.55776 0.9995145 
v -2.918575 5.55776 1.301238 
v -2.369845 5.55776 2.251666 
v -3.003125 7.055641 1.447684 
v -2.538946 7.055641 2.251666 
v -2.621022 5.55776 3.290164 
v -2.660396 4.293137 3.649273 
v -2.991081 5.55776 3.503818 
v -4.016035 5.55776 1.301238 
v -3.931484 7.055641 1.447684 
v -4.564765 5.55776 2.251666 
v -4.395663 7.055641 2.251666 
v -2.021445 5.55776 2.251666 
v -2.744375 5.55776 0.9995145 
v -4.913165 5.55776 2.251666 
v -2.918575 5.55776 3.202094 
v -4.016035 5.55776 3.202094 
v -4.190235 5.55776 3.503818 
v -3.003125 7.055641 3.055648 
v -2.596305 3.328 3.760283 
v -4.338305 3.328 3.760283 
v -1.309305 3.328 2.251666 
v -1.725305 3.328 2.251666 
v -2.024556 3.328 1.012815 
v -2.596305 3.328 0.7430497 
v -2.8732 3.328 0.3827832 
v -4.338305 3.328 0.7430497 
v -4.546305 3.328 0.3827832 
v -5.209305 3.328 2.251666 
v -5.625305 3.328 2.251666 
v -2.388305 3.328 4.120549 
v -0.8673048 0 2.251666 
v -2.167305 0 4.503332 
v -3.931484 7.055641 3.055648 
v -2.167305 0 0 
v -4.767305 0 4.503332 
v -4.767305 0 1.848093E-12 
v -6.067305 0 2.251666 
v -2.326858 2.402676 0.2763534 
v -2.826737 7.35564 2.251666 
v -3.147021 7.35564 2.806414 
v -3.147021 7.35564 1.696918 
v -3.787589 7.35564 2.806414 
v -3.787589 7.35564 1.696918 
v -4.107872 7.35564 2.251666 
v -3.618137 6.113627 1.355584 
v -3.639934 6.499774 1.393337 
v -3.294676 6.499774 1.393337 
v -3.316473 6.113627 1.355584 
v -4.854596 4.678873 1.948045 
v -4.768149 5.255959 1.931065 
v -5.034726 4.642475 2.251666 
v -4.961895 5.190845 2.251666 
v -4.854596 4.678873 2.555287 
v -4.768149 5.255959 2.572267 
v -2.166461 5.255959 1.931065 
v -1.972714 5.190845 2.251666 
v -2.080014 4.678873 1.948045 
v -1.899884 4.642475 2.251666 
v -2.166461 5.255959 2.572267 
v -2.080014 4.678873 2.555287 
v -6.821942 4.742087 2.148416 
v -6.821942 4.742087 2.354916 
v -6.934609 4.598553 2.148416 
v -6.934609 4.598553 2.354916 
v -6.661475 4.143213 2.164166 
v -6.586975 4.328819 2.076666 
v -6.893483 4.236338 2.164166 
v -6.818983 4.421944 2.076666 
v -6.586975 4.328819 2.426666 
v -6.818983 4.421944 2.426666 
v -6.66462 4.618597 2.426666 
v -6.66462 4.618597 2.076666 
v -0.2731347 4.143213 2.164166 
v -0.04112672 4.236338 2.164166 
v -0.3476348 4.328819 2.076666 
v -0.1156268 4.421944 2.076666 
v -0.1126669 4.742087 2.354916 
v -0.2699891 4.618597 2.426666 
v -0.1126669 4.742087 2.148416 
v -0.2699891 4.618597 2.076666 
v -0.1156268 4.421944 2.426666 
v -0.3476348 4.328819 2.426666 
v -7.219114E-14 4.598553 2.148416 
v 0 4.598553 2.354916 
v -6.661475 4.143213 2.339166 
v -6.893483 4.236338 2.339166 
v -0.2731347 4.143213 2.339166 
v -0.04112672 4.236338 2.339166 
v -3.572049 6.250465 0.5651484 
v -3.36256 6.250465 0.5651484 
v -3.587186 6.518622 0.5913658 
v -3.347424 6.518622 0.5913658 

vn -0.5075725 0.6669065 0.5455325
vn -0.4936551 0.5379725 -0.6832937
vn 0.8619158 0.09730495 -0.4976274
vn 0.8619158 0.09730491 -0.4976274
vn 0.8619158 0.09730487 -0.4976274
vn 0.48724 0.224475 0.8439242
vn -0.8619158 0.09730495 -0.4976274
vn -0.8619158 0.09730499 -0.4976273
vn -0.8619158 0.09730503 -0.4976272
vn 0 1 0
vn 0.8619158 0.09730487 0.4976274
vn 0.8619156 0.0973049 0.4976274
vn 0.8619156 0.09730494 0.4976274
vn 0 0.1142658 0.9934502
vn 0 0.1142657 0.9934502
vn 0 0.1142656 0.9934502
vn 0 0.1142656 0.9934502
vn 0 0.1142655 0.9934502
vn 0.8603532 0.1142656 0.4967251
vn 0.8603532 0.1142657 0.4967251
vn 0.8603531 0.1142657 0.4967251
vn -0.8619158 0.09730504 0.4976273
vn -0.8619158 0.09730498 0.4976273
vn -0.8619158 0.09730493 0.4976274
vn 0 -1 0
vn 0.8603532 0.1142657 -0.496725
vn 0.8603532 0.1142656 -0.4967251
vn 0.8603532 0.1142657 -0.4967251
vn 0.8603531 0.1142656 -0.4967251
vn 0 0.1142656 -0.9934502
vn 0 0.1142656 -0.9934502
vn 0 0.1142656 -0.9934502
vn -0.8603532 0.1142657 -0.496725
vn -0.8603532 0.1142656 -0.4967251
vn -0.8603531 0.1142656 -0.4967251
vn -0.860353 0.1142655 0.4967252
vn -0.8603532 0.1142656 0.4967251
vn -0.8603531 0.1142656 0.4967251
vn -0.8603532 0.1142657 0.4967249
vn 0 0.1142657 -0.9934502
vn 0 0.1142656 -0.9934502
vn 0 0.1142657 0.9934502
vn 0 0.1142657 0.9934502
vn 0 0.1142656 0.9934502
vn 0 0.1142654 0.9934502
vn 0 0.09730484 0.9952546
vn 0.5447394 0.4060289 -0.7337572
vn 0 0.09730487 -0.9952546
vn 0 0.09730483 -0.9952546
vn 0 0.09730479 -0.9952546
vn 0 0.09730482 -0.9952546
vn 0 0.09730481 -0.9952546
vn 0 0.0973048 -0.9952546
vn -0.8603532 0.1142657 -0.4967249
vn -0.8603532 0.1142656 -0.4967249
vn -0.8603532 0.1142656 -0.4967251
vn -0.8603532 0.1142656 -0.4967251
vn -0.8603531 0.1142655 -0.4967251
vn -0.8603532 0.1142657 -0.4967251
vn -0.8603532 0.1142658 -0.4967249
vn -0.860353 0.1142655 0.4967253
vn -0.8603532 0.1142656 0.4967251
vn -0.8603532 0.1142656 0.4967251
vn -0.8603532 0.1142656 0.4967249
vn -0.8603532 0.114265 0.4967251
vn -0.8603532 0.1142651 0.4967251
vn -0.8603532 0.1142648 0.4967251
vn -0.8603532 0.1142658 0.4967249
vn 0 0.6390259 0.7691852
vn 0.8603532 0.1142657 -0.4967251
vn 0.8603531 0.1142657 -0.4967252
vn 0.8603531 0.1142658 -0.4967252
vn 0.860353 0.1142658 -0.4967252
vn 0.8603531 0.1142656 -0.4967252
vn 0.8603531 0.1142657 -0.4967252
vn 0.8603532 0.1142657 -0.4967251
vn 0.8603529 0.1142656 -0.4967254
vn 0 0.6390259 -0.7691852
vn -0.6661341 0.6390258 -0.3845926
vn -0.6661341 0.6390257 -0.3845926
vn -0.6661341 0.6390256 -0.3845927
vn 0.6661339 0.6390257 -0.3845927
vn 0.6661339 0.6390259 -0.3845927
vn 0.6661339 0.6390259 -0.3845925
vn -0.6661341 0.6390256 0.3845927
vn -0.6661341 0.6390257 0.3845927
vn -0.6661341 0.6390257 0.3845926
vn 0.6661339 0.6390259 0.3845927
vn 0.6661339 0.6390258 0.3845927
vn 0.666134 0.6390258 0.3845927
vn 0.8603529 0.1142658 0.4967254
vn 0.8603531 0.1142657 0.4967251
vn 0.860353 0.1142657 0.4967253
vn 0.8603529 0.1142657 0.4967255
vn 0.860353 0.1142658 0.4967253
vn 0.8603531 0.1142659 0.4967252
vn 0.860353 0.1142659 0.4967253
vn 0.8603532 0.1142656 0.4967251
vn 0.8603526 0.1142659 0.4967261
vn -0.786611 0.6174489 0
vn -0.1493052 -0.3719729 -0.9161572
vn -0.03514605 -0.009417322 0.9993377
vn -0.1348046 0.105815 0.9852061
vn -0.1360371 0.07682535 0.9877204
vn -0.3185679 0.9479 0
vn 0.1980623 -0.9801894 0
vn 0.1980623 -0.9801894 0
vn 0.1980624 -0.9801894 0
vn -0.1348046 0.105815 -0.9852061
vn -0.03514609 -0.009417331 -0.9993377
vn -0.1360371 0.07682535 -0.9877204
vn 0.1493052 -0.3719727 -0.9161574
vn -0.6174498 0.7866103 0
vn -0.6174498 0.7866103 0
vn 0.1348048 0.1058148 0.9852061
vn 0.03514605 -0.009417349 0.9993377
vn 0.1360371 0.07682527 0.9877204
vn 0.8366395 -0.5477538 0
vn 0.8366395 -0.5477539 0
vn -0.3725003 -0.928032 0
vn 0.6174495 0.7866105 0
vn -0.07024557 -0.01882225 0.9973521
vn -0.07024557 -0.01882233 0.9973521
vn 0.03514608 -0.009417357 -0.9993377
vn 0.1348048 0.1058148 -0.9852061
vn 0.1360372 0.07682527 -0.9877204
vn -0.928032 -0.3725003 0
vn 0.9280325 -0.3724992 0
vn 0.07024555 -0.01882228 0.9973521
vn 0.07024555 -0.01882233 0.9973521
vn -0.2656206 0.2084987 0.9412619
vn -0.2656206 0.2084984 0.9412619
vn -0.1980623 -0.9801894 0
vn -0.1980624 -0.9801894 0
vn -0.1980623 -0.9801894 0
vn 0.3725005 -0.928032 0
vn 0.7866113 0.6174485 0
vn -0.9280325 0.3724992 0
vn -0.8366398 -0.5477535 0
vn 0.2656208 0.2084986 0.9412619
vn 0.2656208 0.2084984 0.9412619
vn 0.1493052 -0.3719727 0.9161574
vn 0.07024562 -0.01882228 -0.9973521
vn 0.07024562 -0.01882232 -0.9973521
vn 0.928032 0.3725003 0
vn -0.07024564 -0.01882225 -0.9973521
vn -0.07024564 -0.01882231 -0.9973521
vn -0.2656206 0.2084987 -0.9412619
vn -0.2656206 0.2084984 -0.9412619
vn -0.1493052 -0.3719729 0.9161572
vn 0.3185679 0.9479 0
vn 0.3185679 0.9479 0
vn 0.3185678 0.9479 0
vn 0.3185678 0.9479 0
vn 0.2656208 0.2084986 -0.9412619
vn 0.2656208 0.2084984 -0.9412619
vn 0 0.09730484 -0.9952546
vn 0 0.09730484 -0.9952546
vn -0.9965322 -0.04972881 -0.06671324
vn -0.9965322 -0.04972889 -0.06671328
vn -0.9965321 -0.04972895 -0.06671331
vn 0.9965321 -0.04972878 -0.06671354
vn 0.9965322 -0.04972856 -0.06671343
vn 0.9965322 -0.04972833 -0.0667133
vn 0 -0.9853436 -0.1705806
vn 0 0.9997239 0.02349701
vn 0 0.9997239 0.02349701
vn 0 0.9997239 0.02349701

vt -0.8630192 -5.550005
vt -2.0106 -7.491888
vt -5.662412 -5.550005
vt 18.27371 15.59
vt 15.64557 12.86004
vt 14.06472 15.59
vt 1.308592 22.99464
vt -3.012116 22.99464
vt 0.9757156 28.91993
vt -2.67924 28.91993
vt -15.4132 19.96256
vt -16.25436 14.85334
vt -17.09551 19.96256
vt 12.34221 20.69398
vt 12.67509 26.61926
vt 16.66292 20.69398
vt 16.33005 26.61926
vt 7.958444 8.864827
vt 9.330097 8.864827
vt 10.80463 3.935097
vt 11.49045 5.122983
vt 14.50833 3.935097
vt 15.81116 5.122983
vt 17.92008 6.399962
vt 17.97152 8.864827
vt 19.34317 8.864827
vt 10.31898 12.9534
vt 11.49045 12.60667
vt 11.77591 13.79456
vt 15.81116 12.60667
vt 16.49699 13.79456
vt -12.34221 22.13205
vt -16.66292 22.13205
vt -12.67509 28.05733
vt -16.33005 28.05733
vt -10.22167 11.32493
vt -17.07994 11.32493
vt -10.474 15.14973
vt -16.49699 20.16139
vt -11.77591 20.16139
vt 5.154743 8.864827
vt 6.792539 8.864827
vt 7.970693 3.98746
vt 10.22167 2.925393
vt 11.31181 1.507021
vt 17.07994 2.925393
vt 17.89884 1.507021
vt 20.50907 8.864827
vt 22.14687 8.864827
vt 9.402775 16.22263
vt 10.22167 14.80426
vt 16.2726 16.22263
vt 17.07994 14.80426
vt 19.78633 12.9534
vt -9.384459 -0.1685756
vt -19.62068 -0.1685756
vt -10.25454 13.02017
vt -18.7506 13.02017
vt -0.9757156 25.75667
vt 2.67924 25.75667
vt -1.308592 19.83138
vt 3.012116 19.83138
vt -3.414586 8.864827
vt -8.532696 0
vt -8.532696 17.72965
vt -18.76892 17.72965
vt -18.76892 7.275958E-12
vt -23.88703 8.864827
vt 4.266348 0.8443696
vt -5.969872 0.8443696
vt 3.638188 10.36609
vt 0.5321049 14.03312
vt -5.099794 14.03312
vt 18.76892 -6.88107E-13
vt 8.532696 -6.907923E-13
vt 17.89884 13.18875
vt 9.160856 9.52172
vt 11.31181 13.18875
vt 9.384459 -1.857315
vt 10.25454 11.33143
vt 19.62068 -1.857315
vt 18.7506 11.33143
vt -3.396269 10.31849
vt 1.32481 10.31849
vt -4.266348 -2.87026
vt 5.969872 -2.87026
vt 5.195882 8.861969
vt 17.07994 13.35082
vt 10.22167 13.35082
vt 16.64981 19.87085
vt 10.80463 22.18728
vt 14.50833 22.18728
vt -8.532696 -2.02589
vt -18.76892 -2.02589
vt -9.402775 11.16286
vt -17.99493 9.706339
vt -16.2726 11.16286
vt -11.49045 20.55042
vt -15.81116 20.55042
vt -11.82333 26.47571
vt -15.47828 26.47571
vt 8.184174 15.20281
vt 6.706895 11.21641
vt 4.022964 15.20281
vt 11.12889 8.864827
vt 12.38985 11.04887
vt 12.38985 6.680781
vt 14.91177 11.04887
vt 14.91177 6.680781
vt 16.17273 8.864827
vt 11.49045 22.2756
vt 14.24463 24.47449
vt 15.81116 22.2756
vt 15.47828 28.20089
vt 14.33045 26.002
vt 12.97116 26.002
vt 13.05698 24.47449
vt 11.82333 28.20089
vt 11.07343 11.4935
vt 11.50357 18.01354
vt 17.9317 11.4935
vt 14.50257 20.32996
vt 16.19825 16.84696
vt 15.97018 19.13393
vt 17.58804 16.70272
vt 17.34875 20.32996
vt 17.44468 18.87589
vt -2.233713 15.68977
vt -0.8439144 15.83402
vt -2.577372 10.48056
vt 4.280896 10.48056
vt -0.61585 18.12099
vt 3.697943 19.31702
vt -2.090346 17.86294
vt -1.994419 19.31702
vt -11.82333 13.67898
vt -15.47828 13.67898
vt -12.38985 15.2145
vt -14.91177 15.2145
vt 1.994419 23.03164
vt -2.319374 21.83562
vt -3.697943 23.03164
vt -3.79387 21.57757
vt -2.547439 19.54865
vt -4.280896 14.19519
vt 2.577372 14.19519
vt -3.937237 19.4044
vt 15.47828 25.00868
vt 11.82333 25.00868
vt 14.91177 26.5442
vt 12.38985 26.5442
vt 12.67509 14.62173
vt 13.24161 16.15726
vt 16.33005 14.62173
vt 15.76353 16.15726
vt 0.9757156 29.73078
vt -2.67924 29.73078
vt 0.4091974 31.2663
vt -2.112722 31.2663
vt -0.4091974 10.49241
vt 2.112722 10.49241
vt -0.9757156 8.956883
vt 2.67924 8.956883
vt -12.67509 24.06593
vt -16.33005 24.06593
vt -13.24161 25.60145
vt -15.76353 25.60145
vt -11.56046 20.56463
vt -13.03496 20.82267
vt -11.65639 22.0187
vt -16.37747 22.0187
vt -17.9317 13.18224
vt -12.80689 18.5357
vt -11.41709 18.39146
vt -11.07343 13.18224
vt -17.67937 17.00705
vt 8.458331 -1.897743
vt 9.271323 -1.897743
vt 8.458331 -2.616135
vt 9.271323 -2.616135
vt 27.25527 13.58245
vt 26.91037 14.36967
vt 28.15679 13.97743
vt 27.81189 14.76465
vt -25.93297 17.04259
vt -26.84639 17.40923
vt -26.23866 18.18345
vt 7.602619 -11.20216
vt 8.864827 -12.00687
vt 8.175851 -19.07897
vt 9.553803 -19.07897
vt 10.12704 -11.20216
vt -10.06019 -15.0855
vt -8.864827 -15.809
vt -9.553803 -22.04373
vt -8.175851 -22.04373
vt -7.669467 -15.0855
vt 26.84639 17.40923
vt 25.93297 17.04259
vt 26.23866 18.18345
vt -0.309138 11.94898
vt -1.210662 12.34395
vt 0.03576009 12.7362
vt -0.865764 13.13118
vt 9.271323 11.17863
vt 9.553803 10.39123
vt 8.458331 11.17863
vt 8.175851 10.39123
vt -0.4552235 17.40923
vt -1.368641 17.04259
vt -1.062949 18.18345
vt -8.175851 14.3159
vt -9.553803 14.3159
vt -8.458331 15.14697
vt -9.271323 15.14697
vt 9.209315 30.415
vt 8.520339 30.415
vt 9.209315 31.39925
vt 8.520339 31.39925
vt -9.553803 31.86697
vt -9.271323 32.65437
vt -8.175851 31.86697
vt -8.458331 32.65437
vt -25.19766 17.25325
vt -25.50259 18.39431
vt -18.35854 18.63166
vt -18.01435 20.90405
vt 1.368641 17.04259
vt 0.4552235 17.40923
vt 1.062949 18.18345
vt 8.175851 16.3259
vt 9.553803 16.3259
vt 8.520339 15.53849
vt 9.209315 15.53849
vt -8.175851 6.156037
vt -8.520339 5.368636
vt -9.553803 6.156037
vt -9.209315 5.368636
vt -2.03649 17.21715
vt -8.875602 18.59555
vt -1.731554 18.35821
vt -9.219802 20.86795
vt -23.2426 13.58933
vt -23.75743 14.30026
vt -22.65772 14.38095
vt -23.33054 14.87805
vt 9.553803 4.717022
vt 8.175851 4.717022
vt 10.06019 11.67526
vt 8.864827 10.95175
vt 7.669467 11.67526
vt -9.209315 6.06248
vt -8.520339 6.06248
vt -9.209315 5.078228
vt -8.520339 5.078228
vt -8.458331 14.24122
vt -9.271323 14.24122
vt -8.458331 14.95962
vt -9.271323 14.95962
vt 8.175851 6.156037
vt 9.553803 6.156037
vt 8.520339 5.368636
vt 9.209315 5.368636
vt 8.175851 29.27046
vt 8.458331 30.10154
vt 9.553803 29.27046
vt 9.271323 30.10154
vt -3.032828 15.13531
vt -3.617711 15.92693
vt -2.517996 15.84625
vt -2.944894 16.42404
vt -2.542622 18.45806
vt -2.88752 19.24528
vt -1.641098 18.85303
vt -1.985996 19.64025
vt 0.7908396 16.88426
vt 0.4859032 18.02532
vt 7.629951 18.26267
vt 7.974151 20.53506
vt -8.175851 16.3259
vt -8.520339 15.53849
vt -9.553803 16.3259
vt -9.209315 15.53849
vt 26.44331 16.92036
vt 19.60419 18.29877
vt 26.74824 18.06142
vt 19.26 20.57116
vt 28.05779 17.147
vt 27.47291 17.93862
vt 28.57263 17.85793
vt 28.14573 18.43572
vt -24.40351 20.09153
vt -25.30503 20.48651
vt -24.05861 20.87875
vt -24.96013 21.27373
vt -8.175851 6.800232
vt -8.864827 13.87233
vt -7.602619 14.67704
vt -10.12704 14.67704
vt -9.553803 6.800232
vt -1.782364 18.69298
vt -2.297196 19.40391
vt -1.197481 19.4846
vt -1.870297 19.98171
vt 14.06319 24.70786
vt 13.23843 24.70786
vt 14.12278 25.76863
vt 13.17883 25.76863
vt 3.159389 25.26808
vt 3.266357 26.32512
vt 6.276511 24.72868
vt 6.430545 26.25082
vt -1.335751 23.91344
vt -4.452873 23.37404
vt -1.442719 24.97048
vt -4.606907 24.89618
vt 13.05698 -1.152957
vt 13.23843 2.005283
vt 14.24463 -1.152957
vt 14.06319 2.005283
vt -12.97116 -4.88278
vt -14.33045 -4.88278
vt -13.17883 -1.72454
vt -14.12278 -1.72454

usemtl snow
usemap snow

f 2/2/1 1/1/1 3/3/1
f 5/5/2 4/4/2 6/6/2
f 8/8/4 7/7/3 9/9/4
f 9/9/4 10/10/5 8/8/4
f 12/12/6 11/11/6 13/13/6
f 15/15/8 14/14/7 16/16/8
f 16/16/8 17/17/9 15/15/8
f 8/19/10 18/18/10 19/20/10
f 19/20/10 7/21/10 8/19/10
f 19/20/10 6/22/10 7/21/10
f 6/22/10 14/23/10 7/21/10
f 6/22/10 4/24/10 14/23/10
f 4/24/10 16/25/10 14/23/10
f 4/24/10 20/26/10 16/25/10
f 11/27/10 18/18/10 8/19/10
f 8/19/10 21/28/10 11/27/10
f 21/28/10 13/29/10 11/27/10
f 21/28/10 22/30/10 13/29/10
f 22/30/10 23/31/10 13/29/10
f 22/30/10 16/25/10 23/31/10
f 16/25/10 20/26/10 23/31/10
f 21/33/12 8/32/11 10/34/12
f 10/34/12 24/35/13 21/33/12
f 26/37/15 25/36/14 12/38/16
f 12/38/16 23/39/17 26/37/15
f 12/38/16 13/40/18 23/39/17
f 28/42/10 27/41/10 29/43/10
f 29/43/10 30/44/10 28/42/10
f 29/43/10 31/45/10 30/44/10
f 31/45/10 32/46/10 30/44/10
f 31/45/10 33/47/10 32/46/10
f 33/47/10 34/48/10 32/46/10
f 33/47/10 35/49/10 34/48/10
f 36/50/10 27/41/10 28/42/10
f 28/42/10 25/51/10 36/50/10
f 25/51/10 1/52/10 36/50/10
f 25/51/10 26/53/10 1/52/10
f 26/53/10 3/54/10 1/52/10
f 26/53/10 34/48/10 3/54/10
f 34/48/10 35/49/10 3/54/10
f 38/56/20 37/55/19 27/57/20
f 27/57/20 36/58/21 38/56/20
f 39/60/23 17/59/22 16/61/23
f 16/61/23 22/62/24 39/60/23
f 40/64/25 37/63/25 38/65/25
f 38/65/25 41/66/25 40/64/25
f 41/66/25 42/67/25 40/64/25
f 41/66/25 43/68/25 42/67/25
f 37/70/27 40/69/26 44/71/28
f 44/71/28 29/72/27 37/70/27
f 29/72/27 27/73/29 37/70/27
f 40/75/30 42/74/30 33/76/31
f 33/76/31 44/77/31 40/75/30
f 33/76/31 31/78/32 44/77/31
f 33/80/34 42/79/33 43/81/34
f 43/81/34 35/82/35 33/80/34
f 3/84/37 35/83/36 43/85/38
f 43/85/38 41/86/39 3/84/37
f 41/86/39 2/87/39 3/84/37
f 30/89/41 32/88/40 5/90/41
f 5/90/41 19/91/41 30/89/41
f 5/90/41 6/92/41 19/91/41
f 41/94/43 38/93/42 36/95/44
f 36/95/44 2/96/17 41/94/43
f 36/95/44 1/97/45 2/96/17
f 22/99/46 21/98/46 24/100/46
f 24/100/46 39/101/46 22/99/46
f 44/103/47 31/102/47 29/104/47
f 46/106/10 45/105/10 47/107/10
f 47/107/10 48/108/10 46/106/10
f 47/107/10 49/109/10 48/108/10
f 49/109/10 50/110/10 48/108/10
f 51/112/49 7/111/48 14/113/48
f 14/113/48 15/114/49 51/112/49
f 15/114/49 52/115/50 51/112/49
f 15/114/49 53/116/51 52/115/50
f 7/111/48 51/112/49 54/117/52
f 54/117/52 9/118/53 7/111/48
f 54/117/52 53/116/51 9/118/53
f 53/116/51 15/114/49 9/118/53
f 5/120/55 32/119/54 34/121/56
f 34/121/56 4/122/57 5/120/55
f 34/121/56 55/123/58 4/122/57
f 55/123/58 56/124/59 4/122/57
f 34/121/56 57/125/58 55/123/58
f 20/126/60 4/122/57 56/124/59
f 56/124/59 58/127/60 20/126/60
f 59/129/62 57/128/61 34/130/63
f 34/130/63 26/131/64 59/129/62
f 26/131/64 60/132/65 59/129/62
f 26/131/64 23/133/66 60/132/65
f 58/134/67 60/132/65 23/133/66
f 23/133/66 20/135/68 58/134/67
f 39/137/69 24/136/69 46/138/69
f 46/138/69 48/139/69 39/137/69
f 61/141/71 19/140/70 18/142/72
f 18/142/72 62/143/73 61/141/71
f 19/140/70 61/141/71 63/144/74
f 19/140/70 63/144/74 28/145/75
f 28/145/75 30/146/76 19/140/70
f 63/144/74 64/147/77 28/145/75
f 9/149/78 15/148/78 49/150/78
f 49/150/78 47/151/78 9/149/78
f 49/153/80 15/152/79 17/154/80
f 17/154/80 50/155/81 49/153/80
f 10/157/83 9/156/82 47/158/83
f 47/158/83 45/159/84 10/157/83
f 48/161/86 50/160/85 17/162/86
f 17/162/86 39/163/87 48/161/86
f 24/165/89 10/164/88 45/166/89
f 45/166/89 46/167/90 24/165/89
f 65/169/92 62/168/91 18/170/93
f 18/170/93 11/171/94 65/169/92
f 65/169/92 11/171/94 25/172/95
f 66/173/96 65/169/92 25/172/95
f 64/174/97 66/173/96 25/172/95
f 25/172/95 28/175/98 64/174/97
f 11/171/94 12/176/99 25/172/95

usemtl wood
usemap wood

f 68/178/100 67/177/100 69/179/100
f 69/179/100 70/180/100 68/178/100
f 72/182/101 71/181/101 73/183/101
f 73/183/101 74/184/101 72/182/101
f 76/186/103 75/185/102 77/187/104
f 58/189/105 56/188/105 78/190/105
f 78/190/105 77/191/105 58/189/105
f 60/192/105 58/189/105 77/191/105
f 57/194/107 59/193/106 75/195/107
f 57/194/107 75/195/107 72/196/108
f 72/196/108 55/197/107 57/194/107
f 72/199/110 74/198/109 78/200/111
f 80/202/112 79/201/112 81/203/112
f 81/203/112 82/204/112 80/202/112
f 84/206/114 83/205/113 85/207/114
f 85/207/114 86/208/114 84/206/114
f 88/210/116 87/209/115 84/211/117
f 87/213/118 82/212/118 89/214/118
f 89/214/118 90/215/119 87/213/118
f 71/217/120 91/216/120 92/218/120
f 92/218/120 73/219/120 71/217/120
f 68/221/121 77/220/121 78/222/121
f 78/222/121 67/223/121 68/221/121
f 77/225/104 75/224/102 59/226/122
f 59/226/122 60/227/123 77/225/104
f 82/229/125 81/228/124 86/230/126
f 88/232/127 81/231/127 79/233/127
f 79/233/127 93/234/127 88/232/127
f 71/236/128 72/235/128 75/237/128
f 75/237/128 91/238/128 71/236/128
f 66/240/129 88/239/116 84/241/117
f 84/241/117 65/242/130 66/240/129
f 70/244/131 76/243/103 77/245/104
f 77/245/104 68/246/132 70/244/131
f 81/248/134 88/247/133 66/249/134
f 66/249/134 64/250/134 81/248/134
f 81/248/134 64/250/134 63/251/135
f 80/253/136 94/252/136 93/254/136
f 93/254/136 79/255/136 80/253/136
f 90/257/137 89/256/137 85/258/137
f 85/258/137 83/259/137 90/257/137
f 76/261/138 74/260/138 73/262/138
f 73/262/138 92/263/138 76/261/138
f 69/265/139 74/264/139 76/266/139
f 76/266/139 70/267/139 69/265/139
f 84/269/117 87/268/115 90/270/140
f 90/270/140 83/271/141 84/269/117
f 88/273/142 93/272/142 94/274/142
f 94/274/142 87/275/142 88/273/142
f 86/277/126 81/276/124 63/278/143
f 63/278/143 61/279/144 86/277/126
f 80/281/145 82/280/145 87/282/145
f 87/282/145 94/283/145 80/281/145
f 55/285/146 72/284/110 78/286/111
f 78/286/111 56/287/147 55/285/146
f 78/289/111 74/288/109 69/290/148
f 69/290/148 67/291/149 78/289/111
f 92/293/150 91/292/150 75/294/150
f 75/294/150 76/295/150 92/293/150
f 62/297/152 86/296/151 61/298/153
f 86/296/151 62/297/152 65/299/151
f 65/299/151 84/300/154 86/296/151
f 89/302/155 82/301/125 86/303/126
f 86/303/126 85/304/156 89/302/155

usemtl carrot
usemap carrot

f 96/306/157 95/305/157 97/307/157
f 97/307/157 98/308/158 96/306/157
f 97/310/160 95/309/159 51/311/160
f 51/311/160 52/312/161 97/310/160
f 54/314/163 96/313/162 98/315/163
f 98/315/163 53/316/164 54/314/163
f 96/318/165 54/317/165 51/319/165
f 51/319/165 95/320/165 96/318/165
f 52/322/167 53/321/166 98/323/167
f 98/323/167 97/324/168 52/322/167
