# Exported using Kenney Suite 1.2 

mtllib trackStraight.mtl 

g trackStraight

v -1.624301E-14 0.14014 0.6314 
v -1.624301E-14 0 0.6314 
v -4.15099E-14 0.14014 0.8832639 
v -1.624301E-14 0 2.4486 
v -4.15099E-14 0.14014 1.063347 
v 0 0.14014 2.016654 
v 0 0.14014 2.196736 
v -1.624301E-14 0.14014 2.4486 
v -0.330792 0 2.4486 
v -0.330792 0.14014 2.4486 
v -0.330792 0 0.6314 
v -0.330792 0.14014 2.196736 
v -0.330792 0.14014 0.6314 
v -0.330792 0.14014 0.8832639 
v -0.330792 0.14014 1.063347 
v -0.330792 0.14014 2.016654 
v -2.749208 0.14014 2.196736 
v -2.749208 0.14014 2.4486 
v -3.08 0.14014 2.196736 
v -3.08 0.14014 2.4486 
v -3.08 0 0.6314 
v -2.749208 0 0.6314 
v -3.08 0.14014 0.6314 
v -2.749208 0.14014 0.6314 
v -2.749208 0.14014 0.8832639 
v -2.749208 0 2.4486 
v -2.749208 0.14014 1.063347 
v -2.749208 0.14014 2.016654 
v -3.08 0 2.4486 
v -1.209208 0.14014 2.196736 
v -1.209208 0.14014 2.4486 
v -1.870792 0.14014 2.196736 
v -1.870792 0.14014 2.4486 
v -1.209208 0.14014 1.063347 
v -1.209208 0.14014 2.016654 
v -1.870792 0.14014 1.063347 
v -1.870792 0.14014 2.016654 
v -3.08 0.14014 1.063347 
v -3.08 0.14014 2.016654 
v -3.08 0.14014 0.8832639 
v -1.870792 0 0.6314 
v -1.209208 0 0.6314 
v -1.870792 0.14014 0.6314 
v -1.209208 0.14014 0.6314 
v -1.209208 0.14014 0.8832639 
v -1.209208 0 2.4486 
v -1.870792 0 2.4486 
v -1.870792 0.14014 0.8832639 
v -3.08 0.2410408 2.016654 
v 0 0.2410408 2.016654 
v -4.15099E-14 0.2410408 0.8832639 
v -4.15099E-14 0.2410408 1.063347 
v -3.08 0.2410408 0.8832639 
v -3.08 0.2410408 1.063347 
v 0 0.2410408 2.196736 
v -3.08 0.2410408 2.196736 

vn 1 0 0
vn 0 0 1
vn 0 -1 0
vn 0 1 0
vn -1 0 0
vn 0 0 -1

vt -2.485827 0.5517323
vt -2.485827 2.372423E-27
vt -3.477417 0.5517323
vt -9.640158 4.333476E-27
vt -4.186404 0.5517323
vt -7.93958 0.5517323
vt -8.648567 0.5517323
vt -9.640158 0.5517323
vt -6.394885E-14 0
vt -1.302331 0
vt -6.394885E-14 0.5517323
vt -1.302331 0.5517323
vt -6.394885E-14 9.640158
vt -6.394885E-14 2.485827
vt -1.302331 9.640158
vt -1.302331 2.485827
vt -2.897331E-17 8.648567
vt 6.391987E-14 9.640158
vt 1.302331 8.648567
vt 1.302331 9.640158
vt 2.485827 0
vt 2.485827 0.5517323
vt 9.640158 0
vt 3.477417 0.5517323
vt 4.186404 0.5517323
vt 7.93958 0.5517323
vt 8.648567 0.5517323
vt 9.640158 0.5517323
vt 1.302331 0
vt 6.394885E-14 0
vt 1.302331 0.5517323
vt 6.394885E-14 0.5517323
vt 6.399231E-14 2.485827
vt 1.634683E-13 3.477417
vt 1.302331 2.485827
vt 1.302331 3.477417
vt 1.448665E-17 7.93958
vt 1.302331 7.93958
vt 1.634393E-13 4.186404
vt 1.302331 4.186404
vt 10.82365 8.648567
vt 10.82365 9.640158
vt 12.12598 8.648567
vt 12.12598 9.640158
vt 12.12598 0
vt 10.82365 0
vt 12.12598 0.5517323
vt 10.82365 0.5517323
vt -2.485827 -7.15542E-15
vt -9.640158 -7.15542E-15
vt -10.82365 9.640158
vt -10.82365 2.485827
vt -12.12598 9.640158
vt -12.12598 2.485827
vt 4.760662 8.648567
vt 4.760662 9.640158
vt 7.365323 8.648567
vt 7.365323 9.640158
vt 4.760662 4.186404
vt 4.760662 7.93958
vt 7.365323 4.186404
vt 7.365323 7.93958
vt 10.82365 4.186404
vt 10.82365 7.93958
vt 12.12598 4.186404
vt 12.12598 7.93958
vt 2.485827 1.603276E-13
vt 9.640158 1.603276E-13
vt -10.82365 0
vt -12.12598 0
vt -10.82365 0.5517323
vt -12.12598 0.5517323
vt 10.82365 2.485827
vt 10.82365 3.477417
vt 12.12598 2.485827
vt 12.12598 3.477417
vt 7.365323 0
vt 4.760662 0
vt 7.365323 0.5517323
vt 4.760662 0.5517323
vt -2.485827 0
vt -9.640158 0
vt 4.760662 2.485827
vt 4.760662 3.477417
vt 7.365323 2.485827
vt 7.365323 3.477417
vt -4.760662 0
vt -7.365323 0
vt -4.760662 0.5517323
vt -7.365323 0.5517323
vt 0 0.5517323
vt 12.12598 0.9489796
vt 0 0.9489796
vt 1.634248E-13 3.477417
vt 1.634248E-13 4.186404
vt 0 7.93958
vt 0 8.648567
vt 7.93958 0.9489796
vt 8.648567 0.9489796
vt -12.12598 0.9489796
vt -7.93958 0.9489796
vt -8.648567 0.9489796
vt -3.477417 0.9489796
vt -4.186404 0.9489796
vt -1.634248E-13 0.5517323
vt -1.634248E-13 0.9489796
vt 1.634122E-13 0.9489796
vt 1.634122E-13 0.5517323
vt 3.477417 0.9489796
vt 4.186404 0.9489796
vt -1.302331 4.186404
vt -1.302331 3.477417
vt -4.760662 4.186404
vt -4.760662 3.477417
vt -7.365323 8.648567
vt -7.365323 7.93958
vt -10.82365 8.648567
vt -10.82365 7.93958
vt -1.302331 8.648567
vt -1.302331 7.93958
vt -4.760662 8.648567
vt -4.760662 7.93958
vt -7.365323 4.186404
vt -7.365323 3.477417
vt -10.82365 4.186404
vt -10.82365 3.477417

usemtl wood
usemap wood

f 2/2/1 1/1/1 3/3/1
f 3/3/1 4/4/1 2/2/1
f 3/3/1 5/5/1 4/4/1
f 5/5/1 6/6/1 4/4/1
f 6/6/1 7/7/1 4/4/1
f 7/7/1 8/8/1 4/4/1
f 9/10/2 4/9/2 8/11/2
f 8/11/2 10/12/2 9/10/2
f 2/14/3 4/13/3 9/15/3
f 9/15/3 11/16/3 2/14/3
f 8/18/4 7/17/4 12/19/4
f 12/19/4 10/20/4 8/18/4
f 13/22/5 11/21/5 9/23/5
f 9/23/5 14/24/5 13/22/5
f 9/23/5 15/25/5 14/24/5
f 9/23/5 16/26/5 15/25/5
f 9/23/5 12/27/5 16/26/5
f 9/23/5 10/28/5 12/27/5
f 2/30/6 11/29/6 13/31/6
f 13/31/6 1/32/6 2/30/6
f 3/34/4 1/33/4 13/35/4
f 13/35/4 14/36/4 3/34/4
f 16/38/4 6/37/4 5/39/4
f 5/39/4 15/40/4 16/38/4
f 18/42/4 17/41/4 19/43/4
f 19/43/4 20/44/4 18/42/4
f 22/46/6 21/45/6 23/47/6
f 23/47/6 24/48/6 22/46/6
f 22/49/1 24/1/1 25/3/1
f 25/3/1 26/50/1 22/49/1
f 25/3/1 27/5/1 26/50/1
f 27/5/1 28/6/1 26/50/1
f 28/6/1 17/7/1 26/50/1
f 17/7/1 18/8/1 26/50/1
f 22/52/3 26/51/3 29/53/3
f 29/53/3 21/54/3 22/52/3
f 31/56/4 30/55/4 32/57/4
f 32/57/4 33/58/4 31/56/4
f 35/60/4 34/59/4 36/61/4
f 36/61/4 37/62/4 35/60/4
f 28/64/4 27/63/4 38/65/4
f 38/65/4 39/66/4 28/64/4
f 23/22/5 21/67/5 29/68/5
f 29/68/5 40/24/5 23/22/5
f 29/68/5 38/25/5 40/24/5
f 29/68/5 39/26/5 38/25/5
f 29/68/5 19/27/5 39/26/5
f 29/68/5 20/28/5 19/27/5
f 29/70/2 26/69/2 18/71/2
f 18/71/2 20/72/2 29/70/2
f 25/74/4 24/73/4 23/75/4
f 23/75/4 40/76/4 25/74/4
f 42/78/6 41/77/6 43/79/6
f 43/79/6 44/80/6 42/78/6
f 42/81/1 44/1/1 45/3/1
f 45/3/1 46/82/1 42/81/1
f 45/3/1 34/5/1 46/82/1
f 34/5/1 35/6/1 46/82/1
f 35/6/1 30/7/1 46/82/1
f 30/7/1 31/8/1 46/82/1
f 43/22/5 41/21/5 47/23/5
f 47/23/5 48/24/5 43/22/5
f 47/23/5 36/25/5 48/24/5
f 47/23/5 37/26/5 36/25/5
f 47/23/5 32/27/5 37/26/5
f 47/23/5 33/28/5 32/27/5
f 45/84/4 44/83/4 43/85/4
f 43/85/4 48/86/4 45/84/4
f 47/88/2 46/87/2 31/89/2
f 31/89/2 33/90/2 47/88/2

usemtl stone
usemap stone

f 35/80/4 37/79/4 28/48/4
f 28/48/4 16/31/4 35/80/4
f 28/48/4 39/47/4 16/31/4
f 39/47/4 6/91/4 16/31/4
f 39/47/6 49/92/6 6/91/6
f 49/92/6 50/93/6 6/91/6
f 52/95/4 51/94/4 53/76/4
f 53/76/4 54/65/4 52/95/4
f 55/97/4 50/96/4 49/66/4
f 49/66/4 56/43/4 55/97/4
f 49/98/5 39/26/5 19/27/5
f 19/27/5 56/99/5 49/98/5
f 32/90/4 30/89/4 12/12/4
f 12/12/4 17/71/4 32/90/4
f 12/12/4 7/91/4 17/71/4
f 7/91/4 19/72/4 17/71/4
f 7/91/2 55/93/2 19/72/2
f 55/93/2 56/100/2 19/72/2
f 6/6/1 50/101/1 55/102/1
f 55/102/1 7/7/1 6/6/1
f 3/3/1 51/103/1 52/104/1
f 52/104/1 5/5/1 3/3/1
f 15/12/2 5/105/2 52/106/2
f 52/106/2 34/89/2 15/12/2
f 52/106/2 36/90/2 34/89/2
f 36/90/2 52/106/2 54/100/2
f 27/71/2 36/90/2 54/100/2
f 54/100/2 38/72/2 27/71/2
f 25/48/6 40/47/6 53/92/6
f 53/92/6 48/79/6 25/48/6
f 53/92/6 45/80/6 48/79/6
f 45/80/6 53/92/6 51/107/6
f 14/31/6 45/80/6 51/107/6
f 51/107/6 3/108/6 14/31/6
f 53/109/5 40/24/5 38/25/5
f 38/25/5 54/110/5 53/109/5
f 14/112/3 15/111/3 34/113/3
f 34/113/3 45/114/3 14/112/3
f 37/116/3 32/115/3 17/117/3
f 17/117/3 28/118/3 37/116/3
f 16/120/3 12/119/3 30/121/3
f 30/121/3 35/122/3 16/120/3
f 48/124/3 36/123/3 27/125/3
f 27/125/3 25/126/3 48/124/3

usemtl _defaultMat
usemap _defaultMat

f 42/89/3 46/90/3 47/88/3
f 47/89/3 41/90/3 42/88/3
